<?xml version="1.0" encoding="UTF-8"?><svg xmlns="http://www.w3.org/2000/svg" xmlns:xlink="http://www.w3.org/1999/xlink" viewBox="0 0 16.67 16.67"><defs><style>.cls-1{fill:url(#linear-gradient);}.cls-2{mix-blend-mode:screen;}.cls-3{fill:url(#linear-gradient-3);}.cls-4{fill:url(#linear-gradient-2);}.cls-5{isolation:isolate;}</style><linearGradient id="linear-gradient" x1="-14.63" y1="36.05" x2="22.09" y2="-8.26" gradientUnits="userSpaceOnUse"><stop offset="0" stop-color="#ff001c"/><stop offset=".22" stop-color="#ff009d"/><stop offset=".27" stop-color="#f9039e"/><stop offset=".33" stop-color="#e80fa2"/><stop offset=".41" stop-color="#cc21a9"/><stop offset=".49" stop-color="#a53bb3"/><stop offset=".57" stop-color="#725dc0"/><stop offset=".66" stop-color="#3685cf"/><stop offset=".74" stop-color="#0ad"/><stop offset="1" stop-color="#ffd400"/></linearGradient><linearGradient id="linear-gradient-2" x1="-15.07" y1="35.69" x2="21.65" y2="-8.62" xlink:href="#linear-gradient"/><linearGradient id="linear-gradient-3" x1="-14.63" y1="36.06" x2="22.1" y2="-8.25" xlink:href="#linear-gradient"/></defs><g class="cls-5"><g id="Layer_2"><g id="Layer_1-2"><g><path class="cls-1" d="M8.34,0C3.73,0,0,3.73,0,8.34s3.73,8.34,8.34,8.34,8.34-3.73,8.34-8.34S12.94,0,8.34,0Zm-2.58,12.52V4.15l7.24,4.18-7.24,4.18Z"/><g class="cls-2"><polygon class="cls-4" points="5.49 4.42 5.49 12.78 12.74 8.6 12.64 8.54 5.76 12.52 5.76 4.57 5.49 4.42"/><path class="cls-3" d="M8.34,0C5.97,0,3.83,.99,2.31,2.58,3.81,1.15,5.84,.26,8.07,.26c4.6,0,8.34,3.73,8.34,8.34,0,2.23-.88,4.26-2.31,5.76,1.59-1.52,2.58-3.65,2.58-6.02C16.67,3.73,12.94,0,8.34,0Z"/></g></g></g></g></g></svg>