<svg width="36" height="42" viewBox="0 0 36 42" fill="none" xmlns="http://www.w3.org/2000/svg">
<path d="M12.375 0.875C10.85 0.875 9.38747 1.4808 8.30914 2.55914C7.2308 3.63747 6.625 5.10001 6.625 6.625V13.5279C7.51357 13.0134 8.48739 12.6628 9.5 12.4929V6.625C9.5 5.8625 9.8029 5.13124 10.3421 4.59207C10.8812 4.0529 11.6125 3.75 12.375 3.75H21V10.9375C21 12.0812 21.4544 13.1781 22.2631 13.9869C23.0719 14.7956 24.1688 15.25 25.3125 15.25H32.5V35.375C32.5 36.1375 32.1971 36.8688 31.6579 37.4079C31.1188 37.9471 30.3875 38.25 29.625 38.25H22.817C22.2392 39.3361 21.4539 40.2982 20.5055 41.0819L20.4537 41.125H29.625C31.15 41.125 32.6125 40.5192 33.6909 39.4409C34.7692 38.3625 35.375 36.9 35.375 35.375V13.5653C35.374 12.4219 34.919 11.3257 34.11 10.5178L25.7351 2.13713C25.3345 1.73673 24.8589 1.41919 24.3355 1.20263C23.8121 0.986074 23.2512 0.874744 22.6848 0.875H12.375ZM31.9049 12.375H25.3125C24.9313 12.375 24.5656 12.2235 24.296 11.954C24.0264 11.6844 23.875 11.3187 23.875 10.9375V4.34513L31.9049 12.375ZM16.6875 21C16.6875 22.525 16.0817 23.9875 15.0034 25.0659C13.925 26.1442 12.4625 26.75 10.9375 26.75C9.41251 26.75 7.94997 26.1442 6.87164 25.0659C5.7933 23.9875 5.1875 22.525 5.1875 21C5.1875 19.475 5.7933 18.0125 6.87164 16.9341C7.94997 15.8558 9.41251 15.25 10.9375 15.25C12.4625 15.25 13.925 15.8558 15.0034 16.9341C16.0817 18.0125 16.6875 19.475 16.6875 21V21ZM21 33.9375C21 37.5169 18.125 41.125 10.9375 41.125C3.75 41.125 0.875 37.5312 0.875 33.9375C0.875 32.7938 1.32935 31.6969 2.1381 30.8881C2.94685 30.0794 4.04375 29.625 5.1875 29.625H16.6875C17.8312 29.625 18.9281 30.0794 19.7369 30.8881C20.5456 31.6969 21 32.7938 21 33.9375V33.9375Z" fill="black"/>
</svg>
