<svg width="41" height="46" viewBox="0 0 41 46" fill="none" xmlns="http://www.w3.org/2000/svg">
<path d="M19.4152 36.6652C18.6516 37.5816 17.2859 37.5816 16.4414 36.6652L10.6914 30.9152C9.85586 30.1516 9.85586 28.7859 10.6914 27.9414C11.5359 27.1059 12.9016 27.1059 13.6652 27.9414L17.9688 32.173L26.5039 23.6289C27.3484 22.7934 28.7141 22.7934 29.4777 23.6289C30.3941 24.4734 30.3941 25.8391 29.4777 26.6027L19.4152 36.6652ZM11.5 0C12.6949 0 13.6562 0.96582 13.6562 2.15625V5.75H26.5938V2.15625C26.5938 0.96582 27.5551 0 28.75 0C29.9449 0 30.9062 0.96582 30.9062 2.15625V5.75H34.5C37.6715 5.75 40.25 8.32402 40.25 11.5V40.25C40.25 43.4215 37.6715 46 34.5 46H5.75C2.57402 46 0 43.4215 0 40.25V11.5C0 8.32402 2.57402 5.75 5.75 5.75H9.34375V2.15625C9.34375 0.96582 10.3051 0 11.5 0ZM35.9375 17.25H4.3125V40.25C4.3125 41.0406 4.95578 41.6875 5.75 41.6875H34.5C35.2906 41.6875 35.9375 41.0406 35.9375 40.25V17.25Z" fill="black"/>
</svg>
