<svg width="50" height="50" viewBox="0 0 50 50" fill="none" xmlns="http://www.w3.org/2000/svg">
<path d="M25 50C38.8071 50 50 38.8071 50 25C50 11.1929 38.8071 0 25 0C11.1929 0 0 11.1929 0 25C0 38.8071 11.1929 50 25 50Z" fill="#1BAE4D"/>
<path d="M13.8326 23.1561C15.5743 22.6761 16.597 20.875 16.117 19.1333C15.6369 17.3916 13.8358 16.3688 12.0941 16.8489C10.3524 17.329 9.32965 19.1301 9.80972 20.8718C10.2898 22.6135 12.0909 23.6362 13.8326 23.1561Z" fill="white"/>
<path d="M37.6542 23.214C39.4283 22.8724 40.5895 21.1573 40.2479 19.3833C39.9062 17.6092 38.1911 16.448 36.4171 16.7896C34.643 17.1313 33.4818 18.8464 33.8234 20.6204C34.1651 22.3945 35.8802 23.5557 37.6542 23.214Z" fill="white"/>
<path d="M32.9948 28.1997H17.0064C16.4828 28.1997 16.0766 28.6603 16.1326 29.1804C16.6212 33.6459 20.4055 37.1203 25.0006 37.1203C29.5958 37.1203 33.3801 33.6459 33.8687 29.1804C33.9264 28.6585 33.5202 28.1997 32.9948 28.1997V28.1997Z" fill="white"/>
<path d="M45.2996 18.7536C45.0807 18.0233 44.8215 17.3019 44.5203 16.5926C43.4521 14.0692 41.925 11.8031 39.9812 9.8593C38.0374 7.91547 35.7713 6.38844 33.2479 5.32021C30.6333 4.21346 27.8577 3.65308 24.998 3.65308C22.1383 3.65308 19.3644 4.21346 16.7482 5.32021C14.2247 6.38844 11.9586 7.91547 10.0148 9.8593C8.071 11.8031 6.54397 14.0692 5.47574 16.5926C5.17629 17.3019 4.91711 18.0216 4.69646 18.7536C3.59496 19.0058 2.77365 19.9917 2.77365 21.1685V28.5147C2.77365 29.8842 3.88391 30.9927 5.25159 30.9927C6.62102 30.9927 7.72952 29.8824 7.72952 28.5147V21.1685C7.72952 20.0915 7.04306 19.1756 6.0834 18.8342C6.26728 18.2545 6.47917 17.6819 6.71733 17.118C7.71726 14.7556 9.14624 12.6332 10.9675 10.8119C12.7887 8.99071 14.9094 7.55998 17.2735 6.5618C19.7217 5.52685 22.3204 5.00149 24.998 5.00149C27.6756 5.00149 30.2744 5.52685 32.7225 6.5618C35.0849 7.56173 37.2073 8.99071 39.0286 10.8119C40.8498 12.6332 42.2805 14.7539 43.2787 17.118C43.5169 17.6819 43.7288 18.2545 43.9126 18.8342C42.953 19.1756 42.2665 20.0915 42.2665 21.1685V28.5147C42.2665 29.6705 43.0581 30.6407 44.128 30.9156C43.9424 31.5023 43.727 32.0819 43.4853 32.6528C42.4749 35.0432 41.0284 37.1884 39.1862 39.0306C37.3439 40.8729 35.1987 42.3194 32.8083 43.3298C32.0396 43.6555 31.2568 43.9287 30.4617 44.1546C30.2218 43.8166 29.7998 43.6275 29.3637 43.7063L26.8876 44.1494C26.2851 44.2579 25.8841 44.8323 25.9927 45.4347C26.1013 46.0372 26.6757 46.4382 27.2781 46.3296L29.7543 45.8865C30.2078 45.806 30.5458 45.4593 30.6404 45.0372C31.4949 44.7991 32.3355 44.5049 33.1586 44.1564C35.6558 43.1004 37.8973 41.5891 39.8201 39.6646C41.7447 37.74 43.2542 35.4985 44.3119 33.003C44.5938 32.3358 44.839 31.6599 45.0492 30.9734C46.2732 30.8228 47.2206 29.7791 47.2206 28.5147V21.1685C47.2206 19.9899 46.3993 19.0058 45.2978 18.7536H45.2996Z" fill="white"/>
</svg>
