<svg width="1282" height="130" viewBox="0 0 1282 130" fill="none" xmlns="http://www.w3.org/2000/svg">
<rect width="626" height="90" fill="#3B3B3B"/>
<path d="M180.128 119.776V118.64H183.12V120.272H184.784V112.784H183.12V114.736H180.128V113.424H178.512V115.312H175.104V113.424H173.472V119.776H180.128ZM180.128 116H183.12V117.36H180.128V116ZM178.512 116.576V118.464H175.104V116.576H178.512ZM185.264 125.76H177.024V124.528H184.784V120.912H175.376V122.208H183.152V123.312H175.392V127.056H185.264V125.76ZM200.623 124.144H194.879V120.736H199.151V119.408H190.783V115.2H199.023V113.872H189.135V120.736H193.231V124.144H187.535V125.504H200.623V124.144ZM214.142 112.768H212.478V127.248H214.142V112.768ZM206.91 113.792C204.654 113.792 202.99 115.216 202.99 117.264C202.99 119.312 204.654 120.736 206.91 120.736C209.166 120.736 210.845 119.312 210.845 117.264C210.845 115.216 209.166 113.792 206.91 113.792ZM206.91 115.2C208.254 115.2 209.23 116 209.23 117.264C209.23 118.512 208.254 119.328 206.91 119.328C205.582 119.328 204.606 118.512 204.606 117.264C204.606 115.984 205.566 115.2 206.91 115.2ZM202.318 122.832L202.526 124.192C205.102 124.192 208.526 124.144 211.726 123.552L211.614 122.352C208.494 122.816 204.926 122.832 202.318 122.832ZM229.974 118.352L231.59 118.528C231.99 117.04 231.99 115.84 231.99 114.688V113.472H222.07V114.8H230.358C230.358 115.888 230.342 116.928 229.974 118.352ZM233.59 119.392H227.35V116.736H225.686V119.392H220.566V120.72H233.59V119.392ZM227.03 121.84C223.91 121.84 221.942 122.864 221.942 124.528C221.942 126.208 223.91 127.232 227.03 127.232C230.102 127.232 232.086 126.208 232.086 124.528C232.086 122.864 230.102 121.84 227.03 121.84ZM227.03 125.968C224.838 125.968 223.574 125.44 223.574 124.528C223.574 123.632 224.838 123.104 227.03 123.104C229.158 123.104 230.438 123.632 230.438 124.528C230.438 125.44 229.158 125.968 227.03 125.968ZM245.253 115.472V115.552C245.253 117.264 245.253 119.328 244.693 122.16L246.357 122.336C246.917 119.344 246.917 117.328 246.917 115.552V114.128H236.629V115.472H245.253ZM248.325 123.984H241.797V118.896H240.133V123.984H235.269V125.344H248.325V123.984ZM259.796 114.272V115.248H251.652V118.496H261.684V117.344H253.268V116.32H261.428V113.136H251.62V114.272H259.796ZM263.076 119.408H249.972V120.624H263.076V119.408ZM253.156 125.936V124.832H261.476V121.6H251.492V122.736H259.844V123.76H251.524V127.072H261.908V125.936H253.156ZM281.325 120.336H275.629V119.152H279.869V117.888H271.581V116.768H279.421V115.536H271.581V114.448H279.773V113.184H269.933V119.152H273.965V120.336H268.253V121.664H281.325V120.336ZM274.781 122.56C271.565 122.56 269.805 123.344 269.805 124.88C269.805 126.416 271.565 127.232 274.781 127.232C278.029 127.232 279.757 126.416 279.757 124.88C279.757 123.344 278.029 122.56 274.781 122.56ZM274.781 126C272.573 126 271.469 125.632 271.469 124.88C271.469 124.144 272.573 123.776 274.781 123.776C277.005 123.776 278.109 124.144 278.109 124.88C278.109 125.632 277.005 126 274.781 126ZM295.308 112.784H293.74V118.768H292.204V113.088H290.668V126.56H292.204V120.128H293.74V127.232H295.308V112.784ZM287.34 115.136V113.2H285.708V115.136H282.972V116.464H290.044V115.136H287.34ZM286.524 117.28C284.684 117.28 283.388 118.64 283.388 120.64C283.388 122.624 284.684 124 286.524 124C288.364 124 289.66 122.624 289.66 120.64C289.66 118.64 288.364 117.28 286.524 117.28ZM286.524 122.624C285.548 122.624 284.86 121.856 284.86 120.64C284.86 119.424 285.548 118.64 286.524 118.64C287.5 118.64 288.188 119.424 288.188 120.64C288.188 121.856 287.5 122.624 286.524 122.624ZM314.388 124.112H308.644V120.848H312.868V113.936H302.756V120.848H306.996V124.112H301.3V125.456H314.388V124.112ZM304.372 119.536V115.248H311.252V119.536H304.372ZM327.923 112.768H326.275V120.624H327.923V112.768ZM324.131 120.416L324.931 119.136C322.707 118.448 321.395 116.768 321.395 115.04V114.976H324.483V113.648H316.579V114.976H319.715V115.04C319.715 116.928 318.403 118.64 316.131 119.376L316.963 120.672C318.691 120.112 319.923 118.944 320.579 117.472C321.235 118.832 322.467 119.904 324.131 120.416ZM326.291 121.28V122.832H320.115V121.28H318.483V127.056H327.923V121.28H326.291ZM326.291 124.128V125.728H320.115V124.128H326.291ZM337.276 128.32L338.428 127.808C337.02 125.488 336.412 122.896 336.412 120.128C336.412 117.376 337.02 114.768 338.428 112.448L337.276 111.952C335.788 114.368 334.908 116.976 334.908 120.128C334.908 123.312 335.788 125.888 337.276 128.32ZM353.444 119.872V118.512H351.188V112.784H349.54V127.232H351.188V119.872H353.444ZM345.06 116.352V113.984H343.411V116.352C343.411 119.024 342.02 121.76 339.748 122.864L340.756 124.192C342.42 123.344 343.62 121.664 344.244 119.664C344.868 121.6 346.02 123.104 347.572 123.92L348.58 122.608C346.42 121.552 345.06 118.928 345.06 116.352ZM368.05 117.728V116.368H366.002V112.8H364.354V121.392H366.002V117.728H368.05ZM363.298 120.288L363.122 118.944C361.138 119.328 359.378 119.408 356.914 119.408V117.696H361.826V113.536H355.266V114.88H360.194V116.432H355.298V120.752H356.466C359.234 120.752 361.106 120.672 363.298 120.288ZM356.77 122.064V127.056H366.002V122.064H356.77ZM358.386 125.744V123.36H364.386V125.744H358.386ZM381.345 123.28V112.784H379.697V123.28H381.345ZM377.377 117.36C377.377 115.232 375.729 113.744 373.553 113.744C371.377 113.744 369.713 115.232 369.713 117.36C369.713 119.456 371.377 120.976 373.553 120.976C375.729 120.976 377.377 119.456 377.377 117.36ZM371.329 117.36C371.329 116.016 372.273 115.168 373.553 115.168C374.817 115.168 375.777 116.016 375.777 117.36C375.777 118.672 374.817 119.552 373.553 119.552C372.273 119.552 371.329 118.672 371.329 117.36ZM381.761 125.616H373.569V122.224H371.905V126.96H381.761V125.616ZM387.984 112.432L383.536 128.08H384.816L389.264 112.432H387.984ZM403.722 117.36V116H401.674V112.768H400.026V120.736H401.674V117.36H403.722ZM398.09 120.576L398.874 119.28C396.65 118.592 395.45 116.896 395.45 115.168V114.992H398.458V113.648H390.698V114.992H393.77V115.184C393.77 117.104 392.506 118.848 390.218 119.568L391.034 120.88C392.778 120.32 393.994 119.136 394.634 117.664C395.274 119.008 396.426 120.064 398.09 120.576ZM400.042 121.376V122.912H394.058V121.376H392.426V127.056H401.674V121.376H400.042ZM400.042 124.192V125.728H394.058V124.192H400.042ZM415.065 117.584L406.217 117.92L406.441 119.312L414.969 118.848C414.889 119.808 414.729 120.832 414.473 122.048L416.105 122.24C416.745 119.168 416.729 117.184 416.729 115.424V114.096H406.633V115.424H415.097C415.097 116.08 415.113 116.8 415.065 117.584ZM418.169 124.064H411.641V120.432H409.977V124.064H405.097V125.424H418.169V124.064ZM431.752 112.752H430.088V127.264H431.752V112.752ZM422.312 122.464V119.424H427.352V114.064H420.616V115.408H425.688V118.096H420.648V123.824H421.88C424.424 123.824 426.584 123.744 429.064 123.312L428.888 121.968C426.6 122.336 424.6 122.448 422.312 122.464ZM447.99 119.792V118.432H445.734V112.784H444.086V127.248H445.734V119.792H447.99ZM438.39 113.84C436.23 113.84 434.678 115.824 434.678 118.944C434.678 122.064 436.23 124.032 438.39 124.032C440.55 124.032 442.102 122.064 442.102 118.944C442.102 115.824 440.55 113.84 438.39 113.84ZM438.39 122.56C437.11 122.56 436.262 121.2 436.262 118.944C436.262 116.688 437.11 115.328 438.39 115.328C439.67 115.328 440.518 116.688 440.518 118.944C440.518 121.2 439.67 122.56 438.39 122.56ZM449.173 127.808L450.325 128.32C451.845 125.888 452.709 123.312 452.709 120.128C452.709 116.976 451.845 114.368 450.325 111.952L449.173 112.448C450.581 114.768 451.189 117.376 451.189 120.128C451.189 122.896 450.581 125.488 449.173 127.808Z" fill="black"/>
<rect x="656" width="626" height="90" fill="#3B3B3B"/>
<path d="M702.6 44.192C702.6 31.424 696.888 25.664 689.208 25.664C681.72 25.664 675.96 31.424 675.96 44.192C675.96 56.864 681.72 62.672 689.208 62.672C696.888 62.672 702.6 56.864 702.6 44.192ZM695.88 44.192C695.88 54.368 692.712 57.104 689.208 57.104C685.896 57.104 682.68 54.368 682.68 44.192C682.68 33.968 685.896 31.184 689.208 31.184C692.712 31.184 695.88 33.968 695.88 44.192ZM718.666 25.52C712.09 25.52 707.338 28.976 706.186 36.32L712.474 37.376C712.522 36.416 712.618 35.696 712.858 34.976C713.626 32.864 715.546 31.04 718.234 31.04C721.354 31.04 723.322 32.768 723.322 36.08C723.322 39.776 721.066 42.656 717.418 46.304L705.37 58.16V62H730.378V55.952H718.858C717.754 55.952 716.602 56 715.306 56.336L722.746 48.848C726.298 45.152 729.85 40.976 729.994 35.936C729.994 29.792 725.338 25.52 718.666 25.52Z" fill="white"/>
<rect x="275" y="7" width="75" height="75" rx="37.5" fill="#FF0000"/>
<rect x="932" y="7" width="75" height="75" rx="37.5" fill="#FF0000"/>
<path d="M273.84 40.48L278 40.896C278.8 37.824 278.832 35.36 278.832 33.024V30.592H258.416V33.92H274.608C274.608 35.872 274.512 37.792 273.84 40.48ZM281.968 42.464H269.488V37.312H265.264V42.464H255.44V45.792H281.968V42.464ZM268.528 47.648C262.192 47.648 258.096 49.76 258.096 53.216C258.096 56.64 262.192 58.752 268.528 58.752C274.896 58.752 278.992 56.64 278.992 53.216C278.992 49.76 274.896 47.648 268.528 47.648ZM268.528 55.584C264.528 55.584 262.288 54.784 262.288 53.216C262.288 51.584 264.528 50.816 268.528 50.816C272.528 50.816 274.8 51.584 274.8 53.216C274.8 54.784 272.528 55.584 268.528 55.584ZM310.062 29.28H306.03V40.384H303.406V30.048H299.47V57.504H303.406V43.776H306.03V58.752H310.062V29.28ZM297.55 32.928H285.934V36.288H293.39C292.878 42.016 290.318 46.368 284.43 49.792L286.894 52.736C295.118 47.936 297.55 41.184 297.55 32.928ZM339.755 29.248H335.755V40.544H333.355V29.728H329.419V57.408H333.355V44H335.755V58.72H339.755V29.248ZM323.403 38.144V37.664H328.075V34.24H323.403V30.24H319.403V34.24H314.699V37.664H319.403V38.144C319.403 42.688 317.899 47.552 313.707 49.952L316.075 53.12C318.763 51.616 320.459 49.024 321.451 45.952C322.507 48.768 324.139 51.072 326.827 52.448L329.067 49.312C324.907 47.104 323.403 42.592 323.403 38.144ZM370.313 43.264H364.265V39.744C366.441 38.752 367.689 37.312 367.689 35.392C367.689 31.872 363.529 29.728 357.001 29.728C350.505 29.728 346.345 31.872 346.345 35.392C346.345 37.28 347.465 38.72 349.673 39.712V43.264H343.689V46.592H370.313V43.264ZM357.001 32.928C361.128 32.928 363.337 33.728 363.337 35.392C363.337 37.024 361.128 37.824 357.001 37.824C353.001 37.824 350.697 37.024 350.697 35.392C350.697 33.728 353.001 32.928 357.001 32.928ZM353.897 43.264V40.8C354.857 40.928 355.881 40.992 357.001 40.992C358.121 40.992 359.113 40.928 360.041 40.832V43.264H353.897ZM356.937 48.064C350.569 48.064 346.729 49.984 346.729 53.408C346.729 56.864 350.569 58.784 356.937 58.784C363.305 58.784 367.177 56.864 367.177 53.408C367.177 49.984 363.305 48.064 356.937 48.064ZM356.937 55.584C352.969 55.584 350.985 54.848 350.985 53.408C350.985 51.904 352.937 51.264 356.937 51.264C360.937 51.264 362.889 51.904 362.889 53.408C362.889 54.848 360.905 55.584 356.937 55.584Z" fill="white"/>
<path d="M45.6 44.192C45.6 31.424 39.888 25.664 32.208 25.664C24.72 25.664 18.96 31.424 18.96 44.192C18.96 56.864 24.72 62.672 32.208 62.672C39.888 62.672 45.6 56.864 45.6 44.192ZM38.88 44.192C38.88 54.368 35.712 57.104 32.208 57.104C28.896 57.104 25.68 54.368 25.68 44.192C25.68 33.968 28.896 31.184 32.208 31.184C35.712 31.184 38.88 33.968 38.88 44.192ZM66.1778 26.096H60.5138L50.1458 35.024L53.9378 39.344L59.7938 34.016L59.6018 37.136V56.672H52.5938V62H72.3698V56.672H66.1778V26.096Z" fill="white"/>
<path d="M899.624 29.248H895.592V40.608H892.936V29.792H889V57.344H892.936V44.032H895.592V58.72H899.624V29.248ZM879.752 47.936V32.544H875.528V51.584H877.576C880.52 51.584 883.88 51.456 887.752 50.72L887.4 47.168C884.584 47.68 882.056 47.84 879.752 47.936ZM927.334 43.456V30.4H923.174V33.76H911.046V30.4H906.854V43.456H927.334ZM923.174 37.056V40.096H911.046V37.056H923.174ZM930.502 49.6V46.24H903.814V49.6H914.95V58.784H919.174V49.6H930.502ZM941.845 42.08L943.317 45.408C948.469 44.8 951.893 42.816 953.813 40.128C955.733 42.816 959.221 44.8 964.245 45.408L965.749 42.08C959.669 41.408 956.501 38.496 955.989 36H964.725V32.64H955.893V29.344H951.669V32.64H942.901V36H951.605C951.093 38.56 947.989 41.408 941.845 42.08ZM967.157 50.336V46.912H940.533V50.336H951.669V58.816H955.893V50.336H967.157ZM990.355 37.888H985.651V41.28H990.355V51.104H994.579V29.28H990.355V37.888ZM985.619 47.648L987.635 44.352C982.867 42.912 980.755 39.52 980.755 36.192V36.064H986.579V32.768H980.755V29.504H976.531V32.768H970.771V36.064H976.531V36.192C976.531 39.776 974.483 43.296 969.747 44.832L971.795 48.128C975.123 47.072 977.427 44.992 978.707 42.176C980.083 44.736 982.291 46.656 985.619 47.648ZM995.251 54.88H979.379V49.28H975.155V58.24H995.251V54.88ZM1032.13 29.248H1028.13V40.544H1025.73V29.728H1021.79V57.408H1025.73V44H1028.13V58.72H1032.13V29.248ZM1015.78 38.144V37.664H1020.45V34.24H1015.78V30.24H1011.78V34.24H1007.07V37.664H1011.78V38.144C1011.78 42.688 1010.27 47.552 1006.08 49.952L1008.45 53.12C1011.14 51.616 1012.83 49.024 1013.83 45.952C1014.88 48.768 1016.51 51.072 1019.2 52.448L1021.44 49.312C1017.28 47.104 1015.78 42.592 1015.78 38.144ZM1062.69 43.264H1056.64V39.744C1058.82 38.752 1060.06 37.312 1060.06 35.392C1060.06 31.872 1055.9 29.728 1049.38 29.728C1042.88 29.728 1038.72 31.872 1038.72 35.392C1038.72 37.28 1039.84 38.72 1042.05 39.712V43.264H1036.06V46.592H1062.69V43.264ZM1049.38 32.928C1053.5 32.928 1055.71 33.728 1055.71 35.392C1055.71 37.024 1053.5 37.824 1049.38 37.824C1045.38 37.824 1043.07 37.024 1043.07 35.392C1043.07 33.728 1045.38 32.928 1049.38 32.928ZM1046.27 43.264V40.8C1047.23 40.928 1048.26 40.992 1049.38 40.992C1050.5 40.992 1051.49 40.928 1052.42 40.832V43.264H1046.27ZM1049.31 48.064C1042.94 48.064 1039.1 49.984 1039.1 53.408C1039.1 56.864 1042.94 58.784 1049.31 58.784C1055.68 58.784 1059.55 56.864 1059.55 53.408C1059.55 49.984 1055.68 48.064 1049.31 48.064ZM1049.31 55.584C1045.34 55.584 1043.36 54.848 1043.36 53.408C1043.36 51.904 1045.31 51.264 1049.31 51.264C1053.31 51.264 1055.26 51.904 1055.26 53.408C1055.26 54.848 1053.28 55.584 1049.31 55.584Z" fill="white"/>
</svg>
