<svg width="1276" height="325" viewBox="0 0 1276 325" fill="none" xmlns="http://www.w3.org/2000/svg">
<path d="M60.0321 287.784H58.3681V302.232H60.0321V287.784ZM53.4721 291.96V290.584H56.6881V289.224H48.5921V290.584H51.8081V291.96C51.8081 294.408 50.3201 297.16 48.0801 298.168L49.0241 299.48C50.7201 298.68 52.0161 296.936 52.6561 294.936C53.3441 296.808 54.6241 298.36 56.3041 299.112L57.2161 297.816C54.9601 296.84 53.4721 294.376 53.4721 291.96ZM73.1829 296.264H70.3509V297.416H73.1829V298.76H74.8309V287.768H73.1829V296.264ZM67.4709 293.416C69.5829 293.416 71.0389 292.408 71.0389 290.872C71.0389 289.336 69.5829 288.328 67.4709 288.328C65.3589 288.328 63.8869 289.336 63.8869 290.872C63.8869 292.408 65.3589 293.416 67.4709 293.416ZM67.4709 289.544C68.6869 289.544 69.4709 290.056 69.4709 290.872C69.4709 291.688 68.6869 292.2 67.4709 292.2C66.2549 292.2 65.4549 291.688 65.4549 290.872C65.4549 290.056 66.2549 289.544 67.4709 289.544ZM66.8149 295.608V298.296H68.4629V295.512C69.6949 295.448 70.9589 295.304 72.1749 295.096L72.0469 293.912C68.9749 294.296 65.4389 294.344 62.7829 294.344L62.9909 295.688C64.1429 295.688 65.4069 295.672 66.8149 295.608ZM75.1669 300.616H66.3829V297.688H64.7349V301.96H75.1669V300.616ZM91.0216 294.84V293.48H88.7656V287.784H87.1176V302.232H88.7656V294.84H91.0216ZM82.6376 291.976V290.584H85.6936V289.224H77.8376V290.584H80.9896V291.976C80.9896 294.36 79.5336 297.096 77.3096 298.168L78.2536 299.48C79.9336 298.664 81.1976 296.936 81.8376 294.92C82.4936 296.792 83.7256 298.344 85.3416 299.112L86.2536 297.816C84.0616 296.792 82.6376 294.2 82.6376 291.976ZM104.188 287.768H102.524V302.248H104.188V287.768ZM96.9564 288.792C94.7004 288.792 93.0364 290.216 93.0364 292.264C93.0364 294.312 94.7004 295.736 96.9564 295.736C99.2124 295.736 100.892 294.312 100.892 292.264C100.892 290.216 99.2124 288.792 96.9564 288.792ZM96.9564 290.2C98.3004 290.2 99.2764 291 99.2764 292.264C99.2764 293.512 98.3004 294.328 96.9564 294.328C95.6284 294.328 94.6524 293.512 94.6524 292.264C94.6524 290.984 95.6124 290.2 96.9564 290.2ZM92.3644 297.832L92.5724 299.192C95.1484 299.192 98.5724 299.144 101.772 298.552L101.66 297.352C98.5404 297.816 94.9724 297.832 92.3644 297.832ZM122.501 287.784H120.853V295.544H122.501V287.784ZM114.709 288.44C112.485 288.44 110.869 289.816 110.869 291.8C110.869 293.784 112.485 295.16 114.709 295.16C116.917 295.16 118.533 293.784 118.533 291.8C118.533 289.816 116.917 288.44 114.709 288.44ZM114.709 289.8C116.005 289.8 116.933 290.584 116.933 291.8C116.933 293.016 116.005 293.8 114.709 293.8C113.365 293.8 112.485 293.016 112.485 291.8C112.485 290.584 113.365 289.8 114.709 289.8ZM114.693 296.216H113.061V302.056H122.501V296.216H120.869V297.816H114.693V296.216ZM114.693 300.728V299.096H120.869V300.728H114.693ZM138.756 294.872V293.512H136.5V287.784H134.852V302.232H136.5V294.872H138.756ZM130.372 291.352V288.984H128.724V291.352C128.724 294.024 127.332 296.76 125.06 297.864L126.068 299.192C127.732 298.344 128.932 296.664 129.556 294.664C130.18 296.6 131.332 298.104 132.884 298.92L133.892 297.608C131.732 296.552 130.372 293.928 130.372 291.352ZM155.501 287.784H153.837V302.232H155.501V287.784ZM148.941 291.96V290.584H152.157V289.224H144.061V290.584H147.277V291.96C147.277 294.408 145.789 297.16 143.549 298.168L144.493 299.48C146.189 298.68 147.485 296.936 148.125 294.936C148.813 296.808 150.093 298.36 151.773 299.112L152.685 297.816C150.429 296.84 148.941 294.376 148.941 291.96ZM168.652 296.264H165.82V297.416H168.652V298.76H170.3V287.768H168.652V296.264ZM162.94 293.416C165.052 293.416 166.508 292.408 166.508 290.872C166.508 289.336 165.052 288.328 162.94 288.328C160.828 288.328 159.356 289.336 159.356 290.872C159.356 292.408 160.828 293.416 162.94 293.416ZM162.94 289.544C164.156 289.544 164.94 290.056 164.94 290.872C164.94 291.688 164.156 292.2 162.94 292.2C161.724 292.2 160.924 291.688 160.924 290.872C160.924 290.056 161.724 289.544 162.94 289.544ZM162.284 295.608V298.296H163.932V295.512C165.164 295.448 166.428 295.304 167.644 295.096L167.516 293.912C164.444 294.296 160.908 294.344 158.252 294.344L158.46 295.688C159.612 295.688 160.876 295.672 162.284 295.608ZM170.636 300.616H161.852V297.688H160.204V301.96H170.636V300.616ZM185.05 287.752H183.386V292.504H180.298V293.848H183.386V302.248H185.05V287.752ZM178.282 291.336V288.952H176.618V291.336C176.618 294.04 175.21 296.824 172.954 297.928L173.994 299.24C175.658 298.392 176.826 296.728 177.466 294.664C178.09 296.6 179.226 298.184 180.89 299L181.866 297.672C179.642 296.648 178.282 294.008 178.282 291.336ZM197.577 289.272V290.248H189.433V293.496H199.465V292.344H191.049V291.32H199.209V288.136H189.401V289.272H197.577ZM200.857 294.408H187.753V295.624H200.857V294.408ZM190.937 300.936V299.832H199.257V296.6H189.273V297.736H197.625V298.76H189.305V302.072H199.689V300.936H190.937ZM98.3699 307.768H96.7219V311.368H93.8579V312.728H96.7219V315.96H98.3699V307.768ZM93.8259 308.648H87.2659V309.992H92.0499C91.7459 312.248 89.8899 313.96 86.4979 314.856L87.1699 316.168C91.3299 314.984 93.8259 312.408 93.8259 308.648ZM88.9619 316.552V322.056H98.3699V316.552H88.9619ZM90.5779 320.728V317.864H96.7539V320.728H90.5779ZM114.209 319.176H108.481V316.456H112.753V315.144H104.417V313.256H112.305V311.96H104.417V310.216H112.625V308.872H102.737V316.456H106.817V319.176H101.121V320.536H114.209V319.176ZM124.383 310.488V309.16H120.943V307.656H119.295V309.16H115.855V310.488H124.383ZM129.167 312.744V311.384H127.119V307.784H125.471V316.216H127.119V312.744H129.167ZM123.615 313.56C123.615 312.04 122.207 311.016 120.111 311.016C118.031 311.016 116.607 312.04 116.607 313.56C116.607 315.096 118.031 316.12 120.111 316.12C122.207 316.12 123.615 315.096 123.615 313.56ZM118.191 313.56C118.191 312.744 118.959 312.248 120.111 312.248C121.263 312.248 122.047 312.744 122.047 313.56C122.047 314.392 121.263 314.888 120.111 314.888C118.959 314.888 118.191 314.392 118.191 313.56ZM125.487 316.808V318.136H119.519V316.808H117.887V322.056H127.119V316.808H125.487ZM125.487 319.416V320.744H119.519V319.416H125.487ZM142.494 307.784H140.846V322.232H142.494V307.784ZM133.038 317.176V309.192H131.406V318.584H132.638C134.894 318.584 137.182 318.408 139.694 317.896L139.518 316.52C137.198 316.984 135.102 317.16 133.038 317.176ZM158.717 314.696V313.336H156.461V307.768H154.813V322.248H156.461V314.696H158.717ZM147.501 317.32V310.488H152.573V309.144H145.853V318.696H147.037C149.645 318.696 151.613 318.6 153.789 318.216L153.613 316.856C151.613 317.192 149.805 317.32 147.501 317.32ZM161.772 321.208V319.224H159.884V321.208H161.772Z" fill="black"/>
<rect y="17" width="248" height="248" rx="124" fill="#3B3B3B" fill-opacity="0.5"/>
<path d="M76.7755 131.41H73.6555V135.88C73.6555 140.95 71.0155 146.17 66.7855 148.24L68.7355 150.7C71.8255 149.11 74.0455 145.96 75.2455 142.12C76.4155 145.75 78.6055 148.72 81.6655 150.25L83.4955 147.76C79.3555 145.84 76.7755 140.92 76.7755 135.88V131.41ZM86.3455 129.16V138.07H80.5555V140.59H86.3455V156.34H89.4655V129.16H86.3455ZM113.043 135.22H97.5032V142.84H116.793V140.35H100.623V137.53H116.193V130.15H97.4432V132.64H113.043V135.22ZM119.103 145.24H94.5332V147.73H100.593V156.34H103.683V147.73H109.953V156.34H113.043V147.73H119.133L119.103 145.24ZM143.329 136.48V139.03H148.249V149.05H151.339V129.25H148.249V136.48H143.329ZM145.009 142.81C140.959 141.4 138.649 138.01 138.649 134.68V133.75H144.289V131.26H129.799V133.75H135.529V134.68C135.529 138.34 133.069 141.91 128.869 143.38L130.459 145.81C133.669 144.7 135.949 142.33 137.149 139.39C138.289 142.06 140.479 144.19 143.479 145.21L145.009 142.81ZM136.879 153.28V147.34H133.789V155.8H152.029V153.28H136.879ZM175.847 146.62H178.937V129.22H175.847V135.46H171.767V137.98H175.847V140.83H171.707V143.32H175.847V146.62ZM171.587 131.95H165.737V128.98H162.647V131.95H156.557V134.41H171.587V131.95ZM160.847 140.65C160.847 139 162.197 137.95 164.177 137.95C166.187 137.95 167.537 139 167.537 140.65C167.537 142.36 166.187 143.38 164.177 143.38C162.197 143.38 160.847 142.36 160.847 140.65ZM170.417 140.65C170.417 137.65 167.867 135.61 164.177 135.61C160.517 135.61 157.967 137.65 157.967 140.65C157.967 143.68 160.517 145.72 164.177 145.72C167.867 145.72 170.417 143.68 170.417 140.65ZM169.967 153.94C166.247 153.94 164.057 153.13 164.057 151.6C164.057 150.07 166.247 149.29 169.967 149.29C173.627 149.29 175.817 150.07 175.817 151.6C175.817 153.13 173.627 153.94 169.967 153.94ZM169.967 146.92C164.297 146.92 160.817 148.66 160.817 151.6C160.817 154.57 164.297 156.31 169.967 156.31C175.577 156.31 179.087 154.57 179.087 151.6C179.087 148.66 175.577 146.92 169.967 146.92Z" fill="white"/>
<rect x="333" y="17" width="248" height="248" rx="124" fill="#3B3B3B" fill-opacity="0.8"/>
<path d="M375.793 154H388.393V151.15H384.073V131.89H381.463C380.203 132.7 378.733 133.21 376.663 133.6V135.79H380.623V151.15H375.793V154ZM401.212 136.27H406.942V133.78H401.212V129.76H398.122V133.78H392.302V136.27H398.122V137.83C398.122 142.27 395.602 146.83 391.462 148.81L393.172 151.18C396.262 149.74 398.512 146.77 399.712 143.26C400.822 146.53 402.982 149.29 405.892 150.7L407.602 148.33C403.582 146.38 401.212 141.97 401.212 137.83V136.27ZM417.052 140.08H412.822V129.19H409.732V156.31H412.822V142.63H417.052V140.08ZM448.508 129.22H445.388V143.11H448.508V129.22ZM442.658 140.08C438.488 138.79 436.058 135.49 436.058 131.98V129.94H432.908V131.98C432.908 135.64 430.478 139.15 426.188 140.56L427.718 143.02C430.988 141.91 433.298 139.66 434.528 136.75C435.758 139.42 438.038 141.49 441.158 142.51L442.658 140.08ZM433.838 153.64V151.27H448.508V144.4H430.748V146.8H445.448V149.02H430.808V156.07H449.318V153.64H433.838ZM472.206 138.88H459.816V133.12H472.206V138.88ZM475.266 130.66H456.756V141.37H475.266V130.66ZM478.326 144.7H453.756V147.19H464.406V156.31H467.496V147.19H478.326V144.7ZM498.832 141.97H492.322V133.93H498.832V141.97ZM507.472 136.27V139.57H501.832V136.27H507.472ZM501.832 142.06H507.472V148.99H510.562V129.22H507.472V133.75H501.832V131.47H489.292V144.43H501.832V142.06ZM496.042 153.28V147.19H492.922V155.8H511.192V153.28H496.042ZM531.829 141.46C527.779 140.05 525.469 136.69 525.469 133.33V133.18H531.109V130.66H516.619V133.18H522.349V133.36C522.349 136.99 519.889 140.59 515.689 142.03L517.279 144.46C520.489 143.35 522.769 140.98 523.969 138.07C525.139 140.68 527.299 142.81 530.299 143.89L531.829 141.46ZM535.069 153.49H523.609V150.58H535.069V153.49ZM535.069 148.15H523.609V145.21H520.549V155.98H538.159V145.21H535.069V148.15ZM535.039 129.22V135.55H530.269V138.1H535.039V144.01H538.159V129.22H535.039Z" fill="white"/>
<path d="M390.855 287.752H389.191V292.504H386.103V293.848H389.191V302.248H390.855V287.752ZM384.087 291.336V288.952H382.423V291.336C382.423 294.04 381.015 296.824 378.759 297.928L379.799 299.24C381.463 298.392 382.631 296.728 383.271 294.664C383.895 296.6 385.031 298.184 386.695 299L387.671 297.672C385.447 296.648 384.087 294.008 384.087 291.336ZM403.43 289.608V290.984H395.142V295.048H405.43V293.72H396.806V292.216H405.11V288.28H395.11V289.608H403.43ZM406.678 297.656L406.662 296.328H393.558V297.656H396.79V302.248H398.438V297.656H401.782V302.248H403.43V297.656H406.678ZM422.191 291.656H419.567V293.016H422.191V298.36H423.839V287.8H422.191V291.656ZM419.647 296.312L420.463 295.032C418.287 294.264 417.071 292.472 417.071 290.696V290.2H420.079V288.872H412.351V290.2H415.407V290.696C415.407 292.632 414.095 294.568 411.855 295.336L412.703 296.632C414.431 296.04 415.631 294.808 416.271 293.208C416.895 294.632 418.047 295.752 419.647 296.312ZM424.207 300.616H416.127V297.448H414.479V301.96H424.207V300.616ZM434.637 290.552V289.24H431.517V287.656H429.869V289.24H426.621V290.552H434.637ZM436.909 295.304V297.064H438.557V287.784H436.909V291.112H434.733V292.456H436.909V293.976H434.701V295.304H436.909ZM434.013 293.88C434.013 292.28 432.669 291.192 430.701 291.192C428.717 291.192 427.373 292.28 427.373 293.88C427.373 295.496 428.717 296.584 430.701 296.584C432.669 296.584 434.013 295.496 434.013 293.88ZM428.909 293.88C428.909 292.984 429.613 292.44 430.701 292.44C431.789 292.44 432.477 292.984 432.477 293.88C432.477 294.792 431.789 295.336 430.701 295.336C429.613 295.336 428.909 294.792 428.909 293.88ZM433.773 297.224C430.749 297.224 428.893 298.136 428.893 299.72C428.893 301.304 430.749 302.232 433.773 302.232C436.781 302.232 438.637 301.304 438.637 299.72C438.637 298.136 436.781 297.224 433.773 297.224ZM433.773 300.968C431.773 300.968 430.621 300.536 430.621 299.72C430.621 298.904 431.773 298.488 433.773 298.488C435.773 298.488 436.893 298.904 436.893 299.72C436.893 300.536 435.773 300.968 433.773 300.968ZM453.43 290.488V289.16H449.99V287.656H448.342V289.16H444.902V290.488H453.43ZM458.214 292.744V291.384H456.166V287.784H454.518V296.216H456.166V292.744H458.214ZM452.662 293.56C452.662 292.04 451.254 291.016 449.158 291.016C447.078 291.016 445.654 292.04 445.654 293.56C445.654 295.096 447.078 296.12 449.158 296.12C451.254 296.12 452.662 295.096 452.662 293.56ZM447.238 293.56C447.238 292.744 448.006 292.248 449.158 292.248C450.31 292.248 451.094 292.744 451.094 293.56C451.094 294.392 450.31 294.888 449.158 294.888C448.006 294.888 447.238 294.392 447.238 293.56ZM454.534 296.808V298.136H448.566V296.808H446.934V302.056H456.166V296.808H454.534ZM454.534 299.416V300.744H448.566V299.416H454.534ZM471.573 287.768H469.925V290.248H467.045C467.157 289.784 467.205 289.256 467.205 288.728H460.549V290.056H465.445C465.141 292.312 463.221 294.072 459.781 294.968L460.421 296.28C463.605 295.448 465.685 293.832 466.645 291.576H469.925V293.304H466.421V294.648H469.925V296.392H471.573V287.768ZM461.829 297.016V298.328H469.925V302.2H471.573V297.016H461.829ZM487.764 294.84V293.48H485.508V287.784H483.86V302.232H485.508V294.84H487.764ZM479.38 291.976V290.584H482.436V289.224H474.58V290.584H477.732V291.976C477.732 294.36 476.276 297.096 474.052 298.168L474.996 299.48C476.676 298.664 477.94 296.936 478.58 294.92C479.236 296.792 480.468 298.344 482.084 299.112L482.996 297.816C480.804 296.792 479.38 294.2 479.38 291.976ZM501.379 287.784H499.811V302.216H501.379V287.784ZM496.915 288.056V293.256H495.363C495.187 290.552 494.035 288.904 492.291 288.904C490.435 288.904 489.187 290.856 489.187 294.024C489.187 297.176 490.435 299.16 492.291 299.16C494.019 299.16 495.251 297.432 495.379 294.616H496.915V301.544H498.451V288.056H496.915ZM492.291 297.608C491.267 297.608 490.691 296.344 490.691 294.024C490.691 291.704 491.267 290.456 492.291 290.456C493.315 290.456 493.891 291.704 493.891 294.024C493.891 296.344 493.315 297.608 492.291 297.608ZM515.883 290.744V289.432H512.443V287.768H510.795V289.432H507.355V290.744H515.883ZM520.667 292.392H518.619V287.784H516.971V298.616H518.619V293.752H520.667V292.392ZM515.115 294.152C515.115 292.536 513.691 291.416 511.611 291.416C509.547 291.416 508.107 292.536 508.107 294.152C508.107 295.816 509.547 296.888 511.611 296.888C513.691 296.888 515.115 295.816 515.115 294.152ZM509.691 294.152C509.691 293.24 510.459 292.696 511.611 292.696C512.763 292.696 513.547 293.24 513.547 294.152C513.547 295.064 512.763 295.608 511.611 295.608C510.459 295.608 509.691 295.064 509.691 294.152ZM511.131 300.616V297.784H509.467V301.96H519.195V300.616H511.131ZM534.362 287.784H532.794V293.768H531.258V288.088H529.722V301.56H531.258V295.128H532.794V302.232H534.362V287.784ZM526.394 290.136V288.2H524.762V290.136H522.026V291.464H529.098V290.136H526.394ZM525.578 292.28C523.738 292.28 522.442 293.64 522.442 295.64C522.442 297.624 523.738 299 525.578 299C527.418 299 528.714 297.624 528.714 295.64C528.714 293.64 527.418 292.28 525.578 292.28ZM525.578 297.624C524.602 297.624 523.914 296.856 523.914 295.64C523.914 294.424 524.602 293.64 525.578 293.64C526.554 293.64 527.242 294.424 527.242 295.64C527.242 296.856 526.554 297.624 525.578 297.624ZM342.444 314.872V313.512H340.188V307.784H338.54V322.232H340.188V314.872H342.444ZM334.06 311.352V308.984H332.411V311.352C332.411 314.024 331.02 316.76 328.748 317.864L329.756 319.192C331.42 318.344 332.62 316.664 333.244 314.664C333.868 316.6 335.02 318.104 336.572 318.92L337.58 317.608C335.42 316.552 334.06 313.928 334.06 311.352ZM355.69 307.784H354.042V311.112H351.37C351.066 309.496 349.546 308.424 347.69 308.424C345.53 308.424 343.914 309.816 343.914 311.8C343.914 313.8 345.53 315.192 347.69 315.192C349.61 315.192 351.066 314.072 351.37 312.456H354.042V315.528H355.69V307.784ZM347.69 313.832C346.41 313.832 345.498 313.016 345.498 311.8C345.498 310.568 346.41 309.784 347.69 309.784C348.97 309.784 349.866 310.568 349.866 311.8C349.866 313.016 348.922 313.832 347.69 313.832ZM354.058 316.216V317.848H347.93V316.216H346.298V322.056H355.69V316.216H354.058ZM354.058 319.128V320.728H347.93V319.128H354.058ZM373.491 314.664V308.344H371.843V310.168H365.235V308.344H363.587V314.664H373.491ZM371.843 311.496V313.336H365.235V311.496H371.843ZM375.107 317.56V316.232H362.003V317.56H367.683V322.248H369.331V317.56H375.107ZM390.066 311.304H388.018V307.784H386.37V316.424H388.018V312.664H390.066V311.304ZM384.418 315.864L385.218 314.584C383.01 313.864 381.81 312.216 381.81 310.408V310.136H384.834V308.808H377.074V310.136H380.146V310.424C380.146 312.392 378.882 314.264 376.61 315.032L377.442 316.328C379.17 315.736 380.386 314.504 381.026 312.968C381.65 314.312 382.802 315.352 384.418 315.864ZM383.362 316.76C380.386 316.76 378.546 317.768 378.546 319.496C378.546 321.224 380.386 322.232 383.362 322.232C386.338 322.232 388.178 321.224 388.178 319.496C388.178 317.768 386.338 316.76 383.362 316.76ZM383.362 320.936C381.298 320.936 380.178 320.456 380.178 319.496C380.178 318.536 381.298 318.056 383.362 318.056C385.426 318.056 386.546 318.536 386.546 319.496C386.546 320.456 385.426 320.936 383.362 320.936ZM406.939 316.024V307.768H405.275V316.024H406.939ZM402.619 314.68V308.68H395.771V314.68H402.619ZM401.019 309.992V313.368H397.387V309.992H401.019ZM403.083 318.184H407.211V316.92H403.067V315.624H401.387V316.92H397.243V318.184H401.387C401.259 319.4 399.387 320.696 396.683 320.952L397.227 322.2C399.547 321.928 401.339 321.032 402.235 319.752C403.131 321.032 404.875 321.928 407.195 322.2L407.739 320.952C405.067 320.648 403.211 319.384 403.083 318.184ZM425.236 307.8H423.588V316.024H425.236V307.8ZM417.444 308.504C415.22 308.504 413.604 309.896 413.604 311.912C413.604 313.928 415.22 315.32 417.444 315.32C419.652 315.32 421.268 313.928 421.268 311.912C421.268 309.896 419.652 308.504 417.444 308.504ZM417.444 309.864C418.724 309.864 419.668 310.68 419.668 311.912C419.668 313.16 418.724 313.96 417.444 313.96C416.148 313.96 415.22 313.192 415.22 311.912C415.22 310.68 416.148 309.864 417.444 309.864ZM425.236 316.744H415.78V322.056H425.236V316.744ZM417.396 318.056H423.62V320.744H417.396V318.056ZM438.37 316.264H435.538V317.416H438.37V318.76H440.018V307.768H438.37V316.264ZM432.658 313.416C434.77 313.416 436.226 312.408 436.226 310.872C436.226 309.336 434.77 308.328 432.658 308.328C430.546 308.328 429.074 309.336 429.074 310.872C429.074 312.408 430.546 313.416 432.658 313.416ZM432.658 309.544C433.874 309.544 434.658 310.056 434.658 310.872C434.658 311.688 433.874 312.2 432.658 312.2C431.442 312.2 430.642 311.688 430.642 310.872C430.642 310.056 431.442 309.544 432.658 309.544ZM432.002 315.608V318.296H433.65V315.512C434.882 315.448 436.146 315.304 437.362 315.096L437.234 313.912C434.162 314.296 430.626 314.344 427.97 314.344L428.178 315.688C429.33 315.688 430.594 315.672 432.002 315.608ZM440.354 320.616H431.57V317.688H429.922V321.96H440.354V320.616ZM454.673 318.312V307.8H453.025V318.312H454.673ZM450.849 316.376L451.681 315.08C449.457 314.36 448.145 312.616 448.145 310.76V310.232H451.233V308.904H443.329V310.232H446.465V310.76C446.465 312.696 445.169 314.584 442.881 315.352L443.745 316.632C445.473 316.056 446.689 314.824 447.329 313.288C447.969 314.712 449.185 315.816 450.849 316.376ZM455.089 320.616H446.897V317.352H445.233V321.96H455.089V320.616ZM468.378 315.896V314.632H471.386V318.328H473.034V307.784H471.386V310.2H468.378V308.984H461.69V315.896H468.378ZM466.778 310.296V314.584H463.306V310.296H466.778ZM468.378 311.544H471.386V313.304H468.378V311.544ZM473.37 320.616H465.29V317.368H463.626V321.96H473.37V320.616ZM487.753 307.784H486.089V311.16H483.545V312.52H486.089V315.672H487.753V307.784ZM483.561 315.608L484.377 314.312C482.201 313.544 480.985 311.784 480.985 309.976V309.896H483.993V308.552H476.265V309.896H479.321V309.992C479.321 311.928 478.009 313.848 475.769 314.616L476.617 315.912C478.345 315.32 479.545 314.056 480.185 312.504C480.809 313.912 481.961 315.032 483.561 315.608ZM486.105 316.312V317.88H479.993V316.312H478.361V322.056H487.753V316.312H486.105ZM486.105 319.176V320.728H479.993V319.176H486.105ZM497.032 312.984C500.344 312.984 502.184 312.104 502.184 310.504C502.184 308.888 500.344 308.008 497.032 308.008C493.704 308.008 491.88 308.888 491.88 310.504C491.88 312.104 493.704 312.984 497.032 312.984ZM497.032 309.24C499.288 309.24 500.472 309.672 500.472 310.504C500.472 311.32 499.288 311.752 497.032 311.752C494.776 311.752 493.592 311.32 493.592 310.504C493.592 309.672 494.776 309.24 497.032 309.24ZM503.576 313.832H490.488V315.144H503.576V313.832ZM493.704 320.84V319.64H501.928V316.184H492.039V317.432H500.312V318.472H492.072V322.104H502.344V320.84H493.704ZM520.704 318.312V307.8H519.056V318.312H520.704ZM516.88 316.376L517.712 315.08C515.488 314.36 514.176 312.616 514.176 310.76V310.232H517.264V308.904H509.36V310.232H512.496V310.76C512.496 312.696 511.2 314.584 508.912 315.352L509.776 316.632C511.504 316.056 512.72 314.824 513.36 313.288C514 314.712 515.216 315.816 516.88 316.376ZM521.12 320.616H512.928V317.352H511.264V321.96H521.12V320.616ZM532.671 316.408V312.904H534.175V316.888H535.743V307.768H534.175V311.544H532.671V308.04H531.135V316.408H532.671ZM530.639 310.696V309.4H527.855V307.912H526.239V309.4H523.439V310.696H530.639ZM530.159 313.816C530.159 312.344 528.879 311.32 527.055 311.32C525.263 311.32 523.967 312.344 523.967 313.816C523.967 315.32 525.263 316.312 527.055 316.312C528.879 316.312 530.159 315.32 530.159 313.816ZM525.439 313.816C525.439 313.032 526.079 312.52 527.055 312.52C528.015 312.52 528.687 313.032 528.687 313.816C528.687 314.6 528.015 315.112 527.055 315.112C526.079 315.112 525.439 314.6 525.439 313.816ZM530.943 317.096C527.807 317.096 526.047 317.992 526.047 319.656C526.047 321.32 527.807 322.232 530.943 322.232C534.079 322.232 535.823 321.32 535.823 319.656C535.823 317.992 534.079 317.096 530.943 317.096ZM530.943 320.984C528.879 320.984 527.695 320.552 527.695 319.656C527.695 318.76 528.879 318.344 530.943 318.344C533.103 318.344 534.175 318.776 534.175 319.656C534.175 320.536 533.103 320.984 530.943 320.984ZM546.782 310.488V309.16H543.342V307.656H541.694V309.16H538.254V310.488H546.782ZM551.566 312.744V311.384H549.518V307.784H547.87V316.216H549.518V312.744H551.566ZM546.014 313.56C546.014 312.04 544.606 311.016 542.51 311.016C540.43 311.016 539.006 312.04 539.006 313.56C539.006 315.096 540.43 316.12 542.51 316.12C544.606 316.12 546.014 315.096 546.014 313.56ZM540.59 313.56C540.59 312.744 541.358 312.248 542.51 312.248C543.662 312.248 544.446 312.744 544.446 313.56C544.446 314.392 543.662 314.888 542.51 314.888C541.358 314.888 540.59 314.392 540.59 313.56ZM547.886 316.808V318.136H541.918V316.808H540.286V322.056H549.518V316.808H547.886ZM547.886 319.416V320.744H541.918V319.416H547.886ZM564.893 307.784H563.245V322.232H564.893V307.784ZM555.437 317.176V309.192H553.805V318.584H555.037C557.293 318.584 559.581 318.408 562.093 317.896L561.917 316.52C559.597 316.984 557.501 317.16 555.437 317.176ZM581.115 314.696V313.336H578.859V307.768H577.211V322.248H578.859V314.696H581.115ZM569.899 317.32V310.488H574.971V309.144H568.251V318.696H569.435C572.043 318.696 574.011 318.6 576.187 318.216L576.011 316.856C574.011 317.192 572.203 317.32 569.899 317.32ZM584.17 321.208V319.224H582.282V321.208H584.17Z" fill="black"/>
<rect x="666" y="17" width="248" height="248" rx="124" fill="#3B3B3B"/>
<path d="M707.533 154H721.783V151.06H716.263C715.183 151.06 713.803 151.15 712.663 151.27C717.343 146.8 720.733 142.39 720.733 138.13C720.733 134.14 718.123 131.5 714.073 131.5C711.193 131.5 709.243 132.73 707.353 134.8L709.303 136.72C710.473 135.37 711.913 134.26 713.653 134.26C716.143 134.26 717.403 135.91 717.403 138.31C717.403 141.94 714.043 146.23 707.533 151.99V154ZM734.212 136.27H739.942V133.78H734.212V129.76H731.122V133.78H725.302V136.27H731.122V137.83C731.122 142.27 728.602 146.83 724.462 148.81L726.172 151.18C729.262 149.74 731.512 146.77 732.712 143.26C733.822 146.53 735.982 149.29 738.892 150.7L740.602 148.33C736.582 146.38 734.212 141.97 734.212 137.83V136.27ZM750.052 140.08H745.822V129.19H742.732V156.31H745.822V142.63H750.052V140.08ZM778.418 129.25V144.67H781.508V129.25H778.418ZM763.778 146.02V155.98H781.508V146.02H763.778ZM778.478 148.48V153.52H766.808V148.48H778.478ZM766.898 130.57C762.758 130.57 759.698 133.18 759.698 136.96C759.698 140.74 762.758 143.35 766.898 143.35C771.038 143.35 774.068 140.74 774.068 136.96C774.068 133.18 771.038 130.57 766.898 130.57ZM766.898 133.12C769.298 133.12 771.068 134.65 771.068 136.96C771.068 139.3 769.298 140.8 766.898 140.8C764.468 140.8 762.728 139.3 762.728 136.96C762.728 134.65 764.468 133.12 766.898 133.12ZM800.826 145.12V147.28H806.136V149.8H809.226V129.19H806.136V145.12H800.826ZM795.426 132.52C797.646 132.52 799.176 133.48 799.176 135.01C799.176 136.54 797.646 137.5 795.426 137.5C793.176 137.5 791.646 136.54 791.646 135.01C791.646 133.48 793.176 132.52 795.426 132.52ZM795.426 139.78C799.386 139.78 802.116 137.89 802.116 135.01C802.116 132.13 799.386 130.24 795.426 130.24C791.436 130.24 788.706 132.13 788.706 135.01C788.706 137.89 791.436 139.78 795.426 139.78ZM794.196 148.93H797.286V143.71C799.596 143.56 801.966 143.32 804.246 142.93L804.006 140.71C798.276 141.43 791.616 141.49 786.636 141.52L787.026 144.04C789.186 144.04 791.616 144.01 794.196 143.89V148.93ZM793.386 153.28V147.79H790.296V155.8H809.856V153.28H793.386ZM831.832 141.97H825.322V133.93H831.832V141.97ZM840.472 136.27V139.57H834.832V136.27H840.472ZM834.832 142.06H840.472V148.99H843.562V129.22H840.472V133.75H834.832V131.47H822.292V144.43H834.832V142.06ZM829.042 153.28V147.19H825.922V155.8H844.192V153.28H829.042ZM864.829 141.46C860.779 140.05 858.469 136.69 858.469 133.33V133.18H864.109V130.66H849.619V133.18H855.349V133.36C855.349 136.99 852.889 140.59 848.689 142.03L850.279 144.46C853.489 143.35 855.769 140.98 856.969 138.07C858.139 140.68 860.299 142.81 863.299 143.89L864.829 141.46ZM868.069 153.49H856.609V150.58H868.069V153.49ZM868.069 148.15H856.609V145.21H853.549V155.98H871.159V145.21H868.069V148.15ZM868.039 129.22V135.55H863.269V138.1H868.039V144.01H871.159V129.22H868.039Z" fill="white"/>
<path d="M719.167 295.896V294.632H722.175V298.328H723.823V287.784H722.175V290.2H719.167V288.984H712.479V295.896H719.167ZM717.567 290.296V294.584H714.095V290.296H717.567ZM719.167 291.544H722.175V293.304H719.167V291.544ZM724.159 300.616H716.079V297.368H714.415V301.96H724.159V300.616ZM738.542 287.784H736.878V291.16H734.334V292.52H736.878V295.672H738.542V287.784ZM734.35 295.608L735.166 294.312C732.99 293.544 731.774 291.784 731.774 289.976V289.896H734.782V288.552H727.054V289.896H730.11V289.992C730.11 291.928 728.798 293.848 726.558 294.616L727.406 295.912C729.134 295.32 730.334 294.056 730.974 292.504C731.598 293.912 732.75 295.032 734.35 295.608ZM736.894 296.312V297.88H730.782V296.312H729.15V302.056H738.542V296.312H736.894ZM736.894 299.176V300.728H730.782V299.176H736.894ZM755.191 291.656H752.567V293.016H755.191V298.36H756.839V287.8H755.191V291.656ZM752.647 296.312L753.463 295.032C751.287 294.264 750.071 292.472 750.071 290.696V290.2H753.079V288.872H745.351V290.2H748.407V290.696C748.407 292.632 747.095 294.568 744.855 295.336L745.703 296.632C747.431 296.04 748.631 294.808 749.271 293.208C749.895 294.632 751.047 295.752 752.647 296.312ZM757.207 300.616H749.127V297.448H747.479V301.96H757.207V300.616ZM767.637 290.552V289.24H764.517V287.656H762.869V289.24H759.621V290.552H767.637ZM769.909 295.304V297.064H771.557V287.784H769.909V291.112H767.733V292.456H769.909V293.976H767.701V295.304H769.909ZM767.013 293.88C767.013 292.28 765.669 291.192 763.701 291.192C761.717 291.192 760.373 292.28 760.373 293.88C760.373 295.496 761.717 296.584 763.701 296.584C765.669 296.584 767.013 295.496 767.013 293.88ZM761.909 293.88C761.909 292.984 762.613 292.44 763.701 292.44C764.789 292.44 765.477 292.984 765.477 293.88C765.477 294.792 764.789 295.336 763.701 295.336C762.613 295.336 761.909 294.792 761.909 293.88ZM766.773 297.224C763.749 297.224 761.893 298.136 761.893 299.72C761.893 301.304 763.749 302.232 766.773 302.232C769.781 302.232 771.637 301.304 771.637 299.72C771.637 298.136 769.781 297.224 766.773 297.224ZM766.773 300.968C764.773 300.968 763.621 300.536 763.621 299.72C763.621 298.904 764.773 298.488 766.773 298.488C768.773 298.488 769.893 298.904 769.893 299.72C769.893 300.536 768.773 300.968 766.773 300.968ZM786.43 290.488V289.16H782.99V287.656H781.342V289.16H777.902V290.488H786.43ZM791.214 292.744V291.384H789.166V287.784H787.518V296.216H789.166V292.744H791.214ZM785.662 293.56C785.662 292.04 784.254 291.016 782.158 291.016C780.078 291.016 778.654 292.04 778.654 293.56C778.654 295.096 780.078 296.12 782.158 296.12C784.254 296.12 785.662 295.096 785.662 293.56ZM780.238 293.56C780.238 292.744 781.006 292.248 782.158 292.248C783.31 292.248 784.094 292.744 784.094 293.56C784.094 294.392 783.31 294.888 782.158 294.888C781.006 294.888 780.238 294.392 780.238 293.56ZM787.534 296.808V298.136H781.566V296.808H779.934V302.056H789.166V296.808H787.534ZM787.534 299.416V300.744H781.566V299.416H787.534ZM804.573 287.768H802.925V290.248H800.045C800.157 289.784 800.205 289.256 800.205 288.728H793.549V290.056H798.445C798.141 292.312 796.221 294.072 792.781 294.968L793.421 296.28C796.605 295.448 798.685 293.832 799.645 291.576H802.925V293.304H799.421V294.648H802.925V296.392H804.573V287.768ZM794.829 297.016V298.328H802.925V302.2H804.573V297.016H794.829ZM820.764 294.84V293.48H818.508V287.784H816.86V302.232H818.508V294.84H820.764ZM812.38 291.976V290.584H815.436V289.224H807.58V290.584H810.732V291.976C810.732 294.36 809.276 297.096 807.052 298.168L807.996 299.48C809.676 298.664 810.94 296.936 811.58 294.92C812.236 296.792 813.468 298.344 815.084 299.112L815.996 297.816C813.804 296.792 812.38 294.2 812.38 291.976ZM834.379 287.784H832.811V302.216H834.379V287.784ZM829.915 288.056V293.256H828.363C828.187 290.552 827.035 288.904 825.291 288.904C823.435 288.904 822.187 290.856 822.187 294.024C822.187 297.176 823.435 299.16 825.291 299.16C827.019 299.16 828.251 297.432 828.379 294.616H829.915V301.544H831.451V288.056H829.915ZM825.291 297.608C824.267 297.608 823.691 296.344 823.691 294.024C823.691 291.704 824.267 290.456 825.291 290.456C826.315 290.456 826.891 291.704 826.891 294.024C826.891 296.344 826.315 297.608 825.291 297.608ZM848.883 290.744V289.432H845.443V287.768H843.795V289.432H840.355V290.744H848.883ZM853.667 292.392H851.619V287.784H849.971V298.616H851.619V293.752H853.667V292.392ZM848.115 294.152C848.115 292.536 846.691 291.416 844.611 291.416C842.547 291.416 841.107 292.536 841.107 294.152C841.107 295.816 842.547 296.888 844.611 296.888C846.691 296.888 848.115 295.816 848.115 294.152ZM842.691 294.152C842.691 293.24 843.459 292.696 844.611 292.696C845.763 292.696 846.547 293.24 846.547 294.152C846.547 295.064 845.763 295.608 844.611 295.608C843.459 295.608 842.691 295.064 842.691 294.152ZM844.131 300.616V297.784H842.467V301.96H852.195V300.616H844.131ZM867.362 287.784H865.794V293.768H864.258V288.088H862.722V301.56H864.258V295.128H865.794V302.232H867.362V287.784ZM859.394 290.136V288.2H857.762V290.136H855.026V291.464H862.098V290.136H859.394ZM858.578 292.28C856.738 292.28 855.442 293.64 855.442 295.64C855.442 297.624 856.738 299 858.578 299C860.418 299 861.714 297.624 861.714 295.64C861.714 293.64 860.418 292.28 858.578 292.28ZM858.578 297.624C857.602 297.624 856.914 296.856 856.914 295.64C856.914 294.424 857.602 293.64 858.578 293.64C859.554 293.64 860.242 294.424 860.242 295.64C860.242 296.856 859.554 297.624 858.578 297.624ZM707.339 307.768H705.771V313.48H704.059V308.072H702.507V321.512H704.059V314.824H705.771V322.216H707.339V307.768ZM697.115 317.432V310.84H700.843V309.496H695.499V318.792H696.459C698.507 318.792 699.979 318.728 701.723 318.392L701.579 317.032C700.091 317.336 698.779 317.416 697.115 317.432ZM722.842 319.208H719.306V316.104H721.626V314.776H719.546V310.36H721.674V309.032H710.81V310.36H712.938V314.776H710.858V316.104H713.178V319.208H709.738V320.568H722.842V319.208ZM714.586 314.776V310.36H717.914V314.776H714.586ZM714.826 319.208V316.104H717.674V319.208H714.826ZM739.923 307.768H738.259V322.264H739.923V307.768ZM732.227 308.84C730.099 308.84 728.515 310.824 728.515 313.928C728.515 317.064 730.099 319.032 732.227 319.032C734.387 319.032 735.955 317.064 735.955 313.928C735.955 310.824 734.387 308.84 732.227 308.84ZM732.227 310.328C733.507 310.328 734.371 311.672 734.371 313.928C734.371 316.248 733.507 317.56 732.227 317.56C730.947 317.56 730.099 316.248 730.099 313.928C730.099 311.672 730.947 310.328 732.227 310.328ZM756.194 314.872V313.512H753.938V307.784H752.29V322.232H753.938V314.872H756.194ZM747.81 311.352V308.984H746.161V311.352C746.161 314.024 744.77 316.76 742.498 317.864L743.506 319.192C745.17 318.344 746.37 316.664 746.994 314.664C747.618 316.6 748.77 318.104 750.322 318.92L751.33 317.608C749.17 316.552 747.81 313.928 747.81 311.352ZM768.362 315.896V314.632H771.37V318.328H773.018V307.784H771.37V310.2H768.362V308.984H761.674V315.896H768.362ZM766.762 310.296V314.584H763.29V310.296H766.762ZM768.362 311.544H771.37V313.304H768.362V311.544ZM773.354 320.616H765.274V317.368H763.61V321.96H773.354V320.616ZM787.737 307.784H786.073V311.16H783.529V312.52H786.073V315.672H787.737V307.784ZM783.545 315.608L784.361 314.312C782.185 313.544 780.969 311.784 780.969 309.976V309.896H783.977V308.552H776.249V309.896H779.305V309.992C779.305 311.928 777.993 313.848 775.753 314.616L776.601 315.912C778.329 315.32 779.529 314.056 780.169 312.504C780.793 313.912 781.945 315.032 783.545 315.608ZM786.089 316.312V317.88H779.977V316.312H778.345V322.056H787.737V316.312H786.089ZM786.089 319.176V320.728H779.977V319.176H786.089ZM797.016 312.984C800.328 312.984 802.168 312.104 802.168 310.504C802.168 308.888 800.328 308.008 797.016 308.008C793.688 308.008 791.864 308.888 791.864 310.504C791.864 312.104 793.688 312.984 797.016 312.984ZM797.016 309.24C799.272 309.24 800.456 309.672 800.456 310.504C800.456 311.32 799.272 311.752 797.016 311.752C794.76 311.752 793.576 311.32 793.576 310.504C793.576 309.672 794.76 309.24 797.016 309.24ZM803.56 313.832H790.472V315.144H803.56V313.832ZM793.688 320.84V319.64H801.912V316.184H792.024V317.432H800.296V318.472H792.056V322.104H802.328V320.84H793.688ZM820.689 318.312V307.8H819.041V318.312H820.689ZM816.865 316.376L817.697 315.08C815.473 314.36 814.161 312.616 814.161 310.76V310.232H817.249V308.904H809.345V310.232H812.481V310.76C812.481 312.696 811.185 314.584 808.897 315.352L809.761 316.632C811.489 316.056 812.705 314.824 813.345 313.288C813.985 314.712 815.201 315.816 816.865 316.376ZM821.105 320.616H812.913V317.352H811.249V321.96H821.105V320.616ZM832.656 316.408V312.904H834.16V316.888H835.728V307.768H834.16V311.544H832.656V308.04H831.12V316.408H832.656ZM830.624 310.696V309.4H827.84V307.912H826.224V309.4H823.424V310.696H830.624ZM830.144 313.816C830.144 312.344 828.864 311.32 827.04 311.32C825.248 311.32 823.952 312.344 823.952 313.816C823.952 315.32 825.248 316.312 827.04 316.312C828.864 316.312 830.144 315.32 830.144 313.816ZM825.424 313.816C825.424 313.032 826.064 312.52 827.04 312.52C828 312.52 828.672 313.032 828.672 313.816C828.672 314.6 828 315.112 827.04 315.112C826.064 315.112 825.424 314.6 825.424 313.816ZM830.928 317.096C827.792 317.096 826.032 317.992 826.032 319.656C826.032 321.32 827.792 322.232 830.928 322.232C834.064 322.232 835.808 321.32 835.808 319.656C835.808 317.992 834.064 317.096 830.928 317.096ZM830.928 320.984C828.864 320.984 827.68 320.552 827.68 319.656C827.68 318.76 828.864 318.344 830.928 318.344C833.088 318.344 834.16 318.776 834.16 319.656C834.16 320.536 833.088 320.984 830.928 320.984ZM846.766 310.488V309.16H843.326V307.656H841.678V309.16H838.238V310.488H846.766ZM851.55 312.744V311.384H849.502V307.784H847.854V316.216H849.502V312.744H851.55ZM845.998 313.56C845.998 312.04 844.59 311.016 842.494 311.016C840.414 311.016 838.99 312.04 838.99 313.56C838.99 315.096 840.414 316.12 842.494 316.12C844.59 316.12 845.998 315.096 845.998 313.56ZM840.574 313.56C840.574 312.744 841.342 312.248 842.494 312.248C843.646 312.248 844.43 312.744 844.43 313.56C844.43 314.392 843.646 314.888 842.494 314.888C841.342 314.888 840.574 314.392 840.574 313.56ZM847.87 316.808V318.136H841.902V316.808H840.27V322.056H849.502V316.808H847.87ZM847.87 319.416V320.744H841.902V319.416H847.87ZM864.877 307.784H863.229V322.232H864.877V307.784ZM855.421 317.176V309.192H853.789V318.584H855.021C857.277 318.584 859.565 318.408 862.077 317.896L861.901 316.52C859.581 316.984 857.485 317.16 855.421 317.176ZM881.1 314.696V313.336H878.844V307.768H877.196V322.248H878.844V314.696H881.1ZM869.884 317.32V310.488H874.956V309.144H868.236V318.696H869.42C872.028 318.696 873.996 318.6 876.172 318.216L875.996 316.856C873.996 317.192 872.188 317.32 869.884 317.32ZM884.155 321.208V319.224H882.267V321.208H884.155Z" fill="black"/>
<rect x="994" width="282" height="282" rx="141" fill="#FF0000"/>
<path d="M1080.19 144.79C1083.4 143.92 1085.59 142.06 1086.82 139.66C1088.05 141.94 1090.21 143.71 1093.39 144.52L1095.13 141.52C1091.08 140.47 1089.07 137.98 1088.8 135.34H1094.38V132.19H1088.77V129.19H1084.78V132.19H1079.23V135.34H1084.75C1084.48 138.1 1082.53 140.68 1078.42 141.76L1080.19 144.79ZM1088.77 143.98H1084.78V148.18C1082.26 148.27 1079.86 148.27 1077.82 148.27L1078.33 151.48C1083.07 151.45 1089.58 151.42 1095.52 150.22L1095.28 147.34C1093.18 147.67 1090.99 147.85 1088.77 148V143.98ZM1096.78 128.92V156.64H1100.74V128.92H1096.78ZM1107.69 140.44C1112.91 139.93 1116.3 138.01 1117.77 135.37C1119.21 138.01 1122.63 139.93 1127.82 140.44L1129.2 137.32C1124.04 136.9 1121.34 135.1 1120.65 133.24H1128V130.09H1107.57V133.24H1114.89C1114.2 135.1 1111.5 136.9 1106.34 137.32L1107.69 140.44ZM1117.71 153.64C1113.99 153.64 1112.13 153.07 1112.13 151.72C1112.13 150.4 1113.99 149.8 1117.71 149.8C1121.43 149.8 1123.29 150.4 1123.29 151.72C1123.29 153.07 1121.43 153.64 1117.71 153.64ZM1117.71 146.83C1111.71 146.83 1108.14 148.6 1108.14 151.72C1108.14 154.84 1111.71 156.58 1117.71 156.58C1123.71 156.58 1127.31 154.84 1127.31 151.72C1127.31 148.6 1123.71 146.83 1117.71 146.83ZM1119.72 142.18V138.88H1115.76V142.18H1105.29V145.33H1130.25V142.18H1119.72ZM1155.98 131.38H1149.8V128.74H1145.81V131.38H1139.66V134.47H1155.95L1155.98 131.38ZM1144.82 140.11C1144.82 138.79 1146.05 138.1 1147.82 138.1C1149.59 138.1 1150.82 138.79 1150.82 140.11C1150.82 141.43 1149.59 142.12 1147.82 142.12C1146.05 142.12 1144.82 141.43 1144.82 140.11ZM1154.6 140.11C1154.6 137.17 1151.81 135.22 1147.82 135.22C1143.83 135.22 1141.04 137.17 1141.04 140.11C1141.04 143.02 1143.83 145 1147.82 145C1151.81 145 1154.6 143.02 1154.6 140.11ZM1157.51 153.19H1147.4V151.24H1157.51V153.19ZM1157.51 148.27H1147.4V146.17H1143.47V156.25H1161.44V146.17H1157.51V148.27ZM1165.1 135.58H1161.44V128.98H1157.48V145.15H1161.44V138.82H1165.1V135.58ZM1171.55 149.62H1186.43V156.46H1190.39V146.5H1171.55V149.62ZM1186.43 128.95V133.39H1181.72C1181.87 132.52 1181.96 131.62 1181.96 130.69H1169.15V133.84H1177.7C1177.1 137.59 1173.68 140.68 1167.56 142.24L1169.09 145.33C1174.91 143.77 1178.93 140.83 1180.79 136.57H1186.43V139.27H1180.34V142.45H1186.43V145.33H1190.39V128.98L1186.43 128.95Z" fill="white"/>
<path d="M1067.79 297.768H1066.13V312.264H1067.79V297.768ZM1056.35 304.696L1057.1 305.976C1058.83 305.464 1060.06 304.408 1060.69 303C1061.33 304.344 1062.54 305.336 1064.27 305.832L1065.01 304.552C1062.88 303.96 1061.58 302.568 1061.5 300.904H1064.65V299.576H1061.5V297.896H1059.85V299.576H1056.72V300.904H1059.84C1059.76 302.632 1058.54 304.104 1056.35 304.696ZM1061.5 307.912V305.512H1059.85V307.992C1058.45 308.04 1057.12 308.04 1055.97 308.04L1056.17 309.4C1058.75 309.4 1062.17 309.384 1065.37 308.744L1065.25 307.544C1064.03 307.736 1062.78 307.848 1061.5 307.912ZM1071.26 302.408L1071.84 303.688C1074.41 303.416 1076.36 302.392 1077.15 300.904C1077.92 302.36 1079.9 303.432 1082.44 303.688L1083.04 302.408C1080.35 302.152 1078.48 301.016 1078.27 299.736H1082.49V298.408H1071.82V299.736H1076.01C1075.76 301.016 1073.95 302.152 1071.26 302.408ZM1083.68 304.856H1077.95V302.92H1076.3V304.856H1070.6V306.184H1083.68V304.856ZM1077.12 307.176C1073.93 307.176 1072.14 308.088 1072.14 309.704C1072.14 311.32 1073.93 312.232 1077.12 312.232C1080.32 312.232 1082.09 311.32 1082.09 309.704C1082.09 308.088 1080.32 307.176 1077.12 307.176ZM1077.12 310.968C1074.99 310.968 1073.82 310.552 1073.82 309.704C1073.82 308.872 1074.99 308.44 1077.12 308.44C1079.24 308.44 1080.43 308.872 1080.43 309.704C1080.43 310.552 1079.24 310.968 1077.12 310.968ZM1097.46 300.488V299.16H1094.02V297.656H1092.37V299.16H1088.93V300.488H1097.46ZM1102.25 302.744V301.384H1100.2V297.784H1098.55V306.216H1100.2V302.744H1102.25ZM1096.69 303.56C1096.69 302.04 1095.29 301.016 1093.19 301.016C1091.11 301.016 1089.69 302.04 1089.69 303.56C1089.69 305.096 1091.11 306.12 1093.19 306.12C1095.29 306.12 1096.69 305.096 1096.69 303.56ZM1091.27 303.56C1091.27 302.744 1092.04 302.248 1093.19 302.248C1094.34 302.248 1095.13 302.744 1095.13 303.56C1095.13 304.392 1094.34 304.888 1093.19 304.888C1092.04 304.888 1091.27 304.392 1091.27 303.56ZM1098.57 306.808V308.136H1092.6V306.808H1090.97V312.056H1100.2V306.808H1098.57ZM1098.57 309.416V310.744H1092.6V309.416H1098.57ZM1115.6 297.768H1113.96V300.248H1111.08C1111.19 299.784 1111.24 299.256 1111.24 298.728H1104.58V300.056H1109.48C1109.17 302.312 1107.25 304.072 1103.81 304.968L1104.45 306.28C1107.64 305.448 1109.72 303.832 1110.68 301.576H1113.96V303.304H1110.45V304.648H1113.96V306.392H1115.6V297.768ZM1105.86 307.016V308.328H1113.96V312.2H1115.6V307.016H1105.86ZM1124.88 302.984C1128.2 302.984 1130.04 302.104 1130.04 300.504C1130.04 298.888 1128.2 298.008 1124.88 298.008C1121.56 298.008 1119.73 298.888 1119.73 300.504C1119.73 302.104 1121.56 302.984 1124.88 302.984ZM1124.88 299.24C1127.14 299.24 1128.32 299.672 1128.32 300.504C1128.32 301.32 1127.14 301.752 1124.88 301.752C1122.63 301.752 1121.44 301.32 1121.44 300.504C1121.44 299.672 1122.63 299.24 1124.88 299.24ZM1131.43 303.832H1118.34V305.144H1131.43V303.832ZM1121.56 310.84V309.64H1129.78V306.184H1119.89V307.432H1128.16V308.472H1119.92V312.104H1130.2V310.84H1121.56ZM1137.32 303.064L1137.82 304.312C1140.33 304.104 1142.27 303.272 1143.16 301.976C1144.06 303.272 1146 304.104 1148.51 304.312L1149.02 303.064C1146 302.824 1144.28 301.8 1144.11 300.456H1148.4V299.16H1144V297.736H1142.35V299.16H1137.93V300.456H1142.24C1142.16 301.112 1141.69 301.672 1140.83 302.168C1139.95 302.664 1138.78 302.952 1137.32 303.064ZM1144 306.312H1149.71V304.984H1136.64V306.312H1142.35V307.768H1138.09V309.08H1146.46V312.216H1148.11V307.768H1144V306.312ZM1164.81 304.968V303.592H1162.59V297.784H1160.92V312.248H1162.59V304.968H1164.81ZM1156.38 300.008V297.992H1154.73V300.008H1151.29V301.352H1159.75V300.008H1156.38ZM1155.58 302.376C1153.48 302.376 1151.99 303.768 1151.99 305.752C1151.99 307.736 1153.48 309.128 1155.58 309.128C1157.63 309.128 1159.16 307.736 1159.16 305.752C1159.16 303.768 1157.63 302.376 1155.58 302.376ZM1155.58 307.768C1154.41 307.768 1153.56 306.968 1153.56 305.752C1153.56 304.536 1154.41 303.736 1155.58 303.736C1156.75 303.736 1157.59 304.536 1157.59 305.752C1157.59 306.968 1156.75 307.768 1155.58 307.768ZM1174.63 300.488V299.16H1171.19V297.656H1169.55V299.16H1166.11V300.488H1174.63ZM1179.42 302.744V301.384H1177.37V297.784H1175.72V306.216H1177.37V302.744H1179.42ZM1173.87 303.56C1173.87 302.04 1172.46 301.016 1170.36 301.016C1168.28 301.016 1166.86 302.04 1166.86 303.56C1166.86 305.096 1168.28 306.12 1170.36 306.12C1172.46 306.12 1173.87 305.096 1173.87 303.56ZM1168.44 303.56C1168.44 302.744 1169.21 302.248 1170.36 302.248C1171.51 302.248 1172.3 302.744 1172.3 303.56C1172.3 304.392 1171.51 304.888 1170.36 304.888C1169.21 304.888 1168.44 304.392 1168.44 303.56ZM1175.74 306.808V308.136H1169.77V306.808H1168.14V312.056H1177.37V306.808H1175.74ZM1175.74 309.416V310.744H1169.77V309.416H1175.74ZM1192.74 297.784H1191.1V312.232H1192.74V297.784ZM1183.29 307.176V299.192H1181.66V308.584H1182.89C1185.14 308.584 1187.43 308.408 1189.94 307.896L1189.77 306.52C1187.45 306.984 1185.35 307.16 1183.29 307.176ZM1208.97 304.696V303.336H1206.71V297.768H1205.06V312.248H1206.71V304.696H1208.97ZM1197.75 307.32V300.488H1202.82V299.144H1196.1V308.696H1197.29C1199.89 308.696 1201.86 308.6 1204.04 308.216L1203.86 306.856C1201.86 307.192 1200.05 307.32 1197.75 307.32ZM1212.79 307.704L1213.11 298.952H1211.25L1211.3 300.84L1211.56 307.704H1212.79ZM1211.24 311.208H1213.13V309.224H1211.24V311.208Z" fill="black"/>
</svg>
