<svg width="611" height="208" viewBox="0 0 611 208" fill="none" xmlns="http://www.w3.org/2000/svg">
<rect x="1" y="1" width="609" height="206" rx="3" fill="white" stroke="#CCCCCC" stroke-width="2"/>
<path d="M254.173 106.681L242.373 124.198C242.373 124.198 235.906 133.529 245.144 134.773H258.201L261.945 128.814L250.835 128.702C250.835 128.702 247.497 128.391 249.394 125.542L261.97 106.669H254.173V106.681Z" fill="#E30613"/>
<path d="M262.795 134.773L281.887 106.781H289.697L270.604 134.773H262.795Z" fill="#E30613"/>
<path d="M276.763 134.773L296.052 106.681H305.291V127.159L317.818 106.681H325.615L306.732 134.773H297.494V116.211L284.56 134.773H276.763Z" fill="#E30613"/>
<path d="M338.831 112.926C338.831 112.926 335.074 113.014 333.707 115.203C332.328 117.38 333.756 117.679 333.756 117.679H349.437L345.421 124.049H331.293C331.293 124.049 327.955 124.335 326.76 126.239C325.565 128.142 326.514 128.714 327.056 128.714H342.49L338.671 134.773H323.213C323.213 134.773 310.87 135.992 322.412 117.667C322.412 117.667 330.677 106.781 340.839 106.781H356.298L352.43 112.926H339.152" fill="#E30613"/>
<path d="M513.235 113.063C513.235 113.063 509.478 113.151 508.099 115.34C506.719 117.53 508.148 117.816 508.148 117.816H523.828L519.813 124.186H505.685C505.685 124.186 502.347 124.472 501.152 126.376C499.957 128.279 500.905 128.851 501.447 128.851H516.881L513.063 134.91H497.604C497.604 134.91 485.262 136.129 496.804 117.804C496.804 117.804 505.069 106.917 515.231 106.917H530.689L526.822 113.063H513.543" fill="#E30613"/>
<path d="M405.112 106.781L401.478 111.993H384.246C384.246 111.993 380.095 111.458 377.804 114.992C377.804 114.992 374.996 118.525 381.228 118.525H389.222C389.222 118.525 397.118 118.102 393.891 123.34C390.676 128.578 385.786 133.803 378.42 134.773H356.199L359.931 129.324H378.001C378.001 129.324 380.489 129.747 383.396 126.761C386.303 123.763 383.704 123.34 382.041 123.34H373.111C373.111 123.34 364.575 123.725 368.751 115.962C372.926 108.186 383.187 106.793 384.123 106.793H405.112V106.781Z" fill="#E30613"/>
<path d="M471.343 106.781L467.71 111.993H450.477C450.477 111.993 446.326 111.458 444.035 114.992C444.035 114.992 441.227 118.525 447.46 118.525H455.454C455.454 118.525 463.349 118.102 460.122 123.34C456.907 128.578 452.017 133.803 444.651 134.773H422.43L426.175 129.324H444.245C444.245 129.324 446.733 129.747 449.64 126.761C452.547 123.763 449.948 123.34 448.285 123.34H439.355C439.355 123.34 430.819 123.725 434.994 115.962C439.17 108.186 449.43 106.793 450.367 106.793H471.343V106.781Z" fill="#E30613"/>
<path d="M407.329 106.569V124.049L401.17 134.773H408.967L416.567 124.049L438.739 106.569H430.929L416.567 117.667V106.569H407.329Z" fill="#E30613"/>
<path d="M473.351 106.781L469.483 112.926H479.83L464.606 134.773H472.403L487.775 112.926H498.06L501.928 106.781H473.351Z" fill="#E30613"/>
<path d="M537.686 106.781L517.152 134.773H524.962L537.279 116.634L532.549 134.773H540.359L560.264 115.9L547.638 134.773H555.435L573 106.569H563.762L541.997 126.276L546.924 106.781H537.686Z" fill="#E30613"/>
<path d="M56.427 124.099H83.23L91.3226 114.656H64.7414L56.427 124.099Z" fill="#E30613"/>
<path d="M38 145H65.308L67.8577 142.027H40.6236L38 145Z" fill="#E30613"/>
<path d="M49.3445 132.123H76.3445L81.2715 126.375H54.4193L49.3445 132.123Z" fill="#E30613"/>
<path d="M78.537 99.0049L66.7491 112.379H93.2688L104.736 99.0049H78.537Z" fill="#E30613"/>
<path d="M116.734 85.0085H153.686L172.779 63.6221H73.9303L54.5302 85.0085H90.8669L82.3678 94.6504H108.469L116.734 85.0085Z" fill="#E30613"/>
<path d="M42.6314 139.75H69.8039L74.386 134.413H47.3367L42.6314 139.75Z" fill="#E30613"/>
<path d="M120.121 144.378H186.02C189.617 143.918 193.016 143.109 196.219 142.027H121.772L120.121 144.378V144.378Z" fill="#E30613"/>
<path d="M123.361 139.75H201.885C205.112 138.232 208.13 136.428 210.951 134.413H127.105L123.361 139.75Z" fill="#E30613"/>
<path d="M203.264 78.1658H254.382L265.16 63H202.956C200.185 63 169.748 67.0807 157.382 89.6739C156.384 91.4904 155.657 93.1326 155.127 94.6504H183.68C180.341 91.6148 184.172 86.8747 184.172 86.8747C190.947 76.6107 203.264 78.1658 203.264 78.1658V78.1658Z" fill="#E30613"/>
<path d="M184.788 128.553H131.207L128.706 132.123H213.931C216.136 130.319 218.218 128.391 220.176 126.375H193.842C188.557 129.162 184.8 128.553 184.8 128.553H184.788V128.553Z" fill="#E30613"/>
<path d="M170.315 111.135H196.798C198.953 111.135 201.651 111.371 203.264 112.379H231.114C231.385 111.969 231.644 111.546 231.903 111.135C236.165 104.33 233.849 100.809 229.993 99.0049H154.068C152.676 111.919 170.315 111.135 170.315 111.135Z" fill="#E30613"/>
<path d="M200.801 121.088C199.631 122.27 198.485 123.253 197.377 124.099H222.27C224.956 121.076 227.394 117.891 229.599 114.656H204.681C204.718 116.124 203.659 118.189 200.801 121.088Z" fill="#E30613"/>
</svg>
