<svg width="50" height="50" viewBox="0 0 50 50" fill="none" xmlns="http://www.w3.org/2000/svg">
<path d="M25 50C38.8071 50 50 38.8071 50 25C50 11.1929 38.8071 0 25 0C11.1929 0 0 11.1929 0 25C0 38.8071 11.1929 50 25 50Z" fill="#5C2E20"/>
<path d="M22.1601 32C24.9242 32 27.1469 31.0156 28.8851 29.0195L26.6625 26.5039C25.5226 27.6797 24.1263 28.5 22.3026 28.5C18.9686 28.5 16.8029 25.8477 16.8029 21.4453C16.8029 17.0977 19.1965 14.4727 22.3881 14.4727C23.9838 14.4727 25.2092 15.1836 26.2635 16.168L28.4862 13.5977C27.1184 12.2031 25.0382 11 22.3026 11C16.9739 11 12.5 14.9102 12.5 21.582C12.5 28.3359 16.8029 32 22.1601 32Z" fill="white"/>
<path d="M32.2826 11.3828V31.6172H36.5V11.3828H32.2826Z" fill="white"/>
<path d="M10 35.5V39H40V35.5" stroke="white" stroke-width="2" stroke-linecap="round"/>
</svg>
