<svg width="222" height="37" viewBox="0 0 222 37" fill="none" xmlns="http://www.w3.org/2000/svg">
<g clip-path="url(#clip0_5_1447)">
<path d="M16.6841 27.2522C14.9502 27.903 12.9978 28.2284 10.7996 28.2284C3.60443 28.2284 0 24.771 0 17.8563C0 11.3076 3.60443 8.04004 10.7996 8.04004C12.9978 8.04004 14.9638 8.36544 16.6841 9.01624V12.3516C14.9502 11.6059 13.0797 11.2398 11.0727 11.2398C6.25314 11.2398 3.85018 13.4498 3.85018 17.8563C3.85018 22.6424 6.25314 25.0287 11.0727 25.0287C13.0797 25.0287 14.9502 24.6626 16.6841 23.9169V27.2522Z" fill="#0B2E44"/>
<path d="M18.6229 18.1547C18.6229 11.4026 21.9815 8.02661 28.6852 8.02661C35.2934 8.02661 38.5974 11.4026 38.5974 18.1547C38.5974 24.8661 35.2934 28.2286 28.6852 28.2286C22.2683 28.2286 18.9232 24.8661 18.6229 18.1547ZM28.6852 25.0152C32.7266 25.0152 34.7472 22.6968 34.7472 18.0734C34.7472 13.5177 32.7266 11.2399 28.6852 11.2399C24.5483 11.2399 22.4731 13.5177 22.4731 18.0734C22.4731 22.7103 24.5483 25.0152 28.6852 25.0152Z" fill="#0B2E44"/>
<path d="M41.5192 28.0794V8.17578H45.3694L52.1686 23.2798L58.8314 8.17578H62.545V28.093H59.1044V14.2092L53.6705 28.0794H50.503L44.9461 14.2092V28.0794H41.5192Z" fill="#0B2E44"/>
<path d="M66.7502 28.0794V8.17578H70.614L77.4133 23.2798L84.076 8.17578H87.7897V28.093H84.3491V14.2092L78.9151 28.0794H75.7476L70.1908 14.2092V28.0794H66.7502Z" fill="#0B2E44"/>
<path d="M110.481 8.17567L101.689 28.0929H97.6882L89.2779 8.17567H93.7015L99.9 23.4153L106.099 8.16211H110.481V8.17567Z" fill="#0B2E44"/>
<path d="M106.385 28.0793L114.891 8.16211H118.892L127.589 28.0793H123.588L121.062 22.6424H114.782L116.065 19.4427H120.093L116.816 11.9584L110.208 28.0658H106.385V28.0793Z" fill="#0B2E44"/>
<path d="M128.094 20.2563V8.17578H131.807V20.2563C131.807 23.4289 133.446 25.0153 136.709 25.0153C139.986 25.0153 141.61 23.4289 141.61 20.2563V8.17578H145.324V20.2563C145.324 25.5711 142.443 28.215 136.695 28.215C130.947 28.215 128.094 25.5711 128.094 20.2563V20.2563Z" fill="#0B2E44"/>
<path d="M152.806 8.17578V24.8797H162.172V28.0794H149.092V8.17578H152.806Z" fill="#0B2E44"/>
<path d="M175.334 8.17578V11.3756H169.586V28.0794H165.872V11.3756H160.124V8.17578H175.334Z" fill="#0B2E44"/>
<path d="M179.02 8.82655C179.252 8.82655 179.416 8.86722 179.525 8.96213C179.634 9.05704 179.689 9.19262 179.689 9.36888C179.689 9.54514 179.634 9.66717 179.539 9.74852C179.443 9.82987 179.32 9.87054 179.184 9.8841L179.73 10.7247H179.416L178.897 9.91122H178.583V10.7247H178.283V8.81299H179.02V8.82655ZM178.897 9.66717H179.088C179.143 9.66717 179.197 9.65361 179.252 9.62649C179.293 9.59937 179.334 9.57226 179.361 9.53158C179.389 9.49091 179.402 9.43667 179.402 9.35532C179.402 9.28753 179.389 9.24686 179.361 9.20618C179.334 9.16551 179.307 9.13839 179.266 9.12483C179.225 9.11127 179.184 9.08416 179.129 9.08416C179.075 9.0706 179.034 9.0706 178.979 9.0706H178.583V9.68073H178.897V9.66717Z" fill="#0B2E44"/>
<path d="M178.883 8.14868C177.982 8.14868 177.245 8.88083 177.245 9.77568C177.245 10.6705 177.982 11.4027 178.883 11.4027C179.784 11.4027 180.522 10.6705 180.522 9.77568C180.522 8.88083 179.784 8.14868 178.883 8.14868ZM178.883 11.1722C178.105 11.1722 177.477 10.5485 177.477 9.77568C177.477 9.00286 178.105 8.37918 178.883 8.37918C179.662 8.37918 180.29 9.00286 180.29 9.77568C180.29 10.5485 179.662 11.1722 178.883 11.1722Z" fill="#0B2E44"/>
<path d="M205.917 0L189.792 9.23324V27.0082L205.917 36.255L222.041 27.0082V9.23324L205.917 0ZM219.256 25.4219L205.917 33.0688L192.577 25.4219V10.8331L205.917 3.18621L219.256 10.8331V25.4219Z" fill="#FF4A6A"/>
<path d="M204.961 29.3809C204.961 29.5165 204.811 29.5979 204.688 29.5301L195.308 24.1474C195.144 24.0525 195.035 23.8762 195.035 23.6864V13.2736C195.035 13.138 195.185 13.0567 195.308 13.1245L204.688 18.5071C204.852 18.602 204.961 18.7783 204.961 18.9681V29.3809Z" fill="#FF4A6A"/>
<path d="M215.337 11.7008L206.353 16.853C206.135 16.975 205.862 16.975 205.644 16.853L196.66 11.7008C196.537 11.633 196.537 11.4567 196.66 11.389L205.644 6.23678C205.862 6.11476 206.135 6.11476 206.353 6.23678L215.337 11.389C215.446 11.4703 215.446 11.633 215.337 11.7008Z" fill="#FF4A6A"/>
<path d="M215.337 24.866L207.186 29.5301C207.063 29.5979 206.913 29.5165 206.913 29.3809V20.0392C206.913 19.9036 207.063 19.8223 207.186 19.8901L215.337 24.5542C215.446 24.622 215.446 24.7847 215.337 24.866V24.866Z" fill="#FF4A6A"/>
</g>
<defs>
<clipPath id="clip0_5_1447">
<rect width="222" height="36.255" fill="white"/>
</clipPath>
</defs>
</svg>
