<svg width="33" height="44" viewBox="0 0 33 44" fill="none" xmlns="http://www.w3.org/2000/svg">
<path d="M7.30469 44H31.1953C31.7109 44 32.1406 43.8281 32.4844 43.4844C32.8281 43.1406 33 42.7109 33 42.1953V3.69531C33 2.66406 32.6419 1.79036 31.9258 1.07422C31.2096 0.358073 30.3359 0 29.3047 0H3.69531C2.66406 0 1.79036 0.358073 1.07422 1.07422C0.358073 1.79036 0 2.66406 0 3.69531V42.1953C0 42.7109 0.171875 43.1406 0.515625 43.4844C0.859375 43.8281 1.28906 44 1.80469 44H7.30469ZM14.6953 40.3047H11V33H14.6953V40.3047ZM22 40.3047H18.3047V33H22V40.3047ZM3.69531 3.69531H29.3047V40.3047H25.6953V33C25.6953 32.026 25.3229 31.1667 24.5781 30.4219C23.8333 29.6771 22.974 29.3047 22 29.3047H11C10.026 29.3047 9.16667 29.6771 8.42188 30.4219C7.67708 31.1667 7.30469 32.026 7.30469 33V40.3047H3.69531V3.69531ZM7.30469 7.30469H11V11H7.30469V7.30469ZM14.6953 7.30469H18.3047V11H14.6953V7.30469ZM22 7.30469H25.6953V11H22V7.30469ZM7.30469 14.6953H11V18.3047H7.30469V14.6953ZM14.6953 14.6953H18.3047V18.3047H14.6953V14.6953ZM22 14.6953H25.6953V18.3047H22V14.6953ZM7.30469 22H11V25.6953H7.30469V22ZM14.6953 22H18.3047V25.6953H14.6953V22ZM22 22H25.6953V25.6953H22V22Z" fill="black"/>
</svg>
