<svg width="233" height="39" viewBox="0 0 233 39" fill="none" xmlns="http://www.w3.org/2000/svg">
<g clip-path="url(#clip0_23_330)">
<path d="M52.3667 0L31.944 15.199C29.8492 7.6006 23.0431 2.02372 14.6635 2.02372H0V36.9763H14.6635C23.0424 36.9763 30.3728 31.4053 31.9437 23.8072L52.3651 39L72.7931 23.8072V36.9763H95.8313V29.8843H80.6494V2.02372H72.2685V15.1928L52.8907 30.3993L48.6999 26.8533L58.1299 19.7551L68.0777 12.162L62.3207 7.60718L42.9429 22.2925L38.7521 18.7465L58.1309 4.56268L52.3667 0.00782567V0.00171194V0ZM7.85728 9.11565H14.1399C15.4491 9.11565 16.7285 9.40031 17.907 9.92267C19.0853 10.445 20.1635 11.2044 21.0799 12.1542C21.9964 13.104 22.7495 14.2406 23.2731 15.523C23.7968 16.8052 24.0885 18.234 24.0885 19.7539C24.0885 21.1469 23.8254 22.5062 23.3427 23.7644C22.8592 25.0227 22.1596 26.1823 21.2758 27.1635C20.3921 28.1452 19.3248 28.9493 18.1219 29.5112C16.919 30.0734 15.5804 30.3855 14.1399 30.3855H7.85728V9.11565V9.11565ZM122.018 29.8859V36.9778H98.9758V2.02528H107.355V29.8847H122.018L122.018 29.8859Z" fill="#007DB8"/>
<path d="M219.043 37.6188C226.131 37.6188 231.891 34.1902 232.999 26.6907L232.556 26.2622H230.562L230.119 26.6907C229.011 32.0475 225.467 35.0476 219.264 35.0476C211.511 35.0476 205.973 29.4763 205.973 19.6194C205.973 9.76254 211.733 4.19161 219.264 4.19161C225.467 4.19161 229.011 7.19147 230.119 12.1199L230.562 12.5485H232.556L232.999 12.1206C231.892 5.26379 226.352 1.62109 219.042 1.62109C210.402 1.62109 202.649 7.62088 202.649 19.406C202.649 31.62 210.402 37.6198 219.042 37.6198L219.043 37.6188ZM196.447 36.5474V2.69046L196.004 2.26192H192.46L192.017 2.69046L178.725 32.9038H178.282L164.548 2.69046L164.105 2.26192H160.56L160.117 2.69046V36.5474L160.56 36.976H162.554L162.997 36.5474V7.83411H163.44L176.288 36.5474L176.731 36.976H179.39L179.833 36.5474L192.681 7.83411H193.346V36.5474L193.789 36.976H195.782L196.447 36.5474H196.447ZM153.252 36.5474V35.0475L152.808 34.6189H133.757L133.314 34.1903V21.3337L133.757 20.9052H151.701L152.144 20.4766V18.7624L151.701 18.3339H133.757L133.314 17.9053V5.26275L133.757 4.83422H152.808L153.252 4.40569V2.69146L152.808 2.26292H130.656L130.213 2.69146V36.5484L130.656 36.977H152.808L153.252 36.5484V36.5474Z" fill="#808080"/>
</g>
<defs>
<clipPath id="clip0_23_330">
<rect width="233" height="39" fill="white"/>
</clipPath>
</defs>
</svg>
