<svg width="509" height="395" viewBox="0 0 509 395" fill="none" xmlns="http://www.w3.org/2000/svg">
<rect x="67" width="100" height="33" rx="16.5" fill="#D9D9D9"/>
<rect x="67" y="214" width="100" height="33" rx="16.5" fill="#D9D9D9"/>
<rect x="346" width="100" height="33" rx="16.5" fill="#D9D9D9"/>
<rect x="324" y="214" width="144" height="33" rx="16.5" fill="#D9D9D9"/>
<path d="M116.362 13.3V12.11H114.584V9.436H113.142V16.156H114.584V13.3H116.362ZM111.112 15.652V10.038H109.684V11.76H106.59V10.038H105.148V15.652H111.112ZM109.684 12.866V14.504H106.59V12.866H109.684ZM107.332 20.874V19.824H110.09V16.786H105.918V17.864H108.69V18.816H105.946V21.952H106.73C108.956 21.952 109.922 21.896 111.042 21.672L110.916 20.608C109.908 20.832 109.082 20.874 107.332 20.874ZM110.608 16.786V17.934H113.156V22.022H114.584V16.786H110.608ZM128.023 9.436H126.581V22.078H128.023V9.436ZM124.299 10.766H118.307V11.942H122.815C122.577 14.854 120.995 17.066 117.677 18.676L118.447 19.824C122.787 17.724 124.299 14.532 124.299 10.766Z" fill="black"/>
<path d="M115.088 229.26L115.648 228.098C113.1 227.72 111.196 226.166 111.196 224.514V223.842H109.67V224.514C109.67 226.18 107.794 227.72 105.218 228.098L105.778 229.26C107.92 228.924 109.6 227.874 110.44 226.404C111.28 227.86 112.946 228.924 115.088 229.26ZM116.138 231.626V230.45H104.714V231.626H109.67V236.092H111.112V231.626H116.138ZM123.991 230.072V229.064H126.623V230.884H128.065V223.436H126.623V225.382H123.991V224.374H118.139V230.072H123.991ZM122.591 225.522V228.924H119.553V225.522H122.591ZM123.991 226.558H126.623V227.888H123.991V226.558ZM123.851 231.234C121.219 231.234 119.595 232.13 119.595 233.656C119.595 235.182 121.219 236.078 123.851 236.078C126.497 236.078 128.121 235.182 128.121 233.656C128.121 232.13 126.497 231.234 123.851 231.234ZM123.851 234.958C122.045 234.958 121.037 234.496 121.037 233.656C121.037 232.816 122.045 232.368 123.851 232.368C125.657 232.368 126.679 232.816 126.679 233.656C126.679 234.496 125.657 234.958 123.851 234.958Z" fill="black"/>
<path d="M384.294 16.072V15.064H386.926V16.884H388.368V9.436H386.926V11.382H384.294V10.374H378.442V16.072H384.294ZM382.894 11.522V14.924H379.856V11.522H382.894ZM384.294 12.558H386.926V13.888H384.294V12.558ZM384.154 17.234C381.522 17.234 379.898 18.13 379.898 19.656C379.898 21.182 381.522 22.078 384.154 22.078C386.8 22.078 388.424 21.182 388.424 19.656C388.424 18.13 386.8 17.234 384.154 17.234ZM384.154 20.958C382.348 20.958 381.34 20.496 381.34 19.656C381.34 18.816 382.348 18.368 384.154 18.368C385.96 18.368 386.982 18.816 386.982 19.656C386.982 20.496 385.96 20.958 384.154 20.958ZM402.437 13.58V12.39H400.645V9.436H399.203V16.688H400.645V13.58H402.437ZM397.663 13.16C397.663 11.396 396.235 10.164 394.289 10.164C392.371 10.164 390.929 11.396 390.929 13.16C390.929 14.952 392.371 16.198 394.289 16.198C396.235 16.198 397.663 14.952 397.663 13.16ZM392.343 13.16C392.343 12.082 393.155 11.368 394.289 11.368C395.423 11.368 396.249 12.082 396.249 13.16C396.249 14.28 395.423 14.98 394.289 14.98C393.155 14.98 392.343 14.28 392.343 13.16ZM392.567 17.276V21.924H400.645V17.276H392.567ZM393.995 20.776V18.424H399.231V20.776H393.995ZM414.055 9.422H412.599V22.106H414.055V9.422ZM405.753 10.472H404.325V19.096H410.401V10.472H408.959V13.692H405.753V10.472ZM405.753 17.934V14.84H408.959V17.934H405.753Z" fill="black"/>
<path d="M355.89 223.436H354.518V236.078H355.89V223.436ZM351.984 223.688V228.154H350.416V224.64H349.086V227.636H346.874V224.64H345.516V232.984H350.416V229.344H351.984V235.49H353.328V223.688H351.984ZM349.086 228.784V231.822H346.874V228.784H349.086ZM368.671 230.114V223.436H367.299V230.114H368.671ZM364.863 226.208H363.225V227.37H364.863V230.002H366.207V223.674H364.863V226.208ZM363.491 229.862L364.163 228.784C362.609 228.196 361.825 226.866 361.825 225.578V225.34H363.827V224.178H358.241V225.34H360.411V225.578C360.411 226.936 359.571 228.392 357.947 229.022L358.647 230.114C359.879 229.624 360.677 228.728 361.139 227.65C361.573 228.658 362.315 229.428 363.491 229.862ZM369.133 234.804H361.685V233.74H368.671V230.618H360.229V231.738H367.257V232.69H360.257V235.924H369.133V234.804ZM373.444 237.03L374.452 236.582C373.22 234.552 372.688 232.284 372.688 229.862C372.688 227.454 373.22 225.172 374.452 223.142L373.444 222.708C372.142 224.822 371.372 227.104 371.372 229.862C371.372 232.648 372.142 234.902 373.444 237.03ZM387.52 229.904V228.714H385.714V223.422H384.272V236.078H385.714V229.904H387.52ZM383.418 226.054V224.892H380.394V223.464H378.952V224.892H375.9V226.054H383.418ZM380.394 232.522V231.346C381.794 231.122 382.704 230.282 382.704 229.05C382.704 227.622 381.486 226.684 379.68 226.684C377.888 226.684 376.642 227.622 376.642 229.05C376.642 230.282 377.552 231.108 378.952 231.346V232.578C377.776 232.62 376.642 232.62 375.676 232.62L375.872 233.81C378.028 233.81 380.968 233.796 383.67 233.306L383.558 232.242C382.55 232.396 381.472 232.466 380.394 232.522ZM378 229.05C378 228.266 378.672 227.79 379.68 227.79C380.688 227.79 381.346 228.266 381.346 229.05C381.346 229.834 380.688 230.296 379.68 230.296C378.672 230.296 378 229.834 378 229.05ZM395.107 230.534V229.428H397.739V232.662H399.181V223.436H397.739V225.55H395.107V224.486H389.255V230.534H395.107ZM393.707 225.634V229.386H390.669V225.634H393.707ZM395.107 226.726H397.739V228.266H395.107V226.726ZM399.475 234.664H392.405V231.822H390.949V235.84H399.475V234.664ZM413.25 227.132H411.444V223.436H410.002V232.592H411.444V228.322H413.25V227.132ZM408.056 224.402H402.078V225.578H406.488C406.222 227.608 404.514 229.204 401.546 230.1L402.148 231.248C405.83 230.128 408.056 227.748 408.056 224.402ZM404.892 234.664V231.668H403.436V235.84H411.948V234.664H404.892ZM429.26 227.132H427.454V223.436H426.012V232.592H427.454V228.322H429.26V227.132ZM424.066 224.402H418.088V225.578H422.498C422.232 227.608 420.524 229.204 417.556 230.1L418.158 231.248C421.84 230.128 424.066 227.748 424.066 224.402ZM420.902 234.664V231.668H419.446V235.84H427.958V234.664H420.902ZM440.949 223.422H439.507V225.592H436.987C437.085 225.186 437.127 224.724 437.127 224.262H431.303V225.424H435.587C435.321 227.398 433.641 228.938 430.631 229.722L431.191 230.87C433.977 230.142 435.797 228.728 436.637 226.754H439.507V228.266H436.441V229.442H439.507V230.968H440.949V223.422ZM432.423 231.514V232.662H439.507V236.05H440.949V231.514H432.423ZM443.272 236.582L444.28 237.03C445.61 234.902 446.366 232.648 446.366 229.862C446.366 227.104 445.61 224.822 444.28 222.708L443.272 223.142C444.504 225.172 445.036 227.454 445.036 229.862C445.036 232.284 444.504 234.552 443.272 236.582Z" fill="black"/>
<line x1="1" y1="57" x2="0.999996" y2="159" stroke="#BFBFBF" stroke-width="2"/>
<line x1="1" y1="271" x2="0.999996" y2="373" stroke="#BFBFBF" stroke-width="2"/>
<line x1="280" y1="57" x2="280" y2="159" stroke="#BFBFBF" stroke-width="2"/>
<line x1="280" y1="271" x2="280" y2="373" stroke="#BFBFBF" stroke-width="2"/>
<line x1="230" y1="158" y2="158" stroke="#BFBFBF" stroke-width="2"/>
<line x1="230" y1="372" y2="372" stroke="#BFBFBF" stroke-width="2"/>
<line x1="509" y1="158" x2="279" y2="158" stroke="#BFBFBF" stroke-width="2"/>
<line x1="509" y1="372" x2="279" y2="372" stroke="#BFBFBF" stroke-width="2"/>
<line x1="230" y1="111" y2="111" stroke="#BFBFBF" stroke-width="2"/>
<line x1="230" y1="325" y2="325" stroke="#BFBFBF" stroke-width="2"/>
<line x1="509" y1="111" x2="279" y2="111" stroke="#BFBFBF" stroke-width="2"/>
<line x1="509" y1="325" x2="279" y2="325" stroke="#BFBFBF" stroke-width="2"/>
<line x1="230" y1="64" y2="64" stroke="#BFBFBF" stroke-width="2"/>
<line x1="230" y1="278" y2="278" stroke="#BFBFBF" stroke-width="2"/>
<line x1="509" y1="64" x2="279" y2="64" stroke="#BFBFBF" stroke-width="2"/>
<line x1="509" y1="278" x2="279" y2="278" stroke="#BFBFBF" stroke-width="2"/>
<path d="M34.5938 177.196C35.9518 177.196 37.0438 176.692 37.8978 175.67L36.8058 174.382C36.2458 174.984 35.5598 175.404 34.6638 175.404C33.0258 175.404 31.9618 174.046 31.9618 171.792C31.9618 169.566 33.1378 168.222 34.7058 168.222C35.4898 168.222 36.0918 168.586 36.6098 169.09L37.7018 167.774C37.0298 167.06 36.0078 166.444 34.6638 166.444C32.0458 166.444 29.8478 168.446 29.8478 171.862C29.8478 175.32 31.9618 177.196 34.5938 177.196ZM43.543 177.196C46.077 177.196 47.547 175.782 47.547 172.338V166.64H45.559V172.52C45.559 174.69 44.775 175.404 43.543 175.404C42.311 175.404 41.583 174.69 41.583 172.52V166.64H39.511V172.338C39.511 175.782 41.023 177.196 43.543 177.196ZM50.0396 166.64V177H53.7356C56.0176 177 57.7536 176.034 57.7536 173.948C57.7536 172.548 56.9276 171.764 55.8076 171.498V171.428C56.6896 171.134 57.2216 170.112 57.2216 169.188C57.2216 167.242 55.5976 166.64 53.4696 166.64H50.0396ZM53.3156 170.854H52.1116V168.222H53.3436C54.5896 168.222 55.2056 168.586 55.2056 169.496C55.2056 170.336 54.6596 170.854 53.3156 170.854ZM53.5536 175.404H52.1116V172.394H53.5536C55.0096 172.394 55.7376 172.814 55.7376 173.822C55.7376 174.9 54.9676 175.404 53.5536 175.404ZM59.5689 166.64V177H66.0789V175.264H61.6409V172.492H65.2809V170.756H61.6409V168.362H65.9249V166.64H59.5689Z" fill="black"/>
<path d="M34.5938 391.196C35.9518 391.196 37.0438 390.692 37.8978 389.67L36.8058 388.382C36.2458 388.984 35.5598 389.404 34.6638 389.404C33.0258 389.404 31.9618 388.046 31.9618 385.792C31.9618 383.566 33.1378 382.222 34.7058 382.222C35.4898 382.222 36.0918 382.586 36.6098 383.09L37.7018 381.774C37.0298 381.06 36.0078 380.444 34.6638 380.444C32.0458 380.444 29.8478 382.446 29.8478 385.862C29.8478 389.32 31.9618 391.196 34.5938 391.196ZM43.543 391.196C46.077 391.196 47.547 389.782 47.547 386.338V380.64H45.559V386.52C45.559 388.69 44.775 389.404 43.543 389.404C42.311 389.404 41.583 388.69 41.583 386.52V380.64H39.511V386.338C39.511 389.782 41.023 391.196 43.543 391.196ZM50.0396 380.64V391H53.7356C56.0176 391 57.7536 390.034 57.7536 387.948C57.7536 386.548 56.9276 385.764 55.8076 385.498V385.428C56.6896 385.134 57.2216 384.112 57.2216 383.188C57.2216 381.242 55.5976 380.64 53.4696 380.64H50.0396ZM53.3156 384.854H52.1116V382.222H53.3436C54.5896 382.222 55.2056 382.586 55.2056 383.496C55.2056 384.336 54.6596 384.854 53.3156 384.854ZM53.5536 389.404H52.1116V386.394H53.5536C55.0096 386.394 55.7376 386.814 55.7376 387.822C55.7376 388.9 54.9676 389.404 53.5536 389.404ZM59.5689 380.64V391H66.0789V389.264H61.6409V386.492H65.2809V384.756H61.6409V382.362H65.9249V380.64H59.5689Z" fill="black"/>
<path d="M313.594 177.196C314.952 177.196 316.044 176.692 316.898 175.67L315.806 174.382C315.246 174.984 314.56 175.404 313.664 175.404C312.026 175.404 310.962 174.046 310.962 171.792C310.962 169.566 312.138 168.222 313.706 168.222C314.49 168.222 315.092 168.586 315.61 169.09L316.702 167.774C316.03 167.06 315.008 166.444 313.664 166.444C311.046 166.444 308.848 168.446 308.848 171.862C308.848 175.32 310.962 177.196 313.594 177.196ZM322.543 177.196C325.077 177.196 326.547 175.782 326.547 172.338V166.64H324.559V172.52C324.559 174.69 323.775 175.404 322.543 175.404C321.311 175.404 320.583 174.69 320.583 172.52V166.64H318.511V172.338C318.511 175.782 320.023 177.196 322.543 177.196ZM329.04 166.64V177H332.736C335.018 177 336.754 176.034 336.754 173.948C336.754 172.548 335.928 171.764 334.808 171.498V171.428C335.69 171.134 336.222 170.112 336.222 169.188C336.222 167.242 334.598 166.64 332.47 166.64H329.04ZM332.316 170.854H331.112V168.222H332.344C333.59 168.222 334.206 168.586 334.206 169.496C334.206 170.336 333.66 170.854 332.316 170.854ZM332.554 175.404H331.112V172.394H332.554C334.01 172.394 334.738 172.814 334.738 173.822C334.738 174.9 333.968 175.404 332.554 175.404ZM338.569 166.64V177H345.079V175.264H340.641V172.492H344.281V170.756H340.641V168.362H344.925V166.64H338.569Z" fill="black"/>
<path d="M313.594 391.196C314.952 391.196 316.044 390.692 316.898 389.67L315.806 388.382C315.246 388.984 314.56 389.404 313.664 389.404C312.026 389.404 310.962 388.046 310.962 385.792C310.962 383.566 312.138 382.222 313.706 382.222C314.49 382.222 315.092 382.586 315.61 383.09L316.702 381.774C316.03 381.06 315.008 380.444 313.664 380.444C311.046 380.444 308.848 382.446 308.848 385.862C308.848 389.32 310.962 391.196 313.594 391.196ZM322.543 391.196C325.077 391.196 326.547 389.782 326.547 386.338V380.64H324.559V386.52C324.559 388.69 323.775 389.404 322.543 389.404C321.311 389.404 320.583 388.69 320.583 386.52V380.64H318.511V386.338C318.511 389.782 320.023 391.196 322.543 391.196ZM329.04 380.64V391H332.736C335.018 391 336.754 390.034 336.754 387.948C336.754 386.548 335.928 385.764 334.808 385.498V385.428C335.69 385.134 336.222 384.112 336.222 383.188C336.222 381.242 334.598 380.64 332.47 380.64H329.04ZM332.316 384.854H331.112V382.222H332.344C333.59 382.222 334.206 382.586 334.206 383.496C334.206 384.336 333.66 384.854 332.316 384.854ZM332.554 389.404H331.112V386.394H332.554C334.01 386.394 334.738 386.814 334.738 387.822C334.738 388.9 333.968 389.404 332.554 389.404ZM338.569 380.64V391H345.079V389.264H340.641V386.492H344.281V384.756H340.641V382.362H344.925V380.64H338.569Z" fill="black"/>
<path d="M42.4202 115.884V109.43H40.6142C38.9762 111.572 37.4082 113.756 35.7702 115.898V117.466H40.7262V120H42.4202V117.466H43.7362V115.884H42.4202ZM40.7262 112.65V115.912H37.6742L40.7542 111.768C40.7402 112.146 40.7262 112.524 40.7262 112.65ZM48.0301 120.266C50.2281 120.266 51.7541 119.09 51.7541 117.144C51.7541 115.954 51.2221 115.03 49.9901 114.54C50.9001 114.078 51.4181 113.238 51.4181 112.23C51.4181 110.508 50.0041 109.346 48.0301 109.346C46.0841 109.346 44.6841 110.508 44.6841 112.23C44.6841 113.238 45.1881 114.05 46.0841 114.54C44.8521 115.03 44.3201 115.954 44.3201 117.144C44.3201 119.09 45.8461 120.266 48.0301 120.266ZM48.0301 113.854C46.9521 113.854 46.5321 112.986 46.5321 112.258C46.5321 111.46 47.0221 110.83 48.0301 110.83C49.0381 110.83 49.5561 111.46 49.5561 112.258C49.5561 112.986 49.1221 113.854 48.0301 113.854ZM48.0301 118.726C46.9101 118.726 46.2661 118.082 46.2661 117.116C46.2661 115.996 46.9521 115.366 48.0301 115.366C49.1081 115.366 49.8361 115.996 49.8361 117.116C49.8361 118.082 49.1501 118.726 48.0301 118.726ZM59.5479 111.25V109.528H54.2559C54.1019 110.424 53.8219 112.076 53.3879 114.764L54.5639 115.114C55.0679 114.932 55.5719 114.834 56.0899 114.792C57.3779 114.75 58.0359 115.436 58.0359 116.556C58.0359 117.788 57.3499 118.586 56.0619 118.586C55.1659 118.586 54.4379 118.11 53.7799 117.564L52.7999 118.992C53.5139 119.664 54.6619 120.252 55.9499 120.252C58.2039 120.252 59.9119 118.726 59.9119 116.472C59.9119 114.624 58.7079 113.196 56.4679 113.196C56.0899 113.196 55.6979 113.224 55.2639 113.294L55.6139 111.25H59.5479Z" fill="black"/>
<path d="M30.2226 302.49C29.7886 302.49 29.4106 302.546 29.0886 302.658L28.9346 302.728L29.2846 302.392C30.3066 301.09 31.3006 299.816 32.3646 298.514H30.0126L27.1706 302.35C26.3726 303.47 25.9246 304.548 25.9246 305.5C25.9246 307.754 27.3386 309.266 29.6066 309.266C31.8606 309.266 33.3726 307.656 33.3726 305.682C33.3726 303.54 31.8466 302.49 30.2226 302.49ZM27.7726 305.78C27.7726 304.66 28.4726 303.946 29.5926 303.946C30.7266 303.946 31.4966 304.562 31.4966 305.794C31.4966 306.928 30.6426 307.684 29.5786 307.684C28.5006 307.684 27.7726 306.97 27.7726 305.78ZM41.8244 303.806C41.8244 300.082 40.1584 298.402 37.9184 298.402C35.7344 298.402 34.0544 300.082 34.0544 303.806C34.0544 307.502 35.7344 309.196 37.9184 309.196C40.1584 309.196 41.8244 307.502 41.8244 303.806ZM39.8644 303.806C39.8644 306.774 38.9404 307.572 37.9184 307.572C36.9524 307.572 36.0144 306.774 36.0144 303.806C36.0144 300.824 36.9524 300.012 37.9184 300.012C38.9404 300.012 39.8644 300.824 39.8644 303.806ZM42.9543 307.222L42.3803 310.148H43.9623L44.9983 307.222H42.9543ZM53.5959 303.806C53.5959 300.082 51.9299 298.402 49.6899 298.402C47.5059 298.402 45.8259 300.082 45.8259 303.806C45.8259 307.502 47.5059 309.196 49.6899 309.196C51.9299 309.196 53.5959 307.502 53.5959 303.806ZM51.6359 303.806C51.6359 306.774 50.7119 307.572 49.6899 307.572C48.7239 307.572 47.7859 306.774 47.7859 303.806C47.7859 300.824 48.7239 300.012 49.6899 300.012C50.7119 300.012 51.6359 300.824 51.6359 303.806ZM61.9357 303.806C61.9357 300.082 60.2697 298.402 58.0297 298.402C55.8457 298.402 54.1657 300.082 54.1657 303.806C54.1657 307.502 55.8457 309.196 58.0297 309.196C60.2697 309.196 61.9357 307.502 61.9357 303.806ZM59.9757 303.806C59.9757 306.774 59.0517 307.572 58.0297 307.572C57.0637 307.572 56.1257 306.774 56.1257 303.806C56.1257 300.824 57.0637 300.012 58.0297 300.012C59.0517 300.012 59.9757 300.824 59.9757 303.806ZM70.2756 303.806C70.2756 300.082 68.6096 298.402 66.3696 298.402C64.1856 298.402 62.5056 300.082 62.5056 303.806C62.5056 307.502 64.1856 309.196 66.3696 309.196C68.6096 309.196 70.2756 307.502 70.2756 303.806ZM68.3156 303.806C68.3156 306.774 67.3916 307.572 66.3696 307.572C65.4036 307.572 64.4656 306.774 64.4656 303.806C64.4656 300.824 65.4036 300.012 66.3696 300.012C67.3916 300.012 68.3156 300.824 68.3156 303.806Z" fill="black"/>
<path d="M308.53 109.36C306.612 109.36 305.226 110.368 304.89 112.51L306.724 112.818C306.738 112.538 306.766 112.328 306.836 112.118C307.06 111.502 307.62 110.97 308.404 110.97C309.314 110.97 309.888 111.474 309.888 112.44C309.888 113.518 309.23 114.358 308.166 115.422L304.652 118.88V120H311.946V118.236H308.586C308.264 118.236 307.928 118.25 307.55 118.348L309.72 116.164C310.756 115.086 311.792 113.868 311.834 112.398C311.834 110.606 310.476 109.36 308.53 109.36ZM316.87 109.36C314.952 109.36 313.566 110.368 313.23 112.51L315.064 112.818C315.078 112.538 315.106 112.328 315.176 112.118C315.4 111.502 315.96 110.97 316.744 110.97C317.654 110.97 318.228 111.474 318.228 112.44C318.228 113.518 317.57 114.358 316.506 115.422L312.992 118.88V120H320.286V118.236H316.926C316.604 118.236 316.268 118.25 315.89 118.348L318.06 116.164C319.096 115.086 320.132 113.868 320.174 112.398C320.174 110.606 318.816 109.36 316.87 109.36ZM328.863 114.806C328.863 111.082 327.197 109.402 324.957 109.402C322.773 109.402 321.093 111.082 321.093 114.806C321.093 118.502 322.773 120.196 324.957 120.196C327.197 120.196 328.863 118.502 328.863 114.806ZM326.903 114.806C326.903 117.774 325.979 118.572 324.957 118.572C323.991 118.572 323.053 117.774 323.053 114.806C323.053 111.824 323.991 111.012 324.957 111.012C325.979 111.012 326.903 111.824 326.903 114.806ZM337.203 114.806C337.203 111.082 335.537 109.402 333.297 109.402C331.113 109.402 329.433 111.082 329.433 114.806C329.433 118.502 331.113 120.196 333.297 120.196C335.537 120.196 337.203 118.502 337.203 114.806ZM335.243 114.806C335.243 117.774 334.319 118.572 333.297 118.572C332.331 118.572 331.393 117.774 331.393 114.806C331.393 111.824 332.331 111.012 333.297 111.012C334.319 111.012 335.243 111.824 335.243 114.806ZM340.531 113.56V111.572H338.487V113.56H340.531ZM340.531 119.202V117.214H338.487V119.202H340.531ZM347.238 109.528H345.586L342.562 112.132L343.668 113.392L345.376 111.838L345.32 112.748V118.446H343.276V120H349.044V118.446H347.238V109.528Z" fill="black"/>
<path d="M329.042 310.528H327.39L324.366 313.132L325.472 314.392L327.18 312.838L327.124 313.748V319.446H325.08V321H330.848V319.446H329.042V310.528Z" fill="black"/>
<path d="M120.868 97.25V95.528H115.576C115.422 96.424 115.142 98.076 114.708 100.764L115.884 101.114C116.388 100.932 116.892 100.834 117.41 100.792C118.698 100.75 119.356 101.436 119.356 102.556C119.356 103.788 118.67 104.586 117.382 104.586C116.486 104.586 115.758 104.11 115.1 103.564L114.12 104.992C114.834 105.664 115.982 106.252 117.27 106.252C119.524 106.252 121.232 104.726 121.232 102.472C121.232 100.624 120.028 99.196 117.788 99.196C117.41 99.196 117.018 99.224 116.584 99.294L116.934 97.25H120.868ZM129.88 100.806C129.88 97.082 128.214 95.402 125.974 95.402C123.79 95.402 122.11 97.082 122.11 100.806C122.11 104.502 123.79 106.196 125.974 106.196C128.214 106.196 129.88 104.502 129.88 100.806ZM127.92 100.806C127.92 103.774 126.996 104.572 125.974 104.572C125.008 104.572 124.07 103.774 124.07 100.806C124.07 97.824 125.008 97.012 125.974 97.012C126.996 97.012 127.92 97.824 127.92 100.806ZM138.22 100.806C138.22 97.082 136.554 95.402 134.314 95.402C132.13 95.402 130.45 97.082 130.45 100.806C130.45 104.502 132.13 106.196 134.314 106.196C136.554 106.196 138.22 104.502 138.22 100.806ZM136.26 100.806C136.26 103.774 135.336 104.572 134.314 104.572C133.348 104.572 132.41 103.774 132.41 100.806C132.41 97.824 133.348 97.012 134.314 97.012C135.336 97.012 136.26 97.824 136.26 100.806Z" fill="black"/>
<path d="M110.813 310.25V308.528H105.521C105.367 309.424 105.087 311.076 104.653 313.764L105.829 314.114C106.333 313.932 106.837 313.834 107.355 313.792C108.643 313.75 109.301 314.436 109.301 315.556C109.301 316.788 108.615 317.586 107.327 317.586C106.431 317.586 105.703 317.11 105.045 316.564L104.065 317.992C104.779 318.664 105.927 319.252 107.215 319.252C109.469 319.252 111.177 317.726 111.177 315.472C111.177 313.624 109.973 312.196 107.733 312.196C107.355 312.196 106.963 312.224 106.529 312.294L106.879 310.25H110.813ZM119.824 313.806C119.824 310.082 118.158 308.402 115.918 308.402C113.734 308.402 112.054 310.082 112.054 313.806C112.054 317.502 113.734 319.196 115.918 319.196C118.158 319.196 119.824 317.502 119.824 313.806ZM117.864 313.806C117.864 316.774 116.94 317.572 115.918 317.572C114.952 317.572 114.014 316.774 114.014 313.806C114.014 310.824 114.952 310.012 115.918 310.012C116.94 310.012 117.864 310.824 117.864 313.806ZM120.954 317.222L120.38 320.148H121.962L122.998 317.222H120.954ZM131.596 313.806C131.596 310.082 129.93 308.402 127.69 308.402C125.506 308.402 123.826 310.082 123.826 313.806C123.826 317.502 125.506 319.196 127.69 319.196C129.93 319.196 131.596 317.502 131.596 313.806ZM129.636 313.806C129.636 316.774 128.712 317.572 127.69 317.572C126.724 317.572 125.786 316.774 125.786 313.806C125.786 310.824 126.724 310.012 127.69 310.012C128.712 310.012 129.636 310.824 129.636 313.806ZM139.936 313.806C139.936 310.082 138.27 308.402 136.03 308.402C133.846 308.402 132.166 310.082 132.166 313.806C132.166 317.502 133.846 319.196 136.03 319.196C138.27 319.196 139.936 317.502 139.936 313.806ZM137.976 313.806C137.976 316.774 137.052 317.572 136.03 317.572C135.064 317.572 134.126 316.774 134.126 313.806C134.126 310.824 135.064 310.012 136.03 310.012C137.052 310.012 137.976 310.824 137.976 313.806ZM148.276 313.806C148.276 310.082 146.61 308.402 144.37 308.402C142.186 308.402 140.506 310.082 140.506 313.806C140.506 317.502 142.186 319.196 144.37 319.196C146.61 319.196 148.276 317.502 148.276 313.806ZM146.316 313.806C146.316 316.774 145.392 317.572 144.37 317.572C143.404 317.572 142.466 316.774 142.466 313.806C142.466 310.824 143.404 310.012 144.37 310.012C145.392 310.012 146.316 310.824 146.316 313.806Z" fill="black"/>
<path d="M389.064 101.884V95.43H387.258C385.62 97.572 384.052 99.756 382.414 101.898V103.466H387.37V106H389.064V103.466H390.38V101.884H389.064ZM387.37 98.65V101.912H384.318L387.398 97.768C387.384 98.146 387.37 98.524 387.37 98.65ZM398.524 100.806C398.524 97.082 396.858 95.402 394.618 95.402C392.434 95.402 390.754 97.082 390.754 100.806C390.754 104.502 392.434 106.196 394.618 106.196C396.858 106.196 398.524 104.502 398.524 100.806ZM396.564 100.806C396.564 103.774 395.64 104.572 394.618 104.572C393.652 104.572 392.714 103.774 392.714 100.806C392.714 97.824 393.652 97.012 394.618 97.012C395.64 97.012 396.564 97.824 396.564 100.806ZM406.863 100.806C406.863 97.082 405.197 95.402 402.957 95.402C400.773 95.402 399.093 97.082 399.093 100.806C399.093 104.502 400.773 106.196 402.957 106.196C405.197 106.196 406.863 104.502 406.863 100.806ZM404.903 100.806C404.903 103.774 403.979 104.572 402.957 104.572C401.991 104.572 401.053 103.774 401.053 100.806C401.053 97.824 401.991 97.012 402.957 97.012C403.979 97.012 404.903 97.824 404.903 100.806ZM415.203 100.806C415.203 97.082 413.537 95.402 411.297 95.402C409.113 95.402 407.433 97.082 407.433 100.806C407.433 104.502 409.113 106.196 411.297 106.196C413.537 106.196 415.203 104.502 415.203 100.806ZM413.243 100.806C413.243 103.774 412.319 104.572 411.297 104.572C410.331 104.572 409.393 103.774 409.393 100.806C409.393 97.824 410.331 97.012 411.297 97.012C412.319 97.012 413.243 97.824 413.243 100.806ZM418.531 99.56V97.572H416.487V99.56H418.531ZM418.531 105.202V103.214H416.487V105.202H418.531ZM425.238 95.528H423.586L420.562 98.132L421.668 99.392L423.376 97.838L423.32 98.748V104.446H421.276V106H427.044V104.446H425.238V95.528Z" fill="black"/>
<path d="M400.944 271.528H399.292L396.268 274.132L397.374 275.392L399.082 273.838L399.026 274.748V280.446H396.982V282H402.75V280.446H400.944V271.528ZM406.526 282.196V280.208H404.482V282.196H406.526ZM411.628 282.266C413.826 282.266 415.352 281.09 415.352 279.144C415.352 277.954 414.82 277.03 413.588 276.54C414.498 276.078 415.016 275.238 415.016 274.23C415.016 272.508 413.602 271.346 411.628 271.346C409.682 271.346 408.282 272.508 408.282 274.23C408.282 275.238 408.786 276.05 409.682 276.54C408.45 277.03 407.918 277.954 407.918 279.144C407.918 281.09 409.444 282.266 411.628 282.266ZM411.628 275.854C410.55 275.854 410.13 274.986 410.13 274.258C410.13 273.46 410.62 272.83 411.628 272.83C412.636 272.83 413.154 273.46 413.154 274.258C413.154 274.986 412.72 275.854 411.628 275.854ZM411.628 280.726C410.508 280.726 409.864 280.082 409.864 279.116C409.864 277.996 410.55 277.366 411.628 277.366C412.706 277.366 413.434 277.996 413.434 279.116C413.434 280.082 412.748 280.726 411.628 280.726Z" fill="black"/>
<path d="M189.69 63.266C191.888 63.266 193.414 62.09 193.414 60.144C193.414 58.954 192.882 58.03 191.65 57.54C192.56 57.078 193.078 56.238 193.078 55.23C193.078 53.508 191.664 52.346 189.69 52.346C187.744 52.346 186.344 53.508 186.344 55.23C186.344 56.238 186.848 57.05 187.744 57.54C186.512 58.03 185.98 58.954 185.98 60.144C185.98 62.09 187.506 63.266 189.69 63.266ZM189.69 56.854C188.612 56.854 188.192 55.986 188.192 55.258C188.192 54.46 188.682 53.83 189.69 53.83C190.698 53.83 191.216 54.46 191.216 55.258C191.216 55.986 190.782 56.854 189.69 56.854ZM189.69 61.726C188.57 61.726 187.926 61.082 187.926 60.116C187.926 58.996 188.612 58.366 189.69 58.366C190.768 58.366 191.496 58.996 191.496 60.116C191.496 61.082 190.81 61.726 189.69 61.726ZM201.88 57.806C201.88 54.082 200.214 52.402 197.974 52.402C195.79 52.402 194.11 54.082 194.11 57.806C194.11 61.502 195.79 63.196 197.974 63.196C200.214 63.196 201.88 61.502 201.88 57.806ZM199.92 57.806C199.92 60.774 198.996 61.572 197.974 61.572C197.008 61.572 196.07 60.774 196.07 57.806C196.07 54.824 197.008 54.012 197.974 54.012C198.996 54.012 199.92 54.824 199.92 57.806ZM210.22 57.806C210.22 54.082 208.554 52.402 206.314 52.402C204.13 52.402 202.45 54.082 202.45 57.806C202.45 61.502 204.13 63.196 206.314 63.196C208.554 63.196 210.22 61.502 210.22 57.806ZM208.26 57.806C208.26 60.774 207.336 61.572 206.314 61.572C205.348 61.572 204.41 60.774 204.41 57.806C204.41 54.824 205.348 54.012 206.314 54.012C207.336 54.012 208.26 54.824 208.26 57.806Z" fill="#173E92"/>
<path d="M176.977 262.528H175.325L172.301 265.132L173.407 266.392L175.115 264.838L175.059 265.748V271.446H173.015V273H178.783V271.446H176.977V262.528ZM187.654 267.806C187.654 264.082 185.988 262.402 183.748 262.402C181.564 262.402 179.884 264.082 179.884 267.806C179.884 271.502 181.564 273.196 183.748 273.196C185.988 273.196 187.654 271.502 187.654 267.806ZM185.694 267.806C185.694 270.774 184.77 271.572 183.748 271.572C182.782 271.572 181.844 270.774 181.844 267.806C181.844 264.824 182.782 264.012 183.748 264.012C184.77 264.012 185.694 264.824 185.694 267.806ZM195.994 267.806C195.994 264.082 194.328 262.402 192.088 262.402C189.904 262.402 188.224 264.082 188.224 267.806C188.224 271.502 189.904 273.196 192.088 273.196C194.328 273.196 195.994 271.502 195.994 267.806ZM194.034 267.806C194.034 270.774 193.11 271.572 192.088 271.572C191.122 271.572 190.184 270.774 190.184 267.806C190.184 264.824 191.122 264.012 192.088 264.012C193.11 264.012 194.034 264.824 194.034 267.806ZM197.124 271.222L196.55 274.148H198.132L199.168 271.222H197.124ZM207.766 267.806C207.766 264.082 206.1 262.402 203.86 262.402C201.676 262.402 199.996 264.082 199.996 267.806C199.996 271.502 201.676 273.196 203.86 273.196C206.1 273.196 207.766 271.502 207.766 267.806ZM205.806 267.806C205.806 270.774 204.882 271.572 203.86 271.572C202.894 271.572 201.956 270.774 201.956 267.806C201.956 264.824 202.894 264.012 203.86 264.012C204.882 264.012 205.806 264.824 205.806 267.806ZM216.106 267.806C216.106 264.082 214.44 262.402 212.2 262.402C210.016 262.402 208.336 264.082 208.336 267.806C208.336 271.502 210.016 273.196 212.2 273.196C214.44 273.196 216.106 271.502 216.106 267.806ZM214.146 267.806C214.146 270.774 213.222 271.572 212.2 271.572C211.234 271.572 210.296 270.774 210.296 267.806C210.296 264.824 211.234 264.012 212.2 264.012C213.222 264.012 214.146 264.824 214.146 267.806ZM224.446 267.806C224.446 264.082 222.78 262.402 220.54 262.402C218.356 262.402 216.676 264.082 216.676 267.806C216.676 271.502 218.356 273.196 220.54 273.196C222.78 273.196 224.446 271.502 224.446 267.806ZM222.486 267.806C222.486 270.774 221.562 271.572 220.54 271.572C219.574 271.572 218.636 270.774 218.636 267.806C218.636 264.824 219.574 264.012 220.54 264.012C221.562 264.012 222.486 264.824 222.486 267.806Z" fill="#173E92"/>
<path d="M458.334 63.266C460.532 63.266 462.058 62.09 462.058 60.144C462.058 58.954 461.526 58.03 460.294 57.54C461.204 57.078 461.722 56.238 461.722 55.23C461.722 53.508 460.308 52.346 458.334 52.346C456.388 52.346 454.988 53.508 454.988 55.23C454.988 56.238 455.492 57.05 456.388 57.54C455.156 58.03 454.624 58.954 454.624 60.144C454.624 62.09 456.15 63.266 458.334 63.266ZM458.334 56.854C457.256 56.854 456.836 55.986 456.836 55.258C456.836 54.46 457.326 53.83 458.334 53.83C459.342 53.83 459.86 54.46 459.86 55.258C459.86 55.986 459.426 56.854 458.334 56.854ZM458.334 61.726C457.214 61.726 456.57 61.082 456.57 60.116C456.57 58.996 457.256 58.366 458.334 58.366C459.412 58.366 460.14 58.996 460.14 60.116C460.14 61.082 459.454 61.726 458.334 61.726ZM470.524 57.806C470.524 54.082 468.858 52.402 466.618 52.402C464.434 52.402 462.754 54.082 462.754 57.806C462.754 61.502 464.434 63.196 466.618 63.196C468.858 63.196 470.524 61.502 470.524 57.806ZM468.564 57.806C468.564 60.774 467.64 61.572 466.618 61.572C465.652 61.572 464.714 60.774 464.714 57.806C464.714 54.824 465.652 54.012 466.618 54.012C467.64 54.012 468.564 54.824 468.564 57.806ZM478.863 57.806C478.863 54.082 477.197 52.402 474.957 52.402C472.773 52.402 471.093 54.082 471.093 57.806C471.093 61.502 472.773 63.196 474.957 63.196C477.197 63.196 478.863 61.502 478.863 57.806ZM476.903 57.806C476.903 60.774 475.979 61.572 474.957 61.572C473.991 61.572 473.053 60.774 473.053 57.806C473.053 54.824 473.991 54.012 474.957 54.012C475.979 54.012 476.903 54.824 476.903 57.806ZM487.203 57.806C487.203 54.082 485.537 52.402 483.297 52.402C481.113 52.402 479.433 54.082 479.433 57.806C479.433 61.502 481.113 63.196 483.297 63.196C485.537 63.196 487.203 61.502 487.203 57.806ZM485.243 57.806C485.243 60.774 484.319 61.572 483.297 61.572C482.331 61.572 481.393 60.774 481.393 57.806C481.393 54.824 482.331 54.012 483.297 54.012C484.319 54.012 485.243 54.824 485.243 57.806ZM490.531 56.56V54.572H488.487V56.56H490.531ZM490.531 62.202V60.214H488.487V62.202H490.531ZM497.238 52.528H495.586L492.562 55.132L493.668 56.392L495.376 54.838L495.32 55.748V61.446H493.276V63H499.044V61.446H497.238V52.528Z" fill="#173E92"/>
<path d="M12.503 42.048H10.711V38.422H9.26895V47.578H10.711V43.238H12.503V42.048ZM8.21895 44.988L8.07895 43.826C6.55295 44.162 5.19495 44.232 2.80095 44.232V40.648H6.98695V39.472H1.35895V45.422H2.38095C5.09695 45.422 6.56695 45.324 8.21895 44.988ZM4.15895 49.664V46.654H2.70295V50.84H11.215V49.664H4.15895ZM24.1779 38.436H22.7359V51.092H24.1779V38.436ZM17.8359 44.288C19.7259 44.288 21.0979 43.196 21.0979 41.628C21.0979 40.074 19.7259 38.982 17.8359 38.982C15.9459 38.982 14.5739 40.074 14.5739 41.628C14.5739 43.196 15.9459 44.288 17.8359 44.288ZM17.8359 40.172C18.9559 40.172 19.7119 40.732 19.7119 41.628C19.7119 42.524 18.9559 43.098 17.8359 43.098C16.7159 43.098 15.9599 42.524 15.9599 41.628C15.9599 40.732 16.7159 40.172 17.8359 40.172ZM22.0079 45.828L21.9099 44.764C19.1939 45.17 15.9879 45.212 13.7199 45.212L13.8879 46.402C14.8959 46.402 15.9879 46.388 17.1779 46.346V50.7H18.6199V46.262C19.7399 46.164 20.8879 46.052 22.0079 45.828ZM34.3916 50.182C35.7356 50.182 36.7576 49.65 37.5976 48.698L36.7296 47.676C36.1136 48.348 35.3996 48.768 34.4476 48.768C32.6276 48.768 31.4796 47.27 31.4796 44.82C31.4796 42.412 32.6976 40.914 34.4896 40.914C35.3296 40.914 35.9596 41.292 36.5056 41.838L37.3876 40.802C36.7576 40.116 35.7496 39.5 34.4616 39.5C31.8436 39.5 29.8136 41.502 29.8136 44.876C29.8136 48.236 31.8016 50.182 34.3916 50.182ZM41.9444 50.182C42.8404 50.182 43.6104 49.734 44.1844 49.132H44.2264L44.3664 50H45.6824V38.842H44.0724V41.698L44.1424 42.972C43.5124 42.426 42.9664 42.104 42.0704 42.104C40.3484 42.104 38.7664 43.644 38.7664 46.164C38.7664 48.754 39.9704 50.182 41.9444 50.182ZM42.3224 48.852C41.0904 48.852 40.4324 47.886 40.4324 46.136C40.4324 44.47 41.3004 43.448 42.3784 43.448C42.9524 43.448 43.4984 43.63 44.0724 44.148V47.914C43.5264 48.544 42.9524 48.852 42.3224 48.852ZM50.9448 38.128L47.0528 51.82H48.1728L52.0648 38.128H50.9448ZM53.5578 42.3V50H55.1538V44.54C55.7978 43.84 56.3718 43.49 56.8898 43.49C57.7858 43.49 58.1778 44.008 58.1778 45.352V50H59.7878V44.54C60.4318 43.84 61.0058 43.49 61.5238 43.49C62.4198 43.49 62.8118 44.008 62.8118 45.352V50H64.4218V45.156C64.4218 43.182 63.6938 42.104 62.0558 42.104C61.0898 42.104 60.3338 42.678 59.5498 43.518C59.2138 42.622 58.5978 42.104 57.4218 42.104C56.4698 42.104 55.6998 42.664 55.0418 43.378H54.9998L54.8738 42.3H53.5578ZM73.1912 50V48.628H69.6072C69.1592 48.628 68.6972 48.712 68.2632 48.824L70.8952 46.164C71.9312 45.128 73.0092 44.022 73.0092 42.454C73.0092 40.578 71.5812 39.542 69.8452 39.542C67.9272 39.542 66.6392 40.648 66.3732 42.496L67.9132 42.776C67.8292 41.67 68.6552 40.858 69.7612 40.858C71.7492 40.858 71.6652 42.818 70.9652 44.078C70.6012 44.652 70.1532 45.128 69.6772 45.604L66.1912 49.104V50H73.1912Z" fill="black"/>
<path d="M11.116 252.422H9.66V265.106H11.116V252.422ZM5.376 255.558V253.486H3.934V255.558C3.934 257.98 2.618 260.43 0.602 261.326L1.456 262.53C2.982 261.788 4.102 260.318 4.676 258.456C5.25 260.206 6.356 261.564 7.812 262.25L8.652 261.102C6.664 260.206 5.376 257.896 5.376 255.558ZM25.2549 256.132H23.4489V252.436H22.0069V261.592H23.4489V257.322H25.2549V256.132ZM20.0609 253.402H14.0829V254.578H18.4929C18.2269 256.608 16.5189 258.204 13.5509 259.1L14.1529 260.248C17.8349 259.128 20.0609 256.748 20.0609 253.402ZM16.8969 263.664V260.668H15.4409V264.84H23.9529V263.664H16.8969Z" fill="black"/>
<path d="M290.116 38.422H288.66V51.106H290.116V38.422ZM281.814 39.472H280.386V48.096H286.462V39.472H285.02V42.692H281.814V39.472ZM281.814 46.934V43.84H285.02V46.934H281.814ZM298.305 42.93C301.203 42.93 302.813 42.16 302.813 40.746C302.813 39.332 301.203 38.562 298.305 38.562C295.393 38.562 293.797 39.332 293.797 40.746C293.797 42.16 295.393 42.93 298.305 42.93ZM298.305 39.64C300.279 39.64 301.315 40.018 301.315 40.746C301.315 41.474 300.279 41.852 298.305 41.852C296.331 41.852 295.295 41.474 295.295 40.746C295.295 40.018 296.331 39.64 298.305 39.64ZM300.993 44.708H304.031V43.56H292.579V44.708H295.575V45.786H293.937V46.878H301.175V47.788H293.965V50.966H302.953V49.86H295.393V48.81H302.589V45.786H300.993V44.708ZM299.551 44.708V45.786H297.017V44.708H299.551Z" fill="black"/>
<path d="M290.116 252.422H288.66V265.106H290.116V252.422ZM284.376 255.558V253.486H282.934V255.558C282.934 257.98 281.618 260.43 279.602 261.326L280.456 262.53C281.982 261.788 283.102 260.318 283.676 258.456C284.25 260.206 285.356 261.564 286.812 262.25L287.652 261.102C285.664 260.206 284.376 257.896 284.376 255.558ZM304.255 256.132H302.449V252.436H301.007V261.592H302.449V257.322H304.255V256.132ZM299.061 253.402H293.083V254.578H297.493C297.227 256.608 295.519 258.204 292.551 259.1L293.153 260.248C296.835 259.128 299.061 256.748 299.061 253.402ZM295.897 263.664V260.668H294.441V264.84H302.953V263.664H295.897Z" fill="black"/>
<path d="M115.469 166.64V177H118.423C121.475 177 123.435 175.25 123.435 171.778C123.435 168.264 121.475 166.64 118.311 166.64H115.469ZM118.185 175.334H117.541V168.292H118.185C120.131 168.292 121.321 169.244 121.321 171.778C121.321 174.298 120.131 175.334 118.185 175.334ZM125.463 166.64V177H127.535V166.64H125.463ZM130.085 166.64V177H133.039C136.091 177 138.051 175.25 138.051 171.778C138.051 168.264 136.091 166.64 132.927 166.64H130.085ZM132.801 175.334H132.157V168.292H132.801C134.747 168.292 135.937 169.244 135.937 171.778C135.937 174.298 134.747 175.334 132.801 175.334Z" fill="black"/>
<path d="M115.469 380.64V391H118.423C121.475 391 123.435 389.25 123.435 385.778C123.435 382.264 121.475 380.64 118.311 380.64H115.469ZM118.185 389.334H117.541V382.292H118.185C120.131 382.292 121.321 383.244 121.321 385.778C121.321 388.298 120.131 389.334 118.185 389.334ZM125.463 380.64V391H127.535V380.64H125.463ZM130.085 380.64V391H133.039C136.091 391 138.051 389.25 138.051 385.778C138.051 382.264 136.091 380.64 132.927 380.64H130.085ZM132.801 389.334H132.157V382.292H132.801C134.747 382.292 135.937 383.244 135.937 385.778C135.937 388.298 134.747 389.334 132.801 389.334Z" fill="black"/>
<path d="M394.469 166.64V177H397.423C400.475 177 402.435 175.25 402.435 171.778C402.435 168.264 400.475 166.64 397.311 166.64H394.469ZM397.185 175.334H396.541V168.292H397.185C399.131 168.292 400.321 169.244 400.321 171.778C400.321 174.298 399.131 175.334 397.185 175.334ZM404.463 166.64V177H406.535V166.64H404.463ZM409.085 166.64V177H412.039C415.091 177 417.051 175.25 417.051 171.778C417.051 168.264 415.091 166.64 411.927 166.64H409.085ZM411.801 175.334H411.157V168.292H411.801C413.747 168.292 414.937 169.244 414.937 171.778C414.937 174.298 413.747 175.334 411.801 175.334Z" fill="black"/>
<path d="M394.469 380.64V391H397.423C400.475 391 402.435 389.25 402.435 385.778C402.435 382.264 400.475 380.64 397.311 380.64H394.469ZM397.185 389.334H396.541V382.292H397.185C399.131 382.292 400.321 383.244 400.321 385.778C400.321 388.298 399.131 389.334 397.185 389.334ZM404.463 380.64V391H406.535V380.64H404.463ZM409.085 380.64V391H412.039C415.091 391 417.051 389.25 417.051 385.778C417.051 382.264 415.091 380.64 411.927 380.64H409.085ZM411.801 389.334H411.157V382.292H411.801C413.747 382.292 414.937 383.244 414.937 385.778C414.937 388.298 413.747 389.334 411.801 389.334Z" fill="black"/>
<path d="M186.43 166.64V177H192.702V175.264H188.502V166.64H186.43ZM194.51 166.64V177H201.02V175.264H196.582V172.492H200.222V170.756H196.582V168.362H200.866V166.64H194.51ZM203.124 166.64V177H206.078C209.13 177 211.09 175.25 211.09 171.778C211.09 168.264 209.13 166.64 205.966 166.64H203.124ZM205.84 175.334H205.196V168.292H205.84C207.786 168.292 208.976 169.244 208.976 171.778C208.976 174.298 207.786 175.334 205.84 175.334Z" fill="black"/>
<path d="M186.43 380.64V391H192.702V389.264H188.502V380.64H186.43ZM194.51 380.64V391H201.02V389.264H196.582V386.492H200.222V384.756H196.582V382.362H200.866V380.64H194.51ZM203.124 380.64V391H206.078C209.13 391 211.09 389.25 211.09 385.778C211.09 382.264 209.13 380.64 205.966 380.64H203.124ZM205.84 389.334H205.196V382.292H205.84C207.786 382.292 208.976 383.244 208.976 385.778C208.976 388.298 207.786 389.334 205.84 389.334Z" fill="black"/>
<path d="M465.43 166.64V177H471.702V175.264H467.502V166.64H465.43ZM473.51 166.64V177H480.02V175.264H475.582V172.492H479.222V170.756H475.582V168.362H479.866V166.64H473.51ZM482.124 166.64V177H485.078C488.13 177 490.09 175.25 490.09 171.778C490.09 168.264 488.13 166.64 484.966 166.64H482.124ZM484.84 175.334H484.196V168.292H484.84C486.786 168.292 487.976 169.244 487.976 171.778C487.976 174.298 486.786 175.334 484.84 175.334Z" fill="black"/>
<path d="M465.43 380.64V391H471.702V389.264H467.502V380.64H465.43ZM473.51 380.64V391H480.02V389.264H475.582V386.492H479.222V384.756H475.582V382.362H479.866V380.64H473.51ZM482.124 380.64V391H485.078C488.13 391 490.09 389.25 490.09 385.778C490.09 382.264 488.13 380.64 484.966 380.64H482.124ZM484.84 389.334H484.196V382.292H484.84C486.786 382.292 487.976 383.244 487.976 385.778C487.976 388.298 486.786 389.334 484.84 389.334Z" fill="black"/>
<path d="M27 145.5C27 133.626 36.6259 124 48.5 124V124C60.3741 124 70 133.626 70 145.5V157H27V145.5Z" fill="#D9D9D9"/>
<path d="M27 335.5C27 323.626 36.6259 314 48.5 314V314C60.3741 314 70 323.626 70 335.5V371H27V335.5Z" fill="#D9D9D9"/>
<path d="M306 145.5C306 133.626 315.626 124 327.5 124V124C339.374 124 349 133.626 349 145.5V157H306V145.5Z" fill="#D9D9D9"/>
<path d="M306 345.5C306 333.626 315.626 324 327.5 324V324C339.374 324 349 333.626 349 345.5V371H306V345.5Z" fill="#D9D9D9"/>
<path d="M105 133.5C105 121.626 114.626 112 126.5 112V112C138.374 112 148 121.626 148 133.5V157H105V133.5Z" fill="#D9D9D9"/>
<path d="M105 345.5C105 333.626 114.626 324 126.5 324V324C138.374 324 148 333.626 148 345.5V371H105V345.5Z" fill="#D9D9D9"/>
<path d="M384 133.5C384 121.626 393.626 112 405.5 112V112C417.374 112 427 121.626 427 133.5V157H384V133.5Z" fill="#D9D9D9"/>
<path d="M384 307.5C384 295.626 393.626 286 405.5 286V286C417.374 286 427 295.626 427 307.5V371H384V307.5Z" fill="#D9D9D9"/>
<path d="M177 89.5C177 77.6259 186.626 68 198.5 68V68C210.374 68 220 77.6259 220 89.5V157H177V89.5Z" fill="#6FA1D6"/>
<path d="M177 298.5C177 286.626 186.626 277 198.5 277V277C210.374 277 220 286.626 220 298.5V371H177V298.5Z" fill="#6FA1D6"/>
<path d="M456 89.5C456 77.6259 465.626 68 477.5 68V68C489.374 68 499 77.6259 499 89.5V157H456V89.5Z" fill="#6FA1D6"/>
<path opacity="0.3" d="M456 268H499V371H456V268Z" fill="#6FA1D6"/>
<path d="M481.38 276.806C481.38 273.082 479.714 271.402 477.474 271.402C475.29 271.402 473.61 273.082 473.61 276.806C473.61 280.502 475.29 282.196 477.474 282.196C479.714 282.196 481.38 280.502 481.38 276.806ZM479.42 276.806C479.42 279.774 478.496 280.572 477.474 280.572C476.508 280.572 475.57 279.774 475.57 276.806C475.57 273.824 476.508 273.012 477.474 273.012C478.496 273.012 479.42 273.824 479.42 276.806Z" fill="#173E92"/>
</svg>
