<svg width="1920" height="1080" viewBox="0 0 1920 1080" fill="none" xmlns="http://www.w3.org/2000/svg">
<rect width="1920" height="1080" fill="url(#paint0_linear_2_4703)"/>
<path d="M323.276 268.36V295H332.78C338.648 295 343.112 292.516 343.112 287.152C343.112 283.552 340.988 281.536 338.108 280.852V280.672C340.376 279.916 341.744 277.288 341.744 274.912C341.744 269.908 337.568 268.36 332.096 268.36H323.276ZM331.7 279.196H328.604V272.428H331.772C334.976 272.428 336.56 273.364 336.56 275.704C336.56 277.864 335.156 279.196 331.7 279.196ZM332.312 290.896H328.604V283.156H332.312C336.056 283.156 337.928 284.236 337.928 286.828C337.928 289.6 335.948 290.896 332.312 290.896ZM353.324 295.504C356.096 295.504 358.04 294.172 359.768 292.12H359.912L360.308 295H364.628V274.84H359.336V288.448C357.932 290.284 356.924 290.968 355.232 290.968C353.216 290.968 352.424 289.924 352.424 286.756V274.84H347.132V287.44C347.132 292.48 349.004 295.504 353.324 295.504ZM376.03 295.504C381.286 295.504 384.058 292.66 384.058 289.132C384.058 285.352 381.106 284.092 378.442 283.048C376.318 282.292 374.338 281.68 374.338 280.24C374.338 279.088 375.166 278.296 377.002 278.296C378.55 278.296 379.918 279.016 381.358 280.024L383.734 276.82C382.042 275.56 379.882 274.336 376.858 274.336C372.358 274.336 369.37 276.892 369.37 280.528C369.37 283.876 372.322 285.46 374.878 286.396C377.002 287.26 379.09 287.908 379.09 289.42C379.09 290.68 378.19 291.544 376.174 291.544C374.302 291.544 372.61 290.752 370.774 289.348L368.362 292.66C370.378 294.352 373.294 295.504 376.03 295.504ZM392.882 271.6V266.488H387.626V271.6H392.882ZM387.59 295H392.846V274.84H387.59V295ZM398.043 274.84V295H403.299V281.14C404.847 279.664 405.819 278.872 407.511 278.872C409.527 278.872 410.355 279.952 410.355 283.084V295H415.647V282.436C415.647 277.36 413.775 274.336 409.419 274.336C406.683 274.336 404.631 275.776 402.867 277.504H402.723L402.363 274.84H398.043ZM429.854 295.504C432.446 295.504 434.894 294.676 436.91 293.272L435.11 290.032C433.67 290.932 432.266 291.436 430.574 291.436C427.55 291.436 425.426 289.708 424.994 286.396H437.414C437.558 285.928 437.666 284.956 437.666 283.984C437.666 278.404 434.786 274.336 429.242 274.336C424.454 274.336 419.846 278.44 419.846 284.956C419.846 291.58 424.238 295.504 429.854 295.504ZM433.13 282.904H424.922C425.318 279.988 427.19 278.44 429.314 278.44C431.906 278.44 433.13 280.168 433.13 282.904ZM447.784 295.504C453.04 295.504 455.812 292.66 455.812 289.132C455.812 285.352 452.86 284.092 450.196 283.048C448.072 282.292 446.092 281.68 446.092 280.24C446.092 279.088 446.92 278.296 448.756 278.296C450.304 278.296 451.672 279.016 453.112 280.024L455.488 276.82C453.796 275.56 451.636 274.336 448.612 274.336C444.112 274.336 441.124 276.892 441.124 280.528C441.124 283.876 444.076 285.46 446.632 286.396C448.756 287.26 450.844 287.908 450.844 289.42C450.844 290.68 449.944 291.544 447.928 291.544C446.056 291.544 444.364 290.752 442.528 289.348L440.116 292.66C442.132 294.352 445.048 295.504 447.784 295.504ZM465.608 295.504C470.864 295.504 473.636 292.66 473.636 289.132C473.636 285.352 470.684 284.092 468.02 283.048C465.896 282.292 463.916 281.68 463.916 280.24C463.916 279.088 464.744 278.296 466.58 278.296C468.128 278.296 469.496 279.016 470.936 280.024L473.312 276.82C471.62 275.56 469.46 274.336 466.436 274.336C461.936 274.336 458.948 276.892 458.948 280.528C458.948 283.876 461.9 285.46 464.456 286.396C466.58 287.26 468.668 287.908 468.668 289.42C468.668 290.68 467.768 291.544 465.752 291.544C463.88 291.544 462.188 290.752 460.352 289.348L457.94 292.66C459.956 294.352 462.872 295.504 465.608 295.504Z" fill="white"/>
<path d="M1087.01 272.96L1087.84 276H1090.32L1086.51 264.16H1083.73L1079.94 276H1082.34L1083.17 272.96H1087.01ZM1086.5 271.12H1083.68L1084.03 269.824C1084.4 268.592 1084.74 267.248 1085.04 265.952H1085.1C1085.47 267.232 1085.78 268.592 1086.14 269.824L1086.5 271.12ZM1094.67 276.224C1095.63 276.224 1096.49 275.712 1097.15 275.072H1097.19L1097.39 276H1099.29V263.232H1096.94V266.384L1097.03 267.792C1096.39 267.2 1095.79 266.816 1094.76 266.816C1092.83 266.816 1091 268.608 1091 271.536C1091 274.464 1092.43 276.224 1094.67 276.224ZM1095.27 274.288C1094.04 274.288 1093.42 273.36 1093.42 271.504C1093.42 269.712 1094.27 268.752 1095.27 268.752C1095.83 268.752 1096.38 268.928 1096.94 269.424V273.36C1096.43 274.048 1095.9 274.288 1095.27 274.288ZM1104.96 276.224C1105.92 276.224 1106.79 275.712 1107.44 275.072H1107.49L1107.68 276H1109.59V263.232H1107.23V266.384L1107.33 267.792C1106.69 267.2 1106.08 266.816 1105.06 266.816C1103.12 266.816 1101.3 268.608 1101.3 271.536C1101.3 274.464 1102.72 276.224 1104.96 276.224ZM1105.57 274.288C1104.34 274.288 1103.71 273.36 1103.71 271.504C1103.71 269.712 1104.56 268.752 1105.57 268.752C1106.13 268.752 1106.67 268.928 1107.23 269.424V273.36C1106.72 274.048 1106.19 274.288 1105.57 274.288ZM1112.11 267.04V276H1114.44V270.656C1114.96 269.36 1115.8 268.896 1116.51 268.896C1116.88 268.896 1117.13 268.928 1117.44 269.04L1117.85 267.008C1117.58 266.896 1117.29 266.816 1116.8 266.816C1115.84 266.816 1114.91 267.456 1114.25 268.624H1114.19L1114.03 267.04H1112.11ZM1122.96 276.224C1124.12 276.224 1125.2 275.856 1126.1 275.232L1125.3 273.792C1124.66 274.192 1124.04 274.416 1123.28 274.416C1121.94 274.416 1121 273.648 1120.8 272.176H1126.32C1126.39 271.968 1126.44 271.536 1126.44 271.104C1126.44 268.624 1125.16 266.816 1122.69 266.816C1120.56 266.816 1118.52 268.64 1118.52 271.536C1118.52 274.48 1120.47 276.224 1122.96 276.224ZM1124.42 270.624H1120.77C1120.95 269.328 1121.78 268.64 1122.72 268.64C1123.88 268.64 1124.42 269.408 1124.42 270.624ZM1130.93 276.224C1133.27 276.224 1134.5 274.96 1134.5 273.392C1134.5 271.712 1133.19 271.152 1132.01 270.688C1131.06 270.352 1130.18 270.08 1130.18 269.44C1130.18 268.928 1130.55 268.576 1131.37 268.576C1132.05 268.576 1132.66 268.896 1133.3 269.344L1134.36 267.92C1133.61 267.36 1132.65 266.816 1131.3 266.816C1129.3 266.816 1127.97 267.952 1127.97 269.568C1127.97 271.056 1129.29 271.76 1130.42 272.176C1131.37 272.56 1132.29 272.848 1132.29 273.52C1132.29 274.08 1131.89 274.464 1131 274.464C1130.17 274.464 1129.41 274.112 1128.6 273.488L1127.53 274.96C1128.42 275.712 1129.72 276.224 1130.93 276.224ZM1138.86 276.224C1141.19 276.224 1142.42 274.96 1142.42 273.392C1142.42 271.712 1141.11 271.152 1139.93 270.688C1138.98 270.352 1138.1 270.08 1138.1 269.44C1138.1 268.928 1138.47 268.576 1139.29 268.576C1139.98 268.576 1140.58 268.896 1141.22 269.344L1142.28 267.92C1141.53 267.36 1140.57 266.816 1139.22 266.816C1137.22 266.816 1135.9 267.952 1135.9 269.568C1135.9 271.056 1137.21 271.76 1138.34 272.176C1139.29 272.56 1140.22 272.848 1140.22 273.52C1140.22 274.08 1139.82 274.464 1138.92 274.464C1138.09 274.464 1137.34 274.112 1136.52 273.488L1135.45 274.96C1136.34 275.712 1137.64 276.224 1138.86 276.224Z" fill="white"/>
<path d="M1086.29 384.224C1087.84 384.224 1089.09 383.648 1090.06 382.48L1088.82 381.008C1088.18 381.696 1087.39 382.176 1086.37 382.176C1084.5 382.176 1083.28 380.624 1083.28 378.048C1083.28 375.504 1084.62 373.968 1086.42 373.968C1087.31 373.968 1088 374.384 1088.59 374.96L1089.84 373.456C1089.07 372.64 1087.9 371.936 1086.37 371.936C1083.38 371.936 1080.86 374.224 1080.86 378.128C1080.86 382.08 1083.28 384.224 1086.29 384.224ZM1095.52 384.224C1097.76 384.224 1099.83 382.48 1099.83 379.536C1099.83 376.544 1097.76 374.816 1095.52 374.816C1093.28 374.816 1091.22 376.544 1091.22 379.536C1091.22 382.48 1093.28 384.224 1095.52 384.224ZM1095.52 382.304C1094.31 382.304 1093.62 381.216 1093.62 379.536C1093.62 377.808 1094.31 376.736 1095.52 376.736C1096.74 376.736 1097.43 377.808 1097.43 379.536C1097.43 381.216 1096.74 382.304 1095.52 382.304ZM1101.8 375.04V384H1104.13V377.84C1104.82 377.184 1105.25 376.832 1106 376.832C1106.9 376.832 1107.27 377.312 1107.27 378.704V384H1109.62V378.416C1109.62 376.16 1108.79 374.816 1106.85 374.816C1105.64 374.816 1104.72 375.456 1103.94 376.224H1103.88L1103.72 375.04H1101.8ZM1115.33 384.224C1116.11 384.224 1116.72 384.064 1117.21 383.888L1116.83 382.176C1116.59 382.288 1116.25 382.368 1115.95 382.368C1115.13 382.368 1114.73 381.872 1114.73 380.864V376.896H1116.94V375.04H1114.73V372.64H1112.77L1112.49 375.04L1111.12 375.152V376.896H1112.38V380.864C1112.38 382.88 1113.2 384.224 1115.33 384.224ZM1120.97 384.16C1122 384.16 1122.91 383.744 1123.68 383.088H1123.72L1123.9 384H1125.82V378.768C1125.82 376.128 1124.67 374.816 1122.38 374.816C1120.97 374.816 1119.63 375.28 1118.65 375.872L1119.36 377.552C1120.17 377.024 1121.12 376.704 1121.95 376.704C1122.64 376.704 1123.07 376.848 1123.26 377.12C1123.44 377.488 1123.52 377.872 1123.47 378.256C1119.76 378.368 1118.2 379.376 1118.32 381.568C1118.32 383.12 1119.37 384.16 1120.97 384.16ZM1121.69 382.368C1121 382.368 1120.49 381.92 1120.48 381.168C1120.46 380.528 1120.83 380.016 1121.85 379.872C1122.36 379.792 1122.91 379.744 1123.47 379.696V381.504C1122.91 382.064 1122.38 382.352 1121.69 382.368ZM1132.03 384.224C1133.05 384.224 1134.11 383.888 1134.95 383.136L1134.03 381.584C1133.53 382.016 1132.92 382.304 1132.28 382.304C1130.73 382.304 1130.06 380.896 1130.06 379.536C1130.06 377.808 1130.99 376.736 1132.35 376.736C1132.86 376.736 1133.27 376.944 1133.72 377.328L1134.84 375.808C1134.19 375.248 1133.34 374.816 1132.23 374.816C1129.8 374.816 1127.66 376.544 1127.66 379.536C1127.66 382.48 1129.55 384.224 1132.03 384.224ZM1139.93 384.224C1140.72 384.224 1141.33 384.064 1141.82 383.888L1141.44 382.176C1141.2 382.288 1140.86 382.368 1140.56 382.368C1139.74 382.368 1139.34 381.872 1139.34 380.864V376.896H1141.55V375.04H1139.34V372.64H1137.37L1137.1 375.04L1135.73 375.152V376.896H1136.99V380.864C1136.99 382.88 1137.81 384.224 1139.93 384.224Z" fill="white"/>
<path d="M1092.82 290.752H1091.15V295.504H1088.06V296.848H1091.15V305.248H1092.82V290.752ZM1086.05 294.336V291.952H1084.38V294.336C1084.38 297.04 1082.98 299.824 1080.72 300.928L1081.76 302.24C1083.42 301.392 1084.59 299.728 1085.23 297.664C1085.86 299.6 1086.99 301.184 1088.66 302L1089.63 300.672C1087.41 299.648 1086.05 297.008 1086.05 294.336ZM1102.06 295.92C1105.37 295.92 1107.21 295.04 1107.21 293.424C1107.21 291.808 1105.37 290.928 1102.06 290.928C1098.73 290.928 1096.91 291.808 1096.91 293.424C1096.91 295.04 1098.73 295.92 1102.06 295.92ZM1102.06 292.16C1104.32 292.16 1105.5 292.592 1105.5 293.424C1105.5 294.256 1104.32 294.688 1102.06 294.688C1099.81 294.688 1098.62 294.256 1098.62 293.424C1098.62 292.592 1099.81 292.16 1102.06 292.16ZM1102.88 298.016H1108.59V296.704H1095.52V298.016H1101.21V299.184H1097.07V300.432H1105.34V301.472H1097.1V305.104H1107.37V303.84H1098.73V302.64H1106.96V299.184H1102.88V298.016ZM1121.85 297.2V295.936H1113.55V294.768H1121.41V293.536H1113.55V292.416H1121.76V291.152H1111.9V297.2H1121.85ZM1123.31 298.352H1110.22V299.68H1123.31V298.352ZM1111.69 300.864V302.192H1120.01V305.248H1121.66V300.864H1111.69ZM1132.28 297.776V296.64H1135.28V298.272H1136.94V290.784H1135.28V292.736H1132.28V291.424H1130.67V293.312H1127.26V291.424H1125.63V297.776H1132.28ZM1132.28 294H1135.28V295.36H1132.28V294ZM1130.67 294.576V296.464H1127.26V294.576H1130.67ZM1137.42 303.76H1129.18V302.528H1136.94V298.912H1127.53V300.208H1135.31V301.312H1127.55V305.056H1137.42V303.76ZM1151.58 290.768H1149.92V305.264H1151.58V290.768ZM1145.02 294.352V291.984H1143.37V294.352C1143.37 297.12 1141.87 299.92 1139.56 300.944L1140.54 302.32C1142.28 301.472 1143.56 299.792 1144.22 297.664C1144.88 299.664 1146.14 301.216 1147.8 302L1148.76 300.688C1146.49 299.664 1145.02 297.024 1145.02 294.352ZM1164.82 297.392H1168.31V299.296H1169.96V290.768H1168.31V292.768H1164.82C1164.13 292.048 1163.17 291.6 1161.96 291.6C1159.8 291.6 1158.18 293.04 1158.18 295.088C1158.18 297.12 1159.8 298.56 1161.96 298.56C1163.12 298.56 1164.13 298.144 1164.82 297.392ZM1159.75 295.088C1159.75 293.824 1160.68 292.992 1161.96 292.992C1163.24 292.992 1164.13 293.808 1164.13 295.088C1164.13 296.368 1163.24 297.168 1161.96 297.168C1160.68 297.168 1159.75 296.32 1159.75 295.088ZM1165.57 294.112H1168.31V296.064H1165.56C1165.65 295.76 1165.7 295.424 1165.7 295.088C1165.7 294.784 1165.65 294.48 1165.57 294.112ZM1165.14 299.616C1162.13 299.616 1160.28 300.672 1160.28 302.416C1160.28 304.192 1162.13 305.232 1165.14 305.232C1168.15 305.232 1170.02 304.192 1170.02 302.416C1170.02 300.672 1168.15 299.616 1165.14 299.616ZM1165.14 303.936C1163.08 303.936 1161.89 303.44 1161.89 302.416C1161.89 301.456 1163.08 300.912 1165.14 300.912C1167.2 300.912 1168.39 301.456 1168.39 302.416C1168.39 303.44 1167.2 303.936 1165.14 303.936ZM1184.27 296.336V295.008H1175.97V292.608H1184.18V291.28H1174.34V296.336H1184.27ZM1185.78 297.536H1172.72V298.896H1185.78V297.536ZM1179.2 299.968C1176.11 299.968 1174.23 300.928 1174.23 302.592C1174.23 304.272 1176.11 305.232 1179.2 305.232C1182.39 305.232 1184.18 304.272 1184.18 302.592C1184.18 300.928 1182.31 299.968 1179.2 299.968ZM1179.2 303.952C1177.07 303.952 1175.91 303.488 1175.91 302.592C1175.91 301.696 1177.07 301.232 1179.2 301.232C1181.33 301.232 1182.51 301.696 1182.51 302.592C1182.51 303.488 1181.33 303.952 1179.2 303.952ZM1200.53 302.16H1194.75V299.184H1199.33V297.856H1197.23V293.408H1199.36V292.08H1188.5V293.408H1190.63V297.856H1188.55V299.184H1193.11V302.16H1187.41V303.52H1200.53V302.16ZM1192.27 297.856V293.408H1195.6V297.856H1192.27ZM1215.22 299.2V297.84H1213.2C1213.57 295.792 1213.57 294.288 1213.57 292.928V291.664H1203.71V292.992H1211.95C1211.95 294.32 1211.97 295.84 1211.54 297.84H1202.14V299.2H1207.79V305.232H1209.46V299.2H1215.22ZM1227.27 297.392H1230.76V299.296H1232.41V290.768H1230.76V292.768H1227.27C1226.59 292.048 1225.63 291.6 1224.41 291.6C1222.25 291.6 1220.63 293.04 1220.63 295.088C1220.63 297.12 1222.25 298.56 1224.41 298.56C1225.58 298.56 1226.59 298.144 1227.27 297.392ZM1222.2 295.088C1222.2 293.824 1223.13 292.992 1224.41 292.992C1225.69 292.992 1226.59 293.808 1226.59 295.088C1226.59 296.368 1225.69 297.168 1224.41 297.168C1223.13 297.168 1222.2 296.32 1222.2 295.088ZM1228.03 294.112H1230.76V296.064H1228.01C1228.11 295.76 1228.15 295.424 1228.15 295.088C1228.15 294.784 1228.11 294.48 1228.03 294.112ZM1227.59 299.616C1224.59 299.616 1222.73 300.672 1222.73 302.416C1222.73 304.192 1224.59 305.232 1227.59 305.232C1230.6 305.232 1232.47 304.192 1232.47 302.416C1232.47 300.672 1230.6 299.616 1227.59 299.616ZM1227.59 303.936C1225.53 303.936 1224.35 303.44 1224.35 302.416C1224.35 301.456 1225.53 300.912 1227.59 300.912C1229.66 300.912 1230.84 301.456 1230.84 302.416C1230.84 303.44 1229.66 303.936 1227.59 303.936ZM1247.06 301.36V290.8H1245.42V301.36H1247.06ZM1243.06 299.088L1243.91 297.776C1241.69 297.008 1240.42 295.072 1240.42 293.024V291.584H1238.74V293.024C1238.74 295.152 1237.48 297.168 1235.21 298.032L1236.06 299.36C1237.78 298.72 1238.95 297.408 1239.61 295.792C1240.23 297.328 1241.4 298.464 1243.06 299.088ZM1247.48 303.616H1239.29V300.368H1237.62V304.96H1247.48V303.616ZM1262.97 302.176H1257.22V299.712H1261.73V298.384H1253.08V296.368H1261.41V291.792H1251.43V293.12H1259.78V295.056H1251.46V299.712H1255.57V302.176H1249.88V303.536H1262.97V302.176ZM1276.11 304V302.432H1272.02C1271.5 302.432 1270.98 302.528 1270.48 302.656L1273.49 299.616C1274.67 298.432 1275.9 297.168 1275.9 295.376C1275.9 293.232 1274.27 292.048 1272.29 292.048C1270.1 292.048 1268.62 293.312 1268.32 295.424L1270.08 295.744C1269.98 294.48 1270.93 293.552 1272.19 293.552C1274.46 293.552 1274.37 295.792 1273.57 297.232C1273.15 297.888 1272.64 298.432 1272.1 298.976L1268.11 302.976V304H1276.11ZM1285.64 304V302.432H1281.55C1281.03 302.432 1280.51 302.528 1280.01 302.656L1283.02 299.616C1284.2 298.432 1285.43 297.168 1285.43 295.376C1285.43 293.232 1283.8 292.048 1281.82 292.048C1279.63 292.048 1278.15 293.312 1277.85 295.424L1279.61 295.744C1279.51 294.48 1280.46 293.552 1281.72 293.552C1283.99 293.552 1283.9 295.792 1283.1 297.232C1282.68 297.888 1282.17 298.432 1281.63 298.976L1277.64 302.976V304H1285.64ZM1295.49 298.096C1295.49 295.376 1294.52 292.048 1291.17 292.048C1287.88 292.048 1286.87 295.28 1286.87 298.096C1286.87 300.912 1287.88 304.128 1291.17 304.128C1294.47 304.128 1295.49 300.912 1295.49 298.096ZM1293.67 298.096C1293.67 299.744 1293.38 302.656 1291.17 302.656C1288.98 302.656 1288.68 299.744 1288.68 298.096C1288.68 296.448 1288.97 293.536 1291.17 293.536C1293.38 293.536 1293.67 296.448 1293.67 298.096ZM1296.88 301.968L1296.27 305.296H1297.75L1298.77 301.968H1296.88ZM1309.61 297.824C1310.78 297.376 1311.38 296.432 1311.38 295.184C1311.38 293.184 1309.62 292.048 1307.74 292.048C1305.85 292.048 1304.09 293.184 1304.09 295.184C1304.09 296.432 1304.7 297.376 1305.88 297.824C1304.47 298.256 1303.69 299.216 1303.69 300.704C1303.69 303.008 1305.56 304.128 1307.74 304.128C1309.82 304.128 1311.78 303.056 1311.78 300.704C1311.78 299.232 1311 298.256 1309.61 297.824ZM1307.74 293.392C1308.82 293.392 1309.67 294.048 1309.67 295.216C1309.67 296.448 1308.92 297.168 1307.74 297.168C1306.54 297.168 1305.8 296.464 1305.8 295.216C1305.8 294.08 1306.6 293.392 1307.74 293.392ZM1307.74 302.736C1306.44 302.736 1305.5 301.968 1305.5 300.672C1305.5 299.264 1306.46 298.576 1307.74 298.576C1309.02 298.576 1309.98 299.28 1309.98 300.672C1309.98 302.032 1308.97 302.736 1307.74 302.736ZM1321.57 298.096C1321.57 295.376 1320.6 292.048 1317.25 292.048C1313.96 292.048 1312.95 295.28 1312.95 298.096C1312.95 300.912 1313.96 304.128 1317.25 304.128C1320.55 304.128 1321.57 300.912 1321.57 298.096ZM1319.75 298.096C1319.75 299.744 1319.46 302.656 1317.25 302.656C1315.06 302.656 1314.76 299.744 1314.76 298.096C1314.76 296.448 1315.04 293.536 1317.25 293.536C1319.46 293.536 1319.75 296.448 1319.75 298.096ZM1323.86 301.52L1322.94 302.8C1323.14 302.976 1323.34 303.136 1323.6 303.296C1324.35 303.856 1325.41 304.128 1326.32 304.128C1328.85 304.128 1330.66 302.448 1330.66 299.952C1330.66 297.616 1329.02 296.368 1326.86 296.368C1326.35 296.368 1325.81 296.432 1325.3 296.544L1325.78 293.792H1330.27V292.176H1324.54L1323.58 297.824L1324.67 298.128C1325.26 297.952 1325.87 297.824 1326.5 297.824C1327.97 297.824 1328.9 298.592 1328.9 300.048C1328.9 301.504 1327.98 302.624 1326.43 302.624C1325.49 302.624 1324.53 302.16 1323.86 301.52ZM1344.79 294.08V292.752H1339.72V290.976H1338.07V292.752H1332.97V294.08H1344.79ZM1345.47 302.304H1339.72V300.448C1342.23 300.256 1343.69 299.28 1343.69 297.68C1343.69 295.936 1341.83 294.912 1338.87 294.912C1335.93 294.912 1334.07 295.936 1334.07 297.68C1334.07 299.28 1335.56 300.272 1338.07 300.448V302.304H1332.36V303.664H1345.47V302.304ZM1335.75 297.68C1335.75 296.72 1336.87 296.192 1338.87 296.192C1340.87 296.192 1342.01 296.72 1342.01 297.68C1342.01 298.64 1340.87 299.184 1338.87 299.184C1336.87 299.184 1335.75 298.64 1335.75 297.68ZM1352.39 299.472C1353.21 299.472 1354.03 299.008 1354.78 297.792L1353.77 297.056C1353.39 297.776 1352.94 298.128 1352.43 298.128C1351.42 298.128 1350.7 296.656 1349.26 296.656C1348.44 296.656 1347.59 297.136 1346.87 298.352L1347.87 299.072C1348.25 298.352 1348.7 298 1349.23 298C1350.25 298 1350.94 299.472 1352.39 299.472ZM1365.62 297.824C1366.79 297.376 1367.4 296.432 1367.4 295.184C1367.4 293.184 1365.64 292.048 1363.75 292.048C1361.86 292.048 1360.1 293.184 1360.1 295.184C1360.1 296.432 1360.71 297.376 1361.9 297.824C1360.49 298.256 1359.7 299.216 1359.7 300.704C1359.7 303.008 1361.58 304.128 1363.75 304.128C1365.83 304.128 1367.8 303.056 1367.8 300.704C1367.8 299.232 1367.02 298.256 1365.62 297.824ZM1363.75 293.392C1364.84 293.392 1365.69 294.048 1365.69 295.216C1365.69 296.448 1364.94 297.168 1363.75 297.168C1362.55 297.168 1361.82 296.464 1361.82 295.216C1361.82 294.08 1362.62 293.392 1363.75 293.392ZM1363.75 302.736C1362.46 302.736 1361.51 301.968 1361.51 300.672C1361.51 299.264 1362.47 298.576 1363.75 298.576C1365.03 298.576 1365.99 299.28 1365.99 300.672C1365.99 302.032 1364.98 302.736 1363.75 302.736ZM1377.59 298.096C1377.59 295.376 1376.61 292.048 1373.27 292.048C1369.97 292.048 1368.96 295.28 1368.96 298.096C1368.96 300.912 1369.97 304.128 1373.27 304.128C1376.56 304.128 1377.59 300.912 1377.59 298.096ZM1375.76 298.096C1375.76 299.744 1375.48 302.656 1373.27 302.656C1371.08 302.656 1370.77 299.744 1370.77 298.096C1370.77 296.448 1371.06 293.536 1373.27 293.536C1375.48 293.536 1375.76 296.448 1375.76 298.096ZM1385.65 292.176H1383.45L1380.22 296.496C1379.49 297.488 1378.81 298.752 1378.81 300.016C1378.81 302.528 1380.37 304.128 1382.81 304.128C1385.1 304.128 1386.94 302.512 1386.94 300.208C1386.94 298.16 1385.58 296.672 1383.44 296.672C1382.81 296.672 1382.19 296.832 1381.65 297.136L1385.65 292.176ZM1382.78 302.672C1381.31 302.672 1380.51 301.68 1380.51 300.304C1380.51 298.992 1381.5 298.016 1382.85 298.016C1384.25 298.016 1385.18 298.928 1385.18 300.336C1385.18 301.728 1384.11 302.672 1382.78 302.672ZM1400.81 294.08V292.752H1395.74V290.976H1394.09V292.752H1388.99V294.08H1400.81ZM1401.48 302.304H1395.74V300.448C1398.25 300.256 1399.71 299.28 1399.71 297.68C1399.71 295.936 1397.85 294.912 1394.89 294.912C1391.95 294.912 1390.09 295.936 1390.09 297.68C1390.09 299.28 1391.58 300.272 1394.09 300.448V302.304H1388.38V303.664H1401.48V302.304ZM1391.77 297.68C1391.77 296.72 1392.89 296.192 1394.89 296.192C1396.89 296.192 1398.03 296.72 1398.03 297.68C1398.03 298.64 1396.89 299.184 1394.89 299.184C1392.89 299.184 1391.77 298.64 1391.77 297.68ZM1083.78 326.32L1084.93 325.808C1083.52 323.488 1082.91 320.896 1082.91 318.128C1082.91 315.376 1083.52 312.768 1084.93 310.448L1083.78 309.952C1082.29 312.368 1081.41 314.976 1081.41 318.128C1081.41 321.312 1082.29 323.888 1083.78 326.32ZM1093.34 317.392H1096.82V319.296H1098.47V310.768H1096.82V312.768H1093.34C1092.65 312.048 1091.69 311.6 1090.47 311.6C1088.31 311.6 1086.7 313.04 1086.7 315.088C1086.7 317.12 1088.31 318.56 1090.47 318.56C1091.64 318.56 1092.65 318.144 1093.34 317.392ZM1088.26 315.088C1088.26 313.824 1089.19 312.992 1090.47 312.992C1091.75 312.992 1092.65 313.808 1092.65 315.088C1092.65 316.368 1091.75 317.168 1090.47 317.168C1089.19 317.168 1088.26 316.32 1088.26 315.088ZM1094.09 314.112H1096.82V316.064H1094.07C1094.17 315.76 1094.22 315.424 1094.22 315.088C1094.22 314.784 1094.17 314.48 1094.09 314.112ZM1093.66 319.616C1090.65 319.616 1088.79 320.672 1088.79 322.416C1088.79 324.192 1090.65 325.232 1093.66 325.232C1096.66 325.232 1098.54 324.192 1098.54 322.416C1098.54 320.672 1096.66 319.616 1093.66 319.616ZM1093.66 323.936C1091.59 323.936 1090.41 323.44 1090.41 322.416C1090.41 321.456 1091.59 320.912 1093.66 320.912C1095.72 320.912 1096.9 321.456 1096.9 322.416C1096.9 323.44 1095.72 323.936 1093.66 323.936ZM1112.79 316.336V315.008H1104.49V312.608H1112.69V311.28H1102.85V316.336H1112.79ZM1114.29 317.536H1101.24V318.896H1114.29V317.536ZM1107.72 319.968C1104.63 319.968 1102.74 320.928 1102.74 322.592C1102.74 324.272 1104.63 325.232 1107.72 325.232C1110.9 325.232 1112.69 324.272 1112.69 322.592C1112.69 320.928 1110.82 319.968 1107.72 319.968ZM1107.72 323.952C1105.59 323.952 1104.42 323.488 1104.42 322.592C1104.42 321.696 1105.59 321.232 1107.72 321.232C1109.85 321.232 1111.03 321.696 1111.03 322.592C1111.03 323.488 1109.85 323.952 1107.72 323.952ZM1129.05 322.16H1123.27V319.184H1127.85V317.856H1125.75V313.408H1127.88V312.08H1117.01V313.408H1119.14V317.856H1117.06V319.184H1121.62V322.16H1115.93V323.52H1129.05V322.16ZM1120.79 317.856V313.408H1124.12V317.856H1120.79ZM1143.73 317.76H1138.02V316.32H1142.23V314.992H1133.92V312.736H1142.13V311.424H1132.29V316.32H1136.37V317.76H1130.68V319.104H1143.73V317.76ZM1137.16 319.984C1134.07 319.984 1132.18 320.944 1132.18 322.608C1132.18 324.288 1134.07 325.248 1137.16 325.248C1140.34 325.248 1142.13 324.288 1142.13 322.608C1142.13 320.944 1140.26 319.984 1137.16 319.984ZM1137.16 323.968C1135.03 323.968 1133.86 323.504 1133.86 322.608C1133.86 321.712 1135.03 321.248 1137.16 321.248C1139.28 321.248 1140.47 321.712 1140.47 322.608C1140.47 323.504 1139.28 323.968 1137.16 323.968ZM1151.2 317.824C1152.37 317.376 1152.98 316.432 1152.98 315.184C1152.98 313.184 1151.22 312.048 1149.33 312.048C1147.44 312.048 1145.68 313.184 1145.68 315.184C1145.68 316.432 1146.29 317.376 1147.47 317.824C1146.07 318.256 1145.28 319.216 1145.28 320.704C1145.28 323.008 1147.15 324.128 1149.33 324.128C1151.41 324.128 1153.38 323.056 1153.38 320.704C1153.38 319.232 1152.59 318.256 1151.2 317.824ZM1149.33 313.392C1150.42 313.392 1151.27 314.048 1151.27 315.216C1151.27 316.448 1150.51 317.168 1149.33 317.168C1148.13 317.168 1147.39 316.464 1147.39 315.216C1147.39 314.08 1148.19 313.392 1149.33 313.392ZM1149.33 322.736C1148.03 322.736 1147.09 321.968 1147.09 320.672C1147.09 319.264 1148.05 318.576 1149.33 318.576C1150.61 318.576 1151.57 319.28 1151.57 320.672C1151.57 322.032 1150.56 322.736 1149.33 322.736ZM1168.29 317.856V316.48H1166.09V310.768H1164.45V325.216H1166.09V317.856H1168.29ZM1162.32 312.304H1155.61V313.648H1160.67C1160.33 316.96 1158.4 319.52 1154.89 321.328L1155.81 322.592C1160.53 320.208 1162.32 316.496 1162.32 312.304ZM1173.93 312.224V324H1175.78V320.448L1177.59 318.24L1180.92 324H1182.98L1178.73 316.768L1182.37 312.224H1180.31L1175.83 317.792H1175.78V312.224H1173.93ZM1184.38 315.2V324H1186.2V317.76C1186.98 316.976 1187.54 316.56 1188.36 316.56C1189.4 316.56 1189.85 317.152 1189.85 318.688V324H1191.69V318.464C1191.69 316.208 1190.86 314.976 1188.98 314.976C1187.78 314.976 1186.89 315.632 1186.07 316.416H1186.02L1185.88 315.2H1184.38ZM1194.52 312.224V324H1196.38V320.448L1198.18 318.24L1201.51 324H1203.58L1199.32 316.768L1202.97 312.224H1200.9L1196.42 317.792H1196.38V312.224H1194.52ZM1216.3 310.768H1214.63V325.264H1216.3V310.768ZM1206.94 320.352V313.472H1212.19V312.112H1205.31V321.728H1206.51C1209.5 321.728 1211.37 321.648 1213.47 321.264L1213.29 319.888C1211.35 320.272 1209.63 320.352 1206.94 320.352ZM1231.02 310.784H1229.35V325.232H1231.02V310.784ZM1224.46 314.96V313.584H1227.67V312.224H1219.58V313.584H1222.79V314.96C1222.79 317.408 1221.3 320.16 1219.06 321.168L1220.01 322.48C1221.7 321.68 1223 319.936 1223.64 317.936C1224.33 319.808 1225.61 321.36 1227.29 322.112L1228.2 320.816C1225.94 319.84 1224.46 317.376 1224.46 314.96ZM1244.15 315.296V318.512H1245.82V310.768H1244.15V313.984H1241.66V315.296H1244.15ZM1241.88 317.744L1241.75 316.432C1240.04 316.736 1238.55 316.768 1236.18 316.768V315.424H1240.71V314.176H1236.18V312.928H1241.13V311.632H1234.54V318.064H1235.62C1238.36 318.064 1239.96 318.048 1241.88 317.744ZM1246.3 323.824H1238.06V322.656H1245.82V319.104H1236.41V320.384H1244.18V321.472H1236.42V325.104H1246.3V323.824ZM1262.01 317.808V316.448H1259.75V310.768H1258.1V325.248H1259.75V317.808H1262.01ZM1250.81 320.512V317.408H1255.64V316.08H1250.81V313.392H1255.91V312.032H1249.16V321.856H1250.33C1252.89 321.856 1254.85 321.76 1257.06 321.424L1256.9 320.08C1254.87 320.416 1253.11 320.512 1250.81 320.512ZM1275.32 310.784H1273.65V320.576H1270.56V321.84H1273.65V325.232H1275.32V310.784ZM1267.92 317.248C1270.05 317.248 1271.57 316.08 1271.57 314.336C1271.57 312.624 1270.05 311.456 1267.92 311.456C1265.8 311.456 1264.26 312.624 1264.26 314.336C1264.26 316.08 1265.8 317.248 1267.92 317.248ZM1267.92 312.704C1269.16 312.704 1270.02 313.312 1270.02 314.336C1270.02 315.36 1269.16 315.968 1267.92 315.968C1266.64 315.968 1265.81 315.36 1265.81 314.336C1265.81 313.312 1266.64 312.704 1267.92 312.704ZM1272.74 319.024L1272.64 317.808C1269.51 318.24 1265.96 318.272 1263.22 318.272L1263.43 319.632C1264.52 319.632 1265.73 319.616 1267.01 319.568V324.784H1268.66V319.488C1270.02 319.408 1271.4 319.264 1272.74 319.024ZM1277.91 325.808L1279.06 326.32C1280.58 323.888 1281.44 321.312 1281.44 318.128C1281.44 314.976 1280.58 312.368 1279.06 309.952L1277.91 310.448C1279.32 312.768 1279.92 315.376 1279.92 318.128C1279.92 320.896 1279.32 323.488 1277.91 325.808ZM1288.09 310.512V326.16H1289.32V310.512H1288.09ZM1301.86 317.728C1304.88 317.728 1306.98 316.48 1306.98 314.512C1306.98 312.544 1304.88 311.312 1301.86 311.312C1298.8 311.312 1296.72 312.544 1296.72 314.512C1296.72 316.48 1298.8 317.728 1301.86 317.728ZM1301.86 312.64C1303.92 312.64 1305.28 313.344 1305.28 314.512C1305.28 315.728 1303.92 316.4 1301.86 316.4C1299.73 316.4 1298.42 315.728 1298.42 314.512C1298.42 313.344 1299.73 312.64 1301.86 312.64ZM1308.44 320.32V318.96H1295.33V320.32H1301.01V325.232H1302.66V320.32H1308.44ZM1309.97 325.808L1311.12 326.32C1312.64 323.888 1313.51 321.312 1313.51 318.128C1313.51 314.976 1312.64 312.368 1311.12 309.952L1309.97 310.448C1311.38 312.768 1311.99 315.376 1311.99 318.128C1311.99 320.896 1311.38 323.488 1309.97 325.808ZM1327.59 318.096C1327.59 315.376 1326.61 312.048 1323.27 312.048C1319.97 312.048 1318.96 315.28 1318.96 318.096C1318.96 320.912 1319.97 324.128 1323.27 324.128C1326.56 324.128 1327.59 320.912 1327.59 318.096ZM1325.76 318.096C1325.76 319.744 1325.48 322.656 1323.27 322.656C1321.08 322.656 1320.77 319.744 1320.77 318.096C1320.77 316.448 1321.06 313.536 1323.27 313.536C1325.48 313.536 1325.76 316.448 1325.76 318.096ZM1336.93 313.424V312.176H1328.81V313.792H1335.13C1334.91 314.048 1334.72 314.336 1334.57 314.64L1329.81 324H1331.73L1336.93 313.424ZM1346.33 324V322.432H1342.23C1341.72 322.432 1341.19 322.528 1340.7 322.656L1343.71 319.616C1344.89 318.432 1346.12 317.168 1346.12 315.376C1346.12 313.232 1344.49 312.048 1342.51 312.048C1340.31 312.048 1338.84 313.312 1338.54 315.424L1340.3 315.744C1340.2 314.48 1341.15 313.552 1342.41 313.552C1344.68 313.552 1344.59 315.792 1343.79 317.232C1343.37 317.888 1342.86 318.432 1342.31 318.976L1338.33 322.976V324H1346.33ZM1355.86 324V322.432H1351.77C1351.25 322.432 1350.73 322.528 1350.23 322.656L1353.24 319.616C1354.42 318.432 1355.65 317.168 1355.65 315.376C1355.65 313.232 1354.02 312.048 1352.04 312.048C1349.85 312.048 1348.37 313.312 1348.07 315.424L1349.83 315.744C1349.73 314.48 1350.68 313.552 1351.94 313.552C1354.21 313.552 1354.12 315.792 1353.32 317.232C1352.9 317.888 1352.39 318.432 1351.85 318.976L1347.86 322.976V324H1355.86ZM1363.28 317.824C1364.45 317.376 1365.06 316.432 1365.06 315.184C1365.06 313.184 1363.3 312.048 1361.41 312.048C1359.52 312.048 1357.76 313.184 1357.76 315.184C1357.76 316.432 1358.37 317.376 1359.55 317.824C1358.14 318.256 1357.36 319.216 1357.36 320.704C1357.36 323.008 1359.23 324.128 1361.41 324.128C1363.49 324.128 1365.46 323.056 1365.46 320.704C1365.46 319.232 1364.67 318.256 1363.28 317.824ZM1361.41 313.392C1362.5 313.392 1363.34 314.048 1363.34 315.216C1363.34 316.448 1362.59 317.168 1361.41 317.168C1360.21 317.168 1359.47 316.464 1359.47 315.216C1359.47 314.08 1360.27 313.392 1361.41 313.392ZM1361.41 322.736C1360.11 322.736 1359.17 321.968 1359.17 320.672C1359.17 319.264 1360.13 318.576 1361.41 318.576C1362.69 318.576 1363.65 319.28 1363.65 320.672C1363.65 322.032 1362.64 322.736 1361.41 322.736Z" fill="#8A8A8A"/>
<path d="M1083.94 401.776V412H1085.79V401.776H1089.26V400.224H1080.48V401.776H1083.94ZM1091.32 400.224V412H1098.45V410.432H1093.17V406.624H1097.49V405.056H1093.17V401.776H1098.28V400.224H1091.32ZM1100.9 400.224V412H1107.73V410.432H1102.75V400.224H1100.9ZM1114.88 404.496V402.512H1113V404.496H1114.88ZM1114.88 411.088V409.104H1113V411.088H1114.88ZM1128.68 406.096C1128.68 403.376 1127.71 400.048 1124.36 400.048C1121.07 400.048 1120.06 403.28 1120.06 406.096C1120.06 408.912 1121.07 412.128 1124.36 412.128C1127.66 412.128 1128.68 408.912 1128.68 406.096ZM1126.86 406.096C1126.86 407.744 1126.57 410.656 1124.36 410.656C1122.17 410.656 1121.87 407.744 1121.87 406.096C1121.87 404.448 1122.15 401.536 1124.36 401.536C1126.57 401.536 1126.86 404.448 1126.86 406.096ZM1137.89 412V410.432H1133.8C1133.28 410.432 1132.76 410.528 1132.26 410.656L1135.27 407.616C1136.45 406.432 1137.68 405.168 1137.68 403.376C1137.68 401.232 1136.05 400.048 1134.07 400.048C1131.88 400.048 1130.4 401.312 1130.1 403.424L1131.86 403.744C1131.76 402.48 1132.71 401.552 1133.97 401.552C1136.24 401.552 1136.15 403.792 1135.35 405.232C1134.93 405.888 1134.42 406.432 1133.88 406.976L1129.89 410.976V412H1137.89ZM1139.47 405.424V406.784H1144.91V405.424H1139.47ZM1154.6 401.424V400.176H1146.49V401.792H1152.81C1152.58 402.048 1152.39 402.336 1152.25 402.64L1147.48 412H1149.4L1154.6 401.424ZM1161.89 405.824C1163.06 405.376 1163.67 404.432 1163.67 403.184C1163.67 401.184 1161.91 400.048 1160.02 400.048C1158.13 400.048 1156.37 401.184 1156.37 403.184C1156.37 404.432 1156.98 405.376 1158.16 405.824C1156.75 406.256 1155.97 407.216 1155.97 408.704C1155.97 411.008 1157.84 412.128 1160.02 412.128C1162.1 412.128 1164.07 411.056 1164.07 408.704C1164.07 407.232 1163.28 406.256 1161.89 405.824ZM1160.02 401.392C1161.11 401.392 1161.95 402.048 1161.95 403.216C1161.95 404.448 1161.2 405.168 1160.02 405.168C1158.82 405.168 1158.08 404.464 1158.08 403.216C1158.08 402.08 1158.88 401.392 1160.02 401.392ZM1160.02 410.736C1158.72 410.736 1157.78 409.968 1157.78 408.672C1157.78 407.264 1158.74 406.576 1160.02 406.576C1161.3 406.576 1162.26 407.28 1162.26 408.672C1162.26 410.032 1161.25 410.736 1160.02 410.736ZM1167.07 408.384L1165.52 409.024C1166.16 411.168 1167.42 412.144 1169.58 412.144C1171.77 412.144 1173.58 410.816 1173.58 408.56C1173.58 407.072 1172.78 406.176 1171.37 405.776C1172.73 405.344 1173.33 404.448 1173.33 403.088C1173.33 401.088 1171.61 400.048 1169.82 400.048C1167.63 400.048 1166.17 401.344 1165.87 403.44L1167.61 403.744C1167.52 402.48 1168.51 401.552 1169.73 401.552C1170.89 401.552 1171.61 402.256 1171.61 403.392C1171.61 404.96 1170.29 405.312 1168.96 405.312V406.592C1170.4 406.592 1171.82 406.8 1171.82 408.608C1171.82 409.84 1170.77 410.64 1169.57 410.64C1168.35 410.64 1167.21 409.6 1167.07 408.384ZM1175.11 405.424V406.784H1180.55V405.424H1175.11ZM1183.65 408.384L1182.1 409.024C1182.74 411.168 1184 412.144 1186.16 412.144C1188.35 412.144 1190.16 410.816 1190.16 408.56C1190.16 407.072 1189.36 406.176 1187.95 405.776C1189.31 405.344 1189.9 404.448 1189.9 403.088C1189.9 401.088 1188.19 400.048 1186.4 400.048C1184.21 400.048 1182.75 401.344 1182.45 403.44L1184.19 403.744C1184.1 402.48 1185.09 401.552 1186.3 401.552C1187.47 401.552 1188.19 402.256 1188.19 403.392C1188.19 404.96 1186.86 405.312 1185.54 405.312V406.592C1186.98 406.592 1188.4 406.8 1188.4 408.608C1188.4 409.84 1187.34 410.64 1186.14 410.64C1184.93 410.64 1183.79 409.6 1183.65 408.384ZM1198.49 400.176H1196.3L1193.07 404.496C1192.33 405.488 1191.66 406.752 1191.66 408.016C1191.66 410.528 1193.21 412.128 1195.66 412.128C1197.95 412.128 1199.79 410.512 1199.79 408.208C1199.79 406.16 1198.43 404.672 1196.28 404.672C1195.66 404.672 1195.03 404.832 1194.49 405.136L1198.49 400.176ZM1195.63 410.672C1194.15 410.672 1193.35 409.68 1193.35 408.304C1193.35 406.992 1194.35 406.016 1195.69 406.016C1197.1 406.016 1198.03 406.928 1198.03 408.336C1198.03 409.728 1196.95 410.672 1195.63 410.672ZM1208.02 400.176H1205.83L1202.6 404.496C1201.86 405.488 1201.19 406.752 1201.19 408.016C1201.19 410.528 1202.74 412.128 1205.19 412.128C1207.48 412.128 1209.32 410.512 1209.32 408.208C1209.32 406.16 1207.96 404.672 1205.81 404.672C1205.19 404.672 1204.57 404.832 1204.02 405.136L1208.02 400.176ZM1205.16 410.672C1203.69 410.672 1202.89 409.68 1202.89 408.304C1202.89 406.992 1203.88 406.016 1205.22 406.016C1206.63 406.016 1207.56 406.928 1207.56 408.336C1207.56 409.728 1206.49 410.672 1205.16 410.672ZM1219.03 406.096C1219.03 403.376 1218.05 400.048 1214.71 400.048C1211.41 400.048 1210.4 403.28 1210.4 406.096C1210.4 408.912 1211.41 412.128 1214.71 412.128C1218 412.128 1219.03 408.912 1219.03 406.096ZM1217.2 406.096C1217.2 407.744 1216.91 410.656 1214.71 410.656C1212.51 410.656 1212.21 407.744 1212.21 406.096C1212.21 404.448 1212.5 401.536 1214.71 401.536C1216.91 401.536 1217.2 404.448 1217.2 406.096ZM1224.69 398.512V414.16H1225.93V398.512H1224.69ZM1232.69 400.224V412H1234.55V406.928H1238.9V405.376H1234.55V401.776H1239.67V400.224H1232.69ZM1247.18 408.64L1248.17 412H1250.14L1246.24 400.224H1244.09L1240.19 412H1242.08L1243.08 408.64H1247.18ZM1246.73 407.184H1243.52L1244 405.6C1244.38 404.32 1244.75 403.024 1245.08 401.68H1245.15C1245.52 403.024 1245.87 404.32 1246.27 405.6L1246.73 407.184ZM1253.77 405.92L1250.4 412H1252.36L1253.87 409.072C1254.17 408.48 1254.44 407.872 1254.78 407.152H1254.84C1255.21 407.872 1255.52 408.48 1255.82 409.072L1257.37 412H1259.44L1256.04 406.016L1259.21 400.224H1257.26L1255.87 402.976C1255.6 403.536 1255.37 404.048 1255.07 404.752H1254.99C1254.62 404.048 1254.4 403.536 1254.09 402.976L1252.67 400.224H1250.6L1253.77 405.92ZM1266.31 404.496V402.512H1264.42V404.496H1266.31ZM1266.31 411.088V409.104H1264.42V411.088H1266.31ZM1280.1 406.096C1280.1 403.376 1279.13 400.048 1275.78 400.048C1272.49 400.048 1271.48 403.28 1271.48 406.096C1271.48 408.912 1272.49 412.128 1275.78 412.128C1279.08 412.128 1280.1 408.912 1280.1 406.096ZM1278.28 406.096C1278.28 407.744 1277.99 410.656 1275.78 410.656C1273.59 410.656 1273.29 407.744 1273.29 406.096C1273.29 404.448 1273.58 401.536 1275.78 401.536C1277.99 401.536 1278.28 404.448 1278.28 406.096ZM1289.31 412V410.432H1285.22C1284.71 410.432 1284.18 410.528 1283.68 410.656L1286.69 407.616C1287.87 406.432 1289.11 405.168 1289.11 403.376C1289.11 401.232 1287.47 400.048 1285.49 400.048C1283.3 400.048 1281.83 401.312 1281.52 403.424L1283.28 403.744C1283.19 402.48 1284.13 401.552 1285.39 401.552C1287.67 401.552 1287.57 403.792 1286.77 405.232C1286.35 405.888 1285.84 406.432 1285.3 406.976L1281.31 410.976V412H1289.31ZM1290.89 405.424V406.784H1296.33V405.424H1290.89ZM1306.02 401.424V400.176H1297.91V401.792H1304.23C1304 402.048 1303.81 402.336 1303.67 402.64L1298.9 412H1300.82L1306.02 401.424ZM1313.31 405.824C1314.48 405.376 1315.09 404.432 1315.09 403.184C1315.09 401.184 1313.33 400.048 1311.44 400.048C1309.55 400.048 1307.79 401.184 1307.79 403.184C1307.79 404.432 1308.4 405.376 1309.58 405.824C1308.18 406.256 1307.39 407.216 1307.39 408.704C1307.39 411.008 1309.26 412.128 1311.44 412.128C1313.52 412.128 1315.49 411.056 1315.49 408.704C1315.49 407.232 1314.7 406.256 1313.31 405.824ZM1311.44 401.392C1312.53 401.392 1313.38 402.048 1313.38 403.216C1313.38 404.448 1312.62 405.168 1311.44 405.168C1310.24 405.168 1309.5 404.464 1309.5 403.216C1309.5 402.08 1310.3 401.392 1311.44 401.392ZM1311.44 410.736C1310.14 410.736 1309.2 409.968 1309.2 408.672C1309.2 407.264 1310.16 406.576 1311.44 406.576C1312.72 406.576 1313.68 407.28 1313.68 408.672C1313.68 410.032 1312.67 410.736 1311.44 410.736ZM1318.49 408.384L1316.94 409.024C1317.58 411.168 1318.84 412.144 1321 412.144C1323.2 412.144 1325 410.816 1325 408.56C1325 407.072 1324.2 406.176 1322.8 405.776C1324.16 405.344 1324.75 404.448 1324.75 403.088C1324.75 401.088 1323.04 400.048 1321.24 400.048C1319.05 400.048 1317.6 401.344 1317.29 403.44L1319.04 403.744C1318.94 402.48 1319.93 401.552 1321.15 401.552C1322.32 401.552 1323.04 402.256 1323.04 403.392C1323.04 404.96 1321.71 405.312 1320.38 405.312V406.592C1321.82 406.592 1323.24 406.8 1323.24 408.608C1323.24 409.84 1322.19 410.64 1320.99 410.64C1319.77 410.64 1318.64 409.6 1318.49 408.384ZM1326.53 405.424V406.784H1331.97V405.424H1326.53ZM1335.07 408.384L1333.52 409.024C1334.16 411.168 1335.42 412.144 1337.58 412.144C1339.77 412.144 1341.58 410.816 1341.58 408.56C1341.58 407.072 1340.78 406.176 1339.37 405.776C1340.73 405.344 1341.33 404.448 1341.33 403.088C1341.33 401.088 1339.61 400.048 1337.82 400.048C1335.63 400.048 1334.17 401.344 1333.87 403.44L1335.61 403.744C1335.52 402.48 1336.51 401.552 1337.73 401.552C1338.89 401.552 1339.61 402.256 1339.61 403.392C1339.61 404.96 1338.29 405.312 1336.96 405.312V406.592C1338.4 406.592 1339.82 406.8 1339.82 408.608C1339.82 409.84 1338.77 410.64 1337.57 410.64C1336.35 410.64 1335.21 409.6 1335.07 408.384ZM1349.91 400.176H1347.72L1344.49 404.496C1343.75 405.488 1343.08 406.752 1343.08 408.016C1343.08 410.528 1344.63 412.128 1347.08 412.128C1349.37 412.128 1351.21 410.512 1351.21 408.208C1351.21 406.16 1349.85 404.672 1347.7 404.672C1347.08 404.672 1346.46 404.832 1345.91 405.136L1349.91 400.176ZM1347.05 410.672C1345.58 410.672 1344.78 409.68 1344.78 408.304C1344.78 406.992 1345.77 406.016 1347.11 406.016C1348.52 406.016 1349.45 406.928 1349.45 408.336C1349.45 409.728 1348.38 410.672 1347.05 410.672ZM1359.44 400.176H1357.25L1354.02 404.496C1353.28 405.488 1352.61 406.752 1352.61 408.016C1352.61 410.528 1354.16 412.128 1356.61 412.128C1358.9 412.128 1360.74 410.512 1360.74 408.208C1360.74 406.16 1359.38 404.672 1357.24 404.672C1356.61 404.672 1355.99 404.832 1355.44 405.136L1359.44 400.176ZM1356.58 410.672C1355.11 410.672 1354.31 409.68 1354.31 408.304C1354.31 406.992 1355.3 406.016 1356.64 406.016C1358.05 406.016 1358.98 406.928 1358.98 408.336C1358.98 409.728 1357.91 410.672 1356.58 410.672ZM1370.62 409.008V407.632H1368.99V400.16H1367.34L1361.66 407.728V409.008H1367.46V412H1368.99V409.008H1370.62ZM1367.46 407.632H1363.57L1367.54 402.176C1367.49 402.592 1367.46 402.96 1367.46 403.312V407.632Z" fill="#8A8A8A"/>
<path d="M324.524 977.156C325.676 977.156 326.504 976.712 327.224 975.896L326.612 975.2C326.048 975.812 325.436 976.184 324.572 976.184C322.892 976.184 321.836 974.792 321.836 972.572C321.836 970.364 322.94 969.008 324.608 969.008C325.376 969.008 325.94 969.356 326.408 969.848L327.008 969.128C326.504 968.564 325.664 968.036 324.596 968.036C322.352 968.036 320.696 969.764 320.696 972.608C320.696 975.452 322.352 977.156 324.524 977.156ZM331.288 977.156C332.884 977.156 334.312 975.908 334.312 973.748C334.312 971.576 332.884 970.316 331.288 970.316C329.692 970.316 328.264 971.576 328.264 973.748C328.264 975.908 329.692 977.156 331.288 977.156ZM331.288 976.244C330.172 976.244 329.404 975.248 329.404 973.748C329.404 972.248 330.172 971.228 331.288 971.228C332.404 971.228 333.184 972.248 333.184 973.748C333.184 975.248 332.404 976.244 331.288 976.244ZM336.034 970.484V979.748H337.126V977.54L337.102 976.4C337.69 976.88 338.314 977.156 338.902 977.156C340.39 977.156 341.734 975.884 341.734 973.64C341.734 971.636 340.822 970.316 339.142 970.316C338.374 970.316 337.654 970.748 337.066 971.228H337.03L336.934 970.484H336.034ZM338.722 976.244C338.29 976.244 337.714 976.076 337.126 975.56V972.14C337.762 971.552 338.314 971.24 338.878 971.24C340.114 971.24 340.594 972.212 340.594 973.652C340.594 975.272 339.814 976.244 338.722 976.244ZM344.135 979.808H345.155L348.479 970.484H347.411L346.247 974.036C346.067 974.612 345.875 975.272 345.695 975.86H345.635C345.431 975.272 345.203 974.6 345.011 974.036L343.679 970.484H342.539L345.155 976.94L344.135 979.808ZM349.733 970.484V977H350.825V972.812C351.245 971.696 351.941 971.312 352.469 971.312C352.745 971.312 352.877 971.336 353.105 971.42L353.309 970.46C353.105 970.352 352.901 970.316 352.613 970.316C351.881 970.316 351.233 970.844 350.765 971.672H350.729L350.633 970.484H349.733ZM354.181 977H355.273V970.484H354.181V977ZM355.285 969.14V968.012H354.193V969.14H355.285ZM359.476 980C361.492 980 362.764 978.956 362.764 977.744C362.764 976.676 362.044 976.196 360.496 976.196H359.224C358.348 976.196 358.084 975.908 358.084 975.488C358.084 975.116 358.264 974.912 358.504 974.708C358.804 974.864 359.128 974.936 359.476 974.936C360.784 974.936 361.852 974.06 361.852 972.668C361.852 972.104 361.648 971.624 361.324 971.324H362.656V970.484H360.388C360.16 970.4 359.848 970.316 359.476 970.316C358.168 970.316 357.028 971.216 357.028 972.644C357.028 973.424 357.448 974.048 357.88 974.396V974.444C357.544 974.684 357.148 975.116 357.148 975.656C357.148 976.172 357.4 976.52 357.748 976.724V976.772C357.136 977.168 356.776 977.684 356.776 978.248C356.776 979.376 357.88 980 359.476 980ZM359.476 974.192C358.72 974.192 358.084 973.592 358.084 972.644C358.084 971.684 358.708 971.12 359.476 971.12C360.244 971.12 360.856 971.684 360.856 972.644C360.856 973.592 360.208 974.192 359.476 974.192ZM359.632 979.256C358.432 979.256 357.736 978.824 357.736 978.104C357.736 977.72 357.94 977.336 358.408 977C358.696 977.084 359.008 977.108 359.248 977.108H360.376C361.24 977.108 361.708 977.3 361.708 977.912C361.708 978.596 360.88 979.256 359.632 979.256ZM364.042 967.448V977H365.134V972.272C365.794 971.612 366.25 971.276 366.922 971.276C367.786 971.276 368.158 971.768 368.158 973.016V977H369.25V972.872C369.25 971.18 368.662 970.316 367.258 970.316C366.358 970.316 365.71 970.796 365.098 971.408L365.134 970.064V967.448H364.042ZM373.383 977.156C373.779 977.156 374.211 977.048 374.583 976.916L374.367 976.1C374.139 976.184 373.851 976.268 373.623 976.268C372.855 976.268 372.615 975.824 372.615 975.008V971.372H374.379V970.484H372.615V968.66H371.703L371.571 970.484L370.551 970.544V971.372H371.523V974.984C371.523 976.292 371.991 977.156 373.383 977.156ZM381.29 976.028H377.822C377.522 976.028 377.162 976.076 376.826 976.172L379.286 973.736C380.282 972.74 381.122 971.828 381.122 970.52C381.122 968.96 379.958 968.048 378.458 968.048C376.958 968.048 375.794 968.924 375.566 970.544L376.646 970.724C376.646 969.716 377.39 968.996 378.398 968.996C379.31 968.996 379.982 969.488 380.018 970.544C380.018 971.576 379.346 972.332 378.422 973.316L375.386 976.232V977H381.29V976.028ZM388.726 972.62C388.726 969.488 387.31 968.06 385.498 968.06C383.674 968.06 382.27 969.488 382.27 972.62C382.27 975.74 383.674 977.168 385.498 977.168C387.31 977.168 388.726 975.74 388.726 972.62ZM387.622 972.62C387.622 975.356 386.614 976.28 385.498 976.28C384.382 976.28 383.386 975.356 383.386 972.62C383.386 969.872 384.382 968.96 385.498 968.96C386.614 968.96 387.622 969.872 387.622 972.62ZM395.587 976.028H392.119C391.819 976.028 391.459 976.076 391.123 976.172L393.583 973.736C394.579 972.74 395.419 971.828 395.419 970.52C395.419 968.96 394.255 968.048 392.755 968.048C391.255 968.048 390.091 968.924 389.863 970.544L390.943 970.724C390.943 969.716 391.687 968.996 392.695 968.996C393.607 968.996 394.279 969.488 394.315 970.544C394.315 971.576 393.643 972.332 392.719 973.316L389.683 976.232V977H395.587V976.028ZM402.735 976.028H399.267C398.967 976.028 398.607 976.076 398.271 976.172L400.731 973.736C401.727 972.74 402.567 971.828 402.567 970.52C402.567 968.96 401.403 968.048 399.903 968.048C398.403 968.048 397.239 968.924 397.011 970.544L398.091 970.724C398.091 969.716 398.835 968.996 399.843 968.996C400.755 968.996 401.427 969.488 401.463 970.544C401.463 971.576 400.791 972.332 399.867 973.316L396.831 976.232V977H402.735V976.028ZM409.063 969.14V977H410.179V969.14H412.843V968.204H406.399V969.14H409.063ZM416.859 977.156C418.695 977.156 419.847 976.052 419.847 974.66C419.847 973.352 419.055 972.752 418.035 972.308L416.775 971.768C416.091 971.48 415.323 971.168 415.323 970.304C415.323 969.488 415.959 969.008 416.967 969.008C417.783 969.008 418.431 969.32 418.971 969.836L419.559 969.128C418.935 968.456 418.023 968.036 416.967 968.036C415.371 968.036 414.195 969.02 414.195 970.376C414.195 971.672 415.179 972.284 415.983 972.632L417.255 973.184C418.083 973.568 418.719 973.844 418.719 974.744C418.719 975.608 418.023 976.184 416.871 976.184C415.959 976.184 415.071 975.764 414.435 975.092L413.775 975.848C414.543 976.664 415.611 977.156 416.859 977.156ZM421.571 968.204V977H426.527V976.052H422.687V968.204H421.571ZM428.075 968.204V977H429.191V968.204H428.075ZM431.591 968.204V977H432.647V972.38C432.647 971.456 432.563 970.544 432.515 969.632H432.563L433.511 971.444L436.715 977H437.855V968.204H436.799V972.776C436.799 973.688 436.883 974.648 436.943 975.56H436.883L435.947 973.748L432.743 968.204H431.591ZM440.251 968.204V977H445.459V976.052H441.367V972.848H444.703V971.9H441.367V969.14H445.327V968.204H440.251ZM452.437 977.156C454.273 977.156 455.425 976.052 455.425 974.66C455.425 973.352 454.633 972.752 453.613 972.308L452.353 971.768C451.669 971.48 450.901 971.168 450.901 970.304C450.901 969.488 451.537 969.008 452.545 969.008C453.361 969.008 454.009 969.32 454.549 969.836L455.137 969.128C454.513 968.456 453.601 968.036 452.545 968.036C450.949 968.036 449.773 969.02 449.773 970.376C449.773 971.672 450.757 972.284 451.561 972.632L452.833 973.184C453.661 973.568 454.297 973.844 454.297 974.744C454.297 975.608 453.601 976.184 452.449 976.184C451.537 976.184 450.649 975.764 450.013 975.092L449.353 975.848C450.121 976.664 451.189 977.156 452.437 977.156ZM458.577 973.58V977H459.693V973.58L462.333 968.204H461.181L460.041 970.688C459.765 971.36 459.489 971.936 459.165 972.608H459.117C458.793 971.936 458.541 971.36 458.253 970.688L457.125 968.204H455.937L458.577 973.58ZM465.972 977.156C467.808 977.156 468.96 976.052 468.96 974.66C468.96 973.352 468.168 972.752 467.148 972.308L465.888 971.768C465.204 971.48 464.436 971.168 464.436 970.304C464.436 969.488 465.072 969.008 466.08 969.008C466.896 969.008 467.544 969.32 468.084 969.836L468.672 969.128C468.048 968.456 467.136 968.036 466.08 968.036C464.484 968.036 463.308 969.02 463.308 970.376C463.308 971.672 464.292 972.284 465.096 972.632L466.368 973.184C467.196 973.568 467.832 973.844 467.832 974.744C467.832 975.608 467.136 976.184 465.984 976.184C465.072 976.184 464.184 975.764 463.548 975.092L462.888 975.848C463.656 976.664 464.724 977.156 465.972 977.156ZM472.52 969.14V977H473.636V969.14H476.3V968.204H469.856V969.14H472.52ZM477.868 968.204V977H483.076V976.052H478.984V972.848H482.32V971.9H478.984V969.14H482.944V968.204H477.868ZM484.923 968.204V977H485.931V972.128C485.931 971.372 485.835 970.316 485.799 969.536H485.847L486.543 971.54L488.211 976.112H488.955L490.623 971.54L491.319 969.536H491.367C491.307 970.316 491.223 971.372 491.223 972.128V977H492.267V968.204H490.923L489.243 972.908C489.039 973.52 488.847 974.132 488.643 974.744H488.583C488.355 974.132 488.163 973.52 487.959 972.908L486.267 968.204H484.923ZM502.748 966.836V978.62H503.516V966.836H502.748ZM518.017 974.312L518.857 977H520.033L517.045 968.204H515.809L512.821 977H513.949L514.801 974.312H518.017ZM517.741 973.424H515.077L515.509 972.08C515.833 971.072 516.109 970.16 516.385 969.104H516.433C516.721 970.124 516.997 971.072 517.321 972.08L517.741 973.424ZM521.178 977H522.27V967.448H521.178V977ZM524.459 977H525.551V967.448H524.459V977ZM535.356 977H536.616L534.36 973.148C535.56 972.86 536.352 972.08 536.352 970.676C536.352 968.84 535.068 968.204 533.28 968.204H530.52V977H531.636V973.268H533.22L535.356 977ZM531.636 972.368V969.104H533.112C534.516 969.104 535.248 969.512 535.248 970.676C535.248 971.828 534.516 972.368 533.112 972.368H531.636ZM537.838 977H538.93V970.484H537.838V977ZM538.942 969.14V968.012H537.85V969.14H538.942ZM543.132 980C545.148 980 546.42 978.956 546.42 977.744C546.42 976.676 545.7 976.196 544.152 976.196H542.88C542.004 976.196 541.74 975.908 541.74 975.488C541.74 975.116 541.92 974.912 542.16 974.708C542.46 974.864 542.784 974.936 543.132 974.936C544.44 974.936 545.508 974.06 545.508 972.668C545.508 972.104 545.304 971.624 544.98 971.324H546.312V970.484H544.044C543.816 970.4 543.504 970.316 543.132 970.316C541.824 970.316 540.684 971.216 540.684 972.644C540.684 973.424 541.104 974.048 541.536 974.396V974.444C541.2 974.684 540.804 975.116 540.804 975.656C540.804 976.172 541.056 976.52 541.404 976.724V976.772C540.792 977.168 540.432 977.684 540.432 978.248C540.432 979.376 541.536 980 543.132 980ZM543.132 974.192C542.376 974.192 541.74 973.592 541.74 972.644C541.74 971.684 542.364 971.12 543.132 971.12C543.9 971.12 544.512 971.684 544.512 972.644C544.512 973.592 543.864 974.192 543.132 974.192ZM543.288 979.256C542.088 979.256 541.392 978.824 541.392 978.104C541.392 977.72 541.596 977.336 542.064 977C542.352 977.084 542.664 977.108 542.904 977.108H544.032C544.896 977.108 545.364 977.3 545.364 977.912C545.364 978.596 544.536 979.256 543.288 979.256ZM547.698 967.448V977H548.79V972.272C549.45 971.612 549.906 971.276 550.578 971.276C551.442 971.276 551.814 971.768 551.814 973.016V977H552.906V972.872C552.906 971.18 552.318 970.316 550.914 970.316C550.014 970.316 549.366 970.796 548.754 971.408L548.79 970.064V967.448H547.698ZM557.039 977.156C557.435 977.156 557.867 977.048 558.239 976.916L558.023 976.1C557.795 976.184 557.507 976.268 557.279 976.268C556.511 976.268 556.271 975.824 556.271 975.008V971.372H558.035V970.484H556.271V968.66H555.359L555.227 970.484L554.207 970.544V971.372H555.179V974.984C555.179 976.292 555.647 977.156 557.039 977.156ZM561.214 977.156C562.75 977.156 563.59 976.28 563.59 975.224C563.59 974 562.546 973.592 561.598 973.244C560.866 972.956 560.158 972.74 560.158 972.116C560.158 971.6 560.53 971.18 561.346 971.18C561.934 971.18 562.378 971.42 562.846 971.756L563.374 971.048C562.858 970.652 562.162 970.316 561.346 970.316C559.93 970.316 559.102 971.144 559.102 972.164C559.102 973.256 560.134 973.724 561.046 974.048C561.766 974.336 562.534 974.624 562.534 975.284C562.534 975.848 562.114 976.304 561.25 976.304C560.47 976.304 559.882 976.004 559.318 975.536L558.778 976.256C559.402 976.772 560.29 977.156 561.214 977.156ZM572.739 977H573.999L571.743 973.148C572.943 972.86 573.735 972.08 573.735 970.676C573.735 968.84 572.451 968.204 570.663 968.204H567.903V977H569.019V973.268H570.603L572.739 977ZM569.019 972.368V969.104H570.495C571.899 969.104 572.631 969.512 572.631 970.676C572.631 971.828 571.899 972.368 570.495 972.368H569.019ZM578.052 977.156C578.964 977.156 579.636 976.856 580.212 976.484L579.816 975.764C579.336 976.088 578.82 976.28 578.184 976.28C576.936 976.28 576.108 975.404 576.024 974H580.416C580.452 973.844 580.464 973.616 580.464 973.376C580.464 971.516 579.528 970.316 577.872 970.316C576.36 970.316 574.932 971.636 574.932 973.748C574.932 975.908 576.324 977.156 578.052 977.156ZM579.504 973.22H576.012C576.144 971.936 576.96 971.192 577.884 971.192C578.904 971.192 579.504 971.864 579.504 973.22ZM583.773 977.156C585.309 977.156 586.149 976.28 586.149 975.224C586.149 974 585.105 973.592 584.157 973.244C583.425 972.956 582.717 972.74 582.717 972.116C582.717 971.6 583.089 971.18 583.905 971.18C584.493 971.18 584.937 971.42 585.405 971.756L585.933 971.048C585.417 970.652 584.721 970.316 583.905 970.316C582.489 970.316 581.661 971.144 581.661 972.164C581.661 973.256 582.693 973.724 583.605 974.048C584.325 974.336 585.093 974.624 585.093 975.284C585.093 975.848 584.673 976.304 583.809 976.304C583.029 976.304 582.441 976.004 581.877 975.536L581.337 976.256C581.961 976.772 582.849 977.156 583.773 977.156ZM590.31 977.156C591.222 977.156 591.894 976.856 592.47 976.484L592.074 975.764C591.594 976.088 591.078 976.28 590.442 976.28C589.194 976.28 588.366 975.404 588.282 974H592.674C592.71 973.844 592.722 973.616 592.722 973.376C592.722 971.516 591.786 970.316 590.13 970.316C588.618 970.316 587.19 971.636 587.19 973.748C587.19 975.908 588.582 977.156 590.31 977.156ZM591.762 973.22H588.27C588.402 971.936 589.218 971.192 590.142 971.192C591.162 971.192 591.762 971.864 591.762 973.22ZM594.327 970.484V977H595.419V972.812C595.839 971.696 596.535 971.312 597.063 971.312C597.339 971.312 597.471 971.336 597.699 971.42L597.903 970.46C597.699 970.352 597.495 970.316 597.207 970.316C596.475 970.316 595.827 970.844 595.359 971.672H595.323L595.227 970.484H594.327ZM598.031 970.484L600.383 977H601.655L603.971 970.484H602.891L601.655 974.192C601.463 974.828 601.247 975.5 601.055 976.112H601.007C600.803 975.5 600.599 974.828 600.395 974.192L599.171 970.484H598.031ZM607.865 977.156C608.777 977.156 609.449 976.856 610.025 976.484L609.629 975.764C609.149 976.088 608.633 976.28 607.997 976.28C606.749 976.28 605.921 975.404 605.837 974H610.229C610.265 973.844 610.277 973.616 610.277 973.376C610.277 971.516 609.341 970.316 607.685 970.316C606.173 970.316 604.745 971.636 604.745 973.748C604.745 975.908 606.137 977.156 607.865 977.156ZM609.317 973.22H605.825C605.957 971.936 606.773 971.192 607.697 971.192C608.717 971.192 609.317 971.864 609.317 973.22ZM614.101 977.156C614.881 977.156 615.565 976.748 616.081 976.232H616.105L616.213 977H617.101V967.448H616.009V969.956L616.069 971.084C615.493 970.604 615.001 970.316 614.233 970.316C612.745 970.316 611.413 971.636 611.413 973.748C611.413 975.92 612.469 977.156 614.101 977.156ZM614.341 976.244C613.189 976.244 612.541 975.332 612.541 973.736C612.541 972.248 613.369 971.24 614.425 971.24C614.965 971.24 615.445 971.432 616.009 971.924V975.344C615.469 975.956 614.953 976.244 614.341 976.244Z" fill="#8A8A8A"/>
<path d="M332.648 902.31H330.884V907.168H329.736V902.646H328.014V914.658H329.736V908.652H330.884V915.204H332.648V902.31ZM327.174 903.906H322.092V905.376H325.354C325.13 907.882 324.01 909.786 321.434 911.284L322.512 912.572C326.11 910.472 327.174 907.518 327.174 903.906ZM345.191 911.578V902.324H343.329V911.578H345.191ZM341.677 906.412C341.677 904.508 340.151 903.136 338.177 903.136C336.203 903.136 334.663 904.508 334.663 906.412C334.663 908.288 336.203 909.674 338.177 909.674C340.151 909.674 341.677 908.288 341.677 906.412ZM336.469 906.412C336.469 905.348 337.225 904.732 338.177 904.732C339.143 904.732 339.871 905.348 339.871 906.412C339.871 907.476 339.143 908.078 338.177 908.078C337.225 908.078 336.469 907.476 336.469 906.412ZM345.513 913.51H338.457V910.668H336.609V914.98H345.513V913.51ZM356.292 905.418H354.36V906.916H356.292V909.982H358.14V902.31H356.292V905.418ZM354.234 909.632L355.13 908.19C353.17 907.546 352.26 906.02 352.218 904.564H354.724V903.08H347.794V904.564H350.328C350.258 906.174 349.348 907.812 347.29 908.526L348.228 909.982C349.74 909.478 350.748 908.428 351.308 907.126C351.868 908.26 352.834 909.17 354.234 909.632ZM353.786 910.262C351.042 910.262 349.362 911.172 349.362 912.74C349.362 914.308 351.042 915.218 353.786 915.218C356.516 915.218 358.196 914.308 358.196 912.74C358.196 911.172 356.516 910.262 353.786 910.262ZM353.786 913.818C352.064 913.818 351.21 913.454 351.21 912.74C351.21 912.026 352.064 911.662 353.786 911.662C355.494 911.662 356.348 912.026 356.348 912.74C356.348 913.454 355.494 913.818 353.786 913.818ZM371.915 912.208H366.987V909.842H370.641V903.108H368.821V905.11H363.305V903.108H361.471V909.842H365.139V912.208H360.239V913.706H371.915V912.208ZM363.305 908.372V906.566H368.821V908.372H363.305ZM383.912 902.31H382.064V915.204H383.912V902.31ZM373.58 907.462L374.322 908.89C375.834 908.568 376.842 907.882 377.416 906.93C377.99 907.77 378.942 908.414 380.398 908.694L381.112 907.266C379.222 906.93 378.354 906.034 378.298 905.012H380.818V903.584H378.298V902.324H376.45V903.584H373.93V905.012H376.45C376.394 906.118 375.526 907.084 373.58 907.462ZM381.448 910.388L381.336 909.058C378.634 909.436 375.512 909.436 373.16 909.436L373.384 910.934C374.336 910.934 375.316 910.934 376.436 910.892V914.812H378.284V910.78C379.348 910.682 380.384 910.598 381.448 910.388ZM397.673 907.336H396.021C396.301 905.894 396.301 904.872 396.301 903.864V902.828H387.439V904.298H394.481C394.481 905.152 394.453 906.104 394.187 907.336H385.997V908.82H397.673V907.336ZM394.425 909.646V910.99H389.217V909.646H387.383V915.064H396.273V909.646H394.425ZM394.425 912.418V913.594H389.217V912.418H394.425ZM410.733 905.32H409.025V902.324H407.177V909.912H409.025V906.832H410.733V905.32ZM405.427 909.184V903.136H403.607V904.732H401.073V903.136H399.253V909.184H405.427ZM403.607 906.146V907.742H401.073V906.146H403.607ZM404.797 910.192C402.109 910.192 400.443 911.13 400.443 912.712C400.443 914.28 402.109 915.232 404.797 915.232C407.471 915.232 409.165 914.28 409.165 912.712C409.165 911.13 407.471 910.192 404.797 910.192ZM404.797 913.79C403.159 913.79 402.277 913.44 402.277 912.712C402.277 911.984 403.159 911.634 404.797 911.634C406.491 911.634 407.331 911.998 407.331 912.712C407.331 913.426 406.491 913.79 404.797 913.79ZM418.964 909.618L419.804 908.176C417.788 907.658 416.822 906.342 416.752 905.04H419.342V903.584H416.752V902.254H414.904V903.584H412.3V905.04H414.904C414.834 906.454 413.896 907.84 411.866 908.4L412.72 909.828C414.246 909.394 415.268 908.512 415.87 907.336C416.472 908.4 417.452 909.226 418.964 909.618ZM422.464 902.31H420.602V909.856H422.464V902.31ZM413.882 910.416V915.05H422.464V910.416H413.882ZM415.702 913.608V911.872H420.658V913.608H415.702Z" fill="white"/>
<path d="M332.41 945.478H331.304V950.518H329.526V945.758H328.448V957.406H329.526V951.456H331.304V958.036H332.41V945.478ZM323.324 953.99V947.942H326.866V947.004H322.19V954.942H323.016C324.878 954.942 326.18 954.9 327.664 954.564L327.566 953.612C326.208 953.906 324.99 953.99 323.324 953.99ZM346.003 955.572H342.797V952.59H344.925V951.666H342.993V947.564H344.939V946.64H335.629V947.564H337.575V951.666H335.657V952.59H337.771V955.572H334.607V956.51H346.003V955.572ZM338.723 951.666V947.564H341.845V951.666H338.723ZM338.919 955.572V952.59H341.649V955.572H338.919ZM357.776 945.478H356.628V958.064H357.776V945.478ZM351.154 946.444C349.292 946.444 347.962 948.152 347.962 950.826C347.962 953.5 349.292 955.208 351.154 955.208C353.016 955.208 354.346 953.5 354.346 950.826C354.346 948.152 353.016 946.444 351.154 946.444ZM351.154 947.48C352.372 947.48 353.24 948.796 353.24 950.826C353.24 952.87 352.372 954.186 351.154 954.186C349.922 954.186 349.054 952.87 349.054 950.826C349.054 948.796 349.922 947.48 351.154 947.48ZM372.111 951.526V950.574H370.039V945.492H368.891V958.036H370.039V951.526H372.111ZM364.593 948.824V946.57H363.459V948.824C363.459 951.106 362.031 953.5 360.225 954.438L360.911 955.362C362.325 954.578 363.487 953.066 364.033 951.204C364.593 952.94 365.727 954.396 367.071 955.11L367.785 954.2C366.035 953.304 364.593 951.022 364.593 948.824ZM376.668 948.922V950.238H377.942V948.922H376.668ZM376.668 954.886V956.202H377.942V954.886H376.668ZM393.076 945.478H391.928V958.05H393.076V945.478ZM383.29 951.638L383.822 952.534C385.334 952.044 386.482 951.092 387.028 949.748C387.602 950.994 388.722 951.946 390.234 952.394L390.766 951.512C388.918 950.952 387.63 949.65 387.588 948.04H390.486V947.116H387.588V945.576H386.44V947.116H383.584V948.04H386.44C386.398 949.678 385.152 951.078 383.29 951.638ZM387.588 954.396V952.114H386.44V954.452C385.152 954.494 383.976 954.494 382.912 954.494L383.066 955.46C385.306 955.46 388.386 955.432 391.2 954.914L391.102 954.06C389.982 954.242 388.764 954.326 387.588 954.396ZM401.979 951.498H407.117V950.56H405.339C405.661 949.048 405.647 947.942 405.647 946.99V946.08H397.177V947.004H404.513C404.513 947.956 404.513 949.048 404.177 950.56H395.721V951.498H400.831V953.794H396.925V954.718H404.569V958.022H405.717V953.794H401.979V951.498ZM415.655 947.942V947.018H412.771V945.478H411.623V947.018H408.627V947.942H415.655ZM417.783 948.824H415.655V949.762H417.783V951.456H415.655V952.394H417.783V955.054H418.945V945.492H417.783V948.824ZM415.025 951.022C415.025 949.594 413.849 948.642 412.183 948.642C410.517 948.642 409.341 949.594 409.341 951.022C409.341 952.464 410.517 953.43 412.183 953.43C413.849 953.43 415.025 952.464 415.025 951.022ZM410.433 951.022C410.433 950.126 411.119 949.538 412.183 949.538C413.247 949.538 413.933 950.126 413.933 951.022C413.933 951.918 413.247 952.534 412.183 952.534C411.119 952.534 410.433 951.918 410.433 951.022ZM419.239 956.818H412.015V954.242H410.867V957.756H419.239V956.818ZM428.44 945.142V958.89H429.336V945.142H428.44ZM449.494 951.526V950.574H447.422V945.492H446.274V958.036H447.422V951.526H449.494ZM441.976 948.824V946.57H440.842V948.824C440.842 951.106 439.414 953.5 437.608 954.438L438.294 955.362C439.708 954.578 440.87 953.066 441.416 951.204C441.976 952.94 443.11 954.396 444.454 955.11L445.168 954.2C443.418 953.304 441.976 951.022 441.976 948.824ZM460.986 945.492H459.824V948.474H457.262C457.038 947.032 455.75 946.066 454.07 946.066C452.208 946.066 450.836 947.242 450.836 948.964C450.836 950.7 452.208 951.876 454.07 951.876C455.806 951.876 457.052 950.91 457.276 949.412H459.824V952.226H460.986V945.492ZM454.07 950.924C452.824 950.924 451.928 950.112 451.928 948.964C451.928 947.802 452.824 947.018 454.07 947.018C455.316 947.018 456.212 947.802 456.212 948.964C456.212 950.112 455.316 950.924 454.07 950.924ZM459.838 952.842V954.424H454.084V952.842H452.95V957.868H460.986V952.842H459.838ZM459.838 955.32V956.944H454.084V955.32H459.838ZM475.251 951.512V950.546H473.179V945.492H472.031V958.036H473.179V951.512H475.251ZM467.747 949.314V947.718H470.533V946.766H463.743V947.718H466.613V949.314C466.613 951.442 465.101 953.822 463.309 954.718L463.981 955.628C465.381 954.928 466.627 953.29 467.187 951.47C467.747 953.15 468.937 954.606 470.337 955.32L470.995 954.396C469.175 953.542 467.747 951.316 467.747 949.314ZM486.436 950.252V949.328H478.974V946.906H486.352V945.982H477.826V950.252H486.436ZM487.766 951.456H476.398V952.408H487.766V951.456ZM482.068 953.486C479.394 953.486 477.77 954.298 477.77 955.754C477.77 957.21 479.394 958.022 482.068 958.022C484.742 958.022 486.366 957.21 486.366 955.754C486.366 954.298 484.742 953.486 482.068 953.486ZM482.068 957.126C480.094 957.126 478.932 956.65 478.932 955.754C478.932 954.858 480.094 954.382 482.068 954.382C484.042 954.382 485.204 954.858 485.204 955.754C485.204 956.65 484.042 957.126 482.068 957.126ZM500.659 952.38H495.549V951.064H499.469V950.168H491.867V948.852H499.203V945.8H490.705V946.696H498.069V947.998H490.733V951.064H494.387V952.38H489.263V953.318H500.659V952.38ZM490.537 954.284V955.222H498.125V957.924H499.273V954.284H490.537ZM508.442 952.632V949.958H511.34V954.774H512.502V945.478H511.34V949.02H508.442V946.318H507.308V948.53H503.92V946.318H502.786V952.632H508.442ZM507.308 949.44V951.708H503.92V949.44H507.308ZM512.796 956.818H505.572V953.864H504.424V957.756H512.796V956.818ZM525.787 948.25V947.312H521.293V945.674H520.145V947.312H515.595V948.25H525.787ZM526.417 955.628H521.293V953.864C523.491 953.71 524.807 952.884 524.807 951.484C524.807 949.972 523.225 949.104 520.719 949.104C518.185 949.104 516.589 949.972 516.589 951.484C516.589 952.884 517.891 953.738 520.145 953.864V955.628H515.035V956.566H526.417V955.628ZM517.751 951.484C517.751 950.532 518.857 950 520.719 950C522.525 950 523.645 950.532 523.645 951.484C523.645 952.436 522.525 952.982 520.719 952.982C518.857 952.982 517.751 952.436 517.751 951.484ZM531.325 948.922V950.238H532.599V948.922H531.325ZM531.325 954.886V956.202H532.599V954.886H531.325ZM544.12 955.964H542.104V946.682H541.082L538.324 949.062L539.01 949.888L540.872 948.222C540.858 948.32 540.858 948.446 540.858 948.572V955.964H538.576V957H544.12V955.964ZM553.062 951.89C553.062 948.236 551.41 946.57 549.296 946.57C547.168 946.57 545.53 948.236 545.53 951.89C545.53 955.53 547.168 957.196 549.296 957.196C551.41 957.196 553.062 955.53 553.062 951.89ZM551.774 951.89C551.774 955.082 550.598 956.16 549.296 956.16C547.994 956.16 546.832 955.082 546.832 951.89C546.832 948.684 547.994 947.62 549.296 947.62C550.598 947.62 551.774 948.684 551.774 951.89ZM561.15 946.738H554.402V947.83H559.764L559.288 948.614L555.102 957H556.516L561.15 947.564V946.738ZM562.475 951.358V952.338H567.095V951.358H562.475ZM573.461 951.652C574.581 951.246 575.141 950.434 575.141 949.244C575.141 947.732 573.839 946.486 571.963 946.486C570.017 946.486 568.785 947.732 568.785 949.244C568.785 950.42 569.373 951.246 570.437 951.652C569.149 952.002 568.407 952.898 568.407 954.242C568.407 956.076 569.863 957.238 571.963 957.238C574.035 957.238 575.491 956.076 575.491 954.242C575.491 952.898 574.763 952.002 573.461 951.652ZM571.963 947.508C573.223 947.508 573.839 948.306 573.839 949.286C573.839 950.224 573.349 951.162 571.963 951.162C570.549 951.162 570.059 950.224 570.059 949.286C570.059 948.306 570.675 947.508 571.963 947.508ZM571.963 956.188C570.563 956.188 569.765 955.404 569.765 954.228C569.765 952.786 570.787 952.184 571.963 952.184C573.125 952.184 574.133 952.786 574.133 954.228C574.133 955.404 573.363 956.188 571.963 956.188ZM579.505 950.56L582.599 946.682H580.989L578.133 950.532C577.237 951.708 576.859 952.744 576.859 953.654C576.859 955.782 578.217 957.182 580.303 957.182C582.403 957.182 583.859 955.698 583.859 953.794C583.859 951.82 582.459 950.7 580.779 950.7C580.093 950.7 579.519 950.896 579.015 951.232C579.113 951.12 579.267 950.896 579.505 950.56ZM580.275 956.104C578.875 956.104 578.105 955.208 578.105 953.864C578.105 952.702 578.987 951.694 580.359 951.694C581.633 951.694 582.571 952.534 582.571 953.892C582.571 955.166 581.633 956.104 580.275 956.104ZM585.171 951.358V952.338H589.791V951.358H585.171ZM591.48 949.496L592.754 949.706C592.754 948.558 593.608 947.69 594.784 947.69C595.862 947.69 596.618 948.264 596.618 949.44C596.618 950.504 595.974 951.246 594.168 951.288V952.212C596.366 952.212 596.828 953.024 596.828 954.13C596.828 955.04 596.114 956.076 594.644 956.076C593.58 956.076 592.95 955.53 592.516 954.634C592.404 954.368 592.334 954.158 592.306 954.004L591.158 954.48C591.648 955.992 592.446 957.182 594.658 957.182C596.576 957.182 598.13 955.978 598.13 954.102C598.13 952.814 597.43 951.96 596.086 951.624C597.206 951.246 597.892 950.574 597.892 949.23C597.892 947.662 596.632 946.57 594.854 946.57C593.104 946.57 591.746 947.634 591.48 949.496ZM601.5 950.56L601.962 947.872H605.98V946.696H601.066L600.226 951.554L601.052 951.792C601.654 951.582 602.186 951.456 602.732 951.456C604.202 951.456 605.07 952.24 605.07 953.584C605.07 955.096 604.048 955.978 602.634 955.978C601.794 955.978 600.982 955.6 600.366 955.082L599.68 956.02C600.31 956.622 601.346 957.126 602.578 957.126C604.664 957.126 606.302 955.698 606.302 953.514C606.302 951.722 605.14 950.378 602.97 950.378C602.466 950.378 601.976 950.434 601.5 950.56ZM614.53 955.964H612.514V946.682H611.492L608.734 949.062L609.42 949.888L611.282 948.222C611.268 948.32 611.268 948.446 611.268 948.572V955.964H608.986V957H614.53V955.964ZM621.176 951.652C622.296 951.246 622.856 950.434 622.856 949.244C622.856 947.732 621.554 946.486 619.678 946.486C617.732 946.486 616.5 947.732 616.5 949.244C616.5 950.42 617.088 951.246 618.152 951.652C616.864 952.002 616.122 952.898 616.122 954.242C616.122 956.076 617.578 957.238 619.678 957.238C621.75 957.238 623.206 956.076 623.206 954.242C623.206 952.898 622.478 952.002 621.176 951.652ZM619.678 947.508C620.938 947.508 621.554 948.306 621.554 949.286C621.554 950.224 621.064 951.162 619.678 951.162C618.264 951.162 617.774 950.224 617.774 949.286C617.774 948.306 618.39 947.508 619.678 947.508ZM619.678 956.188C618.278 956.188 617.48 955.404 617.48 954.228C617.48 952.786 618.502 952.184 619.678 952.184C620.84 952.184 621.848 952.786 621.848 954.228C621.848 955.404 621.078 956.188 619.678 956.188ZM631.21 955.964H629.194V946.682H628.172L625.414 949.062L626.1 949.888L627.962 948.222C627.948 948.32 627.948 948.446 627.948 948.572V955.964H625.666V957H631.21V955.964Z" fill="white"/>
<path d="M1510.64 923.476V919.066H1502.2V923.476H1510.64ZM1509.51 919.99V922.552H1503.32V919.99H1509.51ZM1512.12 924.904H1500.71V925.828H1505.94V928.362H1507.08V925.828H1512.12V924.904ZM1503.32 929.818V927.172H1502.17V930.756H1510.85V929.818H1503.32ZM1523.85 918.478H1522.71V931.064H1523.85V918.478ZM1517.69 919.402C1515.75 919.402 1514.33 920.606 1514.33 922.356C1514.33 924.106 1515.75 925.31 1517.69 925.31C1519.65 925.31 1521.05 924.106 1521.05 922.356C1521.05 920.606 1519.65 919.402 1517.69 919.402ZM1517.69 920.382C1519 920.382 1519.93 921.18 1519.93 922.356C1519.93 923.518 1519 924.33 1517.69 924.33C1516.39 924.33 1515.45 923.518 1515.45 922.356C1515.45 921.18 1516.39 920.382 1517.69 920.382ZM1513.7 927.34L1513.84 928.306C1516.13 928.306 1519.14 928.278 1521.98 927.76L1521.88 926.906C1519.11 927.312 1516.01 927.34 1513.7 927.34ZM1538.23 924.61V923.644H1536.17V918.492H1535.03V931.036H1536.17V924.61H1538.23ZM1530.74 920.494V918.632H1529.59V920.494H1526.43V921.418H1533.84V920.494H1530.74ZM1530.18 922.454C1528.42 922.454 1527.14 923.672 1527.14 925.352C1527.14 927.074 1528.42 928.236 1530.18 928.236C1531.97 928.236 1533.25 927.074 1533.25 925.352C1533.25 923.672 1531.97 922.454 1530.18 922.454ZM1530.18 927.284C1529.05 927.284 1528.22 926.472 1528.22 925.352C1528.22 924.232 1529.05 923.406 1530.18 923.406C1531.34 923.406 1532.16 924.232 1532.16 925.352C1532.16 926.472 1531.34 927.284 1530.18 927.284ZM1549.68 918.478H1548.53V931.036H1549.68V918.478ZM1546 919.836H1540.12V920.76H1544.84C1544.6 923.742 1542.92 926.15 1539.55 927.76L1540.16 928.698C1544.35 926.64 1546 923.462 1546 919.836Z" fill="white"/>
<path d="M456.284 902.296H454.436V915.232H456.284V902.296ZM449.354 903.206C447.408 903.206 445.966 904.97 445.966 907.798C445.966 910.64 447.408 912.418 449.354 912.418C451.3 912.418 452.742 910.64 452.742 907.798C452.742 904.97 451.3 903.206 449.354 903.206ZM449.354 904.872C450.306 904.872 450.964 905.88 450.964 907.798C450.964 909.716 450.306 910.738 449.354 910.738C448.402 910.738 447.744 909.716 447.744 907.798C447.744 905.88 448.402 904.872 449.354 904.872ZM470.129 908.428H467.483V906.888C468.435 906.454 468.981 905.824 468.981 904.984C468.981 903.444 467.161 902.506 464.305 902.506C461.463 902.506 459.643 903.444 459.643 904.984C459.643 905.81 460.133 906.44 461.099 906.874V908.428H458.481V909.884H470.129V908.428ZM464.305 903.906C466.111 903.906 467.077 904.256 467.077 904.984C467.077 905.698 466.111 906.048 464.305 906.048C462.555 906.048 461.547 905.698 461.547 904.984C461.547 904.256 462.555 903.906 464.305 903.906ZM462.947 908.428V907.35C463.367 907.406 463.815 907.434 464.305 907.434C464.795 907.434 465.229 907.406 465.635 907.364V908.428H462.947ZM464.277 910.528C461.491 910.528 459.811 911.368 459.811 912.866C459.811 914.378 461.491 915.218 464.277 915.218C467.063 915.218 468.757 914.378 468.757 912.866C468.757 911.368 467.063 910.528 464.277 910.528ZM464.277 913.818C462.541 913.818 461.673 913.496 461.673 912.866C461.673 912.208 462.527 911.928 464.277 911.928C466.027 911.928 466.881 912.208 466.881 912.866C466.881 913.496 466.013 913.818 464.277 913.818ZM481.51 905.488H483.162V903.99H481.51V902.31H479.662V909.912H481.51V908.288H483.162V906.776H481.51V905.488ZM478.444 906.174C478.444 904.34 476.932 903.01 474.958 903.01C472.97 903.01 471.458 904.34 471.458 906.174C471.458 908.022 472.97 909.324 474.958 909.324C476.932 909.324 478.444 908.022 478.444 906.174ZM473.264 906.174C473.264 905.166 473.95 904.578 474.958 904.578C475.924 904.578 476.652 905.166 476.652 906.174C476.652 907.182 475.924 907.77 474.958 907.77C473.95 907.77 473.264 907.182 473.264 906.174ZM472.914 910.43V911.914H479.662V915.218H481.51V910.43H472.914ZM496.069 906.23H494.529V902.296H492.681V911.956H494.529V907.756H496.069V906.23ZM489.321 907.63L491.127 907.84C491.421 906.202 491.421 904.942 491.421 904.046V903.248H484.799V904.718H489.601C489.587 905.502 489.531 906.398 489.321 907.63ZM492.093 909.674L491.981 908.358C490.749 908.526 489.503 908.624 488.215 908.68V906.244H486.409V908.75C485.569 908.764 484.771 908.764 484.057 908.764L484.225 910.234C486.423 910.234 489.447 910.164 492.093 909.674ZM487.781 913.51V911.102H485.933V914.98H494.935V913.51H487.781Z" fill="white"/>
<path d="M335.768 358.16L337.64 365H343.22L334.652 338.36H328.388L319.856 365H325.256L327.128 358.16H335.768ZM334.616 354.02H328.28L329.072 351.104C329.9 348.332 330.656 345.308 331.34 342.392H331.484C332.312 345.272 332.996 348.332 333.824 351.104L334.616 354.02ZM356.023 365.504C360.451 365.504 364.591 361.472 364.591 354.56C364.591 348.404 361.639 344.336 356.635 344.336C354.619 344.336 352.639 345.308 351.055 346.748L351.163 343.508V336.272H345.907V365H350.047L350.515 362.876H350.623C352.314 364.568 354.187 365.504 356.023 365.504ZM354.835 361.148C353.719 361.148 352.423 360.752 351.163 359.636V350.78C352.566 349.376 353.755 348.692 355.159 348.692C357.931 348.692 359.155 350.78 359.155 354.668C359.155 359.132 357.283 361.148 354.835 361.148ZM377.498 365.504C382.538 365.504 387.182 361.58 387.182 354.956C387.182 348.224 382.538 344.336 377.498 344.336C372.458 344.336 367.814 348.224 367.814 354.956C367.814 361.58 372.458 365.504 377.498 365.504ZM377.498 361.184C374.762 361.184 373.214 358.736 373.214 354.956C373.214 351.068 374.762 348.656 377.498 348.656C380.234 348.656 381.782 351.068 381.782 354.956C381.782 358.736 380.234 361.184 377.498 361.184ZM397.586 365.504C400.358 365.504 402.302 364.172 404.03 362.12H404.174L404.57 365H408.89V344.84H403.598V358.448C402.194 360.284 401.186 360.968 399.494 360.968C397.478 360.968 396.686 359.924 396.686 356.756V344.84H391.394V357.44C391.394 362.48 393.266 365.504 397.586 365.504ZM421.912 365.504C423.676 365.504 425.044 365.144 426.16 364.748L425.296 360.896C424.756 361.148 424 361.328 423.316 361.328C421.48 361.328 420.58 360.212 420.58 357.944V349.016H425.548V344.84H420.58V339.44H416.152L415.54 344.84L412.444 345.092V349.016H415.288V357.944C415.288 362.48 417.124 365.504 421.912 365.504ZM443.529 342.788V365H448.857V342.788H456.417V338.36H436.041V342.788H443.529ZM468.693 365.504C474.849 365.504 478.485 361.796 478.485 357.44C478.485 353.552 476.433 351.536 473.121 350.204L469.629 348.728C467.361 347.864 465.453 347.036 465.453 345.236C465.453 343.472 466.965 342.428 469.305 342.428C471.501 342.428 473.265 343.22 474.957 344.624L477.657 341.276C475.497 339.08 472.473 337.856 469.305 337.856C463.941 337.856 460.089 341.204 460.089 345.56C460.089 349.448 462.789 351.572 465.489 352.724L469.053 354.236C471.465 355.28 473.049 355.82 473.049 357.836C473.049 359.708 471.573 360.896 468.801 360.896C466.461 360.896 463.941 359.708 462.033 357.944L458.973 361.616C461.565 364.1 465.093 365.504 468.693 365.504ZM483.202 338.36V365H499.33V360.536H488.53V338.36H483.202ZM508.335 341.6V336.488H503.079V341.6H508.335ZM503.043 365H508.299V344.84H503.043V365ZM513.496 344.84V365H518.752V351.14C520.3 349.664 521.272 348.872 522.964 348.872C524.98 348.872 525.808 349.952 525.808 353.084V365H531.1V352.436C531.1 347.36 529.228 344.336 524.872 344.336C522.136 344.336 520.084 345.776 518.32 347.504H518.176L517.816 344.84H513.496ZM545.307 365.504C547.899 365.504 550.347 364.676 552.363 363.272L550.563 360.032C549.123 360.932 547.719 361.436 546.027 361.436C543.003 361.436 540.879 359.708 540.447 356.396H552.867C553.011 355.928 553.119 354.956 553.119 353.984C553.119 348.404 550.239 344.336 544.695 344.336C539.907 344.336 535.299 348.44 535.299 354.956C535.299 361.58 539.691 365.504 545.307 365.504ZM548.583 352.904H540.375C540.771 349.988 542.643 348.44 544.767 348.44C547.359 348.44 548.583 350.168 548.583 352.904Z" fill="white"/>
<path d="M334.148 435.504C337.64 435.504 340.448 434.208 342.644 431.58L339.836 428.268C338.396 429.816 336.632 430.896 334.328 430.896C330.116 430.896 327.38 427.404 327.38 421.608C327.38 415.884 330.404 412.428 334.436 412.428C336.452 412.428 338 413.364 339.332 414.66L342.14 411.276C340.412 409.44 337.784 407.856 334.328 407.856C327.596 407.856 321.944 413.004 321.944 421.788C321.944 430.68 327.38 435.504 334.148 435.504ZM351.472 435.36C353.776 435.36 355.828 434.424 357.556 432.948H357.664L358.06 435H362.38V423.228C362.38 417.288 359.788 414.336 354.64 414.336C351.472 414.336 348.448 415.38 346.252 416.712L347.836 420.492C349.672 419.304 351.796 418.584 353.668 418.584C355.216 418.584 356.188 418.908 356.62 419.52C357.016 420.348 357.196 421.212 357.088 422.076C348.736 422.328 345.244 424.596 345.496 429.528C345.496 433.02 347.872 435.36 351.472 435.36ZM353.092 431.328C351.544 431.328 350.392 430.32 350.356 428.628C350.32 427.188 351.148 426.036 353.452 425.712C354.604 425.532 355.828 425.424 357.088 425.316V429.384C355.828 430.644 354.64 431.292 353.092 431.328ZM367.774 414.84V435H373.03V422.976C374.182 420.06 376.09 419.016 377.674 419.016C378.502 419.016 379.078 419.088 379.762 419.34L380.698 414.768C380.086 414.516 379.438 414.336 378.322 414.336C376.162 414.336 374.074 415.776 372.598 418.404H372.454L372.094 414.84H367.774ZM392.201 435.504C394.793 435.504 397.241 434.676 399.257 433.272L397.457 430.032C396.017 430.932 394.613 431.436 392.921 431.436C389.897 431.436 387.773 429.708 387.341 426.396H399.761C399.905 425.928 400.013 424.956 400.013 423.984C400.013 418.404 397.133 414.336 391.589 414.336C386.801 414.336 382.193 418.44 382.193 424.956C382.193 431.58 386.585 435.504 392.201 435.504ZM395.477 422.904H387.269C387.665 419.988 389.537 418.44 391.661 418.44C394.253 418.44 395.477 420.168 395.477 422.904ZM413.119 435.504C415.711 435.504 418.159 434.676 420.175 433.272L418.375 430.032C416.935 430.932 415.531 431.436 413.839 431.436C410.815 431.436 408.691 429.708 408.259 426.396H420.679C420.823 425.928 420.931 424.956 420.931 423.984C420.931 418.404 418.051 414.336 412.507 414.336C407.719 414.336 403.111 418.44 403.111 424.956C403.111 431.58 407.503 435.504 413.119 435.504ZM416.395 422.904H408.187C408.583 419.988 410.455 418.44 412.579 418.44C415.171 418.44 416.395 420.168 416.395 422.904ZM425.289 414.84V435H430.545V422.976C431.697 420.06 433.605 419.016 435.189 419.016C436.017 419.016 436.593 419.088 437.277 419.34L438.213 414.768C437.601 414.516 436.953 414.336 435.837 414.336C433.677 414.336 431.589 415.776 430.113 418.404H429.969L429.609 414.84H425.289Z" fill="white"/>
<path d="M323.276 478.36V505H332.78C338.648 505 343.112 502.516 343.112 497.152C343.112 493.552 340.988 491.536 338.108 490.852V490.672C340.376 489.916 341.744 487.288 341.744 484.912C341.744 479.908 337.568 478.36 332.096 478.36H323.276ZM331.7 489.196H328.604V482.428H331.772C334.976 482.428 336.56 483.364 336.56 485.704C336.56 487.864 335.156 489.196 331.7 489.196ZM332.312 500.896H328.604V493.156H332.312C336.056 493.156 337.928 494.236 337.928 496.828C337.928 499.6 335.948 500.896 332.312 500.896ZM355.772 505.504C360.812 505.504 365.456 501.58 365.456 494.956C365.456 488.224 360.812 484.336 355.772 484.336C350.732 484.336 346.088 488.224 346.088 494.956C346.088 501.58 350.732 505.504 355.772 505.504ZM355.772 501.184C353.036 501.184 351.488 498.736 351.488 494.956C351.488 491.068 353.036 488.656 355.772 488.656C358.508 488.656 360.056 491.068 360.056 494.956C360.056 498.736 358.508 501.184 355.772 501.184ZM374.851 505.36C377.155 505.36 379.207 504.424 380.935 502.948H381.043L381.439 505H385.759V493.228C385.759 487.288 383.167 484.336 378.019 484.336C374.851 484.336 371.827 485.38 369.631 486.712L371.215 490.492C373.051 489.304 375.175 488.584 377.047 488.584C378.595 488.584 379.567 488.908 379.999 489.52C380.395 490.348 380.575 491.212 380.467 492.076C372.115 492.328 368.623 494.596 368.875 499.528C368.875 503.02 371.251 505.36 374.851 505.36ZM376.471 501.328C374.923 501.328 373.771 500.32 373.735 498.628C373.699 497.188 374.527 496.036 376.831 495.712C377.983 495.532 379.207 495.424 380.467 495.316V499.384C379.207 500.644 378.019 501.292 376.471 501.328ZM391.153 484.84V505H396.409V492.976C397.561 490.06 399.469 489.016 401.053 489.016C401.881 489.016 402.457 489.088 403.141 489.34L404.077 484.768C403.465 484.516 402.817 484.336 401.701 484.336C399.541 484.336 397.453 485.776 395.977 488.404H395.833L395.473 484.84H391.153ZM413.924 505.504C416.084 505.504 418.028 504.352 419.504 502.912H419.612L420.044 505H424.328V476.272H419.036V483.364L419.252 486.532C417.812 485.2 416.444 484.336 414.14 484.336C409.784 484.336 405.68 488.368 405.68 494.956C405.68 501.544 408.884 505.504 413.924 505.504ZM415.292 501.148C412.52 501.148 411.116 499.06 411.116 494.884C411.116 490.852 413.024 488.692 415.292 488.692C416.552 488.692 417.776 489.088 419.036 490.204V499.06C417.884 500.608 416.696 501.148 415.292 501.148Z" fill="white"/>
<line y1="799.5" x2="1920" y2="799.5" stroke="#3A3A3A"/>
<rect x="1451.5" y="900.5" width="148" height="48" stroke="#8A8A8A"/>
<path fill-rule="evenodd" clip-rule="evenodd" d="M1723 154.125C1722.62 154.125 1722.25 153.974 1721.98 153.704C1721.71 153.434 1721.56 153.069 1721.56 152.687L1721.56 118.783L1712.52 127.83C1712.25 128.1 1711.88 128.252 1711.5 128.252C1711.12 128.252 1710.75 128.1 1710.48 127.83C1710.21 127.56 1710.06 127.194 1710.06 126.813C1710.06 126.431 1710.21 126.065 1710.48 125.795L1721.98 114.295C1722.12 114.161 1722.27 114.055 1722.45 113.982C1722.62 113.91 1722.81 113.872 1723 113.872C1723.19 113.872 1723.38 113.91 1723.55 113.982C1723.73 114.055 1723.88 114.161 1724.02 114.295L1735.52 125.795C1735.79 126.065 1735.94 126.431 1735.94 126.813C1735.94 127.194 1735.79 127.56 1735.52 127.83C1735.25 128.1 1734.88 128.252 1734.5 128.252C1734.12 128.252 1733.75 128.1 1733.48 127.83L1724.44 118.783L1724.44 152.687C1724.44 153.069 1724.29 153.434 1724.02 153.704C1723.75 153.974 1723.38 154.125 1723 154.125V154.125Z" fill="white"/>
<defs>
<linearGradient id="paint0_linear_2_4703" x1="-1.81645e-05" y1="1080" x2="2059.23" y2="609.936" gradientUnits="userSpaceOnUse">
<stop stop-color="#15151C"/>
<stop offset="1" stop-color="#180A0A" stop-opacity="0.97"/>
</linearGradient>
</defs>
</svg>
