<svg width="40" height="45" viewBox="0 0 40 45" fill="none" xmlns="http://www.w3.org/2000/svg">
<path d="M34 14.832H6C3.79086 14.832 2 16.6229 2 18.832V38.832C2 41.0412 3.79086 42.832 6 42.832H34C36.2091 42.832 38 41.0412 38 38.832V18.832C38 16.6229 36.2091 14.832 34 14.832Z" stroke="black" stroke-width="4" stroke-linecap="round" stroke-linejoin="round"/>
<path d="M20 8.83203C20 7.64535 19.6481 6.48531 18.9888 5.49861C18.3295 4.51192 17.3925 3.74288 16.2961 3.28876C15.1997 2.83463 13.9933 2.71581 12.8295 2.94732C11.6656 3.17883 10.5965 3.75028 9.75736 4.58939C8.91824 5.42851 8.3468 6.49761 8.11529 7.66149C7.88378 8.82538 8.0026 10.0318 8.45672 11.1281C8.91085 12.2245 9.67988 13.1616 10.6666 13.8209C11.6533 14.4801 12.8133 14.832 14 14.832M26 14.832C27.1867 14.832 28.3467 14.4801 29.3334 13.8209C30.3201 13.1616 31.0891 12.2245 31.5433 11.1281C31.9974 10.0318 32.1162 8.82538 31.8847 7.66149C31.6532 6.49761 31.0818 5.42851 30.2426 4.58939C29.4035 3.75028 28.3344 3.17883 27.1705 2.94732C26.0067 2.71581 24.8003 2.83463 23.7039 3.28876C22.6075 3.74288 21.6705 4.51192 21.0112 5.49861C20.3519 6.48531 20 7.64535 20 8.83203M20 8.83203V42.832M38 28.832H2" stroke="black" stroke-width="4" stroke-linecap="round" stroke-linejoin="round"/>
</svg>
