<svg width="26" height="42" viewBox="0 0 26 42" fill="none" xmlns="http://www.w3.org/2000/svg">
<path fill-rule="evenodd" clip-rule="evenodd" d="M13.0001 41.125C12.6189 41.125 12.2532 40.9735 11.9836 40.704C11.7141 40.4344 11.5626 40.0687 11.5626 39.6875L11.5626 5.78263L2.51786 14.8303C2.24793 15.1002 1.88184 15.2518 1.50011 15.2518C1.11838 15.2518 0.75228 15.1002 0.482355 14.8303C0.212431 14.5603 0.0607898 14.1942 0.0607898 13.8125C0.0607898 13.4308 0.212431 13.0647 0.482355 12.7948L11.9824 1.29476C12.1159 1.16089 12.2745 1.05468 12.4492 0.982208C12.6238 0.90974 12.811 0.872437 13.0001 0.872437C13.1892 0.872437 13.3764 0.90974 13.5511 0.982208C13.7257 1.05468 13.8843 1.16089 14.0179 1.29476L25.5179 12.7948C25.7878 13.0647 25.9394 13.4308 25.9394 13.8125C25.9394 14.1942 25.7878 14.5603 25.5179 14.8303C25.2479 15.1002 24.8818 15.2518 24.5001 15.2518C24.1184 15.2518 23.7523 15.1002 23.4824 14.8303L14.4376 5.78263L14.4376 39.6875C14.4376 40.0687 14.2862 40.4344 14.0166 40.704C13.747 40.9735 13.3814 41.125 13.0001 41.125V41.125Z" fill="white"/>
</svg>
