<svg width="170" height="70" viewBox="0 0 170 70" fill="none" xmlns="http://www.w3.org/2000/svg">
<path d="M0 0V4.73993H33.0969V0H0ZM37.7719 0V4.73993H84.9256C84.9256 4.73993 80.1072 0 73.7322 0H37.7719ZM94.18 0V4.73993H122.708L121.008 0H94.18ZM143.161 0L141.461 4.73993H169.724V0H143.161ZM0 9.21473V13.9547H33.0969V9.21473H0ZM37.7719 9.22014V13.9547H90.3975C90.3975 13.9547 89.7812 10.3077 88.7134 9.22014H37.7719ZM94.18 9.22014V13.9547H125.842L124.275 9.22014H94.18ZM139.777 9.22014L138.21 13.9547H169.74V9.22014H139.777ZM9.5625 18.4295V23.1748H23.8903V18.4295H9.5625ZM47.3344 18.4295V23.1748H61.625V18.4295H47.3344ZM75.5969 18.4295V23.1748H89.93C89.93 23.1748 90.8331 20.6696 90.8331 18.4295H75.5969ZM103.732 18.4295V23.1748H129.094L127.394 18.4295H103.732ZM136.696 18.4295L134.996 23.1748H160.438V18.4295H136.696ZM9.5625 27.6496V32.3895H23.8903V27.6496H9.5625ZM47.3344 27.6496V32.3895H83.9906C83.9906 32.3895 87.0506 29.9546 88.0281 27.6496H47.3344ZM103.742 27.6496V32.3895H118.07V29.7598L118.973 32.3949H145.217L146.195 29.7598V32.3949H160.438V27.655H133.535L132.101 31.6699L130.666 27.655L103.742 27.6496ZM9.5625 36.8697V41.6097H23.8903V36.8697H9.5625ZM47.3344 36.8697V41.6097H87.975C86.9975 39.31 83.9375 36.8697 83.9375 36.8697H47.3344ZM103.742 36.8697V41.6097H118.07V36.8697H103.742ZM120.679 36.8697L122.411 41.6097H142.093L143.687 36.8697H120.679ZM146.211 36.8697V41.6097H160.438V36.8697H146.211ZM9.5625 46.0845V50.8244H23.8903V46.0845H9.5625ZM47.3344 46.0845V50.8244H61.625V46.0845H47.3344ZM75.5969 46.0845V50.8244H90.8438C90.8438 48.5897 89.9406 46.0845 89.9406 46.0845H75.5969ZM103.732 46.0845V50.8244H118.06V46.0845H103.732ZM123.919 46.0845L125.598 50.8244H138.794L140.494 46.0845H123.919ZM146.2 46.0845V50.8244H160.438V46.0845H146.2ZM0.265625 55.2992V60.0445H33.3625V55.2992H0.265625ZM37.7878 55.2992V60.0445H88.7347C89.8078 58.9624 90.4188 55.2992 90.4188 55.2992H37.7878ZM94.4509 55.2992V60.0445H118.038V55.2992H94.4509ZM127.149 55.2992L128.876 60.0445H135.591L137.211 55.2992H127.149ZM146.168 55.2992V60.0445H170V55.2992H146.168ZM0.265625 64.5193V69.2593H33.3625V64.5193H0.265625ZM37.7878 64.5193V69.2539H73.7534C80.1284 69.2539 84.9522 64.5193 84.9522 64.5193H37.7878ZM94.4509 64.5193V69.2593H118.038V64.5193H94.4509ZM130.417 64.5193L132.079 69.243L132.366 69.2484L134.056 64.5139L130.417 64.5193ZM146.163 64.5193V69.2593H170V64.5193H146.163Z" fill="#1F70C1"/>
</svg>
