<svg width="52" height="36" viewBox="0 0 52 36" fill="none" xmlns="http://www.w3.org/2000/svg">
<path d="M35.9375 18C35.9375 23.5613 31.4363 28.0625 25.875 28.0625C20.3137 28.0625 15.8125 23.5613 15.8125 18C15.8125 12.4387 20.3137 7.9375 25.875 7.9375C31.4363 7.9375 35.9375 12.4387 35.9375 18ZM24.4375 15.125V20.875H23.7188C22.9281 20.875 22.2812 21.5219 22.2812 22.3125C22.2812 23.1031 22.9281 23.75 23.7188 23.75H28.0312C28.8219 23.75 29.4688 23.1031 29.4688 22.3125C29.4688 21.5219 28.8219 20.875 28.0312 20.875H27.3125V13.6875C27.3125 12.8969 26.6656 12.25 25.875 12.25H24.4375C23.6469 12.25 23 12.8969 23 13.6875C23 14.4781 23.6469 15.125 24.4375 15.125ZM0 6.5C0 3.32402 2.57402 0.75 5.75 0.75H46C49.1715 0.75 51.75 3.32402 51.75 6.5V29.5C51.75 32.6715 49.1715 35.25 46 35.25H5.75C2.57402 35.25 0 32.6715 0 29.5V6.5ZM4.3125 10.8125V25.1875C7.48848 25.1875 10.0625 27.766 10.0625 30.9375H41.6875C41.6875 27.766 44.266 25.1875 47.4375 25.1875V10.8125C44.266 10.8125 41.6875 8.23398 41.6875 5.0625H10.0625C10.0625 8.23398 7.48848 10.8125 4.3125 10.8125Z" fill="#0A0A0A"/>
</svg>
