<svg width="18" height="25" viewBox="0 0 18 25" fill="none" xmlns="http://www.w3.org/2000/svg">
<path d="M9.00128 0.000602944C13.9748 -0.00276096 17.9926 3.94279 18 8.82462C18.0034 11.0381 17.0817 12.9288 15.6925 14.5412C13.1591 17.4817 10.9424 20.5781 9.73226 24.2944C9.623 24.6299 9.46024 25.0109 8.99261 24.9994C8.48387 24.9867 8.34713 24.5597 8.2264 24.1983C7.09068 20.7978 5.1933 17.86 2.79566 15.1921C1.37046 13.6062 0.227505 11.7788 0.0357225 9.63227C-0.431909 4.4013 3.75922 -0.0709564 9.00128 0.000602944ZM5.94236 8.90831C5.95444 10.5234 7.39545 11.9362 9.01574 11.9217C10.6499 11.9071 12.0694 10.4897 12.0631 8.87916C12.0568 7.2705 10.6156 5.8594 8.9862 5.86694C7.35982 5.87418 5.93059 7.30261 5.94246 8.90842L5.94236 8.90831Z" fill="#007DFD"/>
</svg>
