<svg width="50" height="50" viewBox="0 0 50 50" fill="none" xmlns="http://www.w3.org/2000/svg">
<path d="M25 50C38.8071 50 50 38.8071 50 25C50 11.1929 38.8071 0 25 0C11.1929 0 0 11.1929 0 25C0 38.8071 11.1929 50 25 50Z" fill="#3075DC"/>
<path d="M25 9C18.3726 9 13 14.1354 13 20.4702C13 30.5601 24.4202 42 25 42C25.5798 42 37 30.8376 37 20.4702C36.9998 14.1354 31.6272 9 25 9ZM25 27.1782C21.124 27.1782 17.9821 24.1749 17.9821 20.4702C17.9821 16.7655 21.124 13.762 25 13.762C28.876 13.762 32.0179 16.7653 32.0179 20.47C32.0179 24.1747 28.8758 27.178 25 27.178V27.1782Z" fill="white"/>
</svg>
