<svg width="256" height="36" viewBox="0 0 256 36" fill="none" xmlns="http://www.w3.org/2000/svg">
<g clip-path="url(#clip0_23_361)">
<path d="M26.0072 0.00193538H23.8295C22.5241 0.00193538 21.8002 0.734276 21.8002 2.05489V24.0119L7.00764 1.37057C6.47835 0.392117 5.75208 0.00193538 4.59264 0.00193538H1.98184C0.676435 0.00193538 0 0.734276 0 2.05489V33.1764C0 34.545 0.676435 35.2305 1.98184 35.2305H4.20517C5.51058 35.2305 6.18701 34.5462 6.18701 33.1764V10.7115L21.0271 33.8613C21.5593 34.8397 22.3325 35.2359 23.3958 35.2359H26.0066C27.306 35.2359 28.0359 34.5516 28.0359 33.183V2.05789C28.0359 0.737277 27.306 0.00493677 26.0066 0.00493677M55.6576 29.8028H41.0964V19.9534H51.3972C52.7026 19.9534 53.4277 19.2691 53.4277 17.9005V16.5306C53.4277 15.21 52.7026 14.5257 51.3984 14.5257H41.0964V5.42966H54.8833C56.1887 5.42966 56.9126 4.74534 56.9126 3.42473V2.05609C56.9126 0.735476 56.1887 0.00193538 54.8833 0.00193538H36.8907C35.5853 0.00193538 34.9088 0.734276 34.9088 2.05489V33.1764C34.9088 34.545 35.5853 35.2305 36.8907 35.2305H55.6576C56.9618 35.2305 57.6869 34.5462 57.6869 33.1764V31.8077C57.6869 30.4871 56.9618 29.8028 55.6576 29.8028M89.2242 0.00193538H64.5699C63.2171 0.00193538 62.5394 0.734276 62.5394 2.05489V3.42473C62.5394 4.74534 63.2159 5.42966 64.5699 5.42966H73.8027V33.1764C73.8027 34.545 74.4791 35.2305 75.7845 35.2305H77.9598C79.3127 35.2305 79.9891 34.5462 79.9891 33.1764V5.42966H89.2219C90.5273 5.42966 91.2037 4.74534 91.2037 3.42473V2.05609C91.2037 0.735476 90.5273 0.00193538 89.2219 0.00193538M100.878 9.73246C100.878 7.38537 102.907 5.82104 106.098 5.82104C108.756 5.82104 110.642 6.89554 112.043 7.72392C113.059 8.25817 114.074 8.45626 114.799 7.03961L115.671 5.42486C116.253 4.35036 116.11 3.41992 115.042 2.63356C113.594 1.55966 110.259 -0.00106602 106.194 -0.00106602C99.671 -0.00106602 94.6416 3.96078 94.6416 10.0716C94.6416 20.8802 110.643 19.511 110.643 26.1111C110.643 28.46 108.709 30.0729 105.52 30.0729C102.138 30.0729 99.6716 28.3141 98.5596 27.5313C97.3515 26.847 96.5303 26.895 95.756 27.9695L94.6939 29.5345C93.7267 30.8551 94.2097 31.6853 94.9822 32.3696C96.6757 33.6902 100.639 35.8914 105.52 35.8914C112.724 35.8914 116.88 31.2453 116.88 25.6218C116.88 14.5683 100.877 16.2311 100.877 9.72645M149.889 27.4287C149.118 26.3062 148.151 26.3062 147.089 27.0865C145.492 28.2613 142.543 30.1179 138.675 30.1179C131.275 30.1179 127.122 24.2022 127.122 17.6982C127.122 11.2932 131.133 5.76461 138.627 5.76461C142.158 5.76461 144.863 7.2335 146.359 8.21195C147.516 8.94669 148.435 8.84825 149.112 7.72392L149.978 6.30126C150.655 5.22676 150.607 4.24831 149.593 3.46194C147.753 2.14133 143.985 -0.0136719 138.374 -0.0136719C127.99 -0.00646853 120.692 7.71912 120.692 17.7918C120.692 28.0116 127.652 35.8842 138.433 35.8842C144.522 35.8842 148.633 33.1469 150.564 31.5802C151.532 30.75 151.579 29.7229 150.855 28.7451L149.888 27.4245M220.755 0.00313594H218.53C217.225 0.00313594 216.548 0.735476 216.548 2.05609V22.7897C216.548 27.4839 213.504 30.1251 208.912 30.1251C204.319 30.1251 201.323 27.4839 201.323 22.7897V2.05669C201.323 0.736076 200.646 0.00373621 199.292 0.00373621H197.117C195.812 0.00373621 195.136 0.736076 195.136 2.05669V22.8395C195.136 30.6144 200.646 35.8956 208.96 35.8956C217.225 35.8956 222.738 30.6144 222.738 22.8395V2.05489C222.738 0.734276 222.061 0.00193538 220.756 0.00193538M254.02 0.00193538H229.366C228.013 0.00193538 227.336 0.734276 227.336 2.05489V3.42473C227.336 4.74534 228.013 5.42966 229.366 5.42966H238.598V33.1764C238.598 34.545 239.275 35.2305 240.58 35.2305H242.758C244.117 35.2305 244.793 34.5462 244.793 33.1764V5.42966H254.026C255.331 5.42966 256.008 4.74534 256.008 3.42473V2.05609C256.008 0.735476 255.331 0.00193538 254.026 0.00193538" fill="#474A50"/>
<path d="M171.815 0.00374509H158.395C156.817 0.00374509 155.539 1.29735 155.539 2.89289C155.539 4.48963 156.817 5.78263 158.395 5.78263H171.187C171.136 5.78743 171.083 5.79644 171.031 5.80184C171.29 5.78503 171.551 5.77363 171.815 5.77363C178.389 5.77363 183.127 10.9576 183.127 17.706C183.127 24.7473 178.39 30.127 171.815 30.127C165.247 30.127 160.506 24.7485 160.506 17.706C160.506 13.498 162.351 9.89935 165.33 7.78576C165.288 7.81578 165.241 7.83979 165.199 7.87581H161.182C159.883 7.87581 158.797 6.98739 158.453 5.78083C155.694 8.90228 154.092 13.0682 154.092 17.7024C154.092 27.9191 161.437 35.8908 171.832 35.8908C182.228 35.8908 189.574 27.9191 189.574 17.6964C189.574 7.76775 182.228 -0.00585938 171.832 -0.00585938" fill="#80CC28"/>
<path d="M158.441 5.78125L158.44 5.78259C158.44 5.78259 158.442 5.78259 158.443 5.78125" fill="#80CC28"/>
<path d="M161.172 7.87562H165.192C165.234 7.84381 165.281 7.81559 165.323 7.78558C166.931 6.64505 168.865 5.93972 171.025 5.80106C171.072 5.79506 171.126 5.78665 171.179 5.78125H158.434V5.78725L158.428 5.79326C158.772 6.99982 159.858 7.88823 161.157 7.88823" fill="#6A9E47"/>
<path d="M253.103 32.6094H253.37C253.681 32.6094 253.934 32.505 253.934 32.2492C253.934 32.0241 253.77 31.8735 253.415 31.8735C253.266 31.8735 253.166 31.8855 253.106 31.9035V32.6058L253.103 32.6094ZM253.088 34.0057H252.524V31.5445C252.747 31.5025 253.058 31.4725 253.459 31.4725C253.919 31.4725 254.127 31.5505 254.305 31.6526C254.441 31.7606 254.542 31.9527 254.542 32.1928C254.542 32.4629 254.335 32.673 254.038 32.7631V32.7931C254.275 32.8831 254.412 33.0632 254.483 33.3934C254.56 33.7715 254.602 33.9216 254.661 34.0117H254.056C253.984 33.9216 253.937 33.6995 253.866 33.4114C253.824 33.1412 253.676 33.0212 253.361 33.0212H253.094V34.0117L253.088 34.0057ZM251.59 32.715C251.59 33.8136 252.391 34.684 253.488 34.684C254.556 34.684 255.343 33.8136 255.343 32.7331C255.343 31.6405 254.56 30.7521 253.474 30.7521C252.394 30.7521 251.593 31.6406 251.593 32.7211L251.59 32.715ZM255.966 32.715C255.966 34.1137 254.886 35.2062 253.474 35.2062C252.08 35.2062 250.97 34.1137 250.97 32.715C250.97 31.3524 252.086 30.2539 253.48 30.2539C254.892 30.2539 255.972 31.3524 255.972 32.715" fill="#474A50"/>
</g>
<defs>
<clipPath id="clip0_23_361">
<rect width="256" height="35.8967" fill="white"/>
</clipPath>
</defs>
</svg>
