<svg width="240" height="31" viewBox="0 0 240 31" fill="none" xmlns="http://www.w3.org/2000/svg">
<g clip-path="url(#clip0_21_309)">
<path fill-rule="evenodd" clip-rule="evenodd" d="M204.676 30.1135C204.553 30.2182 204.393 30.2745 204.23 30.2745H195.523C195.247 30.2745 194.979 30.1305 194.865 29.8817C194.734 29.5954 194.81 29.2615 195.047 29.0679L210.937 15.8291C211.291 15.5334 211.292 14.994 210.938 14.6977L195.071 1.36923C194.879 1.20697 194.767 0.958886 194.81 0.712678C194.87 0.37375 195.164 0.142578 195.496 0.142578H203.875C204.035 0.142578 204.192 0.198962 204.32 0.302958L221.612 14.6933L221.768 14.8255C222.034 15.0497 222.041 15.4538 221.783 15.6875L221.612 15.8422L204.676 30.1135Z" fill="#A8CB3A"/>
<path fill-rule="evenodd" clip-rule="evenodd" d="M34.8899 0.353813H29.577C28.9399 0.353813 28.4181 0.870035 28.4181 1.5009V18.4899C28.4181 18.8889 27.9432 19.1032 27.6386 18.8407L7.97382 1.90373C6.63324 0.74975 5.17615 0.162109 3.63863 0.162109C2.28158 0.162109 0 0.710282 0 4.37646V28.9553C0 29.5886 0.518628 30.1017 1.15884 30.1017H6.4686C7.10818 30.1017 7.62681 29.5886 7.62681 28.9559V11.8961C7.62681 11.4964 8.10237 11.2828 8.40696 11.5459L28.2795 28.7391C29.5111 29.8204 30.8504 30.3686 32.2607 30.3686C33.6754 30.3686 36.0475 29.796 36.0475 25.9613V1.49965C36.0475 0.869409 35.5263 0.353813 34.8899 0.353813Z" fill="#174489"/>
<path fill-rule="evenodd" clip-rule="evenodd" d="M73.7541 0.353516H67.5787C67.2013 0.353516 66.891 0.657986 66.891 1.03388V20.9303C66.891 22.5692 64.8342 23.4006 60.7744 23.4006H52.3757C48.24 23.4006 46.1401 22.5692 46.1401 20.9303V1.03388C46.1401 0.657986 45.8324 0.353516 45.4518 0.353516H39.2004C38.8192 0.353516 38.5108 0.657986 38.5108 1.03388V21.2361C38.5108 22.6375 38.7508 23.8466 39.2169 24.8315C39.681 25.805 40.313 26.6426 41.0976 27.3211C41.8657 27.9839 42.7681 28.5108 43.7737 28.8836C44.7495 29.2488 45.7779 29.5232 46.8247 29.7042C47.8664 29.8903 48.9505 30.0018 50.0473 30.0432C51.1156 30.082 52.1199 30.1014 53.0609 30.1014H59.8949C64.9114 30.1014 68.4817 29.4148 70.8126 28.0046C73.2215 26.5461 74.4437 24.2708 74.4437 21.2361V1.03388C74.4437 0.657986 74.1334 0.353516 73.7541 0.353516Z" fill="#174489"/>
<path fill-rule="evenodd" clip-rule="evenodd" d="M109.859 5.60393V1.6884C109.859 0.93036 109.238 0.316406 108.472 0.316406H78.2679C77.5016 0.316406 76.8804 0.930986 76.8804 1.68903V5.60393C76.8804 6.36197 77.5016 6.97718 78.2685 6.97718H88.8342C89.2205 6.97718 89.5339 7.28666 89.5339 7.66881V28.7287C89.5339 29.4867 90.1552 30.1013 90.9214 30.1013H95.7752C96.5421 30.1013 97.1639 29.4861 97.1639 28.728V7.66881C97.1639 7.28666 97.4767 6.97718 97.863 6.97718H108.471C109.237 6.97718 109.859 6.3626 109.859 5.60393Z" fill="#174489"/>
<path fill-rule="evenodd" clip-rule="evenodd" d="M117.775 15.154L121.644 9.65222C121.821 9.39975 122.197 9.3985 122.377 9.64909L126.292 15.112C126.474 15.3657 126.291 15.7172 125.976 15.7172H118.072C117.78 15.7172 117.608 15.3914 117.775 15.154ZM126.289 2.36622C125.248 0.929072 123.871 0.199219 122.195 0.199219C120.541 0.199219 119.177 0.942854 118.134 2.41384L99.5031 29.03C99.3252 29.2831 99.3378 29.6276 99.5531 29.8707C99.6931 30.028 99.9065 30.1013 100.118 30.1013H107.442C107.675 30.1013 107.894 29.9835 108.021 29.7899L112.7 22.668C112.803 22.512 112.977 22.4181 113.165 22.4181C113.165 22.4181 128.765 22.4143 131.127 22.4174C131.314 22.4174 131.487 22.5102 131.59 22.6649L136.375 29.7955C136.502 29.9866 136.718 30.1013 136.949 30.1013H143.978C144.231 30.1013 144.465 29.9622 144.584 29.7373C144.704 29.5149 144.69 29.2461 144.547 29.0375L126.289 2.36622Z" fill="#174489"/>
<path fill-rule="evenodd" clip-rule="evenodd" d="M181.25 0.353813H175.791C175.192 0.353813 174.707 0.834326 174.707 1.42698V18.6496C174.707 18.9867 174.306 19.1671 174.049 18.9459L154.263 1.90373C152.923 0.74975 151.463 0.162109 149.924 0.162109C148.567 0.162109 146.287 0.710282 146.287 4.37646V29.0279C146.287 29.6187 146.775 30.1017 147.372 30.1017H152.829C153.429 30.1017 153.915 29.6206 153.915 29.0273V11.7358C153.915 11.3981 154.317 11.2183 154.574 11.4401L174.568 28.7391C175.798 29.8204 177.139 30.3686 178.549 30.3686C179.963 30.3686 182.336 29.796 182.336 25.9613V1.42823C182.336 0.834952 181.85 0.353813 181.25 0.353813Z" fill="#174489"/>
<path fill-rule="evenodd" clip-rule="evenodd" d="M191.705 0.353516H185.456C185.075 0.353516 184.768 0.657986 184.768 1.03388V29.4204C184.768 29.7957 185.075 30.1014 185.456 30.1014H191.705C192.085 30.1014 192.395 29.7957 192.395 29.4204V1.03388C192.395 0.657986 192.085 0.353516 191.705 0.353516Z" fill="#174489"/>
<path fill-rule="evenodd" clip-rule="evenodd" d="M224.282 12.7719C224.559 13.0055 224.967 13.0055 225.245 12.7725L239.114 1.36923C239.307 1.20697 239.418 0.958886 239.375 0.712678C239.315 0.37375 239.021 0.142578 238.69 0.142578H230.311C230.15 0.142578 229.993 0.198962 229.865 0.302958L220.133 8.15216C219.78 8.44536 219.779 8.981 220.129 9.27607L224.282 12.7719Z" fill="#174489"/>
<path fill-rule="evenodd" clip-rule="evenodd" d="M224.235 17.7576C224.513 17.5239 224.921 17.5233 225.199 17.757L239.274 29.1302C239.467 29.2918 239.578 29.5405 239.535 29.7867C239.476 30.125 239.181 30.3568 238.85 30.3568H230.47C230.31 30.3568 230.154 30.3004 230.025 30.1964L220.354 22.2294C220.001 21.9362 220 21.4006 220.35 21.1055L224.235 17.7576Z" fill="#174489"/>
</g>
<defs>
<clipPath id="clip0_21_309">
<rect width="240" height="30.6977" fill="white"/>
</clipPath>
</defs>
</svg>
