<svg width="217" height="30" viewBox="0 0 217 30" fill="none" xmlns="http://www.w3.org/2000/svg">
<path d="M94.1231 19.2189H108.374L100.846 7.08557L87.0073 29.0002H80.7143L97.5455 2.70824C97.9124 2.18359 98.3999 1.75435 98.9672 1.45648C99.5345 1.1586 100.165 1.00077 100.806 0.996196C101.447 0.991626 102.08 1.14045 102.651 1.43021C103.223 1.71996 103.717 2.14221 104.091 2.66157L120.969 29.0002H114.676L111.712 24.1002H97.293L94.1512 19.2189M159.54 24.1002V1.26157H154.192V26.3496C154.191 26.6982 154.261 27.0434 154.397 27.3643C154.534 27.6851 154.734 27.975 154.987 28.2162C155.24 28.4748 155.542 28.6799 155.876 28.8194C156.21 28.9589 156.569 29.0299 156.931 29.0282H181.243L184.413 24.1282H159.512M71.1112 20.0216C73.6035 20.0216 75.9938 19.0333 77.7562 17.2742C79.5185 15.5151 80.5086 13.1293 80.5086 10.6416C80.5086 8.15384 79.5185 5.768 77.7562 4.00891C75.9938 2.24982 73.6035 1.26157 71.1112 1.26157H47.7346V29.0002H53.0738V6.17091H70.7839C71.9768 6.17091 73.1208 6.64389 73.9642 7.4858C74.8077 8.32772 75.2816 9.4696 75.2816 10.6602C75.2816 11.8509 74.8077 12.9928 73.9642 13.8347C73.1208 14.6766 71.9768 15.1496 70.7839 15.1496H55.72L71.6722 29.0002H79.4239L68.7081 20.0216H71.1112ZM14.8951 29.0002H31.0437C34.6652 28.9064 38.1069 27.4045 40.6351 24.8146C43.1634 22.2247 44.5783 18.7517 44.5783 15.1356C44.5783 11.5195 43.1634 8.04641 40.6351 5.4565C38.1069 2.8666 34.6652 1.36471 31.0437 1.27091H14.8951C13.0406 1.22288 11.1953 1.54598 9.468 2.22115C7.74066 2.89632 6.16625 3.90989 4.83762 5.2021C3.50899 6.4943 2.45304 8.03897 1.73204 9.74502C1.01104 11.4511 0.639587 13.2839 0.639587 15.1356C0.639587 16.9872 1.01104 18.8201 1.73204 20.5261C2.45304 22.2322 3.50899 23.7768 4.83762 25.0691C6.16625 26.3613 7.74066 27.3748 9.468 28.05C11.1953 28.7252 13.0406 29.0483 14.8951 29.0002M30.679 24.1189H15.2504C12.9161 24.0438 10.7026 23.0654 9.07802 21.3906C7.45341 19.7159 6.54506 17.4761 6.54506 15.1449C6.54506 12.8137 7.45341 10.574 9.07802 8.8992C10.7026 7.22446 12.9161 6.24606 15.2504 6.17091H30.679C31.884 6.13211 33.0846 6.33552 34.2094 6.76905C35.3341 7.20257 36.3601 7.85736 37.2262 8.69451C38.0924 9.53165 38.7812 10.5341 39.2515 11.6422C39.7219 12.7503 39.9643 13.9414 39.9643 15.1449C39.9643 16.3484 39.7219 17.5395 39.2515 18.6476C38.7812 19.7558 38.0924 20.7582 37.2262 21.5953C36.3601 22.4325 35.3341 23.0872 34.2094 23.5208C33.0846 23.9543 31.884 24.1577 30.679 24.1189M132.124 29.0002H148.609L151.732 24.1189H132.489C131.284 24.1577 130.083 23.9543 128.958 23.5208C127.834 23.0872 126.808 22.4325 125.942 21.5953C125.075 20.7582 124.387 19.7558 123.916 18.6476C123.446 17.5395 123.204 16.3484 123.204 15.1449C123.204 13.9414 123.446 12.7503 123.916 11.6422C124.387 10.5341 125.075 9.53165 125.942 8.69451C126.808 7.85736 127.834 7.20257 128.958 6.76905C130.083 6.33552 131.284 6.13211 132.489 6.17091H148.151L151.312 1.27091H132.124C130.27 1.22288 128.424 1.54598 126.697 2.22115C124.97 2.89632 123.395 3.90989 122.067 5.2021C120.738 6.4943 119.682 8.03897 118.961 9.74502C118.24 11.4511 117.869 13.2839 117.869 15.1356C117.869 16.9872 118.24 18.8201 118.961 20.5261C119.682 22.2322 120.738 23.7768 122.067 25.0691C123.395 26.3613 124.97 27.3748 126.697 28.05C128.424 28.7252 130.27 29.0483 132.124 29.0002M197.457 24.1189C195.498 24.1197 193.592 23.4819 192.029 22.3027C190.466 21.1235 189.332 19.4672 188.798 17.5856H211.633L214.775 12.6949H188.798C189.331 10.8125 190.465 9.15536 192.028 7.97589C193.591 6.79642 195.498 6.15929 197.457 6.16157H213.129L216.261 1.26157H197.092C193.471 1.35537 190.029 2.85727 187.501 5.44717C184.973 8.03707 183.558 11.5102 183.558 15.1262C183.558 18.7423 184.973 22.2154 187.501 24.8053C190.029 27.3952 193.471 28.8971 197.092 28.9909H213.578L216.71 24.1096H197.448" fill="#C74634"/>
</svg>
