<svg width="1283" height="494" viewBox="0 0 1283 494" fill="none" xmlns="http://www.w3.org/2000/svg">
<rect y="4" width="830" height="67" rx="8" fill="#0A0A0A" fill-opacity="0.8"/>
<rect x="0.5" y="83.5" width="380" height="66" rx="7.5" stroke="#E9E9E9"/>
<rect x="900.5" y="83.5" width="380" height="66" rx="7.5" stroke="#E9E9E9"/>
<rect x="0.5" y="162.5" width="380" height="66" rx="7.5" stroke="#E9E9E9"/>
<rect x="448.5" y="83.5" width="380" height="66" rx="7.5" stroke="#E9E9E9"/>
<rect x="448.5" y="162.5" width="380" height="66" rx="7.5" stroke="#E9E9E9"/>
<rect x="899.5" y="162.5" width="380" height="66" rx="7.5" stroke="#E9E9E9"/>
<rect x="899" y="4" width="381" height="67" rx="8" fill="#0A0A0A" fill-opacity="0.8"/>
<path d="M387.723 35.9H391.823V38.1H394.463V27.3H391.823V29.7H387.763C386.883 28.82 385.663 28.28 384.143 28.28C381.423 28.28 379.303 30.18 379.303 32.8C379.303 35.4 381.423 37.3 384.143 37.3C385.583 37.3 386.843 36.78 387.723 35.9ZM381.803 32.8C381.803 31.36 382.783 30.52 384.143 30.52C385.503 30.52 386.503 31.36 386.503 32.8C386.503 34.24 385.503 35.08 384.143 35.08C382.783 35.08 381.803 34.24 381.803 32.8ZM388.903 31.8H391.823V33.8H388.883C388.963 33.46 389.003 33.12 389.003 32.8C389.003 32.42 388.963 32.12 388.903 31.8ZM388.223 38.46C384.343 38.46 381.923 39.8 381.923 42.1C381.923 44.38 384.343 45.74 388.223 45.74C392.123 45.74 394.543 44.38 394.543 42.1C394.543 39.8 392.123 38.46 388.223 38.46ZM388.223 43.7C385.803 43.7 384.523 43.22 384.523 42.1C384.523 40.98 385.803 40.5 388.223 40.5C390.643 40.5 391.943 40.98 391.943 42.1C391.943 43.22 390.643 43.7 388.223 43.7ZM412.862 27.3H410.222V31.36H407.282C406.742 29.38 404.902 28.06 402.542 28.06C399.782 28.06 397.702 29.9 397.702 32.46C397.702 35.02 399.782 36.86 402.542 36.86C404.902 36.86 406.822 35.48 407.302 33.5H410.222V37.2H412.862V27.3ZM402.542 34.66C401.182 34.66 400.222 33.84 400.222 32.46C400.222 31.08 401.182 30.26 402.542 30.26C403.902 30.26 404.882 31.08 404.882 32.46C404.882 33.84 403.902 34.66 402.542 34.66ZM410.242 38V39.76H403.282V38H400.662V45.5H412.862V38H410.242ZM410.242 41.76V43.42H403.282V41.76H410.242ZM432.52 37.02H425.48V35.48H430.4V27.96H427.78V29.76H420.6V27.96H417.98V35.48H422.84V37.02H415.86V39.12H432.52V37.02ZM420.6 33.4V31.8H427.78V33.4H420.6ZM420.52 43.3V40.2H417.88V45.4H430.66V43.3H420.52ZM448.958 36.16V28H446.358V30.1H438.778V28H436.158V36.16H448.958ZM446.358 32.16V34.06H438.778V32.16H446.358ZM450.938 40V37.9H434.258V40H441.218V45.74H443.858V40H450.938Z" fill="white"/>
<path d="M164.961 113.28H168.641V115.328H169.969V106.832H168.641V108.896H164.961C164.305 108.144 163.281 107.696 162.065 107.696C159.937 107.696 158.369 109.088 158.369 111.088C158.369 113.104 159.937 114.512 162.065 114.512C163.281 114.512 164.305 114.048 164.961 113.28ZM159.617 111.088C159.617 109.744 160.657 108.8 162.065 108.8C163.473 108.8 164.497 109.744 164.497 111.088C164.497 112.432 163.473 113.392 162.065 113.392C160.657 113.392 159.617 112.432 159.617 111.088ZM165.569 109.968H168.641V112.208H165.553C165.681 111.856 165.745 111.488 165.745 111.088C165.745 110.72 165.681 110.352 165.569 109.968ZM165.217 115.664C162.273 115.664 160.449 116.672 160.449 118.416C160.449 120.16 162.273 121.168 165.217 121.168C168.161 121.168 170.017 120.16 170.017 118.416C170.017 116.672 168.161 115.664 165.217 115.664ZM165.217 120.128C163.025 120.128 161.745 119.504 161.745 118.416C161.745 117.328 163.025 116.688 165.217 116.688C167.409 116.688 168.721 117.328 168.721 118.416C168.721 119.504 167.409 120.128 165.217 120.128ZM184.688 106.848H183.36V110.256H180.432C180.176 108.608 178.704 107.504 176.784 107.504C174.656 107.504 173.088 108.848 173.088 110.816C173.088 112.8 174.656 114.144 176.784 114.144C178.768 114.144 180.192 113.04 180.448 111.328H183.36V114.544H184.688V106.848ZM176.784 113.056C175.36 113.056 174.336 112.128 174.336 110.816C174.336 109.488 175.36 108.592 176.784 108.592C178.208 108.592 179.232 109.488 179.232 110.816C179.232 112.128 178.208 113.056 176.784 113.056ZM183.376 115.248V117.056H176.8V115.248H175.504V120.992H184.688V115.248H183.376ZM183.376 118.08V119.936H176.8V118.08H183.376ZM195.15 118.816H192.846V108.208H191.678L188.526 110.928L189.31 111.872L191.438 109.968C191.422 110.08 191.422 110.224 191.422 110.368V118.816H188.814V120H195.15V118.816ZM210.09 114.672H204.266V113.136H208.394V107.408H207.098V109.216H200.122V107.408H198.826V113.136H202.954V114.672H197.098V115.744H210.09V114.672ZM200.122 112.08V110.24H207.098V112.08H200.122ZM200.09 119.792V116.896H198.778V120.864H208.65V119.792H200.09ZM223.192 113.616V107.408H221.88V109.376H214.76V107.408H213.464V113.616H223.192ZM221.88 110.432V112.544H214.76V110.432H221.88ZM224.84 116.4V115.344H211.816V116.4H217.64V121.2H218.952V116.4H224.84Z" fill="#0A0A0A"/>
<path d="M1077.09 113.28H1080.77V115.328H1082.09V106.832H1080.77V108.896H1077.09C1076.43 108.144 1075.41 107.696 1074.19 107.696C1072.06 107.696 1070.49 109.088 1070.49 111.088C1070.49 113.104 1072.06 114.512 1074.19 114.512C1075.41 114.512 1076.43 114.048 1077.09 113.28ZM1071.74 111.088C1071.74 109.744 1072.78 108.8 1074.19 108.8C1075.6 108.8 1076.62 109.744 1076.62 111.088C1076.62 112.432 1075.6 113.392 1074.19 113.392C1072.78 113.392 1071.74 112.432 1071.74 111.088ZM1077.69 109.968H1080.77V112.208H1077.68C1077.81 111.856 1077.87 111.488 1077.87 111.088C1077.87 110.72 1077.81 110.352 1077.69 109.968ZM1077.34 115.664C1074.4 115.664 1072.57 116.672 1072.57 118.416C1072.57 120.16 1074.4 121.168 1077.34 121.168C1080.29 121.168 1082.14 120.16 1082.14 118.416C1082.14 116.672 1080.29 115.664 1077.34 115.664ZM1077.34 120.128C1075.15 120.128 1073.87 119.504 1073.87 118.416C1073.87 117.328 1075.15 116.688 1077.34 116.688C1079.53 116.688 1080.85 117.328 1080.85 118.416C1080.85 119.504 1079.53 120.128 1077.34 120.128ZM1096.81 106.848H1095.48V110.256H1092.56C1092.3 108.608 1090.83 107.504 1088.91 107.504C1086.78 107.504 1085.21 108.848 1085.21 110.816C1085.21 112.8 1086.78 114.144 1088.91 114.144C1090.89 114.144 1092.32 113.04 1092.57 111.328H1095.48V114.544H1096.81V106.848ZM1088.91 113.056C1087.48 113.056 1086.46 112.128 1086.46 110.816C1086.46 109.488 1087.48 108.592 1088.91 108.592C1090.33 108.592 1091.36 109.488 1091.36 110.816C1091.36 112.128 1090.33 113.056 1088.91 113.056ZM1095.5 115.248V117.056H1088.92V115.248H1087.63V120.992H1096.81V115.248H1095.5ZM1095.5 118.08V119.936H1088.92V118.08H1095.5ZM1111.48 106.848H1110.17V115.408H1111.48V106.848ZM1108.67 114.112L1108.52 113.072C1106.51 113.408 1104.83 113.472 1101.84 113.472V111.584H1106.97V110.544H1101.84V108.768H1107.37V107.712H1100.52V114.528H1101.69C1104.81 114.528 1106.57 114.448 1108.67 114.112ZM1102.2 116.112V120.992H1111.48V116.112H1102.2ZM1103.48 119.936V117.168H1110.2V119.936H1103.48Z" fill="#0A0A0A"/>
<path d="M164.961 192.28H168.641V194.328H169.969V185.832H168.641V187.896H164.961C164.305 187.144 163.281 186.696 162.065 186.696C159.937 186.696 158.369 188.088 158.369 190.088C158.369 192.104 159.937 193.512 162.065 193.512C163.281 193.512 164.305 193.048 164.961 192.28ZM159.617 190.088C159.617 188.744 160.657 187.8 162.065 187.8C163.473 187.8 164.497 188.744 164.497 190.088C164.497 191.432 163.473 192.392 162.065 192.392C160.657 192.392 159.617 191.432 159.617 190.088ZM165.569 188.968H168.641V191.208H165.553C165.681 190.856 165.745 190.488 165.745 190.088C165.745 189.72 165.681 189.352 165.569 188.968ZM165.217 194.664C162.273 194.664 160.449 195.672 160.449 197.416C160.449 199.16 162.273 200.168 165.217 200.168C168.161 200.168 170.017 199.16 170.017 197.416C170.017 195.672 168.161 194.664 165.217 194.664ZM165.217 199.128C163.025 199.128 161.745 198.504 161.745 197.416C161.745 196.328 163.025 195.688 165.217 195.688C167.409 195.688 168.721 196.328 168.721 197.416C168.721 198.504 167.409 199.128 165.217 199.128ZM184.688 185.848H183.36V189.256H180.432C180.176 187.608 178.704 186.504 176.784 186.504C174.656 186.504 173.088 187.848 173.088 189.816C173.088 191.8 174.656 193.144 176.784 193.144C178.768 193.144 180.192 192.04 180.448 190.328H183.36V193.544H184.688V185.848ZM176.784 192.056C175.36 192.056 174.336 191.128 174.336 189.816C174.336 188.488 175.36 187.592 176.784 187.592C178.208 187.592 179.232 188.488 179.232 189.816C179.232 191.128 178.208 192.056 176.784 192.056ZM183.376 194.248V196.056H176.8V194.248H175.504V199.992H184.688V194.248H183.376ZM183.376 197.08V198.936H176.8V197.08H183.376ZM195.454 197.704H190.83C190.43 197.704 189.95 197.768 189.502 197.896L192.782 194.648C194.11 193.32 195.23 192.104 195.23 190.36C195.23 188.28 193.678 187.064 191.678 187.064C189.678 187.064 188.126 188.232 187.822 190.392L189.262 190.632C189.262 189.288 190.254 188.328 191.598 188.328C192.814 188.328 193.71 188.984 193.758 190.392C193.758 191.768 192.862 192.776 191.63 194.088L187.582 197.976V199H195.454V197.704ZM210.09 193.672H204.266V192.136H208.394V186.408H207.098V188.216H200.122V186.408H198.826V192.136H202.954V193.672H197.098V194.744H210.09V193.672ZM200.122 191.08V189.24H207.098V191.08H200.122ZM200.09 198.792V195.896H198.778V199.864H208.65V198.792H200.09ZM223.192 192.616V186.408H221.88V188.376H214.76V186.408H213.464V192.616H223.192ZM221.88 189.432V191.544H214.76V189.432H221.88ZM224.84 195.4V194.344H211.816V195.4H217.64V200.2H218.952V195.4H224.84Z" fill="#0A0A0A"/>
<path d="M612.961 113.28H616.641V115.328H617.969V106.832H616.641V108.896H612.961C612.305 108.144 611.281 107.696 610.065 107.696C607.937 107.696 606.369 109.088 606.369 111.088C606.369 113.104 607.937 114.512 610.065 114.512C611.281 114.512 612.305 114.048 612.961 113.28ZM607.617 111.088C607.617 109.744 608.657 108.8 610.065 108.8C611.473 108.8 612.497 109.744 612.497 111.088C612.497 112.432 611.473 113.392 610.065 113.392C608.657 113.392 607.617 112.432 607.617 111.088ZM613.569 109.968H616.641V112.208H613.553C613.681 111.856 613.745 111.488 613.745 111.088C613.745 110.72 613.681 110.352 613.569 109.968ZM613.217 115.664C610.273 115.664 608.449 116.672 608.449 118.416C608.449 120.16 610.273 121.168 613.217 121.168C616.161 121.168 618.017 120.16 618.017 118.416C618.017 116.672 616.161 115.664 613.217 115.664ZM613.217 120.128C611.025 120.128 609.745 119.504 609.745 118.416C609.745 117.328 611.025 116.688 613.217 116.688C615.409 116.688 616.721 117.328 616.721 118.416C616.721 119.504 615.409 120.128 613.217 120.128ZM632.688 106.848H631.36V110.256H628.432C628.176 108.608 626.704 107.504 624.784 107.504C622.656 107.504 621.088 108.848 621.088 110.816C621.088 112.8 622.656 114.144 624.784 114.144C626.768 114.144 628.192 113.04 628.448 111.328H631.36V114.544H632.688V106.848ZM624.784 113.056C623.36 113.056 622.336 112.128 622.336 110.816C622.336 109.488 623.36 108.592 624.784 108.592C626.208 108.592 627.232 109.488 627.232 110.816C627.232 112.128 626.208 113.056 624.784 113.056ZM631.376 115.248V117.056H624.8V115.248H623.504V120.992H632.688V115.248H631.376ZM631.376 118.08V119.936H624.8V118.08H631.376ZM635.87 111.424L637.326 111.664C637.326 110.352 638.302 109.36 639.646 109.36C640.878 109.36 641.742 110.016 641.742 111.36C641.742 112.576 641.006 113.424 638.942 113.472V114.528C641.454 114.528 641.982 115.456 641.982 116.72C641.982 117.76 641.166 118.944 639.486 118.944C638.27 118.944 637.55 118.32 637.054 117.296C636.926 116.992 636.846 116.752 636.814 116.576L635.502 117.12C636.062 118.848 636.974 120.208 639.502 120.208C641.694 120.208 643.47 118.832 643.47 116.688C643.47 115.216 642.67 114.24 641.134 113.856C642.414 113.424 643.198 112.656 643.198 111.12C643.198 109.328 641.758 108.08 639.726 108.08C637.726 108.08 636.174 109.296 635.87 111.424ZM658.09 114.672H652.266V113.136H656.394V107.408H655.098V109.216H648.122V107.408H646.826V113.136H650.954V114.672H645.098V115.744H658.09V114.672ZM648.122 112.08V110.24H655.098V112.08H648.122ZM648.09 119.792V116.896H646.778V120.864H656.65V119.792H648.09ZM671.192 113.616V107.408H669.88V109.376H662.76V107.408H661.464V113.616H671.192ZM669.88 110.432V112.544H662.76V110.432H669.88ZM672.84 116.4V115.344H659.816V116.4H665.64V121.2H666.952V116.4H672.84Z" fill="#0A0A0A"/>
<path d="M600.616 187.272V199H602.024V192.84C602.024 191.608 601.912 190.392 601.848 189.176H601.912L603.176 191.592L607.448 199H608.968V187.272H607.56V193.368C607.56 194.584 607.672 195.864 607.752 197.08H607.672L606.424 194.664L602.152 187.272H600.616ZM615.427 199.208C617.875 199.208 619.411 197.736 619.411 195.88C619.411 194.136 618.355 193.336 616.995 192.744L615.315 192.024C614.403 191.64 613.379 191.224 613.379 190.072C613.379 188.984 614.227 188.344 615.571 188.344C616.659 188.344 617.523 188.76 618.243 189.448L619.027 188.504C618.195 187.608 616.979 187.048 615.571 187.048C613.443 187.048 611.875 188.36 611.875 190.168C611.875 191.896 613.187 192.712 614.259 193.176L615.955 193.912C617.059 194.424 617.907 194.792 617.907 195.992C617.907 197.144 616.979 197.912 615.443 197.912C614.227 197.912 613.043 197.352 612.195 196.456L611.315 197.464C612.339 198.552 613.763 199.208 615.427 199.208ZM634.365 192.744V191.656H631.997V185.848H630.685V200.184H631.997V192.744H634.365ZM625.773 189.656V187.08H624.477V189.656C624.477 192.264 622.845 195 620.781 196.072L621.565 197.128C623.181 196.232 624.509 194.504 625.133 192.376C625.773 194.36 627.069 196.024 628.605 196.84L629.421 195.8C627.421 194.776 625.773 192.168 625.773 189.656ZM647.5 185.848H646.172V189.256H643.244C642.988 187.608 641.516 186.504 639.596 186.504C637.468 186.504 635.9 187.848 635.9 189.816C635.9 191.8 637.468 193.144 639.596 193.144C641.58 193.144 643.004 192.04 643.26 190.328H646.172V193.544H647.5V185.848ZM639.596 192.056C638.172 192.056 637.148 191.128 637.148 189.816C637.148 188.488 638.172 187.592 639.596 187.592C641.02 187.592 642.044 188.488 642.044 189.816C642.044 191.128 641.02 192.056 639.596 192.056ZM646.188 194.248V196.056H639.612V194.248H638.316V199.992H647.5V194.248H646.188ZM646.188 197.08V198.936H639.612V197.08H646.188ZM663.371 193.672H657.547V192.136H661.675V186.408H660.379V188.216H653.403V186.408H652.107V192.136H656.235V193.672H650.379V194.744H663.371V193.672ZM653.403 191.08V189.24H660.379V191.08H653.403ZM653.371 198.792V195.896H652.059V199.864H661.931V198.792H653.371ZM676.474 192.616V186.408H675.162V188.376H668.042V186.408H666.746V192.616H676.474ZM675.162 189.432V191.544H668.042V189.432H675.162ZM678.122 195.4V194.344H665.098V195.4H670.922V200.2H672.234V195.4H678.122Z" fill="#0A0A0A"/>
<path d="M1081.05 185.832H1079.73V200.184H1081.05V185.832ZM1076.84 187.384H1070.12V188.44H1075.51C1075.24 191.848 1073.32 194.6 1069.46 196.44L1070.17 197.512C1074.95 195.16 1076.84 191.528 1076.84 187.384ZM1095.81 190.872L1096.26 189.88C1093.65 189.576 1091.16 188.184 1091.16 186.44V185.896H1089.81V186.44C1089.81 188.184 1087.3 189.576 1084.68 189.88L1085.12 190.872C1087.43 190.568 1089.57 189.576 1090.47 188.04C1091.36 189.576 1093.56 190.568 1095.81 190.872ZM1091.12 192.872H1096.96V191.816H1083.97V192.872H1089.81V194.296H1085.54V195.304H1094V196.616H1085.59V200.024H1095.73V199H1086.87V197.576H1095.3V194.296H1091.12V192.872ZM1110.48 185.848H1109.17V194.408H1110.48V185.848ZM1107.67 193.112L1107.52 192.072C1105.51 192.408 1103.83 192.472 1100.84 192.472V190.584H1105.97V189.544H1100.84V187.768H1106.37V186.712H1099.52V193.528H1100.69C1103.81 193.528 1105.57 193.448 1107.67 193.112ZM1101.2 195.112V199.992H1110.48V195.112H1101.2ZM1102.48 198.936V196.168H1109.2V198.936H1102.48Z" fill="#0A0A0A"/>
<rect y="269" width="304.016" height="67" rx="8" fill="#0A0A0A" fill-opacity="0.8"/>
<rect x="0.5" y="348.5" width="303.016" height="66" rx="7.5" stroke="#E9E9E9"/>
<rect x="0.5" y="427.5" width="303.016" height="66" rx="7.5" stroke="#E9E9E9"/>
<path d="M41.9533 303.18L43.0733 300.98C38.9133 300.28 36.6333 297.36 36.6333 294.7V293.38H33.8133V294.7C33.8133 297.32 31.5333 300.28 27.3733 300.98L28.4933 303.18C31.7133 302.56 34.0133 300.76 35.2133 298.42C36.4133 300.76 38.7333 302.54 41.9533 303.18ZM43.6533 306.34H26.9733V308.48H43.6533V306.34ZM62.0517 306.56H55.0317V303.5H60.2717V301.42H50.0117V299.5H59.7117V297.46H50.0117V295.66H60.1317V293.56H47.3317V303.5H52.3917V306.56H45.3717V308.7H62.0517V306.56ZM79.0902 292.28H76.4502V310.76H79.0902V292.28ZM67.4502 304.3V300.98H73.4302V293.86H64.7302V295.96H70.7302V298.9H64.7502V306.48H66.4102C69.7702 306.48 72.4102 306.38 75.4502 305.84L75.1702 303.7C72.5902 304.12 70.2502 304.3 67.4502 304.3ZM97.4286 292.3H94.7886V310.72H97.4286V292.3ZM89.2886 297.26V296.24H93.0886V294.06H82.7686V296.24H86.6086V297.26C86.6086 300.4 85.1286 303.78 82.0286 305.16L83.5286 307.26C85.6886 306.28 87.1686 304.28 87.9886 301.86C88.8086 304.12 90.2486 305.86 92.4086 306.8L93.8486 304.72C90.7686 303.44 89.2886 300.26 89.2886 297.26ZM115.447 298.92L116.327 296.92C112.087 296.5 110.207 294.76 110.207 292.84V292.46H107.507V292.84C107.507 294.76 105.627 296.5 101.387 296.92L102.267 298.92C105.407 298.54 107.667 297.46 108.867 295.78C110.087 297.5 112.267 298.54 115.447 298.92ZM117.207 299.82H110.187V297.86H107.547V299.82H100.567V301.88H117.207V299.82ZM105.107 308.6V307.58H115.187V302.82H102.467V304.76H112.587V305.74H102.487V310.58H115.667V308.6H105.107ZM131.045 294.96V296.4H120.905V301.98H134.165V299.9H123.605V298.38H133.725V292.88H120.885V294.96H131.045ZM135.645 305.44V303.32H118.965V305.44H125.945V310.76H128.585V305.44H135.645ZM150.124 300.36V305.94H152.764V292.3H150.124V294.7H147.064V296.8H150.124V298.24H147.064V300.36H150.124ZM146.904 303.66L148.364 301.62C145.424 300.5 144.244 298.04 144.244 295.48V293.34H141.564V295.48C141.564 298.12 140.304 300.76 137.264 301.82L138.644 303.88C140.744 303.1 142.144 301.64 142.924 299.72C143.704 301.48 144.984 302.88 146.904 303.66ZM153.164 308.3H143.244V304.7H140.604V310.4H153.164V308.3ZM175.574 302.76V292.32H172.934V302.76H175.574ZM170.154 301.2V293.4H161.214V301.2H170.154ZM167.574 295.48V299.14H163.814V295.48H167.574ZM170.794 305.7H175.874V303.74H170.734V302.24H168.054V303.74H162.894V305.7H167.994C167.734 306.98 165.874 308.38 162.194 308.7L163.014 310.66C166.154 310.4 168.274 309.34 169.394 307.9C170.514 309.34 172.654 310.4 175.714 310.66L176.554 308.7C172.934 308.38 171.054 306.92 170.794 305.7ZM198.683 292.28H196.043V298.06H192.503V300.18H196.043V310.76H198.683V292.28ZM190.143 296.38V293.72H187.483V296.38C187.483 299.88 186.103 303.46 182.963 304.9L184.603 307.02C186.683 305.98 188.043 304.12 188.843 301.7C189.623 303.96 190.943 305.72 192.963 306.7L194.523 304.6C191.483 303.26 190.143 299.84 190.143 296.38ZM216.882 292.28H214.242V310.76H216.882V292.28ZM205.142 293.76H202.522V306.46H211.602V293.76H208.982V298.22H205.142V293.76ZM205.142 304.36V300.28H208.982V304.36H205.142ZM235 303.18L236.12 300.98C231.96 300.28 229.68 297.36 229.68 294.7V293.38H226.86V294.7C226.86 297.32 224.58 300.28 220.42 300.98L221.54 303.18C224.76 302.56 227.06 300.76 228.26 298.42C229.46 300.76 231.78 302.54 235 303.18ZM236.7 306.34H220.02V308.48H236.7V306.34ZM259.61 302.02H252.57V300.48H257.49V292.96H254.87V294.76H247.69V292.96H245.07V300.48H249.93V302.02H242.95V304.12H259.61V302.02ZM247.69 298.4V296.8H254.87V298.4H247.69ZM247.61 308.3V305.2H244.97V310.4H257.75V308.3H247.61ZM276.048 301.16V293H273.448V295.1H265.868V293H263.248V301.16H276.048ZM273.448 297.16V299.06H265.868V297.16H273.448ZM278.028 305V302.9H261.348V305H268.308V310.74H270.948V305H278.028Z" fill="white"/>
<path d="M138.586 381.28H142.266V383.328H143.594V374.832H142.266V376.896H138.586C137.93 376.144 136.906 375.696 135.69 375.696C133.562 375.696 131.994 377.088 131.994 379.088C131.994 381.104 133.562 382.512 135.69 382.512C136.906 382.512 137.93 382.048 138.586 381.28ZM133.242 379.088C133.242 377.744 134.282 376.8 135.69 376.8C137.098 376.8 138.122 377.744 138.122 379.088C138.122 380.432 137.098 381.392 135.69 381.392C134.282 381.392 133.242 380.432 133.242 379.088ZM139.194 377.968H142.266V380.208H139.178C139.306 379.856 139.37 379.488 139.37 379.088C139.37 378.72 139.306 378.352 139.194 377.968ZM138.842 383.664C135.898 383.664 134.074 384.672 134.074 386.416C134.074 388.16 135.898 389.168 138.842 389.168C141.786 389.168 143.642 388.16 143.642 386.416C143.642 384.672 141.786 383.664 138.842 383.664ZM138.842 388.128C136.65 388.128 135.37 387.504 135.37 386.416C135.37 385.328 136.65 384.688 138.842 384.688C141.034 384.688 142.346 385.328 142.346 386.416C142.346 387.504 141.034 388.128 138.842 388.128ZM158.313 374.848H156.985V378.256H154.057C153.801 376.608 152.329 375.504 150.409 375.504C148.281 375.504 146.713 376.848 146.713 378.816C146.713 380.8 148.281 382.144 150.409 382.144C152.393 382.144 153.817 381.04 154.073 379.328H156.985V382.544H158.313V374.848ZM150.409 381.056C148.985 381.056 147.961 380.128 147.961 378.816C147.961 377.488 148.985 376.592 150.409 376.592C151.833 376.592 152.857 377.488 152.857 378.816C152.857 380.128 151.833 381.056 150.409 381.056ZM157.001 383.248V385.056H150.425V383.248H149.129V388.992H158.313V383.248H157.001ZM157.001 386.08V387.936H150.425V386.08H157.001ZM172.983 374.848H171.671V383.408H172.983V374.848ZM170.167 382.112L170.023 381.072C168.007 381.408 166.327 381.472 163.335 381.472V379.584H168.471V378.544H163.335V376.768H168.871V375.712H162.023V382.528H163.191C166.311 382.528 168.071 382.448 170.167 382.112ZM163.703 384.112V388.992H172.983V384.112H163.703ZM164.983 387.936V385.168H171.703V387.936H164.983Z" fill="#0A0A0A"/>
<path d="M143.546 453.832H142.234V468.184H143.546V453.832ZM139.338 455.384H132.618V456.44H138.01C137.738 459.848 135.818 462.6 131.962 464.44L132.666 465.512C137.45 463.16 139.338 459.528 139.338 455.384ZM158.313 458.872L158.761 457.88C156.153 457.576 153.657 456.184 153.657 454.44V453.896H152.313V454.44C152.313 456.184 149.801 457.576 147.177 457.88L147.625 458.872C149.929 458.568 152.073 457.576 152.969 456.04C153.865 457.576 156.057 458.568 158.313 458.872ZM153.625 460.872H159.465V459.816H146.473V460.872H152.313V462.296H148.041V463.304H156.505V464.616H148.089V468.024H158.233V467H149.369V465.576H157.801V462.296H153.625V460.872ZM172.983 453.848H171.671V462.408H172.983V453.848ZM170.167 461.112L170.023 460.072C168.007 460.408 166.327 460.472 163.335 460.472V458.584H168.471V457.544H163.335V455.768H168.871V454.712H162.023V461.528H163.191C166.311 461.528 168.071 461.448 170.167 461.112ZM163.703 463.112V467.992H172.983V463.112H163.703ZM164.983 466.936V464.168H171.703V466.936H164.983Z" fill="#0A0A0A"/>
<rect x="326" y="269" width="304.016" height="67" rx="8" fill="#0A0A0A" fill-opacity="0.8"/>
<rect x="326.5" y="348.5" width="303.016" height="66" rx="7.5" stroke="#E9E9E9"/>
<rect x="326.5" y="427.5" width="303.016" height="66" rx="7.5" stroke="#E9E9E9"/>
<path d="M439.505 292.28H436.845V310.7H439.505V292.28ZM434.025 294.2H425.185V296.3H431.325C430.945 300.38 428.905 303.28 424.205 305.52L425.585 307.6C432.125 304.46 434.025 299.82 434.025 294.2ZM457.503 298.76L458.383 296.78C454.243 296.4 452.243 294.5 452.243 292.74V292.4H449.523V292.74C449.523 294.5 447.523 296.4 443.383 296.78L444.243 298.76C447.463 298.42 449.683 297.22 450.883 295.54C452.083 297.22 454.283 298.42 457.503 298.76ZM452.183 301.6H459.203V299.52H442.563V301.6H449.543V302.78H444.463V304.74H454.583V305.74H444.483V310.58H457.663V308.6H447.103V307.56H457.183V302.78H452.183V301.6ZM476.222 292.3H473.582V310.72H476.222V292.3ZM468.082 297.26V296.24H471.882V294.06H461.562V296.24H465.402V297.26C465.402 300.4 463.922 303.78 460.822 305.16L462.322 307.26C464.482 306.28 465.962 304.28 466.782 301.86C467.602 304.12 469.042 305.86 471.202 306.8L472.642 304.72C469.562 303.44 468.082 300.26 468.082 297.26ZM492.22 303H488.76V304.8H492.22V306.26H494.86V292.3H492.22V303ZM485.22 299.5C487.88 299.5 489.8 298.18 489.8 296.22C489.8 294.24 487.88 292.92 485.22 292.92C482.52 292.92 480.62 294.24 480.62 296.22C480.62 298.18 482.52 299.5 485.22 299.5ZM485.22 294.84C486.44 294.84 487.3 295.32 487.3 296.22C487.3 297.12 486.44 297.58 485.22 297.58C483.94 297.58 483.12 297.12 483.12 296.22C483.12 295.32 483.94 294.84 485.22 294.84ZM495.26 308.3H484.24V305.78H486.78V302.3C488.3 302.2 489.74 302.04 491.18 301.78L491 299.9C487.12 300.38 482.64 300.46 479.28 300.46L479.62 302.56C481 302.56 482.54 302.54 484.16 302.46V304.92H481.6V310.4H495.26V308.3ZM514.418 302.02H507.378V300.48H512.298V292.96H509.678V294.76H502.498V292.96H499.878V300.48H504.738V302.02H497.758V304.12H514.418V302.02ZM502.498 298.4V296.8H509.678V298.4H502.498ZM502.418 308.3V305.2H499.778V310.4H512.558V308.3H502.418ZM530.857 301.16V293H528.257V295.1H520.677V293H518.057V301.16H530.857ZM528.257 297.16V299.06H520.677V297.16H528.257ZM532.837 305V302.9H516.157V305H523.117V310.74H525.757V305H532.837Z" fill="white"/>
<path d="M464.78 374.832H463.468V389.184H464.78V374.832ZM460.572 376.384H453.852V377.44H459.244C458.972 380.848 457.052 383.6 453.196 385.44L453.9 386.512C458.684 384.16 460.572 380.528 460.572 376.384ZM479.547 379.872L479.995 378.88C477.387 378.576 474.891 377.184 474.891 375.44V374.896H473.547V375.44C473.547 377.184 471.035 378.576 468.411 378.88L468.859 379.872C471.163 379.568 473.307 378.576 474.203 377.04C475.099 378.576 477.291 379.568 479.547 379.872ZM474.859 381.872H480.699V380.816H467.707V381.872H473.547V383.296H469.275V384.304H477.739V385.616H469.323V389.024H479.467V388H470.603V386.576H479.035V383.296H474.859V381.872ZM490.01 386.816H487.706V376.208H486.538L483.386 378.928L484.17 379.872L486.298 377.968C486.282 378.08 486.282 378.224 486.282 378.368V386.816H483.674V388H490.01V386.816ZM503.749 374.848H502.437V383.408H503.749V374.848ZM500.933 382.112L500.789 381.072C498.773 381.408 497.093 381.472 494.101 381.472V379.584H499.237V378.544H494.101V376.768H499.637V375.712H492.789V382.528H493.957C497.077 382.528 498.837 382.448 500.933 382.112ZM494.469 384.112V388.992H503.749V384.112H494.469ZM495.749 387.936V385.168H502.469V387.936H495.749Z" fill="#0A0A0A"/>
<path d="M464.78 453.832H463.468V468.184H464.78V453.832ZM460.572 455.384H453.852V456.44H459.244C458.972 459.848 457.052 462.6 453.196 464.44L453.9 465.512C458.684 463.16 460.572 459.528 460.572 455.384ZM479.547 458.872L479.995 457.88C477.387 457.576 474.891 456.184 474.891 454.44V453.896H473.547V454.44C473.547 456.184 471.035 457.576 468.411 457.88L468.859 458.872C471.163 458.568 473.307 457.576 474.203 456.04C475.099 457.576 477.291 458.568 479.547 458.872ZM474.859 460.872H480.699V459.816H467.707V460.872H473.547V462.296H469.275V463.304H477.739V464.616H469.323V468.024H479.467V467H470.603V465.576H479.035V462.296H474.859V460.872ZM490.314 465.704H485.69C485.29 465.704 484.81 465.768 484.362 465.896L487.642 462.648C488.97 461.32 490.09 460.104 490.09 458.36C490.09 456.28 488.538 455.064 486.538 455.064C484.538 455.064 482.986 456.232 482.682 458.392L484.122 458.632C484.122 457.288 485.114 456.328 486.458 456.328C487.674 456.328 488.57 456.984 488.618 458.392C488.618 459.768 487.722 460.776 486.49 462.088L482.442 465.976V467H490.314V465.704ZM503.749 453.848H502.437V462.408H503.749V453.848ZM500.933 461.112L500.789 460.072C498.773 460.408 497.093 460.472 494.101 460.472V458.584H499.237V457.544H494.101V455.768H499.637V454.712H492.789V461.528H493.957C497.077 461.528 498.837 461.448 500.933 461.112ZM494.469 463.112V467.992H503.749V463.112H494.469ZM495.749 466.936V464.168H502.469V466.936H495.749Z" fill="#0A0A0A"/>
<rect x="652" y="269" width="304.016" height="67" rx="8" fill="#0A0A0A" fill-opacity="0.8"/>
<rect x="652.5" y="348.5" width="303.016" height="66" rx="7.5" stroke="#E9E9E9"/>
<rect x="652.5" y="427.5" width="303.016" height="66" rx="7.5" stroke="#E9E9E9"/>
<path d="M767.265 301.58V299.38H764.585V292.3H761.945V310.72H764.585V301.58H767.265ZM756.945 296.4V293.72H754.285V296.4C754.285 299.82 752.885 303.36 749.785 304.8L751.365 306.94C753.445 305.92 754.825 303.98 755.625 301.64C756.405 303.9 757.685 305.62 759.605 306.6L761.205 304.52C758.245 303.08 756.945 299.72 756.945 296.4ZM783.963 292.3H781.323V296.36H778.383C777.843 294.38 776.003 293.06 773.643 293.06C770.883 293.06 768.803 294.9 768.803 297.46C768.803 300.02 770.883 301.86 773.643 301.86C776.003 301.86 777.923 300.48 778.403 298.5H781.323V302.2H783.963V292.3ZM773.643 299.66C772.283 299.66 771.323 298.84 771.323 297.46C771.323 296.08 772.283 295.26 773.643 295.26C775.003 295.26 775.983 296.08 775.983 297.46C775.983 298.84 775.003 299.66 773.643 299.66ZM781.343 303V304.76H774.383V303H771.763V310.5H783.963V303H781.343ZM781.343 306.76V308.42H774.383V306.76H781.343ZM802.222 292.3H799.582V310.72H802.222V292.3ZM794.082 297.26V296.24H797.882V294.06H787.562V296.24H791.402V297.26C791.402 300.4 789.922 303.78 786.822 305.16L788.322 307.26C790.482 306.28 791.962 304.28 792.782 301.86C793.602 304.12 795.042 305.86 797.202 306.8L798.642 304.72C795.562 303.44 794.082 300.26 794.082 297.26ZM818.22 303H814.76V304.8H818.22V306.26H820.86V292.3H818.22V303ZM811.22 299.5C813.88 299.5 815.8 298.18 815.8 296.22C815.8 294.24 813.88 292.92 811.22 292.92C808.52 292.92 806.62 294.24 806.62 296.22C806.62 298.18 808.52 299.5 811.22 299.5ZM811.22 294.84C812.44 294.84 813.3 295.32 813.3 296.22C813.3 297.12 812.44 297.58 811.22 297.58C809.94 297.58 809.12 297.12 809.12 296.22C809.12 295.32 809.94 294.84 811.22 294.84ZM821.26 308.3H810.24V305.78H812.78V302.3C814.3 302.2 815.74 302.04 817.18 301.78L817 299.9C813.12 300.38 808.64 300.46 805.28 300.46L805.62 302.56C807 302.56 808.54 302.54 810.16 302.46V304.92H807.6V310.4H821.26V308.3ZM840.418 302.02H833.378V300.48H838.298V292.96H835.678V294.76H828.498V292.96H825.878V300.48H830.738V302.02H823.758V304.12H840.418V302.02ZM828.498 298.4V296.8H835.678V298.4H828.498ZM828.418 308.3V305.2H825.778V310.4H838.558V308.3H828.418ZM856.857 301.16V293H854.257V295.1H846.677V293H844.057V301.16H856.857ZM854.257 297.16V299.06H846.677V297.16H854.257ZM858.837 305V302.9H842.157V305H849.117V310.74H851.757V305H858.837Z" fill="white"/>
<path d="M790.748 374.848H789.436V389.184H790.748V374.848ZM784.124 379.216V377.392H787.5V376.304H779.484V377.392H782.812V379.216C782.812 381.696 781.068 384.384 779.004 385.376L779.772 386.432C781.372 385.632 782.828 383.776 783.468 381.696C784.156 383.664 785.564 385.312 787.228 386.08L787.964 385.024C785.852 384.128 784.124 381.648 784.124 379.216ZM804.155 383.312H801.243V384.288H804.155V385.76H805.467V374.832H804.155V383.312ZM798.315 380.416C800.411 380.416 801.851 379.44 801.851 377.904C801.851 376.4 800.411 375.408 798.315 375.408C796.219 375.408 794.779 376.4 794.779 377.904C794.779 379.44 796.219 380.416 798.315 380.416ZM798.315 376.384C799.675 376.384 800.603 376.992 800.603 377.904C800.603 378.864 799.675 379.44 798.315 379.44C796.955 379.44 796.027 378.864 796.027 377.904C796.027 376.992 796.955 376.384 798.315 376.384ZM797.803 382.48V385.248H799.115V382.416C800.411 382.336 801.723 382.192 803.003 382L802.891 381.056C799.851 381.44 796.299 381.472 793.643 381.472L793.819 382.56C795.035 382.56 796.379 382.544 797.803 382.48ZM805.835 387.792H797.003V384.688H795.691V388.864H805.835V387.792ZM816.01 386.816H813.706V376.208H812.538L809.386 378.928L810.17 379.872L812.298 377.968C812.282 378.08 812.282 378.224 812.282 378.368V386.816H809.674V388H816.01V386.816ZM829.749 374.848H828.437V383.408H829.749V374.848ZM826.933 382.112L826.789 381.072C824.773 381.408 823.093 381.472 820.101 381.472V379.584H825.237V378.544H820.101V376.768H825.637V375.712H818.789V382.528H819.957C823.077 382.528 824.837 382.448 826.933 382.112ZM820.469 384.112V388.992H829.749V384.112H820.469ZM821.749 387.936V385.168H828.469V387.936H821.749Z" fill="#0A0A0A"/>
<path d="M790.748 453.848H789.436V468.184H790.748V453.848ZM784.124 458.216V456.392H787.5V455.304H779.484V456.392H782.812V458.216C782.812 460.696 781.068 463.384 779.004 464.376L779.772 465.432C781.372 464.632 782.828 462.776 783.468 460.696C784.156 462.664 785.564 464.312 787.228 465.08L787.964 464.024C785.852 463.128 784.124 460.648 784.124 458.216ZM804.155 462.312H801.243V463.288H804.155V464.76H805.467V453.832H804.155V462.312ZM798.315 459.416C800.411 459.416 801.851 458.44 801.851 456.904C801.851 455.4 800.411 454.408 798.315 454.408C796.219 454.408 794.779 455.4 794.779 456.904C794.779 458.44 796.219 459.416 798.315 459.416ZM798.315 455.384C799.675 455.384 800.603 455.992 800.603 456.904C800.603 457.864 799.675 458.44 798.315 458.44C796.955 458.44 796.027 457.864 796.027 456.904C796.027 455.992 796.955 455.384 798.315 455.384ZM797.803 461.48V464.248H799.115V461.416C800.411 461.336 801.723 461.192 803.003 461L802.891 460.056C799.851 460.44 796.299 460.472 793.643 460.472L793.819 461.56C795.035 461.56 796.379 461.544 797.803 461.48ZM805.835 466.792H797.003V463.688H795.691V467.864H805.835V466.792ZM816.314 465.704H811.69C811.29 465.704 810.81 465.768 810.362 465.896L813.642 462.648C814.97 461.32 816.09 460.104 816.09 458.36C816.09 456.28 814.538 455.064 812.538 455.064C810.538 455.064 808.986 456.232 808.682 458.392L810.122 458.632C810.122 457.288 811.114 456.328 812.458 456.328C813.674 456.328 814.57 456.984 814.618 458.392C814.618 459.768 813.722 460.776 812.49 462.088L808.442 465.976V467H816.314V465.704ZM829.749 453.848H828.437V462.408H829.749V453.848ZM826.933 461.112L826.789 460.072C824.773 460.408 823.093 460.472 820.101 460.472V458.584H825.237V457.544H820.101V455.768H825.637V454.712H818.789V461.528H819.957C823.077 461.528 824.837 461.448 826.933 461.112ZM820.469 463.112V467.992H829.749V463.112H820.469ZM821.749 466.936V464.168H828.469V466.936H821.749Z" fill="#0A0A0A"/>
<rect x="978" y="269" width="304.016" height="67" rx="8" fill="#0A0A0A" fill-opacity="0.8"/>
<rect x="978.5" y="348.5" width="303.016" height="66" rx="7.5" stroke="#E9E9E9"/>
<rect x="978.5" y="427.5" width="303.016" height="66" rx="7.5" stroke="#E9E9E9"/>
<path d="M1085.1 297.32H1088.92V299.02H1084.86V301.14H1088.92V302.9H1091.56V292.3H1088.92V295.22H1085.62C1085.7 294.68 1085.74 294.12 1085.74 293.54H1077.3V295.66H1082.86C1082.52 298.16 1080.52 300.14 1076.3 301.26L1077.32 303.34C1081.38 302.2 1083.96 300.2 1085.1 297.32ZM1085.48 303.14C1081.72 303.14 1079.26 304.58 1079.26 306.88C1079.26 309.18 1081.72 310.62 1085.48 310.62C1089.24 310.62 1091.68 309.18 1091.68 306.88C1091.68 304.58 1089.24 303.14 1085.48 303.14ZM1085.48 308.58C1083.14 308.58 1081.86 308 1081.86 306.88C1081.86 305.76 1083.14 305.18 1085.48 305.18C1087.74 305.18 1089.08 305.76 1089.08 306.88C1089.08 308 1087.74 308.58 1085.48 308.58ZM1103.22 300.9H1107.32V303.1H1109.96V292.3H1107.32V294.7H1103.26C1102.38 293.82 1101.16 293.28 1099.64 293.28C1096.92 293.28 1094.8 295.18 1094.8 297.8C1094.8 300.4 1096.92 302.3 1099.64 302.3C1101.08 302.3 1102.34 301.78 1103.22 300.9ZM1097.3 297.8C1097.3 296.36 1098.28 295.52 1099.64 295.52C1101 295.52 1102 296.36 1102 297.8C1102 299.24 1101 300.08 1099.64 300.08C1098.28 300.08 1097.3 299.24 1097.3 297.8ZM1104.4 296.8H1107.32V298.8H1104.38C1104.46 298.46 1104.5 298.12 1104.5 297.8C1104.5 297.42 1104.46 297.12 1104.4 296.8ZM1103.72 303.46C1099.84 303.46 1097.42 304.8 1097.42 307.1C1097.42 309.38 1099.84 310.74 1103.72 310.74C1107.62 310.74 1110.04 309.38 1110.04 307.1C1110.04 304.8 1107.62 303.46 1103.72 303.46ZM1103.72 308.7C1101.3 308.7 1100.02 308.22 1100.02 307.1C1100.02 305.98 1101.3 305.5 1103.72 305.5C1106.14 305.5 1107.44 305.98 1107.44 307.1C1107.44 308.22 1106.14 308.7 1103.72 308.7ZM1128.22 292.3H1125.58V310.72H1128.22V292.3ZM1120.08 297.26V296.24H1123.88V294.06H1113.56V296.24H1117.4V297.26C1117.4 300.4 1115.92 303.78 1112.82 305.16L1114.32 307.26C1116.48 306.28 1117.96 304.28 1118.78 301.86C1119.6 304.12 1121.04 305.86 1123.2 306.8L1124.64 304.72C1121.56 303.44 1120.08 300.26 1120.08 297.26ZM1144.22 303H1140.76V304.8H1144.22V306.26H1146.86V292.3H1144.22V303ZM1137.22 299.5C1139.88 299.5 1141.8 298.18 1141.8 296.22C1141.8 294.24 1139.88 292.92 1137.22 292.92C1134.52 292.92 1132.62 294.24 1132.62 296.22C1132.62 298.18 1134.52 299.5 1137.22 299.5ZM1137.22 294.84C1138.44 294.84 1139.3 295.32 1139.3 296.22C1139.3 297.12 1138.44 297.58 1137.22 297.58C1135.94 297.58 1135.12 297.12 1135.12 296.22C1135.12 295.32 1135.94 294.84 1137.22 294.84ZM1147.26 308.3H1136.24V305.78H1138.78V302.3C1140.3 302.2 1141.74 302.04 1143.18 301.78L1143 299.9C1139.12 300.38 1134.64 300.46 1131.28 300.46L1131.62 302.56C1133 302.56 1134.54 302.54 1136.16 302.46V304.92H1133.6V310.4H1147.26V308.3ZM1166.42 302.02H1159.38V300.48H1164.3V292.96H1161.68V294.76H1154.5V292.96H1151.88V300.48H1156.74V302.02H1149.76V304.12H1166.42V302.02ZM1154.5 298.4V296.8H1161.68V298.4H1154.5ZM1154.42 308.3V305.2H1151.78V310.4H1164.56V308.3H1154.42ZM1182.86 301.16V293H1180.26V295.1H1172.68V293H1170.06V301.16H1182.86ZM1180.26 297.16V299.06H1172.68V297.16H1180.26ZM1184.84 305V302.9H1168.16V305H1175.12V310.74H1177.76V305H1184.84Z" fill="white"/>
<path d="M1098.83 378.544H1102.41V380.464H1098.65V381.536H1102.41V383.424H1103.74V374.848H1102.41V377.472H1099.17C1099.28 376.976 1099.33 376.448 1099.33 375.92H1092.85V376.976H1097.9C1097.65 379.488 1095.57 381.36 1092.11 382.384L1092.64 383.424C1095.79 382.512 1097.85 380.896 1098.83 378.544ZM1099.05 383.584C1096.16 383.584 1094.3 384.624 1094.3 386.352C1094.3 388.08 1096.16 389.12 1099.05 389.12C1101.95 389.12 1103.81 388.08 1103.81 386.352C1103.81 384.624 1101.95 383.584 1099.05 383.584ZM1099.05 388.096C1096.94 388.096 1095.6 387.44 1095.6 386.352C1095.6 385.264 1096.93 384.624 1099.05 384.624C1101.18 384.624 1102.51 385.264 1102.51 386.352C1102.51 387.44 1101.17 388.096 1099.05 388.096ZM1113.45 381.28H1117.13V383.328H1118.46V374.832H1117.13V376.896H1113.45C1112.8 376.144 1111.77 375.696 1110.56 375.696C1108.43 375.696 1106.86 377.088 1106.86 379.088C1106.86 381.104 1108.43 382.512 1110.56 382.512C1111.77 382.512 1112.8 382.048 1113.45 381.28ZM1108.11 379.088C1108.11 377.744 1109.15 376.8 1110.56 376.8C1111.97 376.8 1112.99 377.744 1112.99 379.088C1112.99 380.432 1111.97 381.392 1110.56 381.392C1109.15 381.392 1108.11 380.432 1108.11 379.088ZM1114.06 377.968H1117.13V380.208H1114.05C1114.17 379.856 1114.24 379.488 1114.24 379.088C1114.24 378.72 1114.17 378.352 1114.06 377.968ZM1113.71 383.664C1110.77 383.664 1108.94 384.672 1108.94 386.416C1108.94 388.16 1110.77 389.168 1113.71 389.168C1116.65 389.168 1118.51 388.16 1118.51 386.416C1118.51 384.672 1116.65 383.664 1113.71 383.664ZM1113.71 388.128C1111.52 388.128 1110.24 387.504 1110.24 386.416C1110.24 385.328 1111.52 384.688 1113.71 384.688C1115.9 384.688 1117.21 385.328 1117.21 386.416C1117.21 387.504 1115.9 388.128 1113.71 388.128ZM1125.48 374.512L1120.68 390.064H1121.76L1126.54 374.512H1125.48ZM1136.73 377.648V376.592H1133.03V374.848H1131.72V376.592H1128.01V377.648H1136.73ZM1139.32 374.848H1138.01V389.184H1139.32V374.848ZM1133.03 385.248V383.744C1134.76 383.536 1135.81 382.544 1135.81 381.12C1135.81 379.504 1134.42 378.464 1132.37 378.464C1130.31 378.464 1128.92 379.504 1128.92 381.12C1128.92 382.592 1129.99 383.552 1131.72 383.76V385.296C1130.29 385.344 1128.92 385.36 1127.7 385.36L1127.89 386.464C1130.55 386.464 1133.99 386.4 1137.19 385.888L1137.09 384.912C1135.75 385.088 1134.39 385.184 1133.03 385.248ZM1130.17 381.12C1130.17 380.096 1131.03 379.472 1132.37 379.472C1133.67 379.472 1134.57 380.096 1134.57 381.12C1134.57 382.144 1133.67 382.752 1132.37 382.752C1131.03 382.752 1130.17 382.144 1130.17 381.12ZM1154.53 374.832H1153.28V389.168H1154.53V374.832ZM1150.4 375.216V378.832H1148.28C1148.4 378.112 1148.47 377.376 1148.47 376.656H1142.96V377.728H1147.17C1146.93 380.784 1145.46 383.28 1142.32 385.152L1143.09 386.08C1145.83 384.464 1147.35 382.32 1148.04 379.888H1150.4V382.416H1147.81V383.488H1150.4V388.448H1151.65V375.216H1150.4ZM1168.83 374.848H1167.52V383.408H1168.83V374.848ZM1166.02 382.112L1165.87 381.072C1163.86 381.408 1162.18 381.472 1159.19 381.472V379.584H1164.32V378.544H1159.19V376.768H1164.72V375.712H1157.87V382.528H1159.04C1162.16 382.528 1163.92 382.448 1166.02 382.112ZM1159.55 384.112V388.992H1168.83V384.112H1159.55ZM1160.83 387.936V385.168H1167.55V387.936H1160.83Z" fill="#0A0A0A"/>
<path d="M1122.76 462.008V460.936H1120.63C1121.03 458.872 1121.03 457.352 1121.03 456.008V454.76H1111.4V455.816H1119.75V456.008C1119.75 457.352 1119.75 458.872 1119.31 460.936H1109.79V462.008H1115.58V468.2H1116.91V462.008H1122.76ZM1136.68 453.832H1135.43V459.512H1133.5V454.152H1132.26V467.464H1133.5V460.584H1135.43V468.168H1136.68V453.832ZM1125 455.496V464.328H1130.46V455.496H1125ZM1126.23 463.288V456.536H1129.24V463.288H1126.23ZM1150.98 453.848H1149.67V462.408H1150.98V453.848ZM1148.17 461.112L1148.02 460.072C1146.01 460.408 1144.33 460.472 1141.34 460.472V458.584H1146.47V457.544H1141.34V455.768H1146.87V454.712H1140.02V461.528H1141.19C1144.31 461.528 1146.07 461.448 1148.17 461.112ZM1141.7 463.112V467.992H1150.98V463.112H1141.7ZM1142.98 466.936V464.168H1149.7V466.936H1142.98Z" fill="#0A0A0A"/>
<path d="M1045.8 36.54H1052.84V34.44H1050.52C1050.9 32.44 1050.88 30.94 1050.88 29.56V28.08H1038.22V30.2H1048.28C1048.28 31.42 1048.22 32.76 1047.88 34.44H1036.16V36.54H1043.16V39.14H1037.84V41.22H1048.26V45.72H1050.92V39.14H1045.8V36.54ZM1071.5 31.6H1069.06V27.32H1066.42V38.16H1069.06V33.76H1071.5V31.6ZM1063.92 37.12V28.48H1061.32V30.76H1057.7V28.48H1055.1V37.12H1063.92ZM1061.32 32.78V35.06H1057.7V32.78H1061.32ZM1063.02 38.56C1059.18 38.56 1056.8 39.9 1056.8 42.16C1056.8 44.4 1059.18 45.76 1063.02 45.76C1066.84 45.76 1069.26 44.4 1069.26 42.16C1069.26 39.9 1066.84 38.56 1063.02 38.56ZM1063.02 43.7C1060.68 43.7 1059.42 43.2 1059.42 42.16C1059.42 41.12 1060.68 40.62 1063.02 40.62C1065.44 40.62 1066.64 41.14 1066.64 42.16C1066.64 43.18 1065.44 43.7 1063.02 43.7ZM1090.06 36.58V34.38H1087.38V27.3H1084.74V45.72H1087.38V36.58H1090.06ZM1079.74 31.4V28.72H1077.08V31.4C1077.08 34.82 1075.68 38.36 1072.58 39.8L1074.16 41.94C1076.24 40.92 1077.62 38.98 1078.42 36.64C1079.2 38.9 1080.48 40.62 1082.4 41.6L1084 39.52C1081.04 38.08 1079.74 34.72 1079.74 31.4ZM1106.76 27.3H1104.12V31.36H1101.18C1100.64 29.38 1098.8 28.06 1096.44 28.06C1093.68 28.06 1091.6 29.9 1091.6 32.46C1091.6 35.02 1093.68 36.86 1096.44 36.86C1098.8 36.86 1100.72 35.48 1101.2 33.5H1104.12V37.2H1106.76V27.3ZM1096.44 34.66C1095.08 34.66 1094.12 33.84 1094.12 32.46C1094.12 31.08 1095.08 30.26 1096.44 30.26C1097.8 30.26 1098.78 31.08 1098.78 32.46C1098.78 33.84 1097.8 34.66 1096.44 34.66ZM1104.14 38V39.76H1097.18V38H1094.56V45.5H1106.76V38H1104.14ZM1104.14 41.76V43.42H1097.18V41.76H1104.14ZM1126.42 37.02H1119.38V35.48H1124.3V27.96H1121.68V29.76H1114.5V27.96H1111.88V35.48H1116.74V37.02H1109.76V39.12H1126.42V37.02ZM1114.5 33.4V31.8H1121.68V33.4H1114.5ZM1114.42 43.3V40.2H1111.78V45.4H1124.56V43.3H1114.42ZM1142.86 36.16V28H1140.26V30.1H1132.68V28H1130.06V36.16H1142.86ZM1140.26 32.16V34.06H1132.68V32.16H1140.26ZM1144.84 40V37.9H1128.16V40H1135.12V45.74H1137.76V40H1144.84Z" fill="white"/>
<rect x="411" width="9" height="9" fill="#FF0000"/>
<rect x="1085" width="9" height="9" fill="#FF0000"/>
<rect x="148" y="265" width="9" height="9" fill="#FF0000"/>
<rect x="474" y="265" width="9" height="9" fill="#FF0000"/>
<rect x="800" y="265" width="9" height="9" fill="#FF0000"/>
<rect x="1126" y="265" width="9" height="9" fill="#FF0000"/>
</svg>
