<svg width="81" height="81" viewBox="0 0 81 81" fill="none" xmlns="http://www.w3.org/2000/svg">
<g filter="url(#filter0_d_9_60)">
<circle cx="40.5" cy="36.5" r="36.5" fill="#FF7714"/>
<circle cx="40.5" cy="36.5" r="32.5" fill="#FF2E00"/>
<path d="M36.1773 23.04V27.28H38.2893V18.64H36.1773V21.328H33.4893V23.04H36.1773ZM33.7292 26.816L34.8333 25.152C32.4813 24.384 31.5373 22.608 31.5373 20.624V19.408H29.3932V20.72C29.3932 22.768 28.3533 24.736 25.8413 25.552L26.9453 27.248C28.6893 26.656 29.8573 25.504 30.5133 23.968C31.1373 25.312 32.1773 26.288 33.7292 26.816ZM33.3133 27.648C30.1773 27.648 28.2573 28.688 28.2573 30.528C28.2573 32.32 30.1773 33.376 33.3133 33.376C36.4333 33.376 38.3533 32.32 38.3533 30.528C38.3533 28.688 36.4333 27.648 33.3133 27.648ZM33.3133 31.76C31.3453 31.76 30.3693 31.344 30.3693 30.528C30.3693 29.696 31.3453 29.28 33.3133 29.28C35.2653 29.28 36.2413 29.696 36.2413 30.528C36.2413 31.344 35.2653 31.76 33.3133 31.76ZM52.544 23.984V22.304H44.48V18.896H42.368V23.984H52.544ZM54.032 25.232H40.704V26.912H54.032V25.232ZM47.312 27.872C44.128 27.872 42.208 28.88 42.208 30.608C42.208 32.336 44.128 33.344 47.312 33.344C50.496 33.344 52.432 32.336 52.432 30.608C52.432 28.88 50.496 27.872 47.312 27.872ZM47.312 31.728C45.328 31.728 44.336 31.36 44.336 30.608C44.336 29.856 45.328 29.488 47.312 29.488C49.296 29.488 50.288 29.856 50.288 30.608C50.288 31.36 49.296 31.728 47.312 31.728ZM32.6093 45.776C35.7453 45.776 37.9373 44.496 37.9373 42.448C37.9373 40.464 35.7453 39.136 32.6093 39.136C29.4733 39.136 27.2812 40.464 27.2812 42.448C27.2812 44.496 29.4733 45.776 32.6093 45.776ZM32.6093 40.816C34.5453 40.816 35.7613 41.36 35.7613 42.448C35.7613 43.536 34.5453 44.096 32.6093 44.096C30.6733 44.096 29.4413 43.536 29.4413 42.448C29.4413 41.36 30.6733 40.816 32.6093 40.816ZM39.3133 48.576V46.88H25.9693V48.576H31.5373V53.392H33.6493V48.576H39.3133ZM52.736 45.568L53.536 43.872C50.208 43.408 48.496 41.504 48.496 39.776V39.072H46.24V39.776C46.24 41.504 44.576 43.408 41.2 43.872L42 45.568C44.576 45.184 46.416 44 47.376 42.4C48.336 44 50.16 45.184 52.736 45.568ZM54.016 48.368V46.656H40.704V48.368H46.256V53.392H48.368V48.368H54.016Z" fill="white"/>
</g>
<defs>
<filter id="filter0_d_9_60" x="0" y="0" width="81" height="81" filterUnits="userSpaceOnUse" color-interpolation-filters="sRGB">
<feFlood flood-opacity="0" result="BackgroundImageFix"/>
<feColorMatrix in="SourceAlpha" type="matrix" values="0 0 0 0 0 0 0 0 0 0 0 0 0 0 0 0 0 0 127 0" result="hardAlpha"/>
<feOffset dy="4"/>
<feGaussianBlur stdDeviation="2"/>
<feComposite in2="hardAlpha" operator="out"/>
<feColorMatrix type="matrix" values="0 0 0 0 0 0 0 0 0 0 0 0 0 0 0 0 0 0 0.25 0"/>
<feBlend mode="normal" in2="BackgroundImageFix" result="effect1_dropShadow_9_60"/>
<feBlend mode="normal" in="SourceGraphic" in2="effect1_dropShadow_9_60" result="shape"/>
</filter>
</defs>
</svg>
