<svg width="18" height="18" viewBox="0 0 18 18" fill="none" xmlns="http://www.w3.org/2000/svg">
<path d="M16 0H2C0.9 0 0 0.9 0 2V16C0 17.1 0.9 18 2 18H16C17.1 18 18 17.1 18 16V2C18 0.9 17.1 0 16 0ZM6 8.5C6 9.3 5.3 10 4.5 10H3.5V12H2V6H4.5C5.3 6 6 6.7 6 7.5V8.5ZM11 12H9.5L8.5 9.5V12H7V6H8.5L9.5 8.5V6H11V12ZM16 7.5H13.5V10.5H14.5V9H16V10.7C16 11.4 15.5 12 14.7 12H13.4C12.6 12 12.1 11.3 12.1 10.7V7.4C12 6.7 12.5 6 13.3 6H14.6C15.4 6 15.9 6.7 15.9 7.3V7.5H16M3.5 7.5H4.5V8.5H3.5V7.5Z" fill="#0A0A0A"/>
</svg>
