<svg width="222" height="35" viewBox="0 0 222 35" fill="none" xmlns="http://www.w3.org/2000/svg">
<path d="M217.538 29.4629C218.165 29.4629 218.451 29.6366 218.451 30.072C218.451 30.4889 218.165 30.6357 217.557 30.6357H216.991V29.4629H217.538ZM217.658 29.0324H216.32V32.5715H216.991V31.056H217.653L218.373 32.5715H219.125L218.329 30.953C218.845 30.8501 219.14 30.5041 219.14 30.0029C219.14 29.3598 218.654 29.0324 217.658 29.0324ZM217.572 27.7363C216.73 27.7363 215.968 28.0401 215.391 28.6224C214.779 29.2401 214.439 30.0367 214.439 30.8585C214.439 31.6838 214.761 32.45 215.355 33.0508C215.961 33.6617 216.739 33.9907 217.572 33.9907C218.39 33.9907 219.186 33.6617 219.8 33.0592C220.393 32.4854 220.717 31.7192 220.717 30.8585C220.717 30.0282 220.385 29.2485 219.811 28.6663C219.213 28.0587 218.425 27.7363 217.572 27.7363ZM220.297 30.8839C220.297 31.6044 220.017 32.2761 219.508 32.7723C218.967 33.2938 218.297 33.574 217.557 33.574C216.861 33.574 216.171 33.2853 215.655 32.7639C215.137 32.2407 214.845 31.569 214.845 30.8585C214.845 30.1497 215.145 29.4544 215.68 28.9194C216.183 28.4148 216.85 28.1431 217.58 28.1431C218.329 28.1431 219.003 28.4233 219.524 28.9532C220.029 29.4544 220.297 30.1328 220.297 30.8839Z" fill="#006AD6"/>
<path d="M137.262 29.0055C134.613 28.6983 134.781 26.8133 134.781 24.7139C134.781 24.0809 134.781 17.187 134.781 15.3659H140.379V10.9038H134.781V6.23413H128.451V10.8988H123.97V15.3659H128.451V26.9483C128.451 33.1521 132.799 33.9773 135.629 33.9773C138.147 33.9773 140.432 33.4829 140.432 33.4829C140.432 33.4829 140.415 28.9228 140.415 28.5633C139.184 28.9701 138.351 29.1304 137.262 29.0055Z" fill="#006AD6"/>
<path d="M201.856 10.4482C198.74 10.4482 195.858 11.1487 193.047 12.5798C191.128 11.1689 188.613 10.4804 185.363 10.4804C182.217 10.4804 177.172 11.2111 173.873 12.146L173.611 12.2203V33.6635H180.032V15.6614C181.297 15.0944 183.179 14.7045 184.71 14.7045C188.749 14.7045 189.577 16.8766 189.577 18.9827V33.6635H196.09V16.2537C197.274 15.4049 199.408 14.7045 200.862 14.7045C204.673 14.7045 205.601 16.7989 205.601 18.9827V33.6635H211.975V18.3583C211.975 15.9754 211.082 10.4482 201.856 10.4482Z" fill="#006AD6"/>
<path d="M57.2361 10.9038V29.0831C55.2987 29.6266 53.4647 29.9202 51.7881 29.8072C48.2979 29.5709 47.319 28.6157 47.319 24.6649V10.9038H40.7094C40.7094 10.9038 40.6501 25.3248 40.7094 26.9213C40.7703 28.5195 40.5485 33.9824 51.8101 33.9824C57.3241 33.9824 63.8441 32.7386 63.8441 32.7386V10.9038H57.2361Z" fill="#006AD6"/>
<path d="M85.5224 29.0763C83.8678 29.5016 81.6087 29.9775 78.9212 29.6822C76.635 29.4307 74.4961 28.8958 74.4961 26.6562C74.4961 25.0311 75.5325 23.6776 79.6748 23.6776C79.6748 23.6776 84.2167 23.681 85.5224 23.681V29.0763ZM80.7823 10.4919C78.6383 10.4919 73.9863 10.7975 70.6925 11.5754C70.6925 12.1645 70.6925 16.5371 70.6925 16.5371C70.6925 16.5371 74.4436 14.5828 81.1193 14.5828C83.1786 14.5828 85.5308 15.3389 85.5308 18.4138C85.5308 19.2627 85.5224 19.4112 85.5224 19.4112C85.5224 19.4112 77.7848 19.5091 76.9296 19.5091C72.0795 19.5091 68.3741 22.2363 68.4605 26.6326C68.574 32.32 74.0304 33.8946 79.1972 33.8946C87.7103 33.8946 91.9 32.7267 91.9 32.7267L91.8983 17.1228C91.8983 13.1973 88.5926 10.4919 80.7823 10.4919Z" fill="#006AD6"/>
<path d="M17.8134 28.9937C10.5772 28.9937 8.79901 23.5898 8.79901 17.3388C8.79901 11.054 10.5772 5.88128 17.8134 5.88128C24.6771 5.88128 26.6653 11.054 26.6653 17.3388C26.6653 23.5257 24.9837 28.9937 17.8134 28.9937ZM28.8702 29.0932C28.8702 28.9615 28.8719 28.9041 28.8736 28.8485C31.8186 27.2588 34.1302 25.5677 34.1302 17.3388C34.1302 6.82973 30.5129 0.990479 17.8134 0.990479C4.98698 0.990479 1.28333 7.02726 1.28333 17.3388C1.28333 28.4215 5.51704 33.8136 17.8134 33.8136C18.0878 33.8136 37.3512 33.8136 37.3512 33.8136V29.0932H28.8702Z" fill="#006AD6"/>
<path d="M161.543 10.9309V29.1102C159.607 29.652 157.772 29.9457 156.095 29.8325C152.606 29.5963 151.626 28.6428 151.626 24.692V10.9309H145.018C145.018 10.9309 144.959 25.3502 145.018 26.9467C145.077 28.5449 144.857 34.0095 156.117 34.0095C161.631 34.0095 168.151 32.7641 168.151 32.7641V10.9309H161.543Z" fill="#006AD6"/>
<path d="M104.151 33.6432V15.4656C106.088 14.9204 107.924 14.6268 109.6 14.7416C113.091 14.9778 114.068 15.9314 114.068 19.8821V33.6432H120.676C120.676 33.6432 120.737 19.2223 120.676 17.6258C120.618 16.0293 120.838 10.5647 109.577 10.5647C104.064 10.5647 97.5427 11.8084 97.5427 11.8084V33.6432H104.151Z" fill="#006AD6"/>
</svg>
