<svg width="23" height="23" viewBox="0 0 23 23" fill="none" xmlns="http://www.w3.org/2000/svg">
<path d="M17 22.2501C15.9616 22.2501 14.9466 21.9422 14.0833 21.3653C13.2199 20.7884 12.547 19.9685 12.1496 19.0092C11.7523 18.0499 11.6483 16.9943 11.8509 15.9759C12.0534 14.9575 12.5535 14.022 13.2877 13.2878C14.0219 12.5535 14.9574 12.0535 15.9758 11.851C16.9942 11.6484 18.0498 11.7523 19.0091 12.1497C19.9684 12.5471 20.7883 13.22 21.3652 14.0833C21.9421 14.9467 22.25 15.9617 22.25 17.0001C22.2484 18.392 21.6948 19.7264 20.7106 20.7106C19.7263 21.6949 18.3919 22.2485 17 22.2501V22.2501ZM17 13.2501C16.2583 13.2501 15.5333 13.47 14.9166 13.8821C14.2999 14.2941 13.8193 14.8798 13.5355 15.565C13.2516 16.2502 13.1774 17.0042 13.3221 17.7317C13.4667 18.4591 13.8239 19.1273 14.3483 19.6517C14.8728 20.1762 15.541 20.5333 16.2684 20.678C16.9958 20.8227 17.7498 20.7485 18.4351 20.4646C19.1203 20.1808 19.706 19.7001 20.118 19.0835C20.5301 18.4668 20.75 17.7418 20.75 17.0001C20.749 16.0058 20.3536 15.0526 19.6506 14.3495C18.9475 13.6465 17.9943 13.2511 17 13.2501V13.2501ZM11 20.0001C8.61384 19.9975 6.32616 19.0485 4.63889 17.3612C2.95162 15.6739 2.00258 13.3862 2 11.0001H0.5C0.503176 13.7839 1.61044 16.4527 3.57889 18.4212C5.54733 20.3896 8.2162 21.4969 11 21.5001V20.0001ZM8 5.00008H4.3085C5.52215 3.64123 7.12011 2.68331 8.89056 2.25327C10.661 1.82324 12.5203 1.94141 14.2221 2.59212C15.9239 3.24283 17.3877 4.39534 18.4196 5.8969C19.4514 7.39846 20.0026 9.17815 20 11.0001H21.5C21.5033 8.91266 20.8834 6.87179 19.7196 5.13887C18.5559 3.40596 16.9013 2.05991 14.9678 1.27315C13.0343 0.486389 10.91 0.294737 8.86696 0.722745C6.82389 1.15075 4.95511 2.17893 3.5 3.67558V0.500077H2V6.50008H8V5.00008Z" fill="black"/>
</svg>
