<svg width="240" height="50" viewBox="0 0 240 50" fill="none" xmlns="http://www.w3.org/2000/svg">
<path d="M100.59 10.7246C96.2565 10.7246 91.3279 12.7523 88.3165 16.8119L88.3185 16.8036L88.3165 16.8057L88.3185 11.3621H77.9824V49.354H88.3165V27.736C88.3165 23.8451 91.3055 19.7095 96.8392 19.7095C101.116 19.7095 105.541 22.712 105.541 27.736V49.354H115.877V25.8029C115.877 17.0648 109.683 10.7246 100.59 10.7246Z" fill="#E60012"/>
<path d="M189.338 11.3633L179.994 37.2424L170.65 11.3633H158.843L174.33 49.3429H185.656L201.143 11.3633H189.338Z" fill="#E60012"/>
<path d="M47.1257 22.8087C48.8861 20.4232 51.6897 19.0227 55.0759 19.0227C58.8004 19.0227 61.6264 21.1697 63.0873 24.3388L45.0292 31.9006C44.5361 28.0199 45.5202 24.9845 47.1257 22.8087ZM66.9829 37.6732C62.6329 40.9225 60.1472 41.6978 56.1802 41.6978C52.6106 41.6978 49.8152 40.579 47.8449 38.6171L74.2689 27.5531C73.6923 23.4298 72.1418 19.7466 69.7559 16.9456C66.2841 12.8758 61.1456 10.7227 54.8885 10.7227C43.5235 10.7227 34.9539 19.1852 34.9539 30.3623C34.9539 41.8294 43.5438 49.9999 56.0274 49.9999C63.0221 49.9999 70.1736 46.654 73.5191 42.7445L66.9829 37.6732Z" fill="#E60012"/>
<path d="M33.9687 39.7749H10.4767V0H0V49.3541H33.9687V39.7749Z" fill="#E60012"/>
<path d="M219.703 19.6623C213.931 19.6623 209.739 24.0776 209.739 30.3582C209.739 36.355 214.179 41.0541 219.841 41.0541C225.615 41.0541 229.804 36.5174 229.804 30.3582C229.804 24.3614 225.367 19.6623 219.703 19.6623ZM219.703 49.9937C208.399 49.9937 199.542 41.4942 199.542 30.3582C199.542 19.3476 208.46 10.7227 219.841 10.7227C231.145 10.7227 240 19.2222 240 30.3582C240 41.3667 231.084 49.9937 219.703 49.9937Z" fill="#E60012"/>
<path d="M140.125 19.6623C134.353 19.6623 130.164 24.0776 130.164 30.3582C130.164 36.355 134.602 41.0541 140.266 41.0541C146.038 41.0541 150.227 36.5174 150.227 30.3582C150.227 24.3614 145.789 19.6623 140.125 19.6623ZM140.125 49.9937C128.821 49.9937 119.966 41.4942 119.966 30.3582C119.966 19.3476 128.882 10.7227 140.266 10.7227C151.568 10.7227 160.424 19.2222 160.424 30.3582C160.424 41.3667 151.506 49.9937 140.125 49.9937Z" fill="#E60012"/>
</svg>
