<svg width="135" height="55" viewBox="0 0 135 55" fill="none" xmlns="http://www.w3.org/2000/svg">
<g clip-path="url(#clip0_23_333)">
<path d="M19.341 -0.000653762C17.4317 -0.0435375 15.4592 0.178127 13.4393 0.67949C4.0982 2.99716 -6.35799 14.9327 5.05943 28.6949L11.8742 36.889L13.7979 39.221C15.0891 40.7458 17.202 40.7186 18.7541 39.4477C20.314 38.1703 20.7574 36.0755 19.4714 34.5247C19.4698 34.5225 18.9261 33.8689 18.6889 33.5855H18.7215C18.2289 32.9969 18.122 32.8982 17.6129 32.29C15.1465 29.3436 12.3306 25.942 12.3306 25.942C7.37318 19.9658 9.58519 12.5826 16.3086 8.38778C22.2325 4.69169 33.1035 6.01181 36.8506 12.08C34.4906 5.16123 27.6146 0.185176 19.341 -0.000653762ZM20.7105 14.4443C19.8296 14.4145 18.9099 14.7481 18.1346 15.3835C16.5721 16.6622 16.1325 18.7596 17.4172 20.3065C17.4198 20.3104 17.575 20.5021 17.8411 20.8247C20.7964 24.3515 24.721 29.0836 24.721 29.0836C29.6798 35.0598 27.4665 42.4105 20.7431 46.6054C14.8205 50.3002 3.94821 48.9774 0.201092 42.9132C3.10566 51.4247 12.8406 56.9889 23.6124 54.3137C32.9561 51.9921 43.4097 40.0902 31.9922 26.3306L24.0037 16.7438L23.0907 15.6103C22.4451 14.8478 21.5913 14.4741 20.7105 14.4443Z" fill="#007CC2"/>
<path d="M55.9253 6.54102C50.0105 6.54102 43.2415 9.57122 43.2415 16.8727C43.2415 23.8231 48.8067 25.7742 54.3276 27.1073C59.915 28.4403 65.4463 29.2125 65.4464 33.8439C65.4464 38.4067 60.7145 39.2527 57.2296 39.2527C52.6295 39.2527 48.2954 37.5905 48.0998 32.2569H42.5241C42.8502 41.2413 49.2788 44.5319 56.9035 44.5319C63.8069 44.5319 71.3807 41.7362 71.3807 33.099C71.3807 26.0786 65.8481 24.1017 60.2619 22.7673C55.071 21.4342 49.1432 20.7333 49.1432 16.4517C49.1432 12.8009 53.0299 11.8202 56.3818 11.8202C60.065 11.8202 63.876 13.2751 64.2725 17.9091H69.8482C69.3891 9.06338 63.4182 6.54102 55.9253 6.54102ZM88.1403 6.54102C80.5796 6.54102 74.0544 9.70206 73.7284 18.6864H79.304C79.5675 13.3515 83.0498 11.8202 87.7817 11.8202C91.3332 11.8202 95.3463 12.6494 95.3463 17.8444C95.3463 22.3372 90.1137 21.9239 83.9341 23.1883C78.1524 24.3815 72.4241 26.1473 72.4241 34.3621C72.4241 41.5937 77.4924 44.5319 83.6733 44.5319C88.4012 44.5319 92.5187 42.7557 95.6072 38.8964C95.6072 42.8257 97.4749 44.5319 100.368 44.5319C102.14 44.5319 103.36 44.1588 104.346 43.5279V38.8964C103.623 39.1775 103.109 39.2527 102.65 39.2527C100.876 39.2527 100.889 38.0142 100.889 35.2042V16.5165C100.889 8.02308 94.2534 6.54102 88.1403 6.54102ZM117.356 6.54102C111.441 6.54102 104.672 9.57122 104.672 16.8727C104.672 23.8231 110.271 25.7742 115.79 27.1073C121.379 28.4403 126.909 29.2125 126.909 33.8439C126.909 38.4067 122.176 39.2527 118.692 39.2527C114.091 39.2527 109.758 37.5905 109.563 32.2569H103.954C104.282 41.2413 110.743 44.5319 118.366 44.5319C125.266 44.5319 132.811 41.7362 132.811 33.099C132.811 26.0786 127.278 24.1017 121.692 22.7673C116.503 21.4342 110.606 20.7333 110.606 16.4517C110.606 12.8009 114.46 11.8202 117.812 11.8202C121.491 11.8202 125.305 13.2751 125.703 17.9091H131.311C130.853 9.06338 124.851 6.54102 117.356 6.54102ZM95.2811 24.9373V31.0586C95.2811 34.3582 92.2748 39.2527 84.9123 39.2527C81.4978 39.2527 78.3258 37.8419 78.3258 33.9087C78.3258 29.4871 81.4952 28.1009 85.1732 27.3987C88.9203 26.6979 93.1135 26.6214 95.2811 24.9373ZM39.9482 40.8397C38.7692 40.8397 37.7636 41.7491 37.7636 42.9773C37.7636 44.2106 38.7692 45.1149 39.9482 45.1149C41.1168 45.1149 42.1002 44.2106 42.1002 42.9773C42.1002 41.7491 41.1168 40.8397 39.9482 40.8397ZM132.746 40.8397C131.563 40.8397 130.561 41.7504 130.561 42.9773C130.561 44.2119 131.563 45.1149 132.746 45.1149C133.913 45.1149 134.93 44.2119 134.93 42.9773C134.93 41.7504 133.913 40.8397 132.746 40.8397ZM39.9482 41.1959C40.916 41.1959 41.6764 41.9629 41.6764 42.9773C41.6764 44.0007 40.916 44.7586 39.9482 44.7586C38.9622 44.7586 38.1875 44.0007 38.1875 42.9773C38.1875 41.9629 38.9622 41.1959 39.9482 41.1959ZM132.746 41.1959C133.714 41.1959 134.507 41.9642 134.507 42.9773C134.507 44.002 133.714 44.7586 132.746 44.7586C131.758 44.7586 131.018 44.002 131.018 42.9773C131.018 41.9642 131.758 41.1959 132.746 41.1959ZM39.1005 41.7465V44.208H39.4917V43.1392H39.9156L40.5677 44.208H40.9916L40.2743 43.1068C40.6421 43.0654 40.9264 42.9008 40.9264 42.4591C40.9264 41.972 40.6356 41.7465 40.046 41.7465H39.1005ZM131.931 41.7465V44.208H132.289V43.1392H132.746L133.398 44.208H133.822L133.104 43.1068C133.466 43.0667 133.757 42.9008 133.757 42.4591C133.757 41.972 133.462 41.7465 132.876 41.7465H131.931ZM39.4917 42.0704H40.0134C40.2717 42.0704 40.5351 42.1209 40.5351 42.4267C40.5351 42.8024 40.2704 42.8153 39.9482 42.8153H39.4917V42.0704ZM132.289 42.0704H132.811C133.074 42.0704 133.365 42.1196 133.365 42.4267C133.365 42.8024 133.065 42.8153 132.746 42.8153H132.289V42.0704Z" fill="black"/>
</g>
<defs>
<clipPath id="clip0_23_333">
<rect width="135" height="55" fill="white"/>
</clipPath>
</defs>
</svg>
