<svg width="314" height="252" viewBox="0 0 314 252" fill="none" xmlns="http://www.w3.org/2000/svg">
<g filter="url(#filter0_d_1_601)">
<path d="M60.9029 127.302L143.876 79.6888C151.45 75.3431 155.236 73.1702 159.267 72.3734C162.543 71.7259 165.915 71.7412 169.185 72.4185C173.209 73.2518 176.976 75.4589 184.509 79.8732L254.036 120.613C274.155 132.402 284.214 138.297 287.431 146.033C290.001 152.215 289.984 159.169 287.384 165.339C284.131 173.06 274.043 178.906 253.868 190.598L253.868 190.598L171.675 238.23L171.675 238.23C164.123 242.606 160.348 244.794 156.322 245.608C153.05 246.27 149.679 246.269 146.407 245.607C142.381 244.792 138.606 242.604 131.055 238.226L60.7477 197.467C40.3937 185.667 30.2167 179.767 26.9708 172.001C24.3778 165.797 24.3933 158.81 27.0136 152.618C30.2938 144.866 40.4968 139.012 60.9028 127.302L60.9029 127.302Z" fill="#5DA481"/>
</g>
<g style="mix-blend-mode:multiply" opacity="0.3">
<g style="mix-blend-mode:multiply">
<path d="M163.621 147.616L118.387 121.137C117.098 120.392 117.098 118.529 118.387 117.793L164.057 91.456C165.462 90.6488 167.187 90.6488 168.592 91.456L213.755 117.89C215.044 118.636 215.044 120.49 213.755 121.235L168.156 147.616C166.751 148.432 165.017 148.432 163.612 147.616H163.621Z" fill="black"/>
</g>
</g>
<path d="M117.293 109.721L165.942 137.805L214.715 109.721L165.942 81.6362L117.293 109.721Z" fill="#ACB6DA"/>
<g style="mix-blend-mode:screen">
<path d="M121.828 109.721L165.942 84.2532L210.163 109.721L165.942 135.188L121.828 109.721Z" fill="#61ABEB"/>
</g>
<path d="M117 109.721L165.933 81.4678L215 109.721L165.933 137.974L117 109.721Z" fill="#F5F7FF"/>
<path d="M117.293 109.721V120.942L166.004 149L165.942 137.805L117.293 109.721Z" fill="#FDFDFE"/>
<path d="M214.715 109.721V120.942L166.004 149L165.942 137.805L214.715 109.721Z" fill="#DDE2F7"/>
<path d="M194.682 16.5437L165.969 0L137.247 16.5437L165.969 33.0786L194.682 16.5437Z" fill="#A2CFEE"/>
<path d="M194.682 16.5437V89.5135L165.969 106.048V33.0786L194.682 16.5437Z" fill="#5F98DC"/>
<path d="M137.247 16.5437V89.5135L165.969 106.048V33.0786L137.247 16.5437Z" fill="#BDE0F3"/>
<path d="M141.693 23.7024L161.514 35.1189V42.7299L141.693 31.3134V23.7024Z" fill="#6C80B9"/>
<path d="M142.583 30.8078L141.693 31.3134V23.7024L142.583 24.2169V30.8078Z" fill="#4A61A7"/>
<path d="M161.514 42.73L141.693 31.3135L142.583 30.8079L161.514 41.7365V42.73Z" fill="#ACB6DA"/>
<path d="M141.693 34.8882L161.514 46.3136V53.9157L141.693 42.4992V34.8882Z" fill="#6C80B9"/>
<path d="M142.583 41.9936L141.693 42.4992V34.8882L142.583 35.4027V41.9936Z" fill="#4A61A7"/>
<path d="M161.514 53.9158L141.693 42.4993L142.583 41.9937L161.514 52.9223V53.9158Z" fill="#ACB6DA"/>
<path d="M141.693 46.083L161.514 57.4995V65.1105L141.693 53.694V46.083Z" fill="#6C80B9"/>
<path d="M142.583 53.1795L141.693 53.694V46.083L142.583 46.5886V53.1795Z" fill="#4A61A7"/>
<path d="M161.514 65.1104L141.693 53.6939L142.583 53.1794L161.514 64.1081V65.1104Z" fill="#ACB6DA"/>
<path d="M141.693 57.2688L161.514 68.6853V76.2963L141.693 64.8798V57.2688Z" fill="#6C80B9"/>
<path d="M142.583 64.3653L141.693 64.8798V57.2688L142.583 57.7744V64.3653Z" fill="#4A61A7"/>
<path d="M161.514 76.2962L141.693 64.8797L142.583 64.3652L161.514 75.3027V76.2962Z" fill="#ACB6DA"/>
<path d="M141.693 68.4548L161.514 79.8713V87.4823L141.693 76.0658V68.4548Z" fill="#6C80B9"/>
<path d="M142.583 75.5513L141.693 76.0658V68.4548L142.583 68.9605V75.5513Z" fill="#4A61A7"/>
<path d="M161.514 87.4823L141.693 76.0658L142.583 75.5513L161.514 86.4888V87.4823Z" fill="#ACB6DA"/>
<path d="M141.693 79.6406L161.514 91.0571V98.6681L141.693 87.2516V79.6406Z" fill="#6C80B9"/>
<path d="M142.583 86.7371L141.693 87.2516V79.6406L142.583 80.1551V86.7371Z" fill="#4A61A7"/>
<path d="M161.514 98.6681L141.693 87.2516L142.583 86.7371L161.514 97.6746V98.6681Z" fill="#ACB6DA"/>
<g style="mix-blend-mode:screen">
<g style="mix-blend-mode:screen">
<g style="mix-blend-mode:screen">
<path d="M144.005 28.6345V30.4796L145.606 31.4022V29.5571L144.005 28.6345Z" fill="#61ABEB"/>
</g>
<g style="mix-blend-mode:screen">
<path d="M146.033 29.7966V31.6417L147.642 32.5643V30.7192L146.033 29.7966Z" fill="#61ABEB"/>
</g>
<g style="mix-blend-mode:screen">
<path d="M148.069 30.9585V32.8036L149.679 33.7261V31.881L148.069 30.9585Z" fill="#61ABEB"/>
</g>
<g style="mix-blend-mode:screen">
<path d="M150.105 32.1206V33.9657L151.715 34.8882V33.0432L150.105 32.1206Z" fill="#61ABEB"/>
</g>
<g style="mix-blend-mode:screen">
<path d="M152.142 33.2827V35.1278L153.742 36.0504V34.2053L152.142 33.2827Z" fill="#61ABEB"/>
</g>
<g style="mix-blend-mode:screen">
<path d="M144.005 26.0886V27.9337L145.606 28.8563V27.0112L144.005 26.0886Z" fill="#61ABEB"/>
</g>
<g style="mix-blend-mode:screen">
<path d="M146.033 27.2507V29.0958L147.642 30.0184V28.1733L146.033 27.2507Z" fill="#61ABEB"/>
</g>
<g style="mix-blend-mode:screen">
<path d="M148.069 28.4038V30.2578L149.679 31.1803V29.3352L148.069 28.4038Z" fill="#61ABEB"/>
</g>
<g style="mix-blend-mode:screen">
<path d="M150.105 29.5659V31.4199L151.715 32.3424V30.4973L150.105 29.5659Z" fill="white"/>
</g>
<g style="mix-blend-mode:screen">
<path d="M152.142 30.728V32.582L153.742 33.5045V31.6594L152.142 30.728Z" fill="#61ABEB"/>
</g>
<g style="mix-blend-mode:screen">
<path d="M154.249 34.4004V36.2544L155.85 37.1769V35.3229L154.249 34.4004Z" fill="#61ABEB"/>
</g>
<g style="mix-blend-mode:screen">
<path d="M156.285 35.5625V37.4076L157.886 38.339V36.485L156.285 35.5625Z" fill="white"/>
</g>
<g style="mix-blend-mode:screen">
<path d="M158.313 36.7246V38.5697L159.922 39.5011V37.6472L158.313 36.7246Z" fill="#61ABEB"/>
</g>
<g style="mix-blend-mode:screen">
<path d="M154.249 31.8545V33.6996L155.85 34.6221V32.777L154.249 31.8545Z" fill="#61ABEB"/>
</g>
<g style="mix-blend-mode:screen">
<path d="M156.285 33.0166V34.8617L157.886 35.7842V33.9391L156.285 33.0166Z" fill="#61ABEB"/>
</g>
<g style="mix-blend-mode:screen">
<path d="M158.313 34.1787V36.0238L159.922 36.9464V35.1013L158.313 34.1787Z" fill="#61ABEB"/>
</g>
</g>
</g>
<g style="mix-blend-mode:screen">
<g style="mix-blend-mode:screen">
<g style="mix-blend-mode:screen">
<path d="M144.005 39.9092V41.7631L145.606 42.6857V40.8317L144.005 39.9092Z" fill="#61ABEB"/>
</g>
<g style="mix-blend-mode:screen">
<path d="M146.033 41.0713V42.9253L147.642 43.8478V41.9938L146.033 41.0713Z" fill="#61ABEB"/>
</g>
<g style="mix-blend-mode:screen">
<path d="M148.069 42.2332V44.0871L149.679 45.0097V43.1557L148.069 42.2332Z" fill="#61ABEB"/>
</g>
<g style="mix-blend-mode:screen">
<path d="M150.105 43.3953V45.2404L151.715 46.1718V44.3178L150.105 43.3953Z" fill="#61ABEB"/>
</g>
<g style="mix-blend-mode:screen">
<path d="M152.142 44.5574V46.4025L153.742 47.3339V45.4799L152.142 44.5574Z" fill="white"/>
</g>
<g style="mix-blend-mode:screen">
<path d="M144.005 37.3633V39.2084L145.606 40.1398V38.2858L144.005 37.3633Z" fill="#61ABEB"/>
</g>
<g style="mix-blend-mode:screen">
<path d="M146.033 38.5254V40.3705L147.642 41.3019V39.4479L146.033 38.5254Z" fill="white"/>
</g>
<g style="mix-blend-mode:screen">
<path d="M148.069 39.6875V41.5326L149.679 42.4551V40.61L148.069 39.6875Z" fill="#61ABEB"/>
</g>
<g style="mix-blend-mode:screen">
<path d="M150.105 40.8494V42.6945L151.715 43.617V41.7719L150.105 40.8494Z" fill="#61ABEB"/>
</g>
<g style="mix-blend-mode:screen">
<path d="M152.142 42.0115V43.8566L153.742 44.7791V42.934L152.142 42.0115Z" fill="#61ABEB"/>
</g>
<g style="mix-blend-mode:screen">
<path d="M154.249 45.6838V47.5289L155.85 48.4515V46.6064L154.249 45.6838Z" fill="#61ABEB"/>
</g>
<g style="mix-blend-mode:screen">
<path d="M156.285 46.8459V48.691L157.886 49.6136V47.7685L156.285 46.8459Z" fill="#61ABEB"/>
</g>
<g style="mix-blend-mode:screen">
<path d="M158.313 47.9993V49.8532L159.922 50.7758V48.9307L158.313 47.9993Z" fill="#61ABEB"/>
</g>
<g style="mix-blend-mode:screen">
<path d="M154.249 43.1292V44.9831L155.85 45.9057V44.0517L154.249 43.1292Z" fill="#61ABEB"/>
</g>
<g style="mix-blend-mode:screen">
<path d="M156.285 44.2913V46.1452L157.886 47.0678V45.2138L156.285 44.2913Z" fill="#61ABEB"/>
</g>
<g style="mix-blend-mode:screen">
<path d="M158.313 45.4534V47.3073L159.922 48.2299V46.3759L158.313 45.4534Z" fill="#61ABEB"/>
</g>
</g>
</g>
<g style="mix-blend-mode:screen">
<g style="mix-blend-mode:screen">
<g style="mix-blend-mode:screen">
<path d="M144.005 51.1125V52.9576L145.606 53.8802V52.0351L144.005 51.1125Z" fill="#61ABEB"/>
</g>
<g style="mix-blend-mode:screen">
<path d="M146.033 52.2659V54.1198L147.642 55.0424V53.1973L146.033 52.2659Z" fill="#61ABEB"/>
</g>
<g style="mix-blend-mode:screen">
<path d="M148.069 53.4277V55.2817L149.679 56.2042V54.3592L148.069 53.4277Z" fill="white"/>
</g>
<g style="mix-blend-mode:screen">
<path d="M150.105 54.5898V56.4438L151.715 57.3663V55.5213L150.105 54.5898Z" fill="#61ABEB"/>
</g>
<g style="mix-blend-mode:screen">
<path d="M152.142 55.752V57.6059L153.742 58.5285V56.6834L152.142 55.752Z" fill="#61ABEB"/>
</g>
<g style="mix-blend-mode:screen">
<path d="M144.005 48.5579V50.4118L145.606 51.3344V49.4804L144.005 48.5579Z" fill="#61ABEB"/>
</g>
<g style="mix-blend-mode:screen">
<path d="M146.033 49.72V51.5739L147.642 52.4965V50.6425L146.033 49.72Z" fill="#61ABEB"/>
</g>
<g style="mix-blend-mode:screen">
<path d="M148.069 50.8821V52.736L149.679 53.6586V51.8046L148.069 50.8821Z" fill="#61ABEB"/>
</g>
<g style="mix-blend-mode:screen">
<path d="M150.105 52.0439V53.8979L151.715 54.8205V52.9665L150.105 52.0439Z" fill="white"/>
</g>
<g style="mix-blend-mode:screen">
<path d="M152.142 53.2061V55.0511L153.742 55.9826V54.1286L152.142 53.2061Z" fill="#61ABEB"/>
</g>
<g style="mix-blend-mode:screen">
<path d="M154.249 56.8784V58.7235L155.85 59.6461V57.801L154.249 56.8784Z" fill="#61ABEB"/>
</g>
<g style="mix-blend-mode:screen">
<path d="M156.285 58.0405V59.8856L157.886 60.8082V58.9631L156.285 58.0405Z" fill="#61ABEB"/>
</g>
<g style="mix-blend-mode:screen">
<path d="M158.313 59.2026V61.0477L159.922 61.9703V60.1252L158.313 59.2026Z" fill="white"/>
</g>
<g style="mix-blend-mode:screen">
<path d="M154.249 54.3325V56.1776L155.85 57.1002V55.2551L154.249 54.3325Z" fill="#61ABEB"/>
</g>
<g style="mix-blend-mode:screen">
<path d="M156.285 55.4946V57.3397L157.886 58.2623V56.4172L156.285 55.4946Z" fill="#61ABEB"/>
</g>
<g style="mix-blend-mode:screen">
<path d="M158.313 56.6567V58.5018L159.922 59.4244V57.5793L158.313 56.6567Z" fill="#61ABEB"/>
</g>
</g>
</g>
<g style="mix-blend-mode:screen">
<g style="mix-blend-mode:screen">
<g style="mix-blend-mode:screen">
<path d="M144.005 62.2454V64.0905L145.606 65.013V63.1679L144.005 62.2454Z" fill="#61ABEB"/>
</g>
<g style="mix-blend-mode:screen">
<path d="M146.033 63.4075V65.2526L147.642 66.1751V64.33L146.033 63.4075Z" fill="#61ABEB"/>
</g>
<g style="mix-blend-mode:screen">
<path d="M148.069 64.5693V66.4144L149.679 67.337V65.4919L148.069 64.5693Z" fill="#61ABEB"/>
</g>
<g style="mix-blend-mode:screen">
<path d="M150.105 65.7314V67.5765L151.715 68.4991V66.654L150.105 65.7314Z" fill="#61ABEB"/>
</g>
<g style="mix-blend-mode:screen">
<path d="M152.142 66.8936V68.7386L153.742 69.6612V67.8161L152.142 66.8936Z" fill="#61ABEB"/>
</g>
<g style="mix-blend-mode:screen">
<path d="M144.005 59.6995V61.5445L145.606 62.4671V60.622L144.005 59.6995Z" fill="#61ABEB"/>
</g>
<g style="mix-blend-mode:screen">
<path d="M146.033 60.8616V62.7067L147.642 63.6292V61.7841L146.033 60.8616Z" fill="white"/>
</g>
<g style="mix-blend-mode:screen">
<path d="M148.069 62.0237V63.8688L149.679 64.7913V62.9462L148.069 62.0237Z" fill="#61ABEB"/>
</g>
<g style="mix-blend-mode:screen">
<path d="M150.105 63.1768V65.0307L151.715 65.9533V64.1082L150.105 63.1768Z" fill="white"/>
</g>
<g style="mix-blend-mode:screen">
<path d="M152.142 64.3389V66.1928L153.742 67.1154V65.2703L152.142 64.3389Z" fill="#61ABEB"/>
</g>
<g style="mix-blend-mode:screen">
<path d="M154.249 68.0112V69.8652L155.85 70.7877V68.9338L154.249 68.0112Z" fill="white"/>
</g>
<g style="mix-blend-mode:screen">
<path d="M156.285 69.1733V71.0184L157.886 71.9498V70.0959L156.285 69.1733Z" fill="#61ABEB"/>
</g>
<g style="mix-blend-mode:screen">
<path d="M158.313 70.3354V72.1805L159.922 73.112V71.258L158.313 70.3354Z" fill="#61ABEB"/>
</g>
<g style="mix-blend-mode:screen">
<path d="M154.249 65.4653V67.3104L155.85 68.233V66.3879L154.249 65.4653Z" fill="#61ABEB"/>
</g>
<g style="mix-blend-mode:screen">
<path d="M156.285 66.6274V68.4725L157.886 69.3951V67.55L156.285 66.6274Z" fill="#61ABEB"/>
</g>
<g style="mix-blend-mode:screen">
<path d="M158.313 67.7896V69.6346L159.922 70.5572V68.7121L158.313 67.7896Z" fill="white"/>
</g>
</g>
</g>
<g style="mix-blend-mode:screen">
<g style="mix-blend-mode:screen">
<g style="mix-blend-mode:screen">
<path d="M144.005 73.52V75.374L145.606 76.2965V74.4426L144.005 73.52Z" fill="#61ABEB"/>
</g>
<g style="mix-blend-mode:screen">
<path d="M146.033 74.6821V76.5361L147.642 77.4586V75.6047L146.033 74.6821Z" fill="#61ABEB"/>
</g>
<g style="mix-blend-mode:screen">
<path d="M148.069 75.844V77.698L149.679 78.6205V76.7665L148.069 75.844Z" fill="#61ABEB"/>
</g>
<g style="mix-blend-mode:screen">
<path d="M150.105 77.0061V78.8601L151.715 79.7826V77.9286L150.105 77.0061Z" fill="#61ABEB"/>
</g>
<g style="mix-blend-mode:screen">
<path d="M152.142 78.1682V80.0133L153.742 80.9447V79.0908L152.142 78.1682Z" fill="white"/>
</g>
<g style="mix-blend-mode:screen">
<path d="M144.005 70.9741V72.8192L145.606 73.7506V71.8967L144.005 70.9741Z" fill="#61ABEB"/>
</g>
<g style="mix-blend-mode:screen">
<path d="M146.033 72.1362V73.9813L147.642 74.9127V73.0588L146.033 72.1362Z" fill="white"/>
</g>
<g style="mix-blend-mode:screen">
<path d="M148.069 73.2983V75.1434L149.679 76.0749V74.2209L148.069 73.2983Z" fill="#61ABEB"/>
</g>
<g style="mix-blend-mode:screen">
<path d="M150.105 74.4602V76.3053L151.715 77.2278V75.3828L150.105 74.4602Z" fill="#61ABEB"/>
</g>
<g style="mix-blend-mode:screen">
<path d="M152.142 75.6223V77.4674L153.742 78.39V76.5449L152.142 75.6223Z" fill="#61ABEB"/>
</g>
<g style="mix-blend-mode:screen">
<path d="M154.249 79.2947V81.1398L155.85 82.0623V80.2172L154.249 79.2947Z" fill="white"/>
</g>
<g style="mix-blend-mode:screen">
<path d="M156.285 80.4568V82.3019L157.886 83.2244V81.3793L156.285 80.4568Z" fill="#61ABEB"/>
</g>
<g style="mix-blend-mode:screen">
<path d="M158.313 81.6101V83.4641L159.922 84.3866V82.5415L158.313 81.6101Z" fill="#61ABEB"/>
</g>
<g style="mix-blend-mode:screen">
<path d="M154.249 76.74V78.5939L155.85 79.5165V77.6714L154.249 76.74Z" fill="#61ABEB"/>
</g>
<g style="mix-blend-mode:screen">
<path d="M156.285 77.9021V79.7561L157.886 80.6786V78.8246L156.285 77.9021Z" fill="#61ABEB"/>
</g>
<g style="mix-blend-mode:screen">
<path d="M158.313 79.0642V80.9182L159.922 81.8407V79.9868L158.313 79.0642Z" fill="#61ABEB"/>
</g>
</g>
</g>
<g style="mix-blend-mode:screen">
<g style="mix-blend-mode:screen">
<g style="mix-blend-mode:screen">
<path d="M144.005 84.5728V86.4267L145.606 87.3493V85.5042L144.005 84.5728Z" fill="#61ABEB"/>
</g>
<g style="mix-blend-mode:screen">
<path d="M146.033 85.7349V87.5888L147.642 88.5114V86.6663L146.033 85.7349Z" fill="#61ABEB"/>
</g>
<g style="mix-blend-mode:screen">
<path d="M148.069 86.8967V88.7507L149.679 89.6732V87.8193L148.069 86.8967Z" fill="white"/>
</g>
<g style="mix-blend-mode:screen">
<path d="M150.105 88.0588V89.9128L151.715 90.8353V88.9814L150.105 88.0588Z" fill="#61ABEB"/>
</g>
<g style="mix-blend-mode:screen">
<path d="M152.142 89.2209V91.0749L153.742 91.9975V90.1435L152.142 89.2209Z" fill="#61ABEB"/>
</g>
<g style="mix-blend-mode:screen">
<path d="M144.005 82.0269V83.8808L145.606 84.8034V82.9494L144.005 82.0269Z" fill="white"/>
</g>
<g style="mix-blend-mode:screen">
<path d="M146.033 83.189V85.0341L147.642 85.9655V84.1115L146.033 83.189Z" fill="#61ABEB"/>
</g>
<g style="mix-blend-mode:screen">
<path d="M148.069 84.3511V86.1962L149.679 87.1276V85.2736L148.069 84.3511Z" fill="#61ABEB"/>
</g>
<g style="mix-blend-mode:screen">
<path d="M150.105 85.5129V87.358L151.715 88.2894V86.4355L150.105 85.5129Z" fill="#61ABEB"/>
</g>
<g style="mix-blend-mode:screen">
<path d="M152.142 86.675V88.5201L153.742 89.4516V87.5976L152.142 86.675Z" fill="#61ABEB"/>
</g>
<g style="mix-blend-mode:screen">
<path d="M154.249 90.3474V92.1925L155.85 93.1151V91.27L154.249 90.3474Z" fill="#61ABEB"/>
</g>
<g style="mix-blend-mode:screen">
<path d="M156.285 91.5095V93.3546L157.886 94.2772V92.4321L156.285 91.5095Z" fill="white"/>
</g>
<g style="mix-blend-mode:screen">
<path d="M158.313 92.6716V94.5167L159.922 95.4393V93.5942L158.313 92.6716Z" fill="#61ABEB"/>
</g>
<g style="mix-blend-mode:screen">
<path d="M154.249 87.7927V89.6467L155.85 90.5692V88.7241L154.249 87.7927Z" fill="white"/>
</g>
<g style="mix-blend-mode:screen">
<path d="M156.285 88.9548V90.8088L157.886 91.7313V89.8863L156.285 88.9548Z" fill="#61ABEB"/>
</g>
<g style="mix-blend-mode:screen">
<path d="M158.313 90.1169V91.9709L159.922 92.8935V91.0484L158.313 90.1169Z" fill="#61ABEB"/>
</g>
</g>
</g>
<g style="mix-blend-mode:multiply" opacity="0.3">
<g style="mix-blend-mode:multiply">
<path d="M105.621 183.616L60.3872 157.137C59.0978 156.392 59.0978 154.529 60.3872 153.793L106.057 127.456C107.462 126.649 109.187 126.649 110.592 127.456L155.755 153.89C157.044 154.636 157.044 156.49 155.755 157.235L110.156 183.616C108.751 184.432 107.017 184.432 105.612 183.616H105.621Z" fill="black"/>
</g>
</g>
<path d="M59.2934 145.721L107.942 173.805L156.715 145.721L107.942 117.636L59.2934 145.721Z" fill="#ACB6DA"/>
<g style="mix-blend-mode:screen">
<path d="M63.8284 145.721L107.942 120.253L152.163 145.721L107.942 171.188L63.8284 145.721Z" fill="#61ABEB"/>
</g>
<path d="M59 145.721L107.933 117.468L157 145.721L107.933 173.974L59 145.721Z" fill="#F5F7FF"/>
<path d="M59.2934 145.721V156.942L108.004 185L107.942 173.805L59.2934 145.721Z" fill="#FDFDFE"/>
<path d="M156.715 145.721V156.942L108.004 185L107.942 173.805L156.715 145.721Z" fill="#DDE2F7"/>
<path d="M136.682 52.5437L107.969 36L79.2473 52.5437L107.969 69.0786L136.682 52.5437Z" fill="#A2CFEE"/>
<path d="M136.682 52.5437V125.514L107.969 142.048V69.0786L136.682 52.5437Z" fill="#5F98DC"/>
<path d="M79.2473 52.5437V125.514L107.969 142.048V69.0786L79.2473 52.5437Z" fill="#BDE0F3"/>
<path d="M83.6934 59.7024L103.514 71.1189V78.7299L83.6934 67.3134V59.7024Z" fill="#6C80B9"/>
<path d="M84.5826 66.8078L83.6934 67.3134V59.7024L84.5826 60.2169V66.8078Z" fill="#4A61A7"/>
<path d="M103.514 78.73L83.6934 67.3135L84.5826 66.8079L103.514 77.7365V78.73Z" fill="#ACB6DA"/>
<path d="M83.6934 70.8882L103.514 82.3136V89.9157L83.6934 78.4992V70.8882Z" fill="#6C80B9"/>
<path d="M84.5826 77.9936L83.6934 78.4992V70.8882L84.5826 71.4027V77.9936Z" fill="#4A61A7"/>
<path d="M103.514 89.9158L83.6934 78.4993L84.5826 77.9937L103.514 88.9223V89.9158Z" fill="#ACB6DA"/>
<path d="M83.6934 82.083L103.514 93.4995V101.111L83.6934 89.694V82.083Z" fill="#6C80B9"/>
<path d="M84.5826 89.1795L83.6934 89.694V82.083L84.5826 82.5886V89.1795Z" fill="#4A61A7"/>
<path d="M103.514 101.11L83.6934 89.6939L84.5826 89.1794L103.514 100.108V101.11Z" fill="#ACB6DA"/>
<path d="M83.6934 93.2688L103.514 104.685V112.296L83.6934 100.88V93.2688Z" fill="#6C80B9"/>
<path d="M84.5826 100.365L83.6934 100.88V93.2688L84.5826 93.7744V100.365Z" fill="#4A61A7"/>
<path d="M103.514 112.296L83.6934 100.88L84.5826 100.365L103.514 111.303V112.296Z" fill="#ACB6DA"/>
<path d="M83.6934 104.455L103.514 115.871V123.482L83.6934 112.066V104.455Z" fill="#6C80B9"/>
<path d="M84.5826 111.551L83.6934 112.066V104.455L84.5826 104.96V111.551Z" fill="#4A61A7"/>
<path d="M103.514 123.482L83.6934 112.066L84.5826 111.551L103.514 122.489V123.482Z" fill="#ACB6DA"/>
<path d="M83.6934 115.641L103.514 127.057V134.668L83.6934 123.252V115.641Z" fill="#6C80B9"/>
<path d="M84.5826 122.737L83.6934 123.252V115.641L84.5826 116.155V122.737Z" fill="#4A61A7"/>
<path d="M103.514 134.668L83.6934 123.252L84.5826 122.737L103.514 133.675V134.668Z" fill="#ACB6DA"/>
<g style="mix-blend-mode:screen">
<g style="mix-blend-mode:screen">
<g style="mix-blend-mode:screen">
<path d="M86.0054 64.6345V66.4796L87.6059 67.4022V65.5571L86.0054 64.6345Z" fill="#61ABEB"/>
</g>
<g style="mix-blend-mode:screen">
<path d="M88.0328 65.7966V67.6417L89.6422 68.5643V66.7192L88.0328 65.7966Z" fill="#61ABEB"/>
</g>
<g style="mix-blend-mode:screen">
<path d="M90.0691 66.9585V68.8036L91.6785 69.7261V67.881L90.0691 66.9585Z" fill="#61ABEB"/>
</g>
<g style="mix-blend-mode:screen">
<path d="M92.1053 68.1206V69.9657L93.7148 70.8882V69.0432L92.1053 68.1206Z" fill="#61ABEB"/>
</g>
<g style="mix-blend-mode:screen">
<path d="M94.1416 69.2827V71.1278L95.7422 72.0504V70.2053L94.1416 69.2827Z" fill="#61ABEB"/>
</g>
<g style="mix-blend-mode:screen">
<path d="M86.0054 62.0886V63.9337L87.6059 64.8563V63.0112L86.0054 62.0886Z" fill="#61ABEB"/>
</g>
<g style="mix-blend-mode:screen">
<path d="M88.0328 63.2507V65.0958L89.6422 66.0184V64.1733L88.0328 63.2507Z" fill="#61ABEB"/>
</g>
<g style="mix-blend-mode:screen">
<path d="M90.0691 64.4038V66.2578L91.6785 67.1803V65.3352L90.0691 64.4038Z" fill="#61ABEB"/>
</g>
<g style="mix-blend-mode:screen">
<path d="M92.1053 65.5659V67.4199L93.7148 68.3424V66.4973L92.1053 65.5659Z" fill="white"/>
</g>
<g style="mix-blend-mode:screen">
<path d="M94.1416 66.728V68.582L95.7422 69.5045V67.6594L94.1416 66.728Z" fill="#61ABEB"/>
</g>
<g style="mix-blend-mode:screen">
<path d="M96.2491 70.4004V72.2544L97.8496 73.1769V71.3229L96.2491 70.4004Z" fill="#61ABEB"/>
</g>
<g style="mix-blend-mode:screen">
<path d="M98.2854 71.5625V73.4076L99.8859 74.339V72.485L98.2854 71.5625Z" fill="white"/>
</g>
<g style="mix-blend-mode:screen">
<path d="M100.313 72.7246V74.5697L101.922 75.5011V73.6472L100.313 72.7246Z" fill="#61ABEB"/>
</g>
<g style="mix-blend-mode:screen">
<path d="M96.2491 67.8545V69.6996L97.8496 70.6221V68.777L96.2491 67.8545Z" fill="#61ABEB"/>
</g>
<g style="mix-blend-mode:screen">
<path d="M98.2854 69.0166V70.8617L99.8859 71.7842V69.9391L98.2854 69.0166Z" fill="#61ABEB"/>
</g>
<g style="mix-blend-mode:screen">
<path d="M100.313 70.1787V72.0238L101.922 72.9464V71.1013L100.313 70.1787Z" fill="#61ABEB"/>
</g>
</g>
</g>
<g style="mix-blend-mode:screen">
<g style="mix-blend-mode:screen">
<g style="mix-blend-mode:screen">
<path d="M86.0054 75.9092V77.7631L87.6059 78.6857V76.8317L86.0054 75.9092Z" fill="#61ABEB"/>
</g>
<g style="mix-blend-mode:screen">
<path d="M88.0328 77.0713V78.9253L89.6422 79.8478V77.9938L88.0328 77.0713Z" fill="#61ABEB"/>
</g>
<g style="mix-blend-mode:screen">
<path d="M90.0691 78.2332V80.0871L91.6785 81.0097V79.1557L90.0691 78.2332Z" fill="#61ABEB"/>
</g>
<g style="mix-blend-mode:screen">
<path d="M92.1053 79.3953V81.2404L93.7148 82.1718V80.3178L92.1053 79.3953Z" fill="#61ABEB"/>
</g>
<g style="mix-blend-mode:screen">
<path d="M94.1416 80.5574V82.4025L95.7422 83.3339V81.4799L94.1416 80.5574Z" fill="white"/>
</g>
<g style="mix-blend-mode:screen">
<path d="M86.0054 73.3633V75.2084L87.6059 76.1398V74.2858L86.0054 73.3633Z" fill="#61ABEB"/>
</g>
<g style="mix-blend-mode:screen">
<path d="M88.0328 74.5254V76.3705L89.6422 77.3019V75.4479L88.0328 74.5254Z" fill="white"/>
</g>
<g style="mix-blend-mode:screen">
<path d="M90.0691 75.6875V77.5326L91.6785 78.4551V76.61L90.0691 75.6875Z" fill="#61ABEB"/>
</g>
<g style="mix-blend-mode:screen">
<path d="M92.1053 76.8494V78.6945L93.7148 79.617V77.7719L92.1053 76.8494Z" fill="#61ABEB"/>
</g>
<g style="mix-blend-mode:screen">
<path d="M94.1416 78.0115V79.8566L95.7422 80.7791V78.934L94.1416 78.0115Z" fill="#61ABEB"/>
</g>
<g style="mix-blend-mode:screen">
<path d="M96.2491 81.6838V83.5289L97.8496 84.4515V82.6064L96.2491 81.6838Z" fill="#61ABEB"/>
</g>
<g style="mix-blend-mode:screen">
<path d="M98.2854 82.8459V84.691L99.8859 85.6136V83.7685L98.2854 82.8459Z" fill="#61ABEB"/>
</g>
<g style="mix-blend-mode:screen">
<path d="M100.313 83.9993V85.8532L101.922 86.7758V84.9307L100.313 83.9993Z" fill="#61ABEB"/>
</g>
<g style="mix-blend-mode:screen">
<path d="M96.2491 79.1292V80.9831L97.8496 81.9057V80.0517L96.2491 79.1292Z" fill="#61ABEB"/>
</g>
<g style="mix-blend-mode:screen">
<path d="M98.2854 80.2913V82.1452L99.8859 83.0678V81.2138L98.2854 80.2913Z" fill="#61ABEB"/>
</g>
<g style="mix-blend-mode:screen">
<path d="M100.313 81.4534V83.3073L101.922 84.2299V82.3759L100.313 81.4534Z" fill="#61ABEB"/>
</g>
</g>
</g>
<g style="mix-blend-mode:screen">
<g style="mix-blend-mode:screen">
<g style="mix-blend-mode:screen">
<path d="M86.0054 87.1125V88.9576L87.6059 89.8802V88.0351L86.0054 87.1125Z" fill="#61ABEB"/>
</g>
<g style="mix-blend-mode:screen">
<path d="M88.0328 88.2659V90.1198L89.6422 91.0424V89.1973L88.0328 88.2659Z" fill="#61ABEB"/>
</g>
<g style="mix-blend-mode:screen">
<path d="M90.0691 89.4277V91.2817L91.6785 92.2042V90.3592L90.0691 89.4277Z" fill="white"/>
</g>
<g style="mix-blend-mode:screen">
<path d="M92.1053 90.5898V92.4438L93.7148 93.3663V91.5213L92.1053 90.5898Z" fill="#61ABEB"/>
</g>
<g style="mix-blend-mode:screen">
<path d="M94.1416 91.752V93.6059L95.7422 94.5285V92.6834L94.1416 91.752Z" fill="#61ABEB"/>
</g>
<g style="mix-blend-mode:screen">
<path d="M86.0054 84.5579V86.4118L87.6059 87.3344V85.4804L86.0054 84.5579Z" fill="#61ABEB"/>
</g>
<g style="mix-blend-mode:screen">
<path d="M88.0328 85.72V87.5739L89.6422 88.4965V86.6425L88.0328 85.72Z" fill="#61ABEB"/>
</g>
<g style="mix-blend-mode:screen">
<path d="M90.0691 86.8821V88.736L91.6785 89.6586V87.8046L90.0691 86.8821Z" fill="#61ABEB"/>
</g>
<g style="mix-blend-mode:screen">
<path d="M92.1053 88.0439V89.8979L93.7148 90.8205V88.9665L92.1053 88.0439Z" fill="white"/>
</g>
<g style="mix-blend-mode:screen">
<path d="M94.1416 89.2061V91.0511L95.7422 91.9826V90.1286L94.1416 89.2061Z" fill="#61ABEB"/>
</g>
<g style="mix-blend-mode:screen">
<path d="M96.2491 92.8784V94.7235L97.8496 95.6461V93.801L96.2491 92.8784Z" fill="#61ABEB"/>
</g>
<g style="mix-blend-mode:screen">
<path d="M98.2854 94.0405V95.8856L99.8859 96.8082V94.9631L98.2854 94.0405Z" fill="#61ABEB"/>
</g>
<g style="mix-blend-mode:screen">
<path d="M100.313 95.2026V97.0477L101.922 97.9703V96.1252L100.313 95.2026Z" fill="white"/>
</g>
<g style="mix-blend-mode:screen">
<path d="M96.2491 90.3325V92.1776L97.8496 93.1002V91.2551L96.2491 90.3325Z" fill="#61ABEB"/>
</g>
<g style="mix-blend-mode:screen">
<path d="M98.2854 91.4946V93.3397L99.8859 94.2623V92.4172L98.2854 91.4946Z" fill="#61ABEB"/>
</g>
<g style="mix-blend-mode:screen">
<path d="M100.313 92.6567V94.5018L101.922 95.4244V93.5793L100.313 92.6567Z" fill="#61ABEB"/>
</g>
</g>
</g>
<g style="mix-blend-mode:screen">
<g style="mix-blend-mode:screen">
<g style="mix-blend-mode:screen">
<path d="M86.0054 98.2454V100.09L87.6059 101.013V99.1679L86.0054 98.2454Z" fill="#61ABEB"/>
</g>
<g style="mix-blend-mode:screen">
<path d="M88.0328 99.4075V101.253L89.6422 102.175V100.33L88.0328 99.4075Z" fill="#61ABEB"/>
</g>
<g style="mix-blend-mode:screen">
<path d="M90.0691 100.569V102.414L91.6785 103.337V101.492L90.0691 100.569Z" fill="#61ABEB"/>
</g>
<g style="mix-blend-mode:screen">
<path d="M92.1053 101.731V103.577L93.7148 104.499V102.654L92.1053 101.731Z" fill="#61ABEB"/>
</g>
<g style="mix-blend-mode:screen">
<path d="M94.1416 102.894V104.739L95.7422 105.661V103.816L94.1416 102.894Z" fill="#61ABEB"/>
</g>
<g style="mix-blend-mode:screen">
<path d="M86.0054 95.6995V97.5445L87.6059 98.4671V96.622L86.0054 95.6995Z" fill="#61ABEB"/>
</g>
<g style="mix-blend-mode:screen">
<path d="M88.0328 96.8616V98.7067L89.6422 99.6292V97.7841L88.0328 96.8616Z" fill="white"/>
</g>
<g style="mix-blend-mode:screen">
<path d="M90.0691 98.0237V99.8688L91.6785 100.791V98.9462L90.0691 98.0237Z" fill="#61ABEB"/>
</g>
<g style="mix-blend-mode:screen">
<path d="M92.1053 99.1768V101.031L93.7148 101.953V100.108L92.1053 99.1768Z" fill="white"/>
</g>
<g style="mix-blend-mode:screen">
<path d="M94.1416 100.339V102.193L95.7422 103.115V101.27L94.1416 100.339Z" fill="#61ABEB"/>
</g>
<g style="mix-blend-mode:screen">
<path d="M96.2491 104.011V105.865L97.8496 106.788V104.934L96.2491 104.011Z" fill="white"/>
</g>
<g style="mix-blend-mode:screen">
<path d="M98.2854 105.173V107.018L99.8859 107.95V106.096L98.2854 105.173Z" fill="#61ABEB"/>
</g>
<g style="mix-blend-mode:screen">
<path d="M100.313 106.335V108.181L101.922 109.112V107.258L100.313 106.335Z" fill="#61ABEB"/>
</g>
<g style="mix-blend-mode:screen">
<path d="M96.2491 101.465V103.31L97.8496 104.233V102.388L96.2491 101.465Z" fill="#61ABEB"/>
</g>
<g style="mix-blend-mode:screen">
<path d="M98.2854 102.627V104.473L99.8859 105.395V103.55L98.2854 102.627Z" fill="#61ABEB"/>
</g>
<g style="mix-blend-mode:screen">
<path d="M100.313 103.79V105.635L101.922 106.557V104.712L100.313 103.79Z" fill="white"/>
</g>
</g>
</g>
<g style="mix-blend-mode:screen">
<g style="mix-blend-mode:screen">
<g style="mix-blend-mode:screen">
<path d="M86.0054 109.52V111.374L87.6059 112.297V110.443L86.0054 109.52Z" fill="#61ABEB"/>
</g>
<g style="mix-blend-mode:screen">
<path d="M88.0328 110.682V112.536L89.6422 113.459V111.605L88.0328 110.682Z" fill="#61ABEB"/>
</g>
<g style="mix-blend-mode:screen">
<path d="M90.0691 111.844V113.698L91.6785 114.62V112.767L90.0691 111.844Z" fill="#61ABEB"/>
</g>
<g style="mix-blend-mode:screen">
<path d="M92.1053 113.006V114.86L93.7148 115.783V113.929L92.1053 113.006Z" fill="#61ABEB"/>
</g>
<g style="mix-blend-mode:screen">
<path d="M94.1416 114.168V116.013L95.7422 116.945V115.091L94.1416 114.168Z" fill="white"/>
</g>
<g style="mix-blend-mode:screen">
<path d="M86.0054 106.974V108.819L87.6059 109.751V107.897L86.0054 106.974Z" fill="#61ABEB"/>
</g>
<g style="mix-blend-mode:screen">
<path d="M88.0328 108.136V109.981L89.6422 110.913V109.059L88.0328 108.136Z" fill="white"/>
</g>
<g style="mix-blend-mode:screen">
<path d="M90.0691 109.298V111.143L91.6785 112.075V110.221L90.0691 109.298Z" fill="#61ABEB"/>
</g>
<g style="mix-blend-mode:screen">
<path d="M92.1053 110.46V112.305L93.7148 113.228V111.383L92.1053 110.46Z" fill="#61ABEB"/>
</g>
<g style="mix-blend-mode:screen">
<path d="M94.1416 111.622V113.467L95.7422 114.39V112.545L94.1416 111.622Z" fill="#61ABEB"/>
</g>
<g style="mix-blend-mode:screen">
<path d="M96.2491 115.295V117.14L97.8496 118.062V116.217L96.2491 115.295Z" fill="white"/>
</g>
<g style="mix-blend-mode:screen">
<path d="M98.2854 116.457V118.302L99.8859 119.224V117.379L98.2854 116.457Z" fill="#61ABEB"/>
</g>
<g style="mix-blend-mode:screen">
<path d="M100.313 117.61V119.464L101.922 120.387V118.542L100.313 117.61Z" fill="#61ABEB"/>
</g>
<g style="mix-blend-mode:screen">
<path d="M96.2491 112.74V114.594L97.8496 115.516V113.671L96.2491 112.74Z" fill="#61ABEB"/>
</g>
<g style="mix-blend-mode:screen">
<path d="M98.2854 113.902V115.756L99.8859 116.679V114.825L98.2854 113.902Z" fill="#61ABEB"/>
</g>
<g style="mix-blend-mode:screen">
<path d="M100.313 115.064V116.918L101.922 117.841V115.987L100.313 115.064Z" fill="#61ABEB"/>
</g>
</g>
</g>
<g style="mix-blend-mode:screen">
<g style="mix-blend-mode:screen">
<g style="mix-blend-mode:screen">
<path d="M86.0054 120.573V122.427L87.6059 123.349V121.504L86.0054 120.573Z" fill="#61ABEB"/>
</g>
<g style="mix-blend-mode:screen">
<path d="M88.0328 121.735V123.589L89.6422 124.511V122.666L88.0328 121.735Z" fill="#61ABEB"/>
</g>
<g style="mix-blend-mode:screen">
<path d="M90.0691 122.897V124.751L91.6785 125.673V123.819L90.0691 122.897Z" fill="white"/>
</g>
<g style="mix-blend-mode:screen">
<path d="M92.1053 124.059V125.913L93.7148 126.835V124.981L92.1053 124.059Z" fill="#61ABEB"/>
</g>
<g style="mix-blend-mode:screen">
<path d="M94.1416 125.221V127.075L95.7422 127.997V126.143L94.1416 125.221Z" fill="#61ABEB"/>
</g>
<g style="mix-blend-mode:screen">
<path d="M86.0054 118.027V119.881L87.6059 120.803V118.949L86.0054 118.027Z" fill="white"/>
</g>
<g style="mix-blend-mode:screen">
<path d="M88.0328 119.189V121.034L89.6422 121.965V120.112L88.0328 119.189Z" fill="#61ABEB"/>
</g>
<g style="mix-blend-mode:screen">
<path d="M90.0691 120.351V122.196L91.6785 123.128V121.274L90.0691 120.351Z" fill="#61ABEB"/>
</g>
<g style="mix-blend-mode:screen">
<path d="M92.1053 121.513V123.358L93.7148 124.289V122.435L92.1053 121.513Z" fill="#61ABEB"/>
</g>
<g style="mix-blend-mode:screen">
<path d="M94.1416 122.675V124.52L95.7422 125.452V123.598L94.1416 122.675Z" fill="#61ABEB"/>
</g>
<g style="mix-blend-mode:screen">
<path d="M96.2491 126.347V128.193L97.8496 129.115V127.27L96.2491 126.347Z" fill="#61ABEB"/>
</g>
<g style="mix-blend-mode:screen">
<path d="M98.2854 127.51V129.355L99.8859 130.277V128.432L98.2854 127.51Z" fill="white"/>
</g>
<g style="mix-blend-mode:screen">
<path d="M100.313 128.672V130.517L101.922 131.439V129.594L100.313 128.672Z" fill="#61ABEB"/>
</g>
<g style="mix-blend-mode:screen">
<path d="M96.2491 123.793V125.647L97.8496 126.569V124.724L96.2491 123.793Z" fill="white"/>
</g>
<g style="mix-blend-mode:screen">
<path d="M98.2854 124.955V126.809L99.8859 127.731V125.886L98.2854 124.955Z" fill="#61ABEB"/>
</g>
<g style="mix-blend-mode:screen">
<path d="M100.313 126.117V127.971L101.922 128.893V127.048L100.313 126.117Z" fill="#61ABEB"/>
</g>
</g>
</g>
<g clip-path="url(#clip0_1_601)">
<path d="M90.7535 128.84L85.2834 126.34C85.0701 126.242 84.8141 126.34 84.7193 126.556L80.548 136.111C80.4579 136.317 80.548 136.556 80.7518 136.649L86.3926 139.322C86.6106 139.425 86.8761 139.322 86.9661 139.102L90.9668 129.374C91.0521 129.168 90.9573 128.934 90.7535 128.84V128.84Z" fill="#494949"/>
<path d="M90.2653 129.618L85.0274 127.225L81.2401 135.9L86.6343 138.456L90.2653 129.618Z" fill="#F1F1F1"/>
<path d="M88.2934 135.474C88.2934 135.474 90.1373 134.814 90.0709 133.41C90.0709 133.41 90.0994 132.291 89.6491 132.455C89.6491 132.455 89.4121 133.25 88.9902 133.33C88.9902 133.33 88.5588 133.269 88.6726 132.824C88.6726 132.824 88.6536 132.515 88.4071 132.759C88.4071 132.759 88.3313 133.569 88.0232 133.882L87.3833 134.262" fill="#EEBCBA"/>
<path d="M69.8353 123.592L70.4562 121.523L71.3189 120.563L74.3858 122.539L73.708 125.123L69.8353 123.592Z" fill="#EEBCBA"/>
<path d="M75.1774 115.985C75.1774 115.985 78.8889 123.99 73.1771 123.096C73.1771 123.096 68.7877 121.949 68.527 118.152C68.527 118.152 68.8161 115.03 71.8546 114.932C71.8546 114.932 73.8217 114.58 75.1822 115.985H75.1774Z" fill="#EEBCBA"/>
<path d="M70.5937 114.318C70.5937 114.318 73.0491 112.947 75.9216 115.91C75.9216 115.91 75.0115 118.326 72.8026 119.801C72.8026 119.801 72.4187 120.545 72.0821 121.364C71.7645 122.146 70.7833 122.45 70.1007 121.945C69.5509 121.542 68.8873 121.097 68.3327 119.913C68.3327 119.913 66.7257 116.397 70.5937 114.314V114.318Z" fill="#202020"/>
<path d="M83.2736 137.543C83.3861 137.543 83.4774 137.453 83.4774 137.342C83.4774 137.231 83.3861 137.141 83.2736 137.141C83.161 137.141 83.0697 137.231 83.0697 137.342C83.0697 137.453 83.161 137.543 83.2736 137.543Z" fill="#F1F1F1"/>
<path d="M63.4266 181.381C63.8343 181.596 64.6685 181.863 65.4507 180.988C65.4507 180.988 66.5883 180.08 66.9865 179.902C67.3088 179.757 67.8729 178.975 67.797 178.404C67.7781 178.263 67.7259 178.142 67.6169 178.039C67.0718 177.514 65.7825 178.202 65.7825 178.202C65.7825 178.202 65.3179 178.432 65.2658 177.898C65.2658 177.898 63.9859 177.36 63.365 178.039C63.365 178.039 63.3176 179.448 63.1706 179.696C63.0616 179.883 62.9858 180.211 62.9953 180.548C62.9953 180.679 63.0142 180.805 63.0521 180.932C63.1043 181.124 63.2465 181.283 63.4219 181.376L63.4266 181.381Z" fill="#736357"/>
<path d="M71.4564 184.977C72.85 184.822 74.5565 184.672 75.6419 184.672C76.2629 184.672 76.5284 184.27 76.6421 183.928C76.6516 183.895 76.6611 183.862 76.6658 183.834C76.7132 183.577 76.6137 183.315 76.4004 183.156C76.0591 182.903 75.476 182.594 74.7129 182.687C74.7129 182.687 72.722 182.814 72.3997 181.676C72.3997 181.676 70.8354 180.693 69.9064 181.306C69.9064 181.306 69.7547 182.566 69.7689 183.539C69.7737 183.965 69.8116 184.34 69.9064 184.527C69.9064 184.527 70.0628 185.141 71.4564 184.986V184.977Z" fill="#736357"/>
<path d="M64.4789 149.729L63.9243 164.27C63.9243 164.27 62.8388 176.372 63.1469 178.207C63.1469 178.207 65.1615 179.125 65.7825 178.207L67.797 167.177L70.7454 156.916C70.7454 156.916 67.3515 149.126 64.4742 149.729H64.4789Z" fill="#202020"/>
<path d="M64.5453 146.499C64.5453 146.499 63.7679 149.561 65.3227 151.86C66.8727 154.158 69.6646 154.004 69.8211 156.457C69.9775 158.91 69.8211 165.492 69.8211 165.492C69.8211 165.492 69.5129 177.285 69.8211 181.423C69.8211 181.423 71.5275 183.109 72.613 181.423L74.784 164.266C74.784 164.266 76.7985 150.633 76.334 149.102C76.334 149.102 67.4936 145.427 64.5453 146.499V146.499Z" fill="#2D2D2D"/>
<path d="M74.0066 125.123L69.8353 123.593L66.1332 124.58C65.4127 124.772 64.8392 125.306 64.6116 126.004C64.1092 127.553 63.4551 130.601 64.223 134.575L63.0901 147.871C66.356 151.078 76.5189 149.346 76.5189 149.346L77.0687 127.399L74.0066 125.123V125.123Z" fill="#E87396"/>
<path d="M69.0058 123.813L69.5983 122.844C69.5983 122.844 73.0064 123.255 74.1535 124.388L74.3906 125.868C74.3906 125.868 70.7027 123.822 69.0058 123.813V123.813Z" fill="#E87396"/>
<path d="M77.0687 127.394L78.1163 128.18C78.5097 128.475 78.8084 128.878 78.9743 129.337L82.226 138.236L87.1984 134.004L88.5114 135.764C86.2362 138.686 83.9704 141.588 82.1075 143.255C81.5245 143.779 80.6144 143.648 80.183 142.993C78.7325 140.778 77.3863 138.667 76.3624 135.474L77.0687 127.398V127.394Z" fill="#E87396"/>
<path d="M88.2792 128.265C88.2792 128.265 88.2602 128.265 88.2555 128.26L87.3643 127.834C87.3359 127.82 87.3216 127.787 87.3359 127.754C87.3501 127.726 87.388 127.712 87.4165 127.726L88.3076 128.152C88.336 128.166 88.3503 128.199 88.336 128.232C88.3266 128.251 88.3029 128.265 88.2839 128.265H88.2792Z" fill="#F1F1F1"/>
<path d="M75.9216 115.91C75.9216 115.91 76.7559 117.066 74.7413 118.555C74.7413 118.555 73.7222 119.445 73.7412 120.124C73.7601 120.802 73.0728 119.913 72.997 119.154C72.9164 118.401 75.9216 115.91 75.9216 115.91V115.91Z" fill="#202020"/>
<path d="M73.3382 119.964C73.3382 120.414 72.9733 120.774 72.5182 120.774C72.0631 120.774 71.6982 120.414 71.6982 119.964C71.6982 119.515 72.0631 119.154 72.5182 119.154C72.9733 119.154 73.3382 119.515 73.3382 119.964Z" fill="#EEBCBA"/>
</g>
<g clip-path="url(#clip1_1_601)">
<path d="M189.628 220.956C189.628 220.956 183.783 220.177 183.542 216.224L188.139 213.557L189.628 220.956V220.956Z" fill="black"/>
<path d="M240.262 191.838C240.262 191.838 234.418 191.059 234.176 187.106L238.774 184.439L240.262 191.838Z" fill="black"/>
<path d="M178.028 204.899L151.006 189.26L151.019 202.283C151.019 202.682 151.235 203.049 151.579 203.252L178.225 218.91L178.034 217.89L178.022 204.899H178.028Z" fill="#F0F0F0"/>
<path d="M178.028 209.256L151.006 193.617L151.019 202.283C151.019 202.682 151.235 203.049 151.579 203.252L178.225 218.91L178.034 217.89L178.022 209.256H178.028Z" fill="#333333"/>
<path d="M252.987 162.112L225.966 146.466L171.859 177.269L198.874 192.908L252.987 162.112Z" fill="#B3B3B3"/>
<path d="M178.028 204.899L178.041 218.536C178.041 218.903 178.441 219.201 178.766 219.017L253 176.11L252.987 161.656L198.881 192.908L178.034 204.899H178.028Z" fill="#E8E6E6"/>
<path d="M198.874 192.908L171.859 177.269L151.006 189.26L178.028 204.898L198.874 192.908Z" fill="#EBF6F7"/>
<path d="M194.652 176.876L167.636 161.237L167.662 171.081L194.683 186.719L194.652 176.876Z" fill="#EBF6F7"/>
<path d="M178.022 202.054L151 186.416L151.006 189.26L178.028 204.899L178.022 202.054Z" fill="#F0F0F0"/>
<path d="M178.524 198.843L151.509 183.204C151.165 184.325 151 185.415 151 186.416L178.022 202.054C178.022 201.054 178.187 199.964 178.53 198.843H178.524Z" fill="#F0F0F0"/>
<path d="M194.683 186.72L167.662 171.081L152.533 179.777L179.554 195.416L194.683 186.72Z" fill="#EBF6F7"/>
<path d="M183.128 183.508L179.548 195.416L194.683 186.72L194.652 176.876L183.128 183.508Z" fill="#BAD8F9"/>
<path d="M179.554 195.416L152.533 179.777L151.509 183.204L178.524 198.843L179.554 195.416Z" fill="#F0F0F0"/>
<path d="M183.484 182.311L156.463 166.672L156.107 167.869L183.128 183.508L183.484 182.311Z" fill="#F3F3F3"/>
<path d="M194.652 176.876L167.636 161.237L156.107 167.869L183.128 183.508L194.652 176.876Z" fill="#F3F3F3"/>
<path d="M198.811 169.047L171.789 153.408L162.294 158.862L189.316 174.501L198.811 169.047Z" fill="#F0F0F0"/>
<path d="M183.128 183.508L156.107 167.869L152.533 179.777L179.548 195.416L183.128 183.508Z" fill="#BAD8F9"/>
<path d="M189.316 174.501C186.759 175.971 184.457 179.049 183.484 182.311L183.128 183.502L192.4 178.168C193.405 177.592 194.658 178.308 194.664 179.467L194.683 185.839C194.683 186.378 194.397 186.878 193.927 187.144L179.554 195.41L178.524 198.837C178.187 199.958 178.015 201.047 178.015 202.048V204.886L198.874 192.895L198.862 188.537L198.804 169.035L189.31 174.495L189.316 174.501Z" fill="#E8E6E6"/>
<path d="M189.316 174.501L162.294 158.862C159.738 160.332 157.436 163.41 156.463 166.672L183.484 182.311C184.464 179.049 186.759 175.971 189.316 174.501Z" fill="#F3F3F3"/>
<path d="M193.024 209.408C191.472 210.302 190.219 212.462 190.225 214.235C190.225 216.009 191.491 216.724 193.043 215.831C194.594 214.938 195.847 212.778 195.841 211.005C195.841 209.231 194.575 208.515 193.024 209.408V209.408Z" fill="#808080"/>
<path d="M199.567 208.864C199.58 213 196.668 218.029 193.049 220.107C189.437 222.184 186.499 220.525 186.486 216.389C186.473 212.252 189.392 207.223 193.011 205.146C196.623 203.068 199.555 204.734 199.567 208.87V208.864ZM193.043 215.838C194.594 214.944 195.847 212.785 195.841 211.011C195.841 209.237 194.575 208.522 193.024 209.415C191.472 210.308 190.219 212.468 190.225 214.241C190.225 216.015 191.491 216.731 193.043 215.838" fill="#333333"/>
<path d="M173.799 210.821C174.727 211.353 175.478 212.645 175.471 213.709C175.471 214.767 174.715 215.198 173.786 214.666C172.858 214.134 172.107 212.842 172.114 211.777C172.114 210.72 172.87 210.289 173.799 210.821Z" fill="#727272"/>
<path d="M173.792 211.385C174.447 211.759 174.975 212.671 174.969 213.418C174.969 214.166 174.435 214.47 173.78 214.09C173.125 213.716 172.597 212.804 172.603 212.056C172.603 211.309 173.137 211.005 173.792 211.385Z" fill="#F9E93B"/>
<path d="M154.396 199.331C155.324 199.863 156.075 201.155 156.069 202.219C156.069 203.277 155.312 203.708 154.383 203.176C153.455 202.644 152.704 201.352 152.711 200.287C152.711 199.23 153.467 198.799 154.396 199.331Z" fill="#727272"/>
<path d="M154.396 199.901C155.051 200.275 155.579 201.187 155.572 201.934C155.572 202.682 155.038 202.986 154.383 202.606C153.728 202.232 153.2 201.32 153.207 200.572C153.207 199.825 153.741 199.521 154.396 199.901Z" fill="#F9E93B"/>
<path d="M159.019 205.855L159.56 205.545C159.56 205.545 159.509 205.519 159.484 205.507L158.943 205.817C158.943 205.817 158.994 205.842 159.019 205.855Z" fill="#999999"/>
<path d="M158.937 205.811L159.477 205.5C159.439 205.481 159.401 205.469 159.363 205.456L158.822 205.766C158.86 205.779 158.898 205.792 158.937 205.811Z" fill="#949494"/>
<path d="M158.822 205.773L159.363 205.462C159.331 205.456 159.299 205.45 159.267 205.443L158.727 205.754C158.727 205.754 158.79 205.76 158.822 205.773Z" fill="#8F8F8F"/>
<path d="M158.727 205.754L159.267 205.443C159.267 205.443 159.204 205.443 159.178 205.443L158.638 205.754C158.638 205.754 158.695 205.754 158.727 205.754Z" fill="#8A8A8A"/>
<path d="M158.638 205.754L159.178 205.443C159.178 205.443 159.121 205.456 159.089 205.462L158.549 205.773C158.549 205.773 158.606 205.754 158.638 205.754Z" fill="#868686"/>
<path d="M158.549 205.773L159.089 205.462C159.089 205.462 159.051 205.475 159.032 205.488L158.491 205.798C158.491 205.798 158.53 205.779 158.549 205.773Z" fill="#818181"/>
<path d="M166.555 213.855L167.096 213.545C167.229 213.469 167.312 213.304 167.312 213.076L166.772 213.386C166.772 213.614 166.689 213.779 166.555 213.855Z" fill="#7E7E7E"/>
<path d="M166.765 213.386L167.306 213.07L167.312 210.84L166.772 211.157L166.765 213.386Z" fill="#868686"/>
<path d="M166.04 209.89L166.581 209.58L159.56 205.538L159.019 205.855L166.04 209.89Z" fill="#A8A8A8"/>
<path d="M159.019 205.855C158.612 205.621 158.282 205.811 158.282 206.273V208.503C158.275 208.965 158.6 209.529 159.007 209.763L166.034 213.804C166.441 214.039 166.772 213.849 166.772 213.386V211.157C166.778 210.694 166.454 210.131 166.047 209.896L159.019 205.855Z" fill="#DDDDDD"/>
<path d="M166.772 211.157L167.312 210.846C167.312 210.846 167.312 210.821 167.312 210.808L166.772 211.119C166.772 211.119 166.772 211.144 166.772 211.157Z" fill="#7E7E7E"/>
<path d="M166.772 211.119L167.312 210.809C167.312 210.758 167.306 210.707 167.293 210.656L166.752 210.967C166.759 211.018 166.765 211.068 166.772 211.119Z" fill="#818181"/>
<path d="M166.759 210.96L167.299 210.65C167.293 210.606 167.28 210.561 167.268 210.517L166.727 210.827C166.74 210.872 166.752 210.916 166.759 210.96Z" fill="#868686"/>
<path d="M166.727 210.827L167.268 210.517C167.255 210.473 167.242 210.428 167.223 210.39L166.683 210.701C166.702 210.745 166.714 210.789 166.727 210.827Z" fill="#8A8A8A"/>
<path d="M166.683 210.701L167.223 210.39C167.204 210.346 167.185 210.302 167.166 210.257L166.625 210.568C166.644 210.612 166.663 210.656 166.683 210.701Z" fill="#8F8F8F"/>
<path d="M166.632 210.568L167.172 210.257C167.147 210.207 167.121 210.156 167.096 210.112L166.555 210.422C166.581 210.473 166.613 210.517 166.632 210.568Z" fill="#949494"/>
<path d="M166.549 210.422L167.09 210.112C167.051 210.042 167.007 209.979 166.956 209.915L166.415 210.226C166.466 210.289 166.511 210.352 166.549 210.422Z" fill="#999999"/>
<path d="M166.415 210.226L166.956 209.915C166.873 209.808 166.778 209.719 166.676 209.643L166.136 209.953C166.237 210.029 166.333 210.118 166.415 210.226Z" fill="#9E9E9E"/>
<path d="M166.136 209.953L166.676 209.643C166.676 209.643 166.613 209.599 166.581 209.58L166.04 209.89C166.072 209.909 166.104 209.928 166.136 209.953Z" fill="#999999"/>
<path d="M177.678 180.354L165.824 187.473L152.533 179.777L164.514 172.734L177.678 180.354Z" fill="#C7DFFA"/>
<path d="M158.358 200.838C158.154 200.718 157.989 200.819 157.989 201.047C157.989 201.282 158.154 201.567 158.358 201.681L169.678 208.173C169.881 208.287 170.047 208.199 170.047 207.964C170.047 207.736 169.881 207.445 169.678 207.331L158.358 200.838Z" fill="#4D4D4D"/>
<path d="M158.358 199.293C158.154 199.173 157.989 199.274 157.989 199.502C157.989 199.736 158.154 200.021 158.358 200.135L169.678 206.628C169.881 206.742 170.047 206.653 170.047 206.419C170.047 206.191 169.881 205.9 169.678 205.786L158.358 199.293Z" fill="#4D4D4D"/>
<path d="M158.358 202.289C158.154 202.169 157.989 202.27 157.989 202.498C157.989 202.733 158.154 203.018 158.358 203.132L169.678 209.624C169.881 209.738 170.047 209.649 170.047 209.415C170.047 209.187 169.881 208.896 169.678 208.782L158.358 202.289Z" fill="#4D4D4D"/>
<path d="M183.128 183.508L179.312 196.214L177.678 195.169L181.468 182.545L183.128 183.508Z" fill="#F0F0F0"/>
<path d="M157.754 168.775L153.938 181.488L152.533 179.777L156.094 167.819L157.754 168.775Z" fill="#F0F0F0"/>
<path d="M182.575 203.017L182.073 202.726C181.983 202.675 181.856 202.682 181.723 202.758L182.225 203.049C182.365 202.973 182.486 202.96 182.575 203.017Z" fill="#F78BAD"/>
<path d="M180.076 205.152L180.578 205.444C180.489 205.393 180.432 205.285 180.432 205.127L179.929 204.835C179.929 204.987 179.987 205.101 180.076 205.152Z" fill="#F78BAD"/>
<path d="M180.432 204.652L179.929 204.36L179.936 204.835L180.432 205.127V204.652Z" fill="#F78BAD"/>
<path d="M182.225 203.049L181.723 202.764L180.425 203.512L180.921 203.797L182.225 203.049Z" fill="#F78BAD"/>
<path d="M180.921 203.796C180.648 203.955 180.425 204.335 180.432 204.645V205.12C180.432 205.431 180.654 205.557 180.928 205.399L182.231 204.652C182.505 204.493 182.728 204.113 182.728 203.803V203.328C182.728 203.017 182.505 202.891 182.231 203.049L180.928 203.796H180.921Z" fill="#F47099"/>
<path d="M180.921 203.796L180.419 203.505C180.146 203.663 179.923 204.044 179.929 204.354L180.432 204.645C180.432 204.335 180.654 203.955 180.921 203.796Z" fill="#F78BAD"/>
<path d="M198.874 163.955L253 132.873L252.987 161.656L198.874 192.908V163.955Z" fill="#72B5E8"/>
<path d="M243.658 180.291C242.106 181.184 240.853 183.344 240.86 185.117C240.86 186.891 242.125 187.606 243.677 186.713C245.229 185.82 246.482 183.66 246.475 181.887C246.475 180.113 245.21 179.397 243.658 180.291Z" fill="#808080"/>
<path d="M250.208 179.746C250.221 183.882 247.308 188.911 243.69 190.989C240.078 193.066 237.139 191.407 237.127 187.271C237.114 183.135 240.033 178.105 243.652 176.028C247.264 173.95 250.195 175.616 250.208 179.752V179.746ZM243.683 186.72C245.235 185.827 246.488 183.667 246.482 181.893C246.482 180.12 245.216 179.404 243.664 180.297C242.113 181.19 240.86 183.35 240.866 185.123C240.866 186.897 242.132 187.613 243.683 186.72Z" fill="#333333"/>
<path d="M154.167 180.721L157.754 168.75L181.468 182.545L181.335 182.989L157.938 169.307L154.498 180.918L154.167 180.721Z" fill="#8BA2BC"/>
<path d="M194.181 178.378C194.181 178.378 193.322 177.82 192.21 178.656L183.484 183.819L179.968 195.176L179.554 195.41L183.128 183.502L192.4 178.169C192.4 178.169 193.291 177.592 194.181 178.371V178.378Z" fill="#8BA2BC"/>
<path d="M198.874 163.955L171.287 148.272L225.622 117L253 132.873L198.874 163.955Z" fill="#D1EBFF"/>
<g style="mix-blend-mode:multiply">
<path d="M198.874 163.955L198.811 169.047L171.789 153.408L171.331 153.668L171.325 153.136L171.287 148.271L198.874 163.955Z" fill="#A8CFF0"/>
</g>
<path d="M210.156 160.433L210.226 184.655L209.437 185.105L209.367 160.883L210.156 160.433Z" fill="#084C94"/>
<path d="M205.316 163.182L205.38 187.404L204.598 187.86L204.528 163.638L205.316 163.182Z" fill="#084C94"/>
<path d="M214.996 157.646L215.066 181.868L214.277 182.324L214.207 158.102L214.996 157.646Z" fill="#084C94"/>
<path d="M219.835 154.865L219.905 179.087L219.117 179.537L219.047 155.315L219.835 154.865Z" fill="#084C94"/>
<path d="M224.675 152.078L224.745 176.3L223.956 176.756L223.893 152.534L224.675 152.078Z" fill="#084C94"/>
<path d="M229.514 149.298L229.584 173.52L228.796 173.969L228.732 149.748L229.514 149.298Z" fill="#084C94"/>
<path d="M234.36 146.511L234.43 170.732L233.642 171.188L233.572 146.967L234.36 146.511Z" fill="#084C94"/>
<path d="M239.2 143.73L239.27 167.952L238.481 168.408L238.411 144.18L239.2 143.73Z" fill="#084C94"/>
<path d="M244.039 140.943L244.109 165.165L243.321 165.621L243.251 141.399L244.039 140.943Z" fill="#084C94"/>
<path d="M248.879 138.162L248.949 162.384L248.167 162.834L248.097 138.612L248.879 138.162Z" fill="#084C94"/>
</g>
<defs>
<filter id="filter0_d_1_601" x="25.0371" y="71.8989" width="264.309" height="179.205" filterUnits="userSpaceOnUse" color-interpolation-filters="sRGB">
<feFlood flood-opacity="0" result="BackgroundImageFix"/>
<feColorMatrix in="SourceAlpha" type="matrix" values="0 0 0 0 0 0 0 0 0 0 0 0 0 0 0 0 0 0 127 0" result="hardAlpha"/>
<feOffset dy="5"/>
<feComposite in2="hardAlpha" operator="out"/>
<feColorMatrix type="matrix" values="0 0 0 0 0.0901961 0 0 0 0 0.419608 0 0 0 0 0.258824 0 0 0 1 0"/>
<feBlend mode="normal" in2="BackgroundImageFix" result="effect1_dropShadow_1_601"/>
<feBlend mode="normal" in="SourceGraphic" in2="effect1_dropShadow_1_601" result="shape"/>
</filter>
<clipPath id="clip0_1_601">
<rect width="28" height="71" fill="white" transform="translate(63 114)"/>
</clipPath>
<clipPath id="clip1_1_601">
<rect width="102" height="104" fill="white" transform="translate(151 117)"/>
</clipPath>
</defs>
</svg>
