<svg width="317" height="208" viewBox="0 0 317 208" fill="none" xmlns="http://www.w3.org/2000/svg">
<g filter="url(#filter0_d_1_506)">
<path d="M61.7667 83.2568L145.282 35.5823C152.828 31.2751 156.6 29.1214 160.614 28.3315C163.877 27.6896 167.234 27.7048 170.49 28.3762C174.497 29.2024 178.25 31.3901 185.756 35.7655L255.752 76.5667C275.989 88.3631 286.107 94.2613 289.338 102.013C291.919 108.207 291.902 115.177 289.292 121.358C286.024 129.095 275.877 134.944 255.584 146.643L172.854 194.337L172.853 194.337C165.33 198.674 161.568 200.843 157.559 201.65C154.301 202.306 150.945 202.306 147.687 201.649C143.678 200.841 139.916 198.672 132.393 194.334L132.393 194.334L61.6117 153.513C41.1385 141.706 30.9019 135.803 27.6418 128.021C25.0377 121.806 25.0532 114.802 27.6846 108.599C30.979 100.832 41.2416 94.9734 61.7667 83.2568Z" fill="#5DA481"/>
</g>
<g clip-path="url(#clip0_1_506)">
<path d="M165.49 0.39001L85.9 44.36C83.49 45.75 82 48.82 82 51.6L82.28 120.36C82.28 121.81 83.04 123 84.12 123.67L87.69 125.43L88.63 124.1C88.71 124.06 88.78 124.02 88.86 123.98L167.43 78.88C169.84 77.49 171.32 74.92 171.32 72.14L172.74 4.29001C172.74 2.85001 172.82 2.22001 169.51 0.73001C168.2 0.14001 166.84 -0.38999 165.49 0.38001V0.39001Z" fill="#A2CFEE"/>
<path d="M91.31 125.25C88.72 126.75 85.47 124.88 85.47 121.88L85.19 53.11C85.19 50.33 86.68 47.76 89.09 46.37L167.94 2.15C170.53 0.659999 173.77 2.53 173.77 5.52V73.41C173.77 76.19 172.29 78.76 169.88 80.15L91.31 125.25Z" fill="#D8EDFF"/>
<path d="M168.59 7.89001V71.65L91.09 116.12L90.82 51.38L168.59 7.89001Z" fill="white"/>
<path d="M166.44 9.01002V72.77L168.59 71.65V7.89001L166.44 9.01002Z" fill="#5F98DC"/>
<path d="M166.42 70.7L91.09 113.67V116.12L168.59 71.65L166.42 70.7Z" fill="#74AAE1"/>
<path d="M231.07 115.46V111.52H229.26V114.04L149.69 159.74C149.4 159.9 149.1 160.05 148.77 160.17C148.71 160.2 148.63 160.21 148.57 160.24C148.3 160.33 148.03 160.42 147.75 160.49C147.7 160.5 147.66 160.52 147.6 160.53C147.27 160.6 146.94 160.66 146.6 160.7C146.55 160.7 146.5 160.71 146.45 160.72C146.11 160.76 145.76 160.78 145.41 160.78H145.31C144.95 160.78 144.59 160.76 144.23 160.72C144.19 160.72 144.15 160.71 144.11 160.7C143.84 160.67 143.58 160.62 143.33 160.57C143.12 160.53 142.92 160.48 142.72 160.42C142.53 160.37 142.34 160.31 142.16 160.25C142.08 160.22 142 160.19 141.92 160.16C141.62 160.04 141.33 159.91 141.07 159.76L90.52 130.63C90.42 130.57 90.32 130.51 90.23 130.44C90.18 130.41 90.13 130.37 90.08 130.34C90 130.28 89.94 130.23 89.87 130.17C89.82 130.13 89.77 130.09 89.73 130.06C89.68 130.02 89.65 129.98 89.6 129.94C89.51 129.85 89.43 129.76 89.35 129.67C89.32 129.64 89.29 129.6 89.26 129.56L89.11 129.34C89.11 129.34 89.05 129.25 89.03 129.2L88.94 129.01C88.94 129.01 88.9 128.92 88.88 128.87L88.83 128.68C88.82 128.63 88.8 128.58 88.79 128.52L88.77 128.36C88.77 128.29 88.75 128.23 88.75 128.16V131.96L88.77 132.09C88.77 132.15 88.78 132.21 88.79 132.28V132.31L88.83 132.43C88.85 132.49 88.86 132.55 88.88 132.61V132.65L88.95 132.76C88.98 132.82 89.01 132.89 89.04 132.95L89.06 133L89.12 133.09C89.16 133.16 89.21 133.23 89.26 133.3L89.31 133.37C89.31 133.37 89.35 133.41 89.37 133.44C89.44 133.53 89.52 133.61 89.61 133.69C89.64 133.72 89.66 133.75 89.69 133.77C89.7 133.78 89.72 133.8 89.74 133.81C89.78 133.85 89.83 133.89 89.88 133.93C89.95 133.99 90.02 134.05 90.1 134.1C90.14 134.13 90.19 134.16 90.23 134.19C90.31 134.24 90.38 134.29 90.46 134.34L90.54 134.38L141.09 163.51C141.36 163.67 141.65 163.8 141.95 163.92C142.01 163.95 142.08 163.97 142.15 164C142.24 164.03 142.33 164.07 142.42 164.1C142.53 164.14 142.66 164.15 142.77 164.19C142.96 164.24 143.15 164.29 143.35 164.33C143.43 164.34 143.5 164.37 143.57 164.38C143.75 164.41 143.93 164.43 144.12 164.46C144.17 164.46 144.21 164.48 144.26 164.48C144.29 164.48 144.32 164.48 144.35 164.49C144.57 164.51 144.8 164.53 145.03 164.53C145.12 164.53 145.22 164.53 145.31 164.53H145.44C145.51 164.53 145.58 164.53 145.65 164.53C145.85 164.53 146.05 164.51 146.25 164.5C146.33 164.5 146.4 164.48 146.48 164.48C146.52 164.48 146.57 164.48 146.61 164.47C146.69 164.46 146.77 164.45 146.84 164.44C147.04 164.41 147.24 164.38 147.44 164.33C147.49 164.33 147.54 164.3 147.6 164.29C147.66 164.28 147.71 164.26 147.77 164.25C147.87 164.22 147.98 164.2 148.08 164.17C148.26 164.12 148.42 164.06 148.59 164C148.65 163.98 148.71 163.96 148.77 163.94C148.78 163.94 148.8 163.94 148.81 163.93C149.12 163.81 149.41 163.67 149.69 163.51L229.26 117.82L229.52 117.68C230.77 116.98 231.02 115.98 231.06 115.49L231.07 115.46Z" fill="#5F98DC"/>
<path d="M90.56 125.62C88.18 126.99 88.17 129.23 90.53 130.6L141.08 159.73C143.45 161.1 147.31 161.1 149.69 159.73L229.26 114.03C231.65 112.65 231.67 110.41 229.3 109.04L178.75 79.91C176.38 78.53 172.52 78.53 170.13 79.91L90.56 125.62Z" fill="#BDE0F3"/>
<path d="M175.73 90.1901C175.91 90.2901 175.91 90.4501 175.74 90.5501L171.73 92.88C171.56 92.98 171.29 92.97 171.12 92.88L166.96 90.4801C166.79 90.3801 166.78 90.2201 166.95 90.1201L170.96 87.79C171.13 87.69 171.4 87.7 171.57 87.79L175.73 90.1901Z" fill="#5F98DC"/>
<path d="M169.14 94.02C169.31 94.12 169.32 94.28 169.14 94.37L165.13 96.7C164.96 96.8 164.69 96.79 164.51 96.7L160.35 94.3C160.18 94.2 160.17 94.04 160.34 93.94L164.35 91.61C164.52 91.51 164.79 91.51 164.97 91.61L169.13 94.01L169.14 94.02Z" fill="#5F98DC"/>
<path d="M172.33 99.29C172.5 99.39 172.51 99.55 172.33 99.65L168.32 101.98C168.15 102.08 167.88 102.07 167.7 101.98L163.54 99.58C163.37 99.48 163.36 99.32 163.53 99.22L167.54 96.89C167.71 96.79 167.98 96.8 168.16 96.89L172.32 99.29H172.33Z" fill="#5F98DC"/>
<path d="M162.55 97.8401C162.72 97.9401 162.73 98.1001 162.55 98.2001L158.54 100.53C158.38 100.62 158.1 100.62 157.93 100.53L153.77 98.1301C153.6 98.0301 153.59 97.8701 153.76 97.7801L157.77 95.4501C157.94 95.3501 158.21 95.3601 158.39 95.4501L162.55 97.8501V97.8401Z" fill="#5F98DC"/>
<path d="M165.65 103.18C165.82 103.28 165.83 103.44 165.65 103.54L161.64 105.87C161.47 105.97 161.2 105.97 161.02 105.87L156.86 103.47C156.69 103.37 156.68 103.21 156.85 103.11L160.86 100.78C161.02 100.68 161.3 100.68 161.48 100.78L165.64 103.18H165.65Z" fill="#5F98DC"/>
<path d="M155.96 101.67C156.13 101.77 156.14 101.93 155.97 102.03L151.96 104.36C151.8 104.45 151.52 104.45 151.35 104.36L147.19 101.96C147.02 101.86 147.01 101.7 147.18 101.6L151.19 99.27C151.36 99.17 151.63 99.18 151.81 99.27L155.97 101.67H155.96Z" fill="#5F98DC"/>
<path d="M158.96 107.07C159.13 107.17 159.14 107.33 158.96 107.43L154.95 109.76C154.78 109.86 154.51 109.86 154.33 109.76L150.17 107.36C149.99 107.26 149.99 107.1 150.16 107L154.17 104.67C154.34 104.57 154.61 104.57 154.79 104.67L158.95 107.07H158.96Z" fill="#5F98DC"/>
<path d="M149.37 105.51C149.54 105.61 149.55 105.76 149.38 105.86L145.37 108.19C145.2 108.29 144.93 108.29 144.75 108.19L140.59 105.79C140.41 105.69 140.41 105.53 140.58 105.43L144.59 103.1C144.75 103 145.03 103.01 145.2 103.1L149.36 105.5L149.37 105.51Z" fill="#5F98DC"/>
<path d="M143.08 109.16C143.25 109.26 143.26 109.42 143.09 109.52L139.08 111.85C138.92 111.95 138.64 111.94 138.47 111.85L134.31 109.45C134.14 109.35 134.13 109.19 134.3 109.1L138.31 106.77C138.48 106.67 138.75 106.67 138.93 106.77L143.09 109.17L143.08 109.16Z" fill="#5F98DC"/>
<path d="M152.17 111.01C152.34 111.11 152.35 111.27 152.17 111.37L148.16 113.7C147.99 113.79 147.72 113.79 147.55 113.7L143.39 111.3C143.22 111.2 143.21 111.04 143.38 110.95L147.39 108.62C147.56 108.53 147.83 108.53 148.01 108.62L152.17 111.02V111.01Z" fill="#5F98DC"/>
<path d="M175.1 105.21C175.27 105.31 175.28 105.47 175.1 105.57L171.09 107.9C170.92 108 170.64 108 170.47 107.9L166.31 105.5C166.14 105.4 166.14 105.24 166.31 105.14L170.32 102.81C170.49 102.72 170.76 102.72 170.94 102.81L175.1 105.21Z" fill="#5F98DC"/>
<path d="M168.44 109.08C168.61 109.18 168.62 109.34 168.45 109.44L164.44 111.77C164.27 111.86 164 111.86 163.83 111.77L159.67 109.37C159.5 109.27 159.5 109.11 159.67 109.02L163.68 106.69C163.85 106.59 164.12 106.59 164.3 106.69L168.46 109.09L168.44 109.08Z" fill="#5F98DC"/>
<path d="M161.78 112.95C161.95 113.05 161.96 113.21 161.79 113.3L157.78 115.63C157.61 115.73 157.34 115.72 157.16 115.63L153 113.23C152.83 113.13 152.82 112.97 153 112.87L157.01 110.54C157.18 110.44 157.45 110.45 157.62 110.54L161.78 112.94V112.95Z" fill="#5F98DC"/>
<path d="M155.15 116.8C155.32 116.9 155.33 117.06 155.15 117.16L151.14 119.49C150.97 119.59 150.7 119.58 150.53 119.49L146.37 117.08C146.2 116.98 146.19 116.82 146.37 116.73L150.38 114.4C150.55 114.3 150.82 114.3 150.99 114.4L155.15 116.8V116.8Z" fill="#5F98DC"/>
<path d="M194.11 100.79C194.57 101.06 194.8 101.26 194.28 101.56L181.39 109.05C180.87 109.35 180.27 109.22 180.1 109.12L176.34 106.95C176.17 106.85 176.09 106.59 176.6 106.29L189.49 98.8C190.01 98.5 190.33 98.62 190.51 98.72C190.68 98.81 193.84 100.64 194.11 100.8V100.79Z" fill="#5F98DC"/>
<path d="M178.49 110.37C178.66 110.47 178.67 110.63 178.5 110.73L174.49 113.06C174.33 113.16 174.05 113.15 173.88 113.06L169.72 110.66C169.54 110.56 169.54 110.4 169.71 110.3L173.72 107.97C173.89 107.87 174.16 107.88 174.34 107.97L178.5 110.37H178.49Z" fill="#5F98DC"/>
<path d="M171.78 114.27C171.95 114.37 171.96 114.53 171.79 114.62L167.78 116.95C167.61 117.05 167.34 117.04 167.16 116.95L163 114.55C162.83 114.45 162.82 114.29 162.99 114.19L167 111.86C167.16 111.77 167.44 111.77 167.61 111.86L171.77 114.26L171.78 114.27Z" fill="#5F98DC"/>
<path d="M164.88 118.28C165.05 118.38 165.06 118.54 164.9 118.63L160.89 120.96C160.72 121.06 160.45 121.05 160.27 120.96L156.11 118.56C155.94 118.46 155.93 118.3 156.1 118.2L160.11 115.87C160.28 115.77 160.55 115.78 160.73 115.87L164.89 118.27L164.88 118.28Z" fill="#5F98DC"/>
<path d="M158.17 122.18C158.34 122.28 158.35 122.44 158.18 122.54L154.17 124.87C154 124.97 153.72 124.96 153.55 124.87L149.39 122.47C149.22 122.37 149.21 122.21 149.38 122.11L153.39 119.78C153.55 119.68 153.83 119.68 154.01 119.78L158.17 122.18Z" fill="#5F98DC"/>
<path d="M200.94 104.73C201.11 104.83 201.17 105.07 200.96 105.19L193.31 109.64C193.1 109.76 192.61 109.77 192.44 109.67L188.37 107.32C188.2 107.22 188.32 107 188.52 106.88L196.17 102.43C196.37 102.31 196.69 102.28 196.86 102.38L200.93 104.73H200.94Z" fill="#5F98DC"/>
<path d="M181.6 93.83C181.77 93.93 181.83 94.17 181.62 94.29L174.56 98.44C174.35 98.56 173.86 98.57 173.69 98.47L169.62 96.12C169.45 96.02 169.57 95.8 169.77 95.68L176.84 91.53C177.05 91.41 177.36 91.38 177.53 91.48L181.6 93.83V93.83Z" fill="#5F98DC"/>
<path d="M191.1 110.46C191.27 110.56 191.38 110.77 191.17 110.9L183.52 115.35C183.31 115.47 182.78 115.5 182.61 115.4L178.54 113.05C178.37 112.95 178.54 112.7 178.74 112.58L186.39 108.13C186.6 108.01 186.86 108.01 187.04 108.11L191.11 110.46H191.1Z" fill="#5F98DC"/>
<path d="M180.96 116.34C181.13 116.44 181.25 116.65 180.93 116.84C180.6 117.03 158.51 129.87 158.2 130.05C157.89 130.23 157.47 130.2 157.29 130.09L153.22 127.74C153.05 127.64 153.02 127.51 153.26 127.37C156.86 125.28 175.49 114.45 176.47 113.88C176.47 113.88 176.36 113.94 176.14 114.07C176.45 113.89 176.72 113.88 176.89 113.98L180.96 116.33V116.34Z" fill="#5F98DC"/>
<path d="M136.49 112.99C136.66 113.09 136.67 113.25 136.5 113.35L132.49 115.68C132.32 115.78 132.05 115.78 131.88 115.68L127.72 113.28C127.55 113.18 127.54 113.02 127.71 112.92L131.72 110.59C131.89 110.49 132.16 110.5 132.34 110.59L136.5 112.99H136.49Z" fill="#5F98DC"/>
<path d="M145.48 114.9C145.65 115 145.66 115.16 145.48 115.26L141.47 117.59C141.31 117.69 141.03 117.68 140.86 117.59L136.7 115.19C136.53 115.09 136.52 114.93 136.69 114.83L140.7 112.5C140.87 112.4 141.14 112.4 141.32 112.5L145.48 114.9V114.9Z" fill="#5F98DC"/>
<path d="M129.9 116.82C130.08 116.92 130.08 117.08 129.91 117.18L125.9 119.51C125.73 119.61 125.46 119.6 125.29 119.51L121.13 117.11C120.96 117.01 120.95 116.85 121.12 116.75L125.13 114.42C125.3 114.32 125.57 114.32 125.75 114.42L129.91 116.82H129.9Z" fill="#5F98DC"/>
<path d="M138.79 118.78C138.96 118.88 138.97 119.04 138.79 119.14L134.78 121.47C134.61 121.56 134.34 121.56 134.17 121.47L130.01 119.07C129.84 118.97 129.83 118.81 129.99 118.71L134 116.38C134.17 116.28 134.44 116.28 134.62 116.38L138.78 118.78H138.79Z" fill="#5F98DC"/>
<path d="M123.31 120.65C123.48 120.75 123.49 120.91 123.32 121L119.31 123.33C119.14 123.43 118.87 123.42 118.7 123.33L114.54 120.93C114.37 120.83 114.36 120.67 114.53 120.57L118.54 118.24C118.71 118.14 118.98 118.14 119.16 118.24L123.32 120.64L123.31 120.65Z" fill="#5F98DC"/>
<path d="M132.1 122.67C132.27 122.77 132.28 122.93 132.11 123.03L128.1 125.36C127.94 125.46 127.66 125.45 127.49 125.36L123.33 122.96C123.15 122.86 123.15 122.7 123.32 122.6L127.33 120.27C127.5 120.17 127.78 120.18 127.95 120.27L132.11 122.67H132.1Z" fill="#5F98DC"/>
<path d="M148.49 120.67C148.66 120.77 148.66 120.93 148.49 121.02L144.48 123.35C144.31 123.45 144.04 123.44 143.87 123.35L139.71 120.95C139.54 120.85 139.53 120.69 139.71 120.6L143.72 118.27C143.88 118.18 144.16 118.18 144.33 118.27L148.49 120.67Z" fill="#5F98DC"/>
<path d="M116.72 124.48C116.89 124.58 116.9 124.74 116.72 124.84L112.71 127.17C112.54 127.27 112.27 127.26 112.09 127.17L107.93 124.76C107.76 124.66 107.76 124.5 107.93 124.4L111.94 122.07C112.11 121.97 112.39 121.97 112.56 122.07L116.72 124.47V124.48Z" fill="#5F98DC"/>
<path d="M129.36 128.27C129.53 128.37 129.59 128.53 129.32 128.69L122.35 132.72C122.08 132.88 121.89 132.8 121.72 132.7L114.17 128.35C114 128.25 113.82 128.12 114.09 127.96L121 123.94C121.27 123.79 121.58 123.84 121.75 123.94L129.37 128.27H129.36Z" fill="#5F98DC"/>
<path d="M141.83 124.55C142 124.65 142.01 124.81 141.84 124.91L137.83 127.24C137.66 127.34 137.39 127.33 137.21 127.24L133.05 124.84C132.88 124.74 132.88 124.58 133.04 124.49L137.05 122.16C137.22 122.06 137.49 122.07 137.66 122.16L141.82 124.57L141.83 124.55Z" fill="#5F98DC"/>
<path d="M151.46 126.08C151.63 126.18 151.64 126.34 151.47 126.44L147.46 128.77C147.29 128.87 147.02 128.86 146.84 128.77L142.68 126.36C142.51 126.26 142.5 126.1 142.67 126L146.68 123.67C146.85 123.57 147.12 123.58 147.29 123.67L151.45 126.07L151.46 126.08Z" fill="#5F98DC"/>
<path d="M144.76 129.98C144.93 130.08 144.94 130.24 144.76 130.34L140.75 132.67C140.58 132.77 140.31 132.76 140.13 132.67L135.97 130.27C135.8 130.17 135.79 130.01 135.96 129.91L139.97 127.58C140.14 127.48 140.41 127.49 140.59 127.58L144.75 129.98H144.76Z" fill="#5F98DC"/>
<path d="M135.39 128C135.56 128.1 135.57 128.15 135.18 128.38L125.42 134.05C125.03 134.27 124.69 134.42 124.51 134.33L120.44 131.98C120.27 131.88 120.41 131.82 120.79 131.59L130.72 125.82C131.11 125.59 131.13 125.56 131.31 125.66L135.38 128.01L135.39 128Z" fill="#5F98DC"/>
<path d="M187.76 97.4201C187.93 97.5201 187.94 97.5701 187.55 97.7901L177.79 103.46C177.4 103.68 177.06 103.83 176.88 103.73L172.81 101.38C172.64 101.28 172.77 101.22 173.16 100.99L183.09 95.2201C183.48 94.9901 183.51 94.9601 183.68 95.0601L187.75 97.4101L187.76 97.4201Z" fill="#5F98DC"/>
<path d="M138.31 133.51C138.48 133.61 138.66 133.88 138.38 134.04L131.54 138.01C131.26 138.18 130.91 138.01 130.73 137.91L126.66 135.56C126.49 135.46 126.47 135.42 126.75 135.25L133.59 131.28C133.87 131.12 134.06 131.06 134.24 131.16L138.31 133.52V133.51Z" fill="#5F98DC"/>
<path d="M155.66 131.05C155.83 131.15 155.77 131.46 155.57 131.58L147.92 136.03C147.71 136.15 147.34 136.09 147.16 135.99L143.09 133.64C142.92 133.54 142.92 133.38 143.13 133.26L150.78 128.81C150.99 128.69 151.42 128.59 151.59 128.69L155.66 131.04V131.05Z" fill="#5F98DC"/>
<path d="M145.81 136.77C145.98 136.87 145.97 137.15 145.76 137.27L138.11 141.72C137.9 141.84 137.48 141.81 137.31 141.71L133.24 139.36C133.06 139.26 133.12 139.08 133.32 138.96L140.97 134.51C141.18 134.39 141.56 134.32 141.73 134.42L145.8 136.77H145.81Z" fill="#5F98DC"/>
<path d="M159.51 133.54C159.25 133.69 159.28 133.83 159.46 133.93L170.58 139.93C170.77 140.04 171.2 140.07 171.54 139.88C171.71 139.78 177.94 136.26 184.02 132.82L172.21 126.32C166.85 129.34 161.33 132.47 159.51 133.53V133.54Z" fill="#5F98DC"/>
<path d="M196.88 125.07L185.76 119.07C185.58 118.96 185.3 118.98 184.97 119.16C185.21 119.02 185.32 118.96 185.32 118.96C184.78 119.27 179.22 122.4 173.46 125.66L185.27 132.16C191.04 128.89 196.68 125.71 196.85 125.61C197.19 125.41 197.07 125.19 196.89 125.08L196.88 125.07Z" fill="#5F98DC"/>
<path d="M189.47 7.52002V71.46L111.76 116.76L111.48 51.83L189.47 7.52002Z" fill="#FFDF57"/>
<path d="M153.42 43.2901L153.43 45.9501L178.06 31.4501V28.8L153.42 43.2901Z" fill="white"/>
<path d="M153.42 49.5L153.43 52.16L178.06 37.66V35.01L153.42 49.5Z" fill="white"/>
<path d="M153.42 55.7101L153.43 58.3701L178.06 43.8701V41.2101L153.42 55.7101Z" fill="white"/>
<path d="M153.42 61.92L153.43 64.58L178.06 50.08V47.42L153.42 61.92Z" fill="white"/>
<path d="M153.42 68.13L153.43 70.78L178.06 56.29V53.63L153.42 68.13Z" fill="white"/>
<path d="M153.42 74.3301L153.43 76.9901L178.06 62.4901V59.8401L153.42 74.3301Z" fill="white"/>
<path d="M136.39 80.86C135.84 81.23 135.3 81.47 134.79 81.58L133.34 88.95C134.45 88.7 135.62 88.18 136.83 87.37C138.04 86.56 139.18 85.53 140.22 84.35C141.3 83.12 142.28 81.72 143.1 80.24C143.94 78.74 144.62 77.15 145.13 75.54C145.63 73.96 145.95 72.36 146.06 70.82C146.11 70.08 146.12 69.34 146.06 68.63C146.01 67.92 145.91 67.25 145.76 66.64C145.46 65.37 144.96 64.32 144.29 63.52C143.62 62.7 142.78 62.13 141.82 61.83C140.87 61.53 139.8 61.5 138.65 61.76C137.54 62.01 136.37 62.53 135.16 63.34L135.61 69.86C136.16 69.49 136.7 69.25 137.21 69.14C137.73 69.02 138.22 69.04 138.66 69.17C139.1 69.31 139.48 69.57 139.79 69.95C140.09 70.32 140.32 70.8 140.46 71.38C140.53 71.66 140.58 71.96 140.6 72.29C140.62 72.62 140.62 72.95 140.6 73.29C140.55 74 140.4 74.73 140.18 75.45C139.95 76.19 139.64 76.92 139.25 77.6C138.87 78.28 138.43 78.92 137.93 79.48C137.45 80.02 136.93 80.49 136.38 80.87" fill="#A2CFEE"/>
<path d="M126.88 75.17C126.38 76.75 126.06 78.35 125.95 79.89C125.9 80.64 125.89 81.37 125.95 82.08C126 82.79 126.1 83.46 126.25 84.07C126.55 85.34 127.05 86.39 127.71 87.2C128.38 88.02 129.22 88.59 130.18 88.89C131.13 89.19 132.2 89.22 133.35 88.96L134.8 81.59C134.27 81.71 133.78 81.69 133.35 81.56C132.91 81.42 132.53 81.16 132.22 80.78C131.92 80.41 131.69 79.93 131.55 79.35C131.48 79.07 131.43 78.77 131.41 78.44C131.39 78.11 131.39 77.78 131.41 77.44C131.46 76.73 131.61 76 131.83 75.28L126.88 75.18" fill="#33DDBC"/>
<path d="M128.9 70.4701C128.07 71.9701 127.38 73.5601 126.87 75.1701L131.82 75.2701C132.05 74.5301 132.36 73.8001 132.75 73.1201C133.13 72.4401 133.58 71.8001 134.07 71.2401C134.55 70.7001 135.07 70.2301 135.63 69.8501L135.18 63.3301C133.97 64.1401 132.83 65.1701 131.79 66.3601C130.71 67.5901 129.74 68.9901 128.91 70.4701" fill="white"/>
<path d="M124.64 59.05L124.65 65.42L146.27 52.89V46.52L124.64 59.05Z" fill="white"/>
</g>
<g clip-path="url(#clip1_1_506)">
<path d="M247.362 81.2274V79.2422C247.362 77.4748 247.362 75.7558 247.362 74.0611V69.4127C247.362 68.5895 246.853 67.7664 245.761 67.1127C243.577 65.8053 239.985 65.7811 237.729 67.04C236.879 67.5243 236.345 68.1295 236.127 68.759C236.054 68.9769 236.03 69.1706 236.03 69.3885L235.957 98.7074C235.957 98.7074 235.981 98.9253 236.006 99.0464C236.006 99.1432 236.006 99.2158 236.054 99.3127C236.103 99.4337 236.176 99.5548 236.224 99.6758C236.273 99.7485 236.297 99.8453 236.345 99.9179C236.442 100.039 236.564 100.16 236.661 100.281C236.734 100.354 236.758 100.426 236.831 100.475C237.025 100.668 237.267 100.838 237.534 100.983C239.718 102.291 243.31 102.315 245.567 101.056C245.858 100.886 246.1 100.717 246.319 100.547C246.392 100.499 246.44 100.426 246.489 100.354C246.61 100.233 246.756 100.112 246.853 99.9664C246.901 99.8937 246.95 99.7969 246.974 99.7243C247.047 99.6032 247.12 99.4821 247.168 99.3611C247.192 99.2643 247.192 99.1916 247.217 99.0948C247.241 98.9737 247.265 98.8527 247.29 98.7316C247.29 93.5022 247.314 87.2558 247.338 81.179L247.362 81.2274Z" fill="#0D85C4"/>
<path d="M247.38 69.4008C247.385 67.5823 244.847 66.1011 241.711 66.0923C238.575 66.0836 236.028 67.5507 236.023 69.3691C236.018 71.1876 238.556 72.6688 241.692 72.6776C244.828 72.6863 247.375 71.2192 247.38 69.4008Z" fill="#B3E1ED"/>
<path d="M245.712 77.5716C243.48 78.8306 239.888 78.7821 237.704 77.499C236.637 76.8695 236.103 76.0221 236.103 75.199V77.9348C236.103 78.7579 236.637 79.5811 237.704 80.2348C239.888 81.5421 243.48 81.5663 245.712 80.3074C246.003 80.1379 246.246 79.9684 246.464 79.799C247.095 79.2421 247.435 78.6127 247.435 77.9832V75.2474C247.435 76.0948 246.877 76.9421 245.736 77.5958L245.712 77.5716Z" fill="#E6FAFF"/>
<path d="M245.05 69.5158C245.053 68.4327 243.534 67.5505 241.658 67.5453C239.782 67.54 238.258 68.4138 238.255 69.4968C238.252 70.5799 239.771 71.4621 241.647 71.4674C243.524 71.4726 245.047 70.5988 245.05 69.5158Z" fill="#C6D7DC"/>
<path d="M245.081 59.4379C245.081 58.9537 244.766 58.4453 244.111 58.0579C242.8 57.2832 240.641 57.259 239.282 58.0095C238.602 58.3969 238.262 58.9053 238.238 59.4137V69.5095C238.214 69.9937 238.529 70.5021 239.185 70.8895C240.495 71.6642 242.655 71.6885 244.014 70.9379C244.693 70.5506 245.033 70.0421 245.057 69.5337V65.8779C245.057 63.6748 245.057 61.3506 245.081 59.4379V59.4379Z" fill="#0D85C4"/>
<path d="M245.074 59.416C245.077 58.333 243.559 57.4508 241.683 57.4455C239.806 57.4403 238.283 58.3141 238.28 59.3971C238.277 60.4802 239.795 61.3624 241.672 61.3676C243.548 61.3728 245.071 60.4991 245.074 59.416Z" fill="#C6D7DC"/>
<path d="M241.708 53.4094C240.592 52.7557 239.5 52.0052 238.432 51.1578C231.055 45.1536 225.498 34.4284 225.523 25.4463C225.523 21.3063 226.736 18.1831 228.75 16.2463C229.211 15.7863 229.721 15.3989 230.255 15.0599L225.862 17.602C224.406 18.4494 223.217 19.7568 222.392 21.5241C221.567 23.2673 221.106 25.4463 221.106 27.9884C221.106 31.5715 222.004 35.4452 223.533 39.1978C223.727 39.682 223.945 40.1663 224.164 40.6263C224.673 41.7399 225.231 42.8294 225.838 43.8947C228.774 48.9547 232.827 53.3852 237.292 55.9515C238.408 56.6052 239.524 57.1136 240.592 57.4526C242.194 57.9852 243.698 58.2273 245.081 58.1547C246.464 58.082 247.726 57.7189 248.843 57.0652L253.235 54.5231C250.274 56.242 246.198 55.9999 241.684 53.4094H241.708Z" fill="#B3E1ED"/>
<path d="M241.587 49.7778C234.404 45.6378 228.556 35.5663 228.58 27.3105C228.58 23.2189 230.036 20.3378 232.39 18.9821L228.119 21.4515C225.79 22.8073 224.334 25.6884 224.309 29.7799C224.309 38.0357 230.133 48.1073 237.316 52.2473C240.932 54.3294 244.232 54.5231 246.586 53.1431L250.857 50.6736C248.479 52.0536 245.203 51.8599 241.587 49.7778Z" fill="#B3E1ED"/>
<path d="M241.684 18.4978C238.723 16.7789 235.957 16.2463 233.676 16.7063C232.924 16.8515 232.196 17.142 231.565 17.5052L227.294 19.9747C229.891 18.4736 233.458 18.6673 237.413 20.9431C245.275 25.4705 251.633 36.4862 251.609 45.4684C251.609 49.9473 250.007 53.0947 247.459 54.5715L251.73 52.102C254.278 50.6252 255.88 47.4778 255.88 42.9989C255.904 34.0168 249.546 23.001 241.684 18.4736V18.4978Z" fill="#B3E1ED"/>
<path d="M241.684 12.6389C236.321 9.53993 231.444 9.27362 227.925 11.3073L223.654 13.7768C227.173 11.7431 232.05 12.0094 237.413 15.1084C248.09 21.2578 256.753 36.2199 256.705 48.4462C256.705 54.5231 254.521 58.8084 251.051 60.8178L255.322 58.3484C258.792 56.3389 260.951 52.0536 260.976 45.9768C261 33.7505 252.337 18.7884 241.684 12.6389V12.6389Z" fill="#B3E1ED"/>
<path d="M237.413 15.1325C248.09 21.282 256.753 36.2441 256.705 48.4704C256.656 60.6968 247.945 65.6599 237.267 59.5104C226.59 53.361 217.976 38.3989 218 26.1483C218.024 13.8978 226.736 8.98307 237.413 15.1325ZM237.292 55.8789C246.222 61.0115 253.477 56.8715 253.526 46.6304C253.574 36.3894 246.343 23.921 237.413 18.7641C228.483 13.6073 221.203 17.7715 221.179 27.9883C221.155 38.2294 228.386 50.722 237.292 55.8546" fill="#E6FAFF"/>
<path d="M237.389 20.9915C245.251 25.5189 251.609 36.5347 251.585 45.5168C251.56 54.4989 245.154 58.1547 237.292 53.6273C229.429 49.0999 223.096 38.1084 223.12 29.102C223.144 20.0957 229.551 16.4641 237.413 20.9915H237.389ZM237.292 52.2715C244.475 56.4115 250.347 53.0947 250.371 44.8389C250.396 36.5831 244.547 26.5357 237.365 22.3957C230.182 18.2557 224.309 21.5726 224.285 29.8284C224.261 38.0841 230.109 48.1557 237.292 52.2957" fill="#E6FAFF"/>
<path d="M236.661 25.5431C242.655 29.0052 247.532 37.4063 247.508 44.3063C247.508 45.8073 246.44 46.4368 245.106 45.662C243.771 44.8873 242.727 43.0715 242.727 41.5463C242.727 37.6726 240.01 32.9515 236.637 31.0147C235.326 30.2642 234.258 28.4242 234.258 26.8989C234.258 25.3736 235.326 24.7684 236.661 25.5431V25.5431Z" fill="white"/>
</g>
<defs>
<filter id="filter0_d_1_506" x="25.6998" y="27.8611" width="265.562" height="179.281" filterUnits="userSpaceOnUse" color-interpolation-filters="sRGB">
<feFlood flood-opacity="0" result="BackgroundImageFix"/>
<feColorMatrix in="SourceAlpha" type="matrix" values="0 0 0 0 0 0 0 0 0 0 0 0 0 0 0 0 0 0 127 0" result="hardAlpha"/>
<feOffset dy="5"/>
<feComposite in2="hardAlpha" operator="out"/>
<feColorMatrix type="matrix" values="0 0 0 0 0.0901961 0 0 0 0 0.419608 0 0 0 0 0.258824 0 0 0 1 0"/>
<feBlend mode="normal" in2="BackgroundImageFix" result="effect1_dropShadow_1_506"/>
<feBlend mode="normal" in="SourceGraphic" in2="effect1_dropShadow_1_506" result="shape"/>
</filter>
<clipPath id="clip0_1_506">
<rect width="149.07" height="164.51" fill="white" transform="translate(82)"/>
</clipPath>
<clipPath id="clip1_1_506">
<rect width="43" height="92" fill="white" transform="translate(218 10)"/>
</clipPath>
</defs>
</svg>
