<svg width="314" height="225" viewBox="0 0 314 225" fill="none" xmlns="http://www.w3.org/2000/svg">
<g filter="url(#filter0_d_2_1158)">
<path d="M60.9029 100.302L143.876 52.6888C151.45 48.3431 155.236 46.1702 159.267 45.3734C162.543 44.7259 165.915 44.7412 169.185 45.4185C173.209 46.2518 176.976 48.4589 184.509 52.8732L254.036 93.6135C274.155 105.402 284.214 111.297 287.431 119.033C290.001 125.215 289.984 132.169 287.384 138.339C284.131 146.06 274.043 151.906 253.868 163.598L253.868 163.598L171.675 211.23L171.675 211.23C164.123 215.606 160.348 217.794 156.322 218.608C153.05 219.27 149.679 219.269 146.407 218.607C142.381 217.792 138.606 215.604 131.055 211.226L60.7477 170.467C40.3937 158.667 30.2167 152.767 26.9708 145.001C24.3778 138.797 24.3933 131.81 27.0136 125.618C30.2938 117.866 40.4968 112.012 60.9028 100.302L60.9029 100.302Z" fill="#5DA481"/>
</g>
<path d="M94.7824 71.9606C94.0949 72.3578 93.5335 73.328 93.5373 74.1187L93.7397 145.452C93.7397 146.246 94.305 146.567 94.9925 146.17L203.126 83.7367C203.814 83.3394 204.375 82.3692 204.371 81.5747L204.169 10.2419C204.169 9.45127 203.604 9.13042 202.912 9.52766L94.7824 71.9606Z" fill="#BED3FC"/>
<path d="M202.901 5.21149C205.666 3.61486 207.912 4.89828 207.923 8.07244L208.176 97.2394C208.183 100.417 205.949 104.287 203.187 105.883L95.0574 168.316C92.2921 169.913 90.0424 168.633 90.0348 165.455L89.7827 76.2884C89.7751 73.1104 92.0095 69.241 94.7748 67.6444L202.901 5.21149ZM93.7397 145.452C93.7397 146.246 94.305 146.567 94.9925 146.17L203.126 83.7368C203.814 83.3395 204.375 82.3693 204.371 81.5748L204.169 10.242C204.169 9.45135 203.604 9.1305 202.912 9.52774L94.7824 71.9606C94.0949 72.3579 93.5335 73.3281 93.5373 74.1188L93.7397 145.452Z" fill="white"/>
<path d="M91.0431 65.4748L199.173 3.04187C200.563 2.23973 201.824 2.16334 202.733 2.69428C203.978 3.4162 205.219 4.13812 206.464 4.86386C205.555 4.33675 204.295 4.40932 202.901 5.21146L94.771 67.6444C92.0057 69.241 89.7713 73.1103 89.7789 76.2883L90.031 165.455C90.0348 167.033 90.5925 168.144 91.49 168.668C90.2487 167.946 89.0035 167.224 87.7584 166.498C86.8608 165.975 86.3032 164.867 86.2993 163.289L86.0473 74.1226C86.0396 70.9446 88.274 67.0752 91.0393 65.4786L91.0431 65.4748Z" fill="#CBD3F9"/>
<path d="M143.68 127.667C142.958 128.084 142.377 129.092 142.377 129.921C142.377 130.754 142.969 131.082 143.687 130.67C144.409 130.253 144.993 129.245 144.993 128.412C144.993 127.579 144.405 127.251 143.68 127.667" fill="#345CFA"/>
<path d="M150.734 123.595C150.016 124.012 149.432 125.016 149.432 125.849C149.432 126.682 150.02 127.01 150.742 126.598C151.464 126.178 152.048 125.173 152.048 124.34C152.048 123.508 151.46 123.179 150.734 123.595" fill="#345CFA"/>
<path d="M157.796 119.516C157.071 119.936 156.49 120.941 156.49 121.773C156.49 122.602 157.078 122.934 157.804 122.518C158.526 122.102 159.107 121.093 159.107 120.265C159.107 119.432 158.514 119.103 157.796 119.516" fill="#345CFA"/>
<path d="M164.855 115.44C164.133 115.857 163.549 116.865 163.549 117.698C163.549 118.527 164.137 118.859 164.862 118.443C165.584 118.026 166.169 117.018 166.165 116.189C166.165 115.36 165.577 115.028 164.855 115.444" fill="#345CFA"/>
<path d="M60.3955 50.5436L60.4108 45.3412L71.2849 51.6208L71.2696 56.8232L60.3955 50.5436ZM72.0985 51.1548L59.6011 43.9355L59.582 51.0096L72.0794 58.225L72.0985 51.1509" fill="#345CFA"/>
<path d="M60.365 60.9027L60.3803 55.7003L71.2544 61.9799L71.2391 67.1823L60.365 60.9027M72.0679 61.5101L59.5705 54.2947L59.5514 61.3687L72.0488 68.5842L72.0679 61.5101" fill="#345CFA"/>
<path d="M60.3382 71.2616L60.3535 66.0592L71.2276 72.3388L71.2123 77.5412L60.3382 71.2616M72.0412 71.8728L59.54 64.6536L59.5209 71.7276L72.0183 78.943L72.0373 71.869" fill="#345CFA"/>
<path d="M223.992 35.8187C222.648 35.0433 221.555 33.1564 221.563 31.6094C221.571 30.0624 222.663 29.436 224.011 30.2152L242.746 41.0326C244.09 41.808 245.183 43.6987 245.175 45.2419C245.167 46.785 244.071 47.4076 242.727 46.6322L223.992 35.8149M242.746 40.0967L224.011 29.2794C222.22 28.2442 220.757 29.0769 220.749 31.1395C220.742 33.2022 222.197 35.7155 223.988 36.7507L242.723 47.5681C244.514 48.6032 245.977 47.7705 245.985 45.7079C245.992 43.6452 244.537 41.1319 242.746 40.0967Z" fill="#345CFA"/>
<path d="M223.992 22.4153C222.648 21.6399 221.555 19.7491 221.563 18.206C221.571 16.6628 222.663 16.0364 224.011 16.8156L242.746 27.633C244.09 28.4084 245.183 30.2953 245.175 31.8423C245.167 33.3893 244.071 34.0119 242.727 33.2365L223.992 22.4191M242.746 26.701L224.011 15.8836C222.22 14.8485 220.757 15.6812 220.749 17.7438C220.742 19.8064 222.197 22.3198 223.988 23.3549L242.723 34.1723C244.514 35.2074 245.977 34.3747 245.985 32.3121C245.992 30.2495 244.537 27.7361 242.746 26.701Z" fill="#345CFA"/>
<path d="M87.3421 37.0256L78.7673 41.976L78.8169 60.4633L91.7192 53.0111L91.681 39.5008L87.3535 41.9989L87.3421 37.0256Z" fill="#7D9CF5"/>
<path d="M87.3421 37.0256L87.3535 41.9989L91.681 39.5008L87.3421 37.0256Z" fill="#4265E3"/>
<path d="M165.836 1.95708L168.896 0.192383L168.926 11.4376L165.867 13.2023L165.836 1.95708Z" fill="#7D9CF5"/>
<path d="M160.348 9.70342L163.403 7.93872L163.423 14.6155L160.367 16.3802L160.348 9.70342Z" fill="#7D9CF5"/>
<path d="M154.817 4.096L157.873 2.3313L157.919 17.7934L154.859 19.5581L154.817 4.096Z" fill="#7D9CF5"/>
<path d="M149.321 11.491L152.38 9.72632L152.415 20.9715L149.355 22.7362L149.321 11.491Z" fill="#7D9CF5"/>
<path d="M95 74.7692L121 59.9999V81.4381L95 95.9999V74.7692Z" fill="#819BEA"/>
<path d="M95 98.7692L121 83.9999V105.438L95 120V98.7692Z" fill="#819BEA"/>
<path d="M123 82.7692L149 67.9999V89.4381L123 104V82.7692Z" fill="#819BEA"/>
<path d="M150 66.7692L176 51.9999V73.4381L150 87.9999V66.7692Z" fill="#819BEA"/>
<path d="M177 51.7692L203 36.9999V58.4381L177 72.9999V51.7692Z" fill="#819BEA"/>
<path d="M123 106.769L149 91.9999V113.438L123 128V106.769Z" fill="#819BEA"/>
<path d="M150 90.7692L176 75.9999V97.4381L150 112V90.7692Z" fill="#819BEA"/>
<path d="M177 75.7692L203 60.9999V82.4381L177 96.9999V75.7692Z" fill="#819BEA"/>
<path d="M123 58.7692L149 43.9999V65.4381L123 79.9999V58.7692Z" fill="#819BEA"/>
<path d="M150 43.7692L176 28.9999V50.4381L150 64.9999V43.7692Z" fill="#819BEA"/>
<path d="M95 122.769L121 108V129.438L95 144V122.769Z" fill="#819BEA"/>
<path d="M203.84 33.0304L202.586 33.8529L200.395 34.4041L197.213 34.6798L195.749 34.0753L195.44 33.2992L194.98 32.9394L194.819 32.5366L195.007 30.7985C195.03 30.6197 195.139 30.4657 195.309 30.398L195.471 30.3333L195.492 30.0622C195.499 29.9318 195.594 29.8261 195.721 29.801L195.815 29.7804C195.862 29.7701 195.918 29.7817 195.955 29.8095C195.995 29.8446 196.02 29.8856 196.022 29.9354L196.035 30.1596L196.182 30.2282C196.414 30.3393 196.534 30.597 196.477 30.8403L196.375 31.3138L196.816 31.7322L199.005 31.326L201.5 31.4316L204.5 31.4316L203.823 33.029L203.84 33.0304Z" fill="#FDD3BD"/>
<path d="M167 23L193.5 7.5L205.5 29.5L180.5 46L167 23Z" fill="#393939"/>
<g clip-path="url(#clip0_2_1158)">
<path d="M201.002 170.377C201.002 170.377 200.933 171.334 201.156 172.069L200.477 173.026L199.036 172.483L198.485 171.829L198.739 171.026L201.002 170.377V170.377Z" fill="white"/>
<path d="M198.204 170.643C198.204 170.643 197.785 169.919 196.815 170.43C196.815 170.43 196.068 170.957 196.831 171.893C196.926 172.01 197.043 172.106 197.175 172.18C197.578 172.409 198.58 173.021 198.956 173.691C198.999 173.765 199.041 173.84 199.099 173.904C199.327 174.175 199.958 174.845 200.562 174.755C200.562 174.755 201.585 174.749 201.585 174.047C201.585 174.047 201.601 172.733 201.161 172.34C201.161 172.34 200.721 172.457 200.038 172.749C200.038 172.749 199.386 172.909 199.041 172.478L198.214 170.637L198.204 170.643Z" fill="#ECECEC"/>
<path d="M199.205 170.451C199.205 170.451 197.785 169.643 196.815 170.154C196.815 170.154 196.068 170.68 196.831 171.616C196.926 171.733 197.043 171.829 197.175 171.904C197.578 172.132 198.58 172.744 198.956 173.414C198.999 173.489 199.041 173.563 199.099 173.627C199.327 173.898 199.958 174.569 200.562 174.478C200.562 174.478 201.585 174.473 201.585 173.771C201.585 173.771 201.601 172.457 201.161 172.063C201.161 172.063 200.721 172.18 200.038 172.473C200.038 172.473 199.386 172.632 199.041 172.202C199.041 172.202 198.628 171.584 198.744 171.021L199.211 170.446L199.205 170.451Z" fill="#414957"/>
<path d="M201.002 170.377L200.97 169.052C200.387 169.265 199.751 169.308 199.073 169.238C199.073 169.238 199.168 170.02 199.2 170.451C199.2 170.451 198.707 170.664 198.718 171.148L200.997 170.377H201.002Z" fill="white"/>
<path d="M194.038 175.771L194.011 175.505L193.969 175.404L193.757 174.904C193.63 174.59 193.566 173.686 193.566 173.686L193.545 172.207C193.545 172.207 191.971 172.776 191.266 172.377L191.425 174.154C191.494 174.494 191.393 174.675 191.292 174.76C191.208 174.835 191.123 174.845 191.123 174.845L190.974 175.117L190.609 175.797L190.821 176L191.409 176.569L192.861 176.877L194.101 176.383L194.038 175.766V175.771Z" fill="white"/>
<path d="M189.845 135.066L189.649 141.583L189.231 155.349L190.291 173.154C190.291 173.154 192.225 175.361 194.425 173.154L193.81 154.817L196.089 142.029L196.624 154.727L198.384 169.446C198.384 169.446 200.758 171.122 201.723 169.004L200.758 153.051L201.723 141.146C201.723 141.146 202.338 133.736 201.018 131.353L189.856 135.061L189.845 135.066Z" fill="#5988BA"/>
<path d="M194.494 106.394C194.494 106.394 189.665 110.432 189.448 112.129L190.211 123.034L189.008 135.093C189.008 135.093 194.525 139.535 200.366 134.598C200.366 134.598 202.55 132.188 202.497 130.71L203.154 110.544C203.154 110.544 203.371 103.804 201.299 103.857L197.425 104.9L194.499 106.4L194.494 106.394Z" fill="#183555"/>
<path d="M189.337 99.793C189.337 99.793 190.646 105.384 193.921 105.054L194.902 107.357C194.902 107.357 198.177 107.027 198.177 104.724L196.868 102.421L195.23 96.5002H190.969L189.331 97.4843L189.003 98.7983L189.331 99.7824L189.337 99.793Z" fill="#E49C9A"/>
<path d="M188.542 96.5055C188.542 96.5055 187.614 98.862 189.008 100.176C190.402 101.49 190.291 100.203 190.921 101.133C191.552 102.064 192.177 101.926 192.177 101.926C192.177 101.926 191.494 100.282 191.934 100.447C192.368 100.612 193.025 101.788 193.025 101.788C193.025 101.788 194.637 103.623 195.972 103.405C197.308 103.187 197.584 102.745 197.584 102.745C197.584 102.745 199.603 99.4578 198.182 96.3034C198.182 96.3034 195.972 91.069 191.059 93.7554C191.059 93.7554 188.547 95.0693 188.547 96.4949L188.542 96.5055Z" fill="#231248"/>
<path d="M186.877 119.565L185.648 124.209L177.009 119.156L175.699 120.677L185.489 128.694C185.489 128.694 187.291 129.885 188.192 128.406L190.238 121.049L186.877 119.571V119.565Z" fill="#E49C9A"/>
<path d="M187.503 176.271V176.319C187.497 176.542 187.593 176.728 187.757 176.883C188.361 177.462 189.58 177.67 189.58 177.67C194.616 178.494 194.377 177.51 194.377 177.51C194.377 177.282 194.361 177.074 194.335 176.877C194.245 176.212 194.033 175.766 194.033 175.766C193.974 176.542 192.999 176.675 192.999 176.675C192.177 176.819 191.478 176.234 191.229 175.984C191.16 175.92 191.128 175.877 191.128 175.877L191.144 175.106L190.969 175.117L188.531 175.25C187.582 175.207 187.503 176.058 187.503 176.271V176.271Z" fill="#ECECEC"/>
<path d="M187.476 176.058C187.476 176.132 187.482 176.207 187.503 176.276C187.561 176.468 187.709 176.627 187.9 176.76C188.568 177.228 189.554 177.409 189.554 177.409C194.589 178.234 194.351 177.25 194.351 177.25C194.351 177.122 194.351 177 194.335 176.877C194.271 176.031 193.99 175.329 193.99 175.329C193.985 175.356 193.974 175.382 193.964 175.409C193.762 175.893 192.914 175.957 192.914 175.957C192.707 175.989 192.517 175.999 192.347 175.989C191.674 175.946 191.303 175.627 191.303 175.627C191.605 175.377 191.515 175.031 191.287 174.765L188.51 174.994C187.429 174.946 187.476 176.058 187.476 176.058V176.058Z" fill="#414957"/>
<path d="M182.849 112.384L182.727 112.474L174.91 118.379C174.719 118.528 174.438 118.448 174.348 118.219L172.021 111.458C171.968 111.309 172.021 111.139 172.148 111.049L180.109 105.017C180.305 104.868 180.591 104.958 180.676 105.192L182.945 111.879L182.977 111.969C183.03 112.118 182.977 112.288 182.849 112.379V112.384Z" fill="#252C82"/>
<path d="M183.019 111.304C182.86 111.113 182.643 110.937 182.643 110.937C182.643 110.937 181.991 110.815 181.535 110.73C181.084 110.645 181.19 110.028 181.19 110.028H182.59L183.024 111.304H183.019Z" fill="#51569B"/>
<path d="M183.146 112.453L183.024 112.544L182.261 113.124L175.207 118.454C175.016 118.603 174.735 118.523 174.645 118.294L172.318 111.528C172.265 111.379 172.318 111.214 172.445 111.118L180.406 105.086C180.602 104.937 180.888 105.027 180.973 105.261L182.59 110.028H181.19C181.19 110.028 181.09 110.645 181.535 110.73C181.991 110.815 182.643 110.937 182.643 110.937C182.643 110.937 182.86 111.113 183.019 111.304L183.167 111.735L183.242 111.953L183.273 112.044C183.326 112.193 183.273 112.363 183.146 112.453V112.453Z" fill="#49529D"/>
<path d="M180.523 105.676L172.864 111.379L175.127 117.863L182.722 112.065L180.523 105.676Z" fill="#252C82"/>
<path d="M177.009 119.156L176.15 118.374C176.15 118.374 176.012 117.358 175.275 116.618C175.275 116.618 175.387 115.086 174.973 115.086C174.56 115.086 174.565 116.4 174.565 116.4L174.332 117.241C174.274 117.459 174.083 117.491 174.019 117.278L173.754 116.512C173.754 116.512 173.034 117.113 173.007 117.991C172.981 118.869 174.072 119.911 174.072 119.911L175.694 120.677L177.003 119.156H177.009Z" fill="#E49C9A"/>
<path d="M188.028 114.491L187.455 117.305C187.455 117.305 183.83 113.4 183.708 113.4C183.634 113.416 182.738 113.225 182.261 113.124L183.024 112.544L183.146 112.453C183.273 112.358 183.321 112.193 183.273 112.044L183.242 111.953L183.167 111.74C183.247 111.629 183.151 111.459 183.019 111.304C182.86 111.113 182.643 110.937 182.643 110.937C182.643 110.937 181.991 110.815 181.535 110.73C181.084 110.645 181.19 110.028 181.19 110.028H182.643C184.095 110.028 184.688 111.948 184.688 111.948L188.028 114.491V114.491Z" fill="#E49C9A"/>
<path d="M191.409 111.964L191.075 111.916C190.216 111.788 189.326 112.081 188.754 112.741C188.346 113.209 187.943 113.916 187.635 114.98L186.215 119.555C186.215 119.555 187.55 122.188 190.148 121.964C190.529 121.954 190.996 121.8 190.996 121.8L192.988 116.156C192.988 116.156 193.699 112.618 191.404 111.964H191.409Z" fill="#24507F"/>
<path d="M178.577 107.123L176.929 116.486L178.063 115.624L179.627 106.341L178.577 107.123Z" fill="#6D75B1"/>
<path d="M178.238 107.373L176.611 116.736L176.351 116.932L177.979 107.57L178.238 107.373Z" fill="#6D75B1"/>
</g>
<path d="M111.344 129.606L113.961 129.271L114.681 127.315L116.252 125.854C116.557 125.475 116.87 126.014 116.557 126.486L115.954 127.322L116.506 127.999L117.146 127.315V126.632L117.721 127.432V128.144L117.961 128.559V129.184L118.077 129.598L117.764 129.998L117.881 130.311L117.612 130.74L116.703 131.598L114.441 131.787L112.136 132.013L111.351 129.598L111.344 129.606Z" fill="#FDD3BD"/>
<path d="M79 122.567L79.4145 127.032C79.5963 128.282 80.178 129.06 80.9415 129.547C82.2431 130.376 84.0828 130.355 85.4134 130.398C85.7988 130.405 86.1406 130.427 86.4169 130.464L86.8241 125.381L83.1811 115.521C80.3161 116.117 79.0364 118.531 79 122.567Z" fill="#E06A5B"/>
<g style="mix-blend-mode:multiply">
<path d="M80.9413 129.547C82.2429 130.376 84.0826 130.355 85.4133 130.398V127.526L81.0358 122.8L80.9413 129.555V129.547Z" fill="#B83D41"/>
</g>
<path d="M92.1252 169.039C94.2484 169.482 94.5902 171.133 93.7831 172.565L91.3907 175.947C90.4964 177.503 89.2893 178.237 87.7114 177.975C86.2934 177.394 86.1044 176.456 86.497 175.358L87.086 173.554L88.0022 168.668L92.1179 169.039H92.1252Z" fill="black"/>
<path d="M86.017 173.395C86.6787 175.641 91.0271 175.561 91.3106 172.558L92.4959 163.956L92.7431 160.451L95.1427 152.176L95.6663 148.104L93.972 137.648L85.0717 137.241C85.0717 137.241 86.3151 156.837 86.3224 157.557C85.079 161.491 85.7334 168.261 86.017 173.402V173.395Z" fill="#475F70"/>
<g style="mix-blend-mode:multiply" opacity="0.3">
<path d="M86.017 173.395C86.6787 175.641 91.0271 175.561 91.3106 172.558L92.4959 163.956L92.7431 160.451L95.1427 152.176L95.6663 148.104L93.972 137.648L85.0717 137.241C85.0717 137.241 86.3151 156.837 86.3224 157.557C85.079 161.491 85.7334 168.261 86.017 173.402V173.395Z" fill="#30485C"/>
</g>
<path d="M92.1687 176.841C91.3107 178.288 91.7033 180.709 92.2123 181.8C93.7103 182.36 94.9682 182.476 95.8408 181.88C98.6694 181.713 100.255 182.091 101.716 181.676C103.265 181.233 104.319 180.767 105.112 179.219C105.417 178.528 104.996 177.234 103.738 177.044C101.382 176.95 99.2729 176.754 98.124 176.179L96.1171 172.507L92.4668 175.379L92.176 176.841H92.1687Z" fill="black"/>
<path d="M92.9612 154.248C93.0848 156.146 92.7431 157.812 92.6631 159.28C90.7216 165.258 90.6489 172.398 90.7798 178.026C92.3068 180.448 97.5859 179.568 97.9785 177.306L98.9747 169.729C98.9747 169.729 98.9747 169.679 98.9893 169.591L99.0256 169.344L99.3674 166.661L100.407 160.095C101.149 154.474 99.9782 141.851 99.6655 137.233L90.8889 136.201C90.8889 136.244 90.8889 136.281 90.8889 136.324C90.7216 137.531 85.268 137.968 85.2098 139.204C85.0789 142.061 87.1513 148.119 92.3213 148.628C92.365 148.635 92.4086 148.635 92.4522 148.642C92.6704 150.54 92.8521 152.576 92.9685 154.256L92.9612 154.248Z" fill="#475F70"/>
<path d="M91.2086 119.804L90.9323 113.179L86.7076 111.245L85.6459 116.648L91.2086 119.804Z" fill="#FDD3BD"/>
<path d="M84.708 132.398C84.9989 133.896 85.0643 138.899 85.0643 138.899C88.1838 141.945 93.1429 143.189 97.0332 141.429C98.3348 140.84 99.3892 139.822 99.9781 138.266C100.022 133.976 99.3455 129.373 98.153 125.948C97.5495 124.21 96.815 122.77 95.9716 121.825L89.7035 117.644C88.4238 117.15 88.0238 116.728 83.8718 115.528C80.8105 115.281 79.4653 119.447 80.8541 123.672C80.8541 123.672 84.4099 130.9 84.7008 132.398H84.708Z" fill="#E06A5B"/>
<path d="M90.7216 116.51L91.8777 116.008C92.6849 115.659 93.2884 114.976 93.5356 114.132C93.9792 112.62 94.4664 110.147 93.652 108.358C92.394 105.595 90.6852 104.977 87.9657 105.959C85.2462 106.941 84.2282 108.991 85.0571 112.001C85.8933 115.005 86.6568 114.59 86.6568 114.59L90.7216 116.503V116.51Z" fill="#FDD3BD"/>
<path d="M93.9429 109.26L92.554 111.18L92.1032 112.772L91.6451 113.441L91.4342 114.415C91.267 115.186 90.5762 115.724 89.7836 115.695C88.8238 115.659 87.5003 115.404 86.1988 114.452C86.1988 114.452 85.1153 113.746 84.679 110.998C84.2427 108.249 85.8134 106.671 86.5551 106.264C87.2895 105.857 91.2088 103.959 93.2957 105.77C95.608 107.777 93.9356 109.26 93.9356 109.26H93.9429Z" fill="black"/>
<path d="M91.7615 111.638C91.616 111.645 91.4851 111.732 91.3979 111.849C91.3106 111.965 91.2597 112.103 91.2161 112.241C91.0634 112.779 91.0416 113.346 91.1507 113.892C91.1797 114.03 91.2234 114.175 91.3034 114.292C91.3833 114.408 91.5215 114.503 91.6669 114.495C91.8051 114.495 91.936 114.408 92.016 114.292C92.096 114.175 92.1469 114.044 92.1832 113.906C92.3141 113.448 92.7722 111.572 91.7615 111.623V111.638Z" fill="#FDD3BD"/>
<g style="mix-blend-mode:multiply">
<path d="M91.7396 127.075C97.3532 132.667 98.4148 136.201 97.0332 141.429C98.3348 140.84 99.3892 139.822 99.9782 138.266C100.022 133.975 99.3456 129.373 98.1531 125.948L91.7323 127.075H91.7396Z" fill="#B83D41"/>
</g>
<path d="M103.658 127.075L113.634 129.191C115.081 129.634 114.703 133.052 112.514 133.001C106.21 132.885 102.785 132.572 102.785 132.572C99.8618 132.376 96.4951 130.842 91.5941 127.438C89.4345 123.875 93.492 119.433 95.9788 121.832L103.665 127.075H103.658Z" fill="#E06A5B"/>
<path d="M70.4995 98.6482C71.5231 99.2441 72.5467 99.8361 73.5703 100.432C74.9606 101.242 76.7443 101.322 78.6885 100.646L75.6176 98.8621C73.6735 99.5344 71.8898 99.4541 70.4995 98.6482Z" fill="#C2DFFD"/>
<path d="M61.623 106.822C62.6466 107.418 63.6702 108.01 64.6938 108.606C64.4456 108.461 64.2126 108.297 63.991 108.106L60.9202 106.322C61.1417 106.513 61.3747 106.677 61.623 106.822Z" fill="#95C6FC"/>
<path d="M56.3979 69.3932C61.2486 66.5934 65.6449 66.3336 68.8189 68.1785C69.8425 68.7744 70.8661 69.3665 71.8897 69.9623C68.7157 68.1174 64.3195 68.3772 59.4688 71.1808C49.8284 76.7461 42.0404 90.2411 42.071 101.318C42.0862 106.822 44.0304 110.696 47.1623 112.514L44.0915 110.73C40.9595 108.908 39.0154 105.035 39.0001 99.5344C38.9695 88.4573 46.7575 74.9623 56.3979 69.3932V69.3932Z" fill="#CE4F41"/>
<path d="M59.4688 71.177C49.8284 76.7423 42.0404 90.2372 42.071 101.314C42.1015 112.391 49.9429 116.861 59.5833 111.295C61.1073 110.417 62.5816 109.34 63.991 108.106C65.8588 109.706 68.7119 109.679 71.7484 107.926C72.5391 107.472 73.3412 106.899 74.1394 106.207C75.9231 104.668 77.47 102.735 78.6885 100.646C75.7283 101.67 73.1387 100.948 71.7484 98.5718C74.995 93.0485 77.0002 86.7919 76.985 81.1578C76.9544 70.0807 69.113 65.6079 59.4726 71.177H59.4688Z" fill="#E06A5B"/>
<path d="M59.2472 89.3969C58.2771 89.9583 57.4941 91.3143 57.4979 92.4297C57.4979 93.545 58.2885 93.9958 59.2587 93.4343C60.2288 92.8728 61.0118 91.5168 61.0118 90.4014C61.0118 89.2861 60.2174 88.8354 59.2472 89.3969M66.0459 85.474C65.0758 86.0355 64.2928 87.3915 64.2928 88.5069C64.2928 89.6222 65.0834 90.0729 66.0574 89.5114C67.0275 88.9499 67.8105 87.594 67.8105 86.4786C67.8105 85.3633 67.0161 84.9125 66.0459 85.474ZM52.4523 93.3235C51.4822 93.885 50.6992 95.241 50.6992 96.3563C50.6992 97.4717 51.4937 97.9224 52.4638 97.3609C53.434 96.7994 54.2169 95.4434 54.2131 94.3281C54.2131 93.2127 53.4225 92.762 52.4523 93.3235Z" fill="white"/>
<path d="M244.069 111.684C243.625 111.684 243.188 111.432 242.989 110.998L199.846 19.313C199.568 18.7218 199.822 18.0202 200.418 17.7443C201.013 17.4684 201.72 17.7206 201.998 18.3119L245.142 109.997C245.42 110.588 245.166 111.29 244.57 111.566C244.403 111.644 244.236 111.676 244.069 111.676V111.684Z" fill="#1B1B25"/>
<path d="M240.487 111.29C240.09 111.29 239.741 110.99 239.701 110.588L238.605 100.664C238.557 100.23 238.875 99.8437 239.312 99.7964C239.741 99.7491 240.138 100.064 240.185 100.498L241.281 110.422C241.329 110.856 241.011 111.242 240.575 111.29C240.543 111.29 240.519 111.29 240.487 111.29Z" fill="#1B1B25"/>
<path d="M234.888 99.2762C234.491 99.2762 234.141 98.9766 234.102 98.5746L233.006 88.6501C232.958 88.2166 233.276 87.8303 233.712 87.783C234.149 87.7357 234.538 88.051 234.586 88.4846L235.682 98.4091C235.73 98.8426 235.412 99.2289 234.975 99.2762C234.943 99.2762 234.92 99.2762 234.888 99.2762Z" fill="#1B1B25"/>
<path d="M229.288 87.263C228.891 87.263 228.542 86.9634 228.502 86.5614L227.406 76.6369C227.358 76.2034 227.676 75.8171 228.113 75.7698C228.55 75.7225 228.939 76.0378 228.987 76.4714L230.083 86.3959C230.13 86.8294 229.813 87.2157 229.376 87.263C229.344 87.263 229.32 87.263 229.288 87.263Z" fill="#1B1B25"/>
<path d="M223.689 75.2571C223.292 75.2571 222.942 74.9576 222.903 74.5555L221.807 64.6311C221.759 64.1975 222.077 63.8113 222.514 63.764C222.95 63.7167 223.34 64.032 223.387 64.4655L224.483 74.39C224.531 74.8236 224.213 75.2098 223.776 75.2571C223.745 75.2571 223.721 75.2571 223.689 75.2571Z" fill="#1B1B25"/>
<path d="M218.082 63.2437C217.684 63.2437 217.335 62.9441 217.295 62.5421L216.199 52.6177C216.152 52.1841 216.469 51.7978 216.906 51.7505C217.343 51.7032 217.732 52.0186 217.78 52.4521L218.876 62.3766C218.923 62.8101 218.606 63.1964 218.169 63.2437C218.137 63.2437 218.113 63.2437 218.082 63.2437Z" fill="#1B1B25"/>
<path d="M212.482 51.2305C212.085 51.2305 211.736 50.931 211.696 50.5289L210.6 40.6045C210.552 40.1709 210.87 39.7847 211.307 39.7374C211.744 39.6901 212.133 40.0054 212.18 40.4389L213.277 50.3634C213.324 50.797 213.006 51.1832 212.57 51.2305C212.538 51.2305 212.514 51.2305 212.482 51.2305V51.2305Z" fill="#1B1B25"/>
<path d="M206.883 39.2171C206.486 39.2171 206.136 38.9175 206.097 38.5155L205 28.591C204.953 28.1575 205.271 27.7712 205.707 27.7239C206.136 27.6766 206.533 27.992 206.581 28.4255L207.677 38.35C207.725 38.7835 207.407 39.1698 206.97 39.2171C206.938 39.2171 206.915 39.2171 206.883 39.2171Z" fill="#1B1B25"/>
<path d="M215.596 68.0132C215.596 68.0132 215.556 69.4558 218.558 69.5425C221.56 69.6371 223.022 69.1326 223.022 69.1326C223.022 69.1326 225.357 69.645 226.572 68.9749C227.787 68.297 227.414 67.9344 227.414 67.9344C227.184 66.4367 226.62 64.9862 225.691 63.591L222.14 62.645L221.862 65.002L219.376 66.1608C219.376 66.1608 215.858 66.6968 215.596 68.0132V68.0132Z" fill="black"/>
<path d="M218.487 50.5686L219.083 56.9852C218.892 56.9931 218.725 57.0009 218.566 56.9931C216.851 56.9536 216.62 56.1181 215.421 55.9841C214.111 55.8343 214.317 56.1181 211.219 55.9998C208.114 55.8816 207.391 54.1789 208.654 53.3275C209.917 52.4841 212.665 52.4289 212.665 52.4289L214.087 51.9008L215.072 51.5381L215.683 49.7251L216.668 50.0168L218.479 50.5528L218.487 50.5686Z" fill="black"/>
<path d="M219.845 37.9399L221.942 52.3812C219.917 52.6808 219.289 52.7833 218.685 52.7833C218.018 52.7833 217.375 52.6808 216.763 52.4522C216.589 52.397 216.43 52.3261 216.263 52.2472C215.85 52.058 215.453 51.8294 215.072 51.5378C213.245 46.7844 212.84 41.6685 211.053 34.6528C210.91 34.0852 210.91 33.4861 211.061 32.9265L211.656 30.735L213.769 23.0256L217.558 23.9479L220.782 24.7362L222.117 25.0673L219.654 33.8487L219.845 37.9557V37.9399Z" fill="#1F2E3B"/>
<path d="M214.317 27.9524C214.317 27.9524 212.006 38.7519 214.547 46.8791C214.547 46.8791 218.868 58.6718 220.623 63.6616C221.092 64.9938 222.403 65.8372 223.824 65.719C224.364 65.6717 224.944 65.5929 225.484 65.451C226.533 65.1751 227.192 64.1503 227.065 63.0783C226.66 59.799 225.397 51.7901 222.18 45.5942L223.634 32.6112C225.556 30.3488 226.382 27.4637 224.348 22.939L214.325 27.9446L214.317 27.9524Z" fill="#B2D8FD"/>
<g style="mix-blend-mode:multiply" opacity="0.3">
<path d="M219.448 33.6913L219.353 33.912L216.462 40.6518L216.66 50.0245L216.716 52.3184C216.716 52.3184 216.517 52.2947 216.263 52.2474C215.747 52.1686 214.913 52.0503 214.079 51.9084L215.064 51.5458C213.237 46.7925 212.832 41.6766 211.045 34.6608C210.902 34.0933 210.902 33.4942 211.053 32.9345L211.648 30.7431L213.761 23.0337L217.55 23.956L217.605 24.8231L217.883 26.1947L219.44 33.7149L219.448 33.6913Z" fill="#14708F"/>
</g>
<path d="M185.82 13.614L183.866 13.8269L180.951 13.6534L178.417 13.8899L176.36 14.6782L175.2 15.4271C175.113 15.4822 175.05 15.5768 175.026 15.6793C175.002 15.7818 175.026 15.8921 175.089 15.9789L175.232 16.1838L175.121 16.2626C175.058 16.3099 175.01 16.373 175.002 16.4518C174.994 16.5307 175.01 16.6095 175.065 16.6725C175.2 16.8381 175.423 16.909 175.629 16.846L175.907 16.7593L176.066 16.9248C176.297 17.1613 176.662 17.2165 176.948 17.0509L178.338 16.2548L180.307 16.2942L178.846 16.7041L178.512 16.9011C178.377 16.98 178.282 17.1061 178.25 17.2559C178.219 17.4056 178.25 17.5633 178.33 17.6894C178.385 17.7761 178.497 17.8077 178.592 17.7761L179.378 17.4924L181.475 17.1297L182.905 16.7671L184.66 15.703L186.487 14.9935L185.835 13.6219L185.82 13.614Z" fill="#FDD3BD"/>
<path d="M198.273 9.44385L196.065 10.9337C192.586 10.8706 183.858 13.8267 183.858 13.8267L184.636 15.6949C189.679 16.0733 198.257 14.7647 198.257 14.7647C198.829 14.5992 199.488 14.3627 200.195 14.0868C198.861 13.0936 198.233 11.2963 198.265 9.44385H198.273Z" fill="#E06A5B"/>
<path d="M201.585 7.06299L198.154 9.38054C198.122 11.3039 198.774 13.1643 200.155 14.1969C201.76 13.5742 203.65 12.7229 205.612 11.8163L201.593 7.06299H201.585Z" fill="#FE4F5C"/>
<path d="M224.706 23.8615C223.896 24.7365 222.855 25.2804 221.727 25.5799C218.542 26.4707 214.643 25.5011 212.983 25.0045C212.474 24.8547 212.18 24.7443 212.18 24.7443L206.375 18.2883C201.339 14.9381 202.586 5.33685 202.586 5.33685C210.195 0.481035 214.786 6.18031 219.424 10.9179C224.062 15.6555 224.706 23.8615 224.706 23.8615V23.8615Z" fill="#E06A5B"/>
<path d="M198.98 11.8243C199.091 11.9347 203.213 13.6295 203.213 13.6295C203.213 13.6295 205.747 11.4302 204.714 7.15768C203.738 6.90543 202.594 5.72301 200.997 4.64307L198.972 11.8322L198.98 11.8243Z" fill="#FDD3BD"/>
<path d="M202.904 6.06988C202.904 6.06988 201.974 1.35596 197.217 1.35596C197.217 1.35596 191.887 2.3019 192.181 7.01582C192.181 7.01582 192.729 9.97188 194.421 10.7365L194.659 11.777C194.715 12.0372 194.921 12.2342 195.184 12.2815L195.708 12.384L196.963 13.4482C197.447 13.8581 198.106 14.0394 198.726 13.8896C199.314 13.7477 200.044 13.4009 200.743 12.6126C202.284 10.8863 202.904 6.07776 202.904 6.07776V6.06988Z" fill="#FDD3BD"/>
<path d="M192.809 8.90774C194.08 9.72755 196.796 8.04063 198.297 9.64872C198.297 9.64872 200.378 11.1386 201.975 9.27823C203.571 7.41789 203.396 6.43253 203.396 6.43253C203.396 6.43253 202.213 1.56884 198.988 1.08798C196.073 0.646547 194.254 1.93145 192.984 3.48436C191.713 5.02939 190.863 7.65437 192.817 8.90774H192.809Z" fill="black"/>
<path d="M198.488 8.63964C198.694 8.60023 198.909 8.63964 199.107 8.71059C199.631 8.90766 200.052 9.36486 200.195 9.90089C200.267 10.161 200.259 10.4763 200.068 10.6734C199.933 10.8153 199.719 10.8705 199.52 10.8468C199.322 10.8232 199.139 10.7365 198.964 10.634C198.607 10.4133 198.146 10.0507 197.987 9.64864C197.82 9.22297 198.011 8.72635 198.48 8.63176L198.488 8.63964Z" fill="#FDD3BD"/>
<g style="mix-blend-mode:multiply" opacity="0.5">
<path d="M221.719 25.5802C218.534 26.471 214.635 25.5014 212.983 25.0048L212.18 19.7706L214.436 16.3967C214.436 16.3967 217.049 24.0431 221.719 25.5802Z" fill="#1C2D35"/>
</g>
<path d="M244.879 121.001C244.435 121.001 243.998 120.749 243.799 120.316L200.656 28.6384C200.378 28.0472 200.632 27.3456 201.228 27.0697C201.823 26.7938 202.53 27.0461 202.808 27.6373L245.952 119.322C246.23 119.914 245.975 120.615 245.38 120.891C245.213 120.97 245.046 121.001 244.879 121.001V121.001Z" fill="#1B1B25"/>
<path d="M215.723 24.3108C214.134 25.6588 211.505 26.3288 209.512 25.5799L210.33 30.1047L201.5 31.4998L201 33.9998C201 33.9998 212.911 36.8996 215.508 33.8805C216.739 32.6114 215.961 28.3783 215.731 24.3108H215.723Z" fill="#E06A5B"/>
<path d="M215.723 24.3105L214.976 17.7757C214.102 11.1777 206.104 13.0696 207.907 19.1315L209.512 25.5796C211.608 26.3679 214.055 25.7294 215.723 24.3105Z" fill="#E06A5B"/>
<defs>
<filter id="filter0_d_2_1158" x="25.0371" y="44.8989" width="264.309" height="179.205" filterUnits="userSpaceOnUse" color-interpolation-filters="sRGB">
<feFlood flood-opacity="0" result="BackgroundImageFix"/>
<feColorMatrix in="SourceAlpha" type="matrix" values="0 0 0 0 0 0 0 0 0 0 0 0 0 0 0 0 0 0 127 0" result="hardAlpha"/>
<feOffset dy="5"/>
<feComposite in2="hardAlpha" operator="out"/>
<feColorMatrix type="matrix" values="0 0 0 0 0.0901961 0 0 0 0 0.419608 0 0 0 0 0.258824 0 0 0 1 0"/>
<feBlend mode="normal" in2="BackgroundImageFix" result="effect1_dropShadow_2_1158"/>
<feBlend mode="normal" in="SourceGraphic" in2="effect1_dropShadow_2_1158" result="shape"/>
</filter>
<clipPath id="clip0_2_1158">
<rect width="37" height="90" fill="white" transform="translate(172 93)"/>
</clipPath>
</defs>
</svg>
