<svg width="316" height="247" viewBox="0 0 316 247" fill="none" xmlns="http://www.w3.org/2000/svg">
<g filter="url(#filter0_d_1_410)">
<path d="M61.4838 122.257L144.999 74.5823C152.545 70.2751 156.318 68.1214 160.332 67.3315C163.594 66.6896 166.951 66.7048 170.207 67.3762C174.214 68.2024 177.967 70.3901 185.473 74.7655L255.469 115.567C275.706 127.363 285.825 133.261 289.055 141.013C291.636 147.207 291.62 154.177 289.009 160.358C285.741 168.095 275.594 173.944 255.301 185.643L172.571 233.337L172.571 233.337C165.047 237.674 161.285 239.843 157.276 240.65C154.018 241.306 150.662 241.306 147.404 240.649C143.395 239.841 139.633 237.672 132.11 233.334L132.11 233.334L61.3288 192.513C40.8556 180.706 30.619 174.803 27.3589 167.021C24.7549 160.806 24.7703 153.802 27.4018 147.599C30.6962 139.832 40.9587 133.973 61.4838 122.257Z" fill="#5DA481"/>
</g>
<g clip-path="url(#clip0_1_410)">
<path d="M234.556 52.8152C235.238 52.4047 235.063 51.0492 234.03 50.9775C231.914 50.8276 230.337 53.4408 229.993 55.259C229.824 56.1583 229.74 57.3834 230.369 58.1329C231.109 59.0126 232.258 58.6086 232.998 57.9765C234.128 57.0185 235.803 54.2294 234.556 52.8152Z" fill="#3A355D"/>
<path d="M254.258 126.493C264.956 132.697 265.014 142.739 254.381 148.943C243.755 155.147 226.468 155.147 215.77 148.943C205.072 142.739 205.014 132.691 215.647 126.487C226.273 120.283 243.56 120.289 254.258 126.487V126.493Z" fill="#D4D5D7"/>
<g style="mix-blend-mode:multiply">
<path d="M268 154.671L234.874 174L167.006 134.665L200.132 115.337L268 154.671Z" fill="#D4D5D7"/>
</g>
<path d="M253.868 144.883C253.868 144.883 253.862 144.844 253.862 144.825C253.842 144.707 253.816 144.59 253.784 144.479V144.447C253.738 144.323 253.693 144.193 253.634 144.069C253.576 143.938 253.518 143.815 253.446 143.691V143.678C253.375 143.56 253.297 143.45 253.219 143.339L253.2 143.306C253.128 143.209 253.05 143.117 252.966 143.026C252.946 143.007 252.933 142.987 252.914 142.967C252.849 142.902 252.784 142.837 252.713 142.778C252.68 142.752 252.654 142.72 252.622 142.7C252.524 142.622 252.427 142.55 252.323 142.492C252.258 142.453 252.187 142.42 252.122 142.394C252.103 142.387 252.083 142.374 252.057 142.368C252.018 142.355 251.979 142.342 251.947 142.329C251.921 142.322 251.901 142.316 251.875 142.309C251.856 142.309 251.83 142.296 251.81 142.296C251.784 142.296 251.752 142.283 251.726 142.283C251.713 142.283 251.694 142.283 251.681 142.283C251.648 142.283 251.616 142.283 251.583 142.283C251.577 142.283 251.564 142.283 251.557 142.283C251.518 142.283 251.479 142.29 251.44 142.296C251.434 142.296 251.421 142.296 251.414 142.296C251.382 142.303 251.356 142.309 251.33 142.322C251.324 142.322 251.311 142.322 251.304 142.329C251.265 142.342 251.233 142.361 251.2 142.381L253.011 141.325H253.018C253.018 141.325 253.07 141.293 253.096 141.28H253.109C253.109 141.28 253.128 141.267 253.135 141.267C253.148 141.267 253.161 141.254 253.174 141.254C253.187 141.254 253.206 141.247 253.219 141.24C253.226 141.24 253.239 141.24 253.245 141.24H253.258C253.258 141.24 253.323 141.227 253.355 141.227C253.355 141.227 253.375 141.227 253.381 141.227C253.407 141.227 253.433 141.227 253.453 141.227C253.459 141.227 253.472 141.227 253.479 141.227C253.492 141.227 253.511 141.227 253.524 141.227C253.537 141.227 253.55 141.227 253.57 141.227C253.583 141.227 253.596 141.227 253.609 141.234C253.628 141.234 253.654 141.24 253.673 141.247C253.686 141.247 253.699 141.247 253.706 141.254C253.719 141.254 253.732 141.26 253.745 141.267C253.784 141.28 253.816 141.293 253.855 141.306C253.868 141.306 253.881 141.312 253.894 141.319C253.894 141.319 253.907 141.325 253.92 141.332C253.985 141.358 254.05 141.39 254.121 141.429C254.225 141.488 254.323 141.56 254.42 141.638C254.452 141.664 254.478 141.69 254.511 141.716C254.556 141.755 254.608 141.794 254.654 141.84C254.673 141.86 254.693 141.886 254.712 141.905C254.732 141.925 254.745 141.944 254.764 141.964C254.783 141.983 254.803 142.003 254.822 142.029C254.868 142.081 254.907 142.133 254.952 142.185C254.952 142.185 254.978 142.225 254.998 142.244L255.017 142.277C255.017 142.277 255.043 142.316 255.056 142.335C255.089 142.381 255.121 142.427 255.147 142.472C255.173 142.518 255.205 142.563 255.231 142.609V142.622L255.244 142.635C255.264 142.674 255.283 142.707 255.303 142.746C255.329 142.791 255.348 142.837 255.374 142.883C255.394 142.922 255.413 142.967 255.433 143.007V143.02C255.459 143.065 255.478 143.117 255.491 143.163C255.511 143.215 255.53 143.261 255.543 143.313C255.549 143.339 255.556 143.365 255.569 143.391L255.582 143.424C255.582 143.424 255.595 143.456 255.595 143.476C255.614 143.534 255.627 143.6 255.64 143.658C255.647 143.697 255.653 143.73 255.66 143.769C255.66 143.789 255.666 143.808 255.673 143.828C255.673 143.847 255.679 143.86 255.679 143.88C255.692 143.984 255.699 144.088 255.699 144.193C255.699 144.316 255.686 144.434 255.666 144.538C255.647 144.642 255.614 144.74 255.575 144.825C255.517 144.955 255.433 145.053 255.335 145.131C255.303 145.157 255.277 145.19 255.238 145.209L253.427 146.265C253.498 146.226 253.563 146.167 253.622 146.108C253.79 145.913 253.888 145.626 253.894 145.248C253.894 145.131 253.881 145.007 253.862 144.883H253.868Z" fill="#808080"/>
<path d="M250.726 143.411C250.726 144.421 251.427 145.646 252.31 146.161C253.187 146.669 253.894 146.258 253.901 145.248C253.901 144.238 253.2 143.007 252.323 142.498C251.447 141.99 250.733 142.394 250.733 143.411H250.726Z" fill="#808080"/>
<path d="M251.265 143.723C251.265 144.388 251.726 145.196 252.304 145.528C252.881 145.861 253.349 145.594 253.349 144.929C253.349 144.264 252.888 143.456 252.31 143.124C251.733 142.791 251.265 143.059 251.265 143.723Z" fill="#B3B3B3"/>
<path d="M228.156 130.051C228.156 130.051 228.149 130.012 228.149 129.993C228.13 129.875 228.104 129.758 228.071 129.647V129.615C228.026 129.491 227.98 129.361 227.922 129.237C227.864 129.106 227.805 128.983 227.734 128.859V128.846C227.662 128.728 227.584 128.618 227.507 128.507L227.487 128.474C227.416 128.376 227.338 128.285 227.253 128.194C227.234 128.174 227.221 128.155 227.201 128.135C227.137 128.07 227.072 128.005 227 127.946C226.968 127.92 226.942 127.888 226.909 127.868C226.812 127.79 226.715 127.718 226.611 127.66C226.546 127.621 226.474 127.588 226.409 127.562C226.39 127.555 226.371 127.542 226.345 127.536C226.306 127.523 226.267 127.51 226.234 127.497C226.208 127.49 226.189 127.484 226.163 127.477C226.143 127.477 226.117 127.464 226.098 127.464C226.072 127.464 226.039 127.451 226.013 127.451C226.001 127.451 225.981 127.451 225.968 127.451C225.936 127.451 225.903 127.451 225.871 127.451C225.864 127.451 225.851 127.451 225.845 127.451C225.806 127.451 225.767 127.458 225.728 127.464C225.721 127.464 225.708 127.464 225.702 127.464C225.669 127.471 225.643 127.477 225.618 127.49C225.611 127.49 225.598 127.49 225.592 127.497C225.553 127.51 225.52 127.529 225.488 127.549L227.299 126.493H227.305C227.305 126.493 227.357 126.461 227.383 126.448H227.396C227.396 126.448 227.416 126.435 227.422 126.435C227.435 126.435 227.448 126.421 227.461 126.421C227.474 126.421 227.494 126.415 227.507 126.408C227.513 126.408 227.526 126.408 227.532 126.408H227.545C227.545 126.408 227.61 126.395 227.643 126.395C227.643 126.395 227.662 126.395 227.669 126.395C227.695 126.395 227.721 126.395 227.74 126.395C227.747 126.395 227.76 126.395 227.766 126.395C227.779 126.395 227.799 126.395 227.812 126.395C227.825 126.395 227.838 126.395 227.857 126.395C227.87 126.395 227.883 126.395 227.896 126.402C227.915 126.402 227.941 126.408 227.961 126.415C227.974 126.415 227.987 126.415 227.993 126.421C228.006 126.421 228.019 126.428 228.032 126.435C228.071 126.448 228.104 126.461 228.143 126.474C228.156 126.474 228.169 126.48 228.182 126.487C228.182 126.487 228.195 126.493 228.208 126.5C228.273 126.526 228.337 126.558 228.409 126.597C228.513 126.656 228.61 126.728 228.707 126.806C228.74 126.832 228.766 126.858 228.798 126.884C228.844 126.923 228.896 126.962 228.941 127.008C228.961 127.028 228.98 127.054 229 127.073C229.019 127.093 229.032 127.112 229.051 127.132C229.071 127.151 229.09 127.171 229.11 127.197C229.155 127.249 229.194 127.301 229.24 127.353C229.24 127.353 229.266 127.392 229.285 127.412L229.305 127.445C229.305 127.445 229.331 127.484 229.344 127.503C229.376 127.549 229.409 127.594 229.434 127.64C229.46 127.686 229.493 127.731 229.519 127.777V127.79L229.532 127.803C229.551 127.842 229.571 127.875 229.59 127.914C229.616 127.959 229.636 128.005 229.662 128.051C229.681 128.09 229.701 128.135 229.72 128.174V128.188C229.746 128.233 229.766 128.285 229.779 128.331C229.798 128.383 229.817 128.429 229.83 128.481C229.837 128.507 229.843 128.533 229.856 128.559L229.869 128.592C229.869 128.592 229.882 128.624 229.882 128.644C229.902 128.702 229.915 128.767 229.928 128.826C229.934 128.865 229.941 128.898 229.947 128.937C229.947 128.956 229.954 128.976 229.96 128.996C229.96 129.015 229.967 129.028 229.967 129.048C229.98 129.152 229.986 129.256 229.986 129.361C229.986 129.484 229.973 129.602 229.954 129.706C229.934 129.81 229.902 129.908 229.863 129.993C229.804 130.123 229.72 130.221 229.623 130.299C229.59 130.325 229.564 130.358 229.525 130.377L227.714 131.433C227.786 131.394 227.851 131.335 227.909 131.276C228.078 131.081 228.175 130.794 228.182 130.416C228.182 130.299 228.169 130.175 228.149 130.051H228.156Z" fill="#808080"/>
<path d="M225.014 128.579C225.014 129.589 225.715 130.814 226.598 131.329C227.474 131.837 228.182 131.426 228.188 130.416C228.188 129.406 227.487 128.174 226.611 127.666C225.734 127.158 225.02 127.562 225.02 128.579H225.014Z" fill="#808080"/>
<path d="M225.553 128.898C225.553 129.563 226.013 130.371 226.591 130.703C227.169 131.035 227.636 130.768 227.636 130.103C227.636 129.439 227.175 128.631 226.598 128.298C226.02 127.966 225.553 128.233 225.553 128.898Z" fill="#B3B3B3"/>
<path d="M250.785 130.051C250.785 130.051 250.791 130.012 250.791 129.993C250.811 129.875 250.837 129.758 250.869 129.647L250.882 129.615C250.921 129.491 250.967 129.361 251.018 129.237C251.077 129.106 251.135 128.983 251.207 128.859V128.846C251.278 128.728 251.356 128.618 251.434 128.507L251.453 128.474C251.525 128.376 251.603 128.285 251.687 128.194C251.707 128.174 251.72 128.155 251.739 128.135C251.804 128.07 251.869 128.005 251.94 127.946C251.973 127.92 251.999 127.888 252.031 127.868C252.128 127.79 252.226 127.718 252.33 127.66C252.395 127.621 252.466 127.588 252.531 127.562C252.55 127.555 252.57 127.542 252.596 127.536C252.635 127.523 252.674 127.51 252.706 127.497C252.732 127.49 252.752 127.484 252.778 127.477C252.797 127.477 252.823 127.464 252.843 127.464C252.869 127.464 252.901 127.451 252.927 127.451C252.94 127.451 252.959 127.451 252.972 127.451C253.005 127.451 253.037 127.451 253.07 127.451C253.076 127.451 253.089 127.451 253.096 127.451C253.135 127.451 253.174 127.458 253.213 127.464C253.219 127.464 253.232 127.464 253.239 127.464C253.271 127.471 253.297 127.477 253.323 127.49C253.329 127.49 253.342 127.49 253.349 127.497C253.388 127.51 253.42 127.529 253.453 127.549L251.642 126.493H251.635C251.635 126.493 251.583 126.461 251.557 126.448H251.544C251.544 126.448 251.525 126.435 251.518 126.435C251.505 126.435 251.492 126.421 251.479 126.421C251.466 126.421 251.447 126.415 251.434 126.408C251.427 126.408 251.414 126.408 251.408 126.408H251.395C251.395 126.408 251.33 126.395 251.298 126.395C251.298 126.395 251.278 126.395 251.272 126.395C251.246 126.395 251.22 126.395 251.2 126.395C251.194 126.395 251.181 126.395 251.174 126.395C251.161 126.395 251.142 126.395 251.129 126.395C251.116 126.395 251.103 126.395 251.083 126.395C251.07 126.395 251.057 126.395 251.044 126.402C251.025 126.402 250.999 126.408 250.979 126.415C250.967 126.415 250.954 126.415 250.947 126.421C250.934 126.421 250.921 126.428 250.908 126.435C250.869 126.448 250.837 126.461 250.798 126.474C250.785 126.474 250.772 126.48 250.759 126.487C250.759 126.487 250.746 126.493 250.733 126.5C250.668 126.526 250.603 126.558 250.532 126.597C250.428 126.656 250.33 126.728 250.233 126.806C250.201 126.832 250.175 126.858 250.142 126.884C250.097 126.923 250.045 126.962 249.999 127.008C249.98 127.028 249.96 127.054 249.941 127.073C249.921 127.093 249.908 127.112 249.889 127.132C249.869 127.151 249.85 127.171 249.831 127.197C249.785 127.249 249.746 127.301 249.701 127.353C249.701 127.353 249.675 127.392 249.655 127.412L249.636 127.445C249.636 127.445 249.61 127.484 249.597 127.503C249.564 127.549 249.532 127.594 249.506 127.64C249.48 127.686 249.448 127.731 249.422 127.777V127.79L249.409 127.803C249.389 127.842 249.37 127.875 249.35 127.914C249.324 127.959 249.305 128.005 249.279 128.051C249.259 128.09 249.24 128.135 249.22 128.174V128.188C249.194 128.233 249.175 128.285 249.162 128.331C249.142 128.383 249.123 128.429 249.11 128.481C249.103 128.507 249.097 128.533 249.084 128.559L249.071 128.592C249.071 128.592 249.058 128.624 249.058 128.644C249.039 128.702 249.026 128.767 249.013 128.826C249.006 128.865 249 128.898 248.993 128.937C248.993 128.956 248.987 128.976 248.98 128.996C248.98 129.015 248.974 129.028 248.974 129.048C248.961 129.152 248.954 129.256 248.954 129.361C248.954 129.484 248.967 129.602 248.987 129.706C249.006 129.81 249.039 129.908 249.078 129.993C249.136 130.123 249.22 130.221 249.318 130.299C249.35 130.325 249.376 130.358 249.415 130.377L251.226 131.433C251.155 131.394 251.09 131.335 251.031 131.276C250.863 131.081 250.765 130.794 250.759 130.416C250.759 130.299 250.772 130.175 250.791 130.051H250.785Z" fill="#808080"/>
<path d="M252.33 127.673C251.453 128.181 250.746 129.406 250.752 130.423C250.752 131.433 251.466 131.837 252.343 131.335C253.219 130.827 253.927 129.595 253.927 128.585C253.927 127.575 253.213 127.164 252.336 127.673H252.33Z" fill="#808080"/>
<path d="M252.336 128.298C251.758 128.631 251.298 129.439 251.298 130.103C251.298 130.768 251.765 131.035 252.343 130.703C252.92 130.371 253.381 129.563 253.381 128.898C253.381 128.233 252.914 127.966 252.336 128.298Z" fill="#B3B3B3"/>
<path d="M227.545 144.062C227.545 144.062 227.552 144.023 227.552 144.004C227.571 143.886 227.597 143.769 227.63 143.658V143.626C227.675 143.502 227.721 143.371 227.779 143.248C227.838 143.117 227.896 142.993 227.967 142.87V142.857C228.039 142.739 228.117 142.629 228.195 142.518L228.214 142.485C228.285 142.387 228.363 142.296 228.448 142.205C228.467 142.185 228.48 142.166 228.5 142.146C228.565 142.081 228.63 142.016 228.701 141.957C228.733 141.931 228.759 141.899 228.792 141.879C228.889 141.801 228.987 141.729 229.09 141.671C229.155 141.631 229.227 141.599 229.292 141.573C229.311 141.566 229.331 141.553 229.357 141.547C229.396 141.534 229.434 141.521 229.467 141.508C229.493 141.501 229.512 141.495 229.538 141.488C229.558 141.488 229.584 141.475 229.603 141.475C229.629 141.475 229.662 141.469 229.688 141.462C229.701 141.462 229.72 141.462 229.733 141.462C229.766 141.462 229.798 141.462 229.837 141.462C229.843 141.462 229.856 141.462 229.863 141.462C229.902 141.462 229.941 141.469 229.98 141.475C229.986 141.475 229.999 141.475 230.006 141.475C230.038 141.482 230.064 141.488 230.09 141.501C230.097 141.501 230.11 141.501 230.116 141.508C230.155 141.521 230.187 141.54 230.22 141.56L228.409 140.504H228.402C228.402 140.504 228.35 140.472 228.324 140.458H228.311C228.311 140.458 228.292 140.445 228.285 140.445C228.273 140.445 228.26 140.432 228.247 140.432C228.234 140.432 228.214 140.426 228.201 140.419C228.195 140.419 228.182 140.419 228.175 140.419H228.162C228.162 140.419 228.097 140.406 228.065 140.406C228.065 140.406 228.045 140.406 228.039 140.406C228.013 140.406 227.987 140.406 227.967 140.406C227.961 140.406 227.948 140.406 227.941 140.406C227.928 140.406 227.909 140.406 227.896 140.406C227.883 140.406 227.87 140.406 227.851 140.406C227.838 140.406 227.825 140.406 227.812 140.413C227.792 140.413 227.766 140.419 227.747 140.426C227.734 140.426 227.721 140.426 227.714 140.432C227.701 140.432 227.688 140.439 227.675 140.445C227.636 140.458 227.604 140.472 227.565 140.485C227.552 140.485 227.539 140.491 227.526 140.498C227.526 140.498 227.513 140.504 227.5 140.511C227.435 140.537 227.37 140.569 227.299 140.608C227.195 140.667 227.098 140.739 227 140.817C226.968 140.843 226.942 140.869 226.909 140.895C226.864 140.934 226.812 140.973 226.767 141.019C226.747 141.038 226.728 141.065 226.708 141.084C226.689 141.104 226.676 141.123 226.656 141.143C226.637 141.162 226.617 141.182 226.598 141.208C226.552 141.26 226.513 141.312 226.468 141.364C226.468 141.364 226.442 141.403 226.422 141.423L226.403 141.456C226.403 141.456 226.377 141.495 226.364 141.514C226.332 141.56 226.299 141.605 226.273 141.651C226.247 141.697 226.215 141.742 226.189 141.788V141.801L226.176 141.814C226.156 141.853 226.137 141.886 226.117 141.925C226.091 141.97 226.072 142.016 226.046 142.062C226.026 142.101 226.007 142.146 225.988 142.185V142.198C225.962 142.244 225.942 142.296 225.929 142.342C225.91 142.394 225.89 142.44 225.877 142.492C225.871 142.518 225.864 142.544 225.851 142.57L225.838 142.602C225.838 142.602 225.825 142.635 225.825 142.655C225.806 142.713 225.793 142.778 225.78 142.837C225.773 142.876 225.767 142.909 225.76 142.948C225.76 142.967 225.754 142.987 225.747 143.007C225.747 143.026 225.741 143.039 225.741 143.059C225.728 143.163 225.721 143.267 225.721 143.371C225.721 143.495 225.734 143.613 225.754 143.717C225.773 143.821 225.806 143.919 225.845 144.004C225.903 144.134 225.988 144.232 226.085 144.31C226.117 144.336 226.143 144.369 226.182 144.388L227.993 145.444C227.922 145.405 227.857 145.346 227.799 145.287C227.63 145.092 227.532 144.805 227.526 144.427C227.526 144.31 227.539 144.186 227.558 144.062H227.545Z" fill="#808080"/>
<path d="M229.097 141.677C228.221 142.185 227.513 143.411 227.52 144.427C227.52 145.437 228.234 145.841 229.11 145.34C229.986 144.831 230.694 143.6 230.694 142.589C230.694 141.579 229.98 141.169 229.103 141.677H229.097Z" fill="#808080"/>
<path d="M229.097 142.303C228.519 142.635 228.058 143.443 228.058 144.108C228.058 144.773 228.526 145.04 229.103 144.707C229.681 144.375 230.142 143.567 230.142 142.902C230.142 142.238 229.675 141.97 229.097 142.303Z" fill="#B3B3B3"/>
<path d="M252.226 143.404L247.279 140.55L246.552 138.66L239.555 134.659V134.02L252.739 139.455V142.563L252.226 143.404Z" fill="#8B9299"/>
<path d="M226.877 143.404L231.83 140.55L232.557 138.66L239.555 134.659V134.02L226.364 139.455V142.563L226.877 143.404Z" fill="#8B9299"/>
<path d="M254.79 125.789L250.142 128.539L243.157 132.515L242.651 132.228L249.882 126.65L253.07 125.711L253.816 125.424L254.79 125.789Z" fill="#8B9299"/>
<path d="M224.313 125.789L228.961 128.539L235.952 132.515L236.458 132.228L229.227 126.65L226.039 125.711L225.293 125.424L224.313 125.789Z" fill="#ECEBF1"/>
<path d="M225.546 138.549L236.452 132.228L225.566 125.92C225.079 125.633 224.631 125.607 224.313 125.796L227.403 123.997C227.721 123.808 228.169 123.834 228.656 124.121L239.555 130.436L250.454 124.121C250.941 123.834 251.388 123.808 251.707 123.997L254.796 125.796C254.478 125.607 254.03 125.633 253.544 125.92L242.657 132.228L253.563 138.549C254.537 139.116 255.322 140.478 255.322 141.605L252.232 143.404C252.232 142.283 251.447 140.915 250.473 140.348L239.555 134.02L228.636 140.348C227.662 140.915 226.877 142.277 226.877 143.404L223.787 141.605C223.787 140.485 224.572 139.116 225.546 138.549V138.549Z" fill="#BAC2CC"/>
<path d="M241.749 113.584V131.524C241.749 131.85 241.528 132.182 241.1 132.43C240.236 132.932 238.834 132.932 237.977 132.43C237.549 132.182 237.335 131.85 237.335 131.524V113.584H241.749Z" fill="#F1F1F1"/>
<path d="M260.626 73.8316C260.704 73.786 260.775 73.7469 260.853 73.7143C261.846 73.2842 262.554 73.9098 262.43 75.135L258.899 110.677C258.789 111.785 258.023 113.017 257.107 113.544L238.263 124.466C237.257 125.046 236.445 124.584 236.445 123.43C236.445 122.27 237.25 120.869 238.25 120.289L255.491 110.299L258.834 76.699C258.944 75.5781 259.717 74.353 260.626 73.8316V73.8316Z" fill="#BAC2CC"/>
<path d="M240.314 61.098C240.035 60.935 239.671 60.9285 239.25 61.111C239.172 61.1436 239.094 61.1827 239.022 61.2283C238.12 61.7496 237.348 62.9748 237.231 64.0956L233.888 97.6958L216.646 107.686C215.64 108.266 214.835 109.667 214.842 110.827C214.842 111.4 215.043 111.798 215.368 111.987L236.971 124.59C236.646 124.401 236.445 123.997 236.445 123.43C236.445 122.27 237.25 120.869 238.25 120.289L255.491 110.299L258.834 76.699C258.944 75.5781 259.717 74.353 260.626 73.8316C260.704 73.786 260.775 73.7469 260.853 73.7143C261.275 73.5318 261.638 73.5384 261.918 73.7013L240.314 61.098V61.098Z" fill="#BAC2CC"/>
<path d="M249.642 128.826L250.785 129.08L254.79 126.812V125.789L249.642 128.826Z" fill="#8B9299"/>
<path d="M238.646 68.4227L256.965 79.4881" stroke="#8B9299" stroke-miterlimit="10" stroke-linecap="round"/>
<path d="M237.828 76.3992L256.147 87.4646" stroke="#8B9299" stroke-miterlimit="10" stroke-linecap="round"/>
<path d="M237.01 84.3757L255.329 95.4411" stroke="#8B9299" stroke-miterlimit="10" stroke-linecap="round"/>
<path d="M236.192 92.3521L254.511 103.417" stroke="#8B9299" stroke-miterlimit="10" stroke-linecap="round"/>
<path d="M225.988 80.1659L224.202 93.1798L242.963 99.0252C244.053 96.0536 243.975 86.8911 243.975 86.8911L250.09 89.0807C250.09 89.0807 251.733 85.4705 252.005 80.1398C252.122 77.9046 251.557 75.6824 250.324 73.8186C246.78 68.4619 240.814 66.1158 240.814 66.1158H233.427C225.566 65.7379 222.216 77.8068 222.216 77.8068L225.994 80.1594L225.988 80.1659Z" fill="#EFBB37"/>
<path d="M222.21 77.8133L226.929 80.5438L223.884 87.1778L219.262 84.5386L222.21 77.8133Z" fill="#EF9D89"/>
<path d="M236.03 69.4524L237.01 73.8381C237.01 73.8381 241.541 71.629 243.839 67.7124L241.431 65.4316L236.036 69.4524H236.03Z" fill="#EF9D89"/>
<path d="M236.03 69.4524L233.414 72.7173C233.414 72.7173 232.128 67.3996 233.083 66.1354L234.751 65.0341L236.023 69.4524H236.03Z" fill="#EF9D89"/>
<path d="M234.829 67.543C235.147 68.6052 236.03 69.4459 236.03 69.4459C238.756 69.4785 241.424 65.4251 241.424 65.4251C239.931 64.1608 240.697 59.7751 240.697 59.7751L237.782 60.1205L236.692 61.5932L234.667 64.3303C234.459 65.7314 234.589 66.7936 234.822 67.543H234.829Z" fill="#EF9D89"/>
<path d="M234.829 67.543C237.555 66.585 238.756 62.4339 238.756 62.4339L238.308 61.8278L236.698 61.5932L234.673 64.3302C234.465 65.7313 234.595 66.7936 234.829 67.543V67.543Z" fill="#E58C7A"/>
<path d="M239.36 58.3479L240.379 60.5115C240.379 60.5115 240.347 62.4013 239.438 62.9617C238.529 63.5222 235.88 65.5163 234.238 65.3794C234.238 65.3794 231.414 64.819 231.2 59.0061C231.2 59.0061 230.376 54.0664 232.466 53.2258C232.466 53.2258 238.496 49.8175 239.717 52.0593L240.379 55.6826L239.36 58.3544V58.3479Z" fill="#EF9D89"/>
<path d="M218.483 142.752C218.483 142.752 217.821 146.91 218.165 149.152L213.193 148.148L214.322 141.201L218.483 142.752Z" fill="#E2A3A7"/>
<path d="M213.394 145.704C213.394 145.704 215.984 146.115 216.16 147.347C216.335 148.578 217.276 148.311 217.276 148.311L218.12 148.018C218.12 148.018 218.652 150.071 217.977 150.944C217.977 150.944 211.531 156.711 209.077 154.945C206.26 152.918 211.142 149.197 211.142 149.197C211.142 149.197 213.362 147.842 213.394 145.704Z" fill="#393E5B"/>
<path d="M207.506 137.357C207.506 137.357 206.844 141.514 207.188 143.756L202.216 142.752L203.345 135.806L207.506 137.357V137.357Z" fill="#E2A3A7"/>
<path d="M202.424 140.315C202.424 140.315 205.014 140.726 205.189 141.957C205.364 143.189 206.306 142.922 206.306 142.922L207.149 142.629C207.149 142.629 207.682 144.681 207.007 145.555C207.007 145.555 200.561 151.322 198.107 149.556C195.29 147.529 200.171 143.808 200.171 143.808C200.171 143.808 202.391 142.453 202.424 140.315V140.315Z" fill="#393E5B"/>
<path d="M240.028 110.508C240.028 110.508 241.385 114.757 234.952 117.305C228.519 119.853 223.307 124.897 223.307 124.897L219.775 144.264C219.645 145.131 218.944 145.815 218.068 145.874C216.75 145.972 214.874 145.704 213.699 143.762C213.55 143.515 213.492 143.215 213.498 142.922L214.283 120.726C214.439 119.898 214.9 119.162 215.575 118.667L225.864 111.179L230.207 106.083L240.022 110.501L240.028 110.508Z" fill="#393E5B"/>
<path d="M221.411 110.508L211.888 118.184L208.552 139.044C208.474 139.826 207.773 140.387 206.994 140.309C205.546 140.159 203.391 139.566 202.534 137.402L202.372 112.893C202.508 111.752 203.047 110.703 203.891 109.928L214.167 103.013L221.418 110.508H221.411Z" fill="#393E5B"/>
<path d="M236.737 133.401L236.088 172.423C236.088 172.612 235.965 172.794 235.718 172.938C235.225 173.224 234.426 173.224 233.933 172.938C233.686 172.794 233.557 172.605 233.563 172.416L232.992 133.401C232.992 133.59 233.725 133.961 233.972 134.105C234.465 134.391 235.264 134.391 235.757 134.105C236.004 133.961 236.737 133.583 236.737 133.401V133.401Z" fill="#F2F2F2"/>
<path d="M236.205 132.436C236.952 132.867 236.952 133.564 236.212 134C235.472 134.431 234.271 134.431 233.524 134C232.778 133.57 232.778 132.867 233.511 132.436C234.251 132.006 235.452 132.006 236.199 132.436H236.205Z" fill="#B0CDFF"/>
<path d="M267.974 115.161L267.325 154.183C267.325 154.372 267.202 154.554 266.955 154.697C266.462 154.984 265.663 154.984 265.17 154.697C264.923 154.554 264.793 154.365 264.8 154.176L264.228 115.161C264.228 115.35 264.962 115.721 265.209 115.864C265.702 116.151 266.5 116.151 266.994 115.864C267.241 115.721 267.974 115.343 267.974 115.161V115.161Z" fill="#F2F2F2"/>
<path d="M267.442 114.196C268.188 114.626 268.188 115.324 267.448 115.76C266.708 116.19 265.507 116.19 264.761 115.76C264.014 115.33 264.014 114.626 264.748 114.196C265.488 113.766 266.689 113.766 267.435 114.196H267.442Z" fill="#B0CDFF"/>
<path d="M170.784 95.2781L170.135 134.3C170.135 134.489 170.012 134.672 169.765 134.815C169.272 135.102 168.474 135.102 167.98 134.815C167.734 134.672 167.604 134.483 167.61 134.294L167.039 95.2781C167.039 95.4671 167.772 95.8385 168.019 95.9819C168.513 96.2686 169.311 96.2686 169.804 95.9819C170.051 95.8385 170.784 95.4606 170.784 95.2781Z" fill="#F2F2F2"/>
<path d="M170.246 94.3136C170.992 94.7437 170.992 95.441 170.252 95.8776C169.512 96.3078 168.311 96.3078 167.565 95.8776C166.818 95.4475 166.818 94.7437 167.552 94.3136C168.292 93.8835 169.493 93.8835 170.239 94.3136H170.246Z" fill="#B0CDFF"/>
<path d="M268 112.789L234.874 132.117L167.006 92.7822L200.132 73.4536L268 112.789Z" fill="white"/>
<path d="M268 112.789L267.994 115.617L234.868 134.945L234.874 132.117L268 112.789Z" fill="#F2F2F2"/>
<path d="M234.874 132.117L234.868 134.945L167 95.6105L167.006 92.7822L234.874 132.117Z" fill="#F2F2F2"/>
<path d="M208.961 97.5981L236.302 113.544L247.656 106.963L223.56 92.906L222.008 92.0002L220.321 91.0162L208.961 97.5981Z" fill="#E4E4E4"/>
<path d="M208.961 97.5981L208.974 99.9832L236.309 115.936L236.302 113.544L208.961 97.5981Z" fill="#E4E4E4"/>
<path d="M236.302 113.544L236.309 114.704L247.662 108.123L247.656 106.963L236.302 113.544Z" fill="#EFEFEF"/>
<path d="M240.665 105.75L241.638 106.317L242.612 105.75L241.645 105.184L240.665 105.75Z" fill="#B0B0B0"/>
<path d="M242.177 106.63L243.144 107.197L244.125 106.63L243.151 106.063L242.177 106.63Z" fill="#B0B0B0"/>
<path d="M239.152 104.871L240.126 105.438L241.106 104.871L240.132 104.304L239.152 104.871Z" fill="#B0B0B0"/>
<path d="M234.621 102.225L235.595 102.792L236.569 102.225L235.595 101.658L234.621 102.225Z" fill="#B0B0B0"/>
<path d="M236.134 103.105L237.101 103.672L238.081 103.105L237.107 102.538L236.134 103.105Z" fill="#B0B0B0"/>
<path d="M237.64 103.984L238.613 104.558L239.594 103.991L238.62 103.424L237.64 103.984Z" fill="#B0B0B0"/>
<path d="M231.603 100.465L232.57 101.026L233.55 100.465L232.576 99.8985L231.603 100.465Z" fill="#B0B0B0"/>
<path d="M233.109 101.345L234.082 101.912L235.063 101.345L234.089 100.778L233.109 101.345Z" fill="#B0B0B0"/>
<path d="M230.09 99.5792L231.064 100.146L232.038 99.5792L231.064 99.0122L230.09 99.5792Z" fill="#B0B0B0"/>
<path d="M227.065 97.8197L228.039 98.3866L229.019 97.8197L228.045 97.2527L227.065 97.8197Z" fill="#B0B0B0"/>
<path d="M228.578 98.6994L229.551 99.2664L230.532 98.6994L229.558 98.1324L228.578 98.6994Z" fill="#B0B0B0"/>
<path d="M225.559 96.9399L226.526 97.5069L227.507 96.9399L226.533 96.373L225.559 96.9399Z" fill="#B0B0B0"/>
<path d="M218.652 96.2948L219.626 96.8617L220.606 96.2948L219.632 95.7213L218.652 96.2948Z" fill="#B0B0B0"/>
<path d="M219.684 98.5821L220.658 99.1556L221.638 98.5821L220.665 98.0152L219.684 98.5821Z" fill="#B0B0B0"/>
<path d="M218.23 99.4293L219.204 99.9962L220.184 99.4293L219.21 98.8623L218.23 99.4293Z" fill="#B0B0B0"/>
<path d="M218.172 97.7024L219.146 98.2693L220.126 97.7024L219.152 97.1354L218.172 97.7024Z" fill="#B0B0B0"/>
<path d="M216.932 96.979L217.906 97.546L218.886 96.979L217.912 96.412L216.932 96.979Z" fill="#B0B0B0"/>
<path d="M216.77 100.27L217.743 100.837L218.724 100.27L217.75 99.703L216.77 100.27Z" fill="#B0B0B0"/>
<path d="M215.264 99.3902L216.231 99.9572L217.211 99.3902L216.244 98.8232L215.264 99.3902Z" fill="#B0B0B0"/>
<path d="M216.718 98.5495L217.691 99.11L218.672 98.543L217.698 97.9761L216.718 98.5495Z" fill="#B0B0B0"/>
<path d="M214.232 97.0963L216.445 98.3866L217.425 97.8197L215.212 96.5294L214.232 97.0963Z" fill="#B0B0B0"/>
<path d="M215.686 96.2556L216.659 96.8226L217.64 96.2556L216.666 95.6887L215.686 96.2556Z" fill="#B0B0B0"/>
<path d="M217.14 95.4085L218.113 95.9819L219.094 95.4085L218.12 94.8415L217.14 95.4085Z" fill="#B0B0B0"/>
<path d="M218.6 94.5678L219.574 95.1348L220.548 94.5678L219.574 94.0009L218.6 94.5678Z" fill="#B0B0B0"/>
<path d="M220.028 93.7076L222.021 94.8741L223.001 94.3071L221.002 93.1407L220.028 93.7076Z" fill="#B0B0B0"/>
<path d="M222.534 95.1739L223.508 95.7408L224.482 95.1739L223.514 94.6069L222.534 95.1739Z" fill="#B0B0B0"/>
<path d="M224.047 96.0536L225.02 96.6206L225.994 96.0536L225.02 95.4867L224.047 96.0536Z" fill="#B0B0B0"/>
<path d="M238.237 106.024L239.211 106.591L240.191 106.024L239.217 105.457L238.237 106.024Z" fill="#B0B0B0"/>
<path d="M239.951 107.021L241.69 108.044L242.67 107.477L240.924 106.461L239.951 107.021Z" fill="#B0B0B0"/>
<path d="M235.27 105.985L236.244 106.552L237.224 105.985L236.25 105.418L235.27 105.985Z" fill="#B0B0B0"/>
<path d="M236.724 105.144L237.698 105.711L238.678 105.144L237.705 104.577L236.724 105.144Z" fill="#B0B0B0"/>
<path d="M230.739 103.346L231.713 103.913L232.693 103.339L231.719 102.779L230.739 103.346Z" fill="#B0B0B0"/>
<path d="M232.193 102.499L233.167 103.066L234.141 102.499L233.174 101.932L232.193 102.499Z" fill="#B0B0B0"/>
<path d="M233.706 103.378L234.68 103.952L235.653 103.385L234.68 102.818L233.706 103.378Z" fill="#B0B0B0"/>
<path d="M232.252 104.226L233.225 104.793L234.206 104.226L233.232 103.659L232.252 104.226Z" fill="#B0B0B0"/>
<path d="M235.212 104.265L236.186 104.832L237.166 104.265L236.192 103.698L235.212 104.265Z" fill="#B0B0B0"/>
<path d="M233.758 105.105L234.731 105.672L235.712 105.105L234.738 104.538L233.758 105.105Z" fill="#B0B0B0"/>
<path d="M227.714 101.58L228.688 102.147L229.668 101.58L228.694 101.013L227.714 101.58Z" fill="#B0B0B0"/>
<path d="M229.175 100.739L230.149 101.306L231.122 100.739L230.149 100.172L229.175 100.739Z" fill="#B0B0B0"/>
<path d="M230.687 101.619L231.655 102.186L232.635 101.619L231.661 101.052L230.687 101.619Z" fill="#B0B0B0"/>
<path d="M226.208 100.7L227.175 101.267L228.156 100.7L227.188 100.133L226.208 100.7Z" fill="#B0B0B0"/>
<path d="M227.662 99.8594L228.636 100.426L229.61 99.8594L228.643 99.2924L227.662 99.8594Z" fill="#B0B0B0"/>
<path d="M221.677 98.0543L222.651 98.6212L223.631 98.0543L222.657 97.4873L221.677 98.0543Z" fill="#B0B0B0"/>
<path d="M223.131 97.2136L224.105 97.7805L225.079 97.2136L224.105 96.6466L223.131 97.2136Z" fill="#B0B0B0"/>
<path d="M224.637 98.0934L225.611 98.6603L226.591 98.0934L225.618 97.5264L224.637 98.0934Z" fill="#B0B0B0"/>
<path d="M224.696 99.8203L225.669 100.387L226.65 99.8203L225.676 99.2533L224.696 99.8203Z" fill="#B0B0B0"/>
<path d="M226.15 98.9731L227.124 99.5401L228.104 98.9731L227.13 98.4062L226.15 98.9731Z" fill="#B0B0B0"/>
<path d="M220.165 97.1745L221.138 97.7415L222.119 97.1745L221.145 96.6075L220.165 97.1745Z" fill="#B0B0B0"/>
<path d="M221.619 96.3339L222.593 96.9008L223.566 96.3339L222.599 95.7669L221.619 96.3339Z" fill="#B0B0B0"/>
<path d="M220.106 95.4476L221.08 96.0145L222.06 95.4476L221.087 94.8806L220.106 95.4476Z" fill="#B0B0B0"/>
<path d="M237.763 107.992L238.25 108.279L237.27 108.846L238.782 109.726L239.762 109.159L237.763 107.992Z" fill="#B0B0B0"/>
<path d="M234.79 107.399L235.764 107.966L236.744 107.399L235.77 106.832L234.79 107.399Z" fill="#B0B0B0"/>
<path d="M236.302 108.279L237.27 108.846L238.25 108.279L237.763 107.992L237.283 107.712L236.302 108.279Z" fill="#B0B0B0"/>
<path d="M238.139 107.66L240.236 108.885L241.216 108.318L239.12 107.093L238.139 107.66Z" fill="#B0B0B0"/>
<path d="M236.783 106.871L237.756 107.438L238.737 106.871L237.763 106.298L236.783 106.871Z" fill="#B0B0B0"/>
<path d="M229.227 102.466L230.2 103.027L231.181 102.46L230.207 101.893L229.227 102.466Z" fill="#B0B0B0"/>
<path d="M223.183 98.934L224.157 99.5075L225.137 98.934L224.163 98.3671L223.183 98.934Z" fill="#B0B0B0"/>
<path d="M233.277 106.519L234.251 107.086L235.231 106.519L234.258 105.946L233.277 106.519Z" fill="#B0B0B0"/>
<path d="M224.326 104.675L225.299 105.242L226.28 104.675L225.306 104.108L224.326 104.675Z" fill="#B0B0B0"/>
<path d="M225.721 102.108L226.695 102.675L227.675 102.108L226.702 101.541L225.721 102.108Z" fill="#B0B0B0"/>
<path d="M227.234 102.994L228.208 103.561L229.188 102.987L228.214 102.42L227.234 102.994Z" fill="#B0B0B0"/>
<path d="M225.78 103.835L226.754 104.402L227.734 103.835L226.76 103.268L225.78 103.835Z" fill="#B0B0B0"/>
<path d="M228.746 103.874L229.72 104.441L230.7 103.874L229.727 103.307L228.746 103.874Z" fill="#B0B0B0"/>
<path d="M227.292 104.714L228.266 105.281L229.246 104.714L228.273 104.147L227.292 104.714Z" fill="#B0B0B0"/>
<path d="M230.259 104.753L231.233 105.32L232.213 104.753L231.239 104.186L230.259 104.753Z" fill="#B0B0B0"/>
<path d="M222.826 102.662L223.261 102.916L222.281 103.483L222.813 103.796L223.793 103.229L224.767 103.796L223.787 104.362L224.326 104.675L225.306 104.108L226.28 104.675L225.299 105.242L227.591 106.578L228.571 106.011L228.324 105.874L222.826 102.662Z" fill="#B0B0B0"/>
<path d="M231.771 105.633L232.739 106.2L233.719 105.633L232.752 105.066L231.771 105.633Z" fill="#B0B0B0"/>
<path d="M219.795 102.036L220.768 102.603L221.749 102.029L220.775 101.462L219.795 102.036Z" fill="#B0B0B0"/>
<path d="M221.307 102.916L222.281 103.483L223.261 102.916L222.826 102.662L222.287 102.349L221.307 102.916Z" fill="#B0B0B0"/>
<path d="M222.813 103.795L223.787 104.362L224.767 103.795L223.793 103.229L222.813 103.795Z" fill="#B0B0B0"/>
<path d="M224.267 102.955L225.241 103.522L226.221 102.955L225.248 102.381L224.267 102.955Z" fill="#B0B0B0"/>
<path d="M221.249 101.189L222.223 101.756L223.203 101.189L222.229 100.622L221.249 101.189Z" fill="#B0B0B0"/>
<path d="M222.761 102.069L223.735 102.642L224.715 102.069L223.742 101.502L222.761 102.069Z" fill="#B0B0B0"/>
<path d="M224.215 101.228L225.189 101.795L226.169 101.228L225.196 100.661L224.215 101.228Z" fill="#B0B0B0"/>
<path d="M219.743 100.309L220.71 100.876L221.69 100.309L220.723 99.7421L219.743 100.309Z" fill="#B0B0B0"/>
<path d="M221.197 99.4684L222.164 100.035L223.144 99.4684L222.177 98.9014L221.197 99.4684Z" fill="#B0B0B0"/>
<path d="M222.703 100.348L223.677 100.915L224.657 100.348L223.683 99.7812L222.703 100.348Z" fill="#B0B0B0"/>
<path d="M230.317 106.48L231.285 107.047L232.265 106.48L231.298 105.913L230.317 106.48Z" fill="#B0B0B0"/>
<path d="M228.857 107.321L229.83 107.888L230.811 107.321L229.837 106.754L228.857 107.321Z" fill="#B0B0B0"/>
<path d="M231.823 107.36L232.797 107.927L233.777 107.36L232.804 106.793L231.823 107.36Z" fill="#B0B0B0"/>
<path d="M230.369 108.201L231.343 108.774L232.323 108.201L231.349 107.634L230.369 108.201Z" fill="#B0B0B0"/>
<path d="M233.336 108.24L234.31 108.807L235.29 108.24L234.316 107.673L233.336 108.24Z" fill="#B0B0B0"/>
<path d="M231.882 109.081L232.855 109.654L233.836 109.087L232.862 108.514L231.882 109.081Z" fill="#B0B0B0"/>
<path d="M234.848 109.126L235.816 109.687L236.796 109.12L235.829 108.553L234.848 109.126Z" fill="#B0B0B0"/>
<path d="M233.394 109.967L234.361 110.534L235.342 109.967L234.374 109.4L233.394 109.967Z" fill="#B0B0B0"/>
<path d="M236.354 110.006L237.328 110.573L238.308 109.999L237.335 109.439L236.354 110.006Z" fill="#B0B0B0"/>
<path d="M228.324 105.874L228.571 106.011L227.591 106.578L228.318 107.008L229.298 106.441L228.324 105.874Z" fill="#B0B0B0"/>
<path d="M228.805 105.594L229.779 106.168L230.759 105.594L229.785 105.027L228.805 105.594Z" fill="#B0B0B0"/>
<path d="M234.9 110.847L235.874 111.414L236.854 110.847L235.88 110.28L234.9 110.847Z" fill="#B0B0B0"/>
<path d="M218.282 101.15L219.256 101.717L220.236 101.15L219.262 100.583L218.282 101.15Z" fill="#B0B0B0"/>
<path d="M212.777 97.9435L214.991 99.2338L215.971 98.6668L213.758 97.37L212.777 97.9435Z" fill="#B0B0B0"/>
<path d="M190.499 95.428C189.207 96.1774 189.201 97.3895 190.479 98.139L197.542 102.258C198.827 103.007 200.911 103.007 202.203 102.258L211.81 96.6922C213.102 95.9428 213.109 94.7307 211.823 93.9813L204.761 89.8627C203.482 89.1133 201.392 89.1133 200.1 89.8627L190.492 95.428H190.499Z" fill="#BAC2CC"/>
<path d="M208.565 108.676C207.195 109.472 207.188 110.755 208.552 111.55L211.901 113.505C213.258 114.3 215.471 114.3 216.841 113.505L226.689 107.797L218.412 102.968L208.565 108.676Z" fill="#E4E4E4"/>
<path d="M208.552 111.55L211.901 113.505C213.258 114.3 215.471 114.3 216.841 113.505L226.689 107.797V110.488L216.848 116.197C215.478 116.992 213.271 116.992 211.908 116.197L208.558 114.242C207.883 113.844 207.545 113.329 207.539 112.815V110.123C207.539 110.638 207.87 111.159 208.545 111.55H208.552Z" fill="#BAC2CC"/>
<path d="M196.679 72.8215L196.601 99.892L235.238 122.283L235.316 95.2195L196.679 72.8215Z" fill="#D6DAE0"/>
<path d="M235.238 122.283L236.406 121.547L236.478 94.4831L235.316 95.2195L235.238 122.283Z" fill="#C8CED6"/>
<path d="M235.316 95.2195L236.478 94.4831L197.847 72.0851L196.679 72.8215L235.316 95.2195Z" fill="#BAC2CC"/>
<path d="M207.584 109.439L210.402 96.4316L218.516 100.772L215.828 113.909C215.828 113.909 213.842 114.639 211.901 113.505L208.552 111.55C208.552 111.55 207.234 111.166 207.591 109.439H207.584Z" fill="#BAC2CC"/>
<path d="M250.084 89.0807L245.618 98.1781C245.228 99.0969 244.365 99.7225 243.372 99.8007L236.484 100.172V95.1348L241.074 94.5417L243.975 86.8911L250.084 89.0807V89.0807Z" fill="#EF9D89"/>
<path d="M243.975 86.8911L245.442 81.5344C245.442 81.5344 242.203 87.1974 240.489 88.6376C238.776 90.0778 235.426 93.9096 235.426 93.9096L237.341 95.024L241.061 94.5482L243.962 86.8976L243.975 86.8911Z" fill="#B38C29"/>
<path d="M233.42 72.7172L234.043 75.6628L237.01 73.8381L237.373 68.2533L234.569 69.1461L233.42 72.7172Z" fill="#EF9D89"/>
<path d="M232.434 52.939C232.459 53.2844 232.609 53.6168 232.875 53.8449C233.076 54.0208 233.823 54.4965 234.043 55.9107C234.452 58.4652 236.361 59.6447 239.113 58.374C240.424 57.7679 243.398 50.7625 237.477 50.0717C233.238 49.5764 232.336 51.7074 232.434 52.939V52.939Z" fill="#3A355D"/>
<path d="M238.905 61.5541C239.165 61.9777 239.632 62.2319 239.905 62.6489C240.178 63.066 240.21 63.5939 240.217 64.0891C240.23 65.2426 240.132 66.4026 239.912 67.5365C239.834 67.9535 239.736 68.3836 239.821 68.8007C240.054 69.9868 241.502 70.4364 242.275 71.3683C243.729 73.1278 242.391 75.8974 243.222 78.0219C243.372 78.3933 243.599 78.7582 243.949 78.9537C244.241 79.1102 244.585 79.1362 244.91 79.1493C246.13 79.2079 247.357 79.1688 248.571 79.045C249.869 78.9081 251.265 78.6149 252.135 77.6439C253.083 76.5882 253.161 74.959 252.648 73.6361C252.135 72.3132 251.122 71.251 250.058 70.3191C249.493 69.8238 248.889 69.3416 248.506 68.6964C247.864 67.6212 247.916 66.2853 247.688 65.0536C247.448 63.7633 246.87 62.5447 246.027 61.5411C245.235 60.6027 244.222 59.8533 243.547 58.8301C242.378 57.0641 242.249 51.3815 239.379 51.5705C236.841 51.7334 238.516 55.1352 238.769 56.5428C238.912 57.3378 238.951 58.1198 238.867 58.9279C238.776 59.7685 238.419 60.7591 238.905 61.5411V61.5541Z" fill="#3A355D"/>
<path d="M239.561 58.4717C239.561 59.2407 238.944 59.8598 238.178 59.8598C237.412 59.8598 236.796 59.2407 236.796 58.4717C236.796 57.7028 237.412 57.0837 238.178 57.0837C238.944 57.0837 239.561 57.7028 239.561 58.4717Z" fill="#EF9D89"/>
<path d="M240.191 51.2903L241.113 52.4373L239.938 53.5777L240.191 51.2903Z" fill="#3A355D"/>
</g>
<g clip-path="url(#clip1_1_410)">
<path d="M57.2695 128.831C46.148 135.252 46.0873 145.645 57.1413 152.066C68.1886 158.487 86.1599 158.487 97.2814 152.066C108.403 145.645 108.464 135.245 97.4096 128.824C86.3623 122.403 68.3911 122.41 57.2695 128.824V128.831Z" fill="#D4D5D7"/>
<g style="mix-blend-mode:multiply">
<path d="M42.9897 158.002L77.4273 178L147.983 137.289L113.545 117.291L42.9897 158.002Z" fill="#D4D5D7"/>
</g>
<path d="M57.6812 147.864C57.6812 147.864 57.6879 147.824 57.6879 147.804C57.7082 147.682 57.7352 147.561 57.7689 147.446V147.413C57.8162 147.284 57.8634 147.15 57.9241 147.021C57.9849 146.886 58.0456 146.758 58.1198 146.63V146.617C58.1941 146.495 58.2751 146.381 58.356 146.266L58.3763 146.232C58.4505 146.131 58.5315 146.037 58.6192 145.942C58.6395 145.922 58.653 145.902 58.6732 145.882C58.7407 145.814 58.8082 145.747 58.8824 145.686C58.9162 145.659 58.9432 145.625 58.9769 145.605C59.0781 145.524 59.1794 145.45 59.2873 145.389C59.3548 145.349 59.4291 145.315 59.4965 145.288C59.5168 145.281 59.537 145.268 59.564 145.261C59.6045 145.247 59.645 145.234 59.6787 145.221C59.7057 145.214 59.726 145.207 59.753 145.2C59.7732 145.2 59.8002 145.187 59.8205 145.187C59.8475 145.187 59.8812 145.173 59.9082 145.173C59.9217 145.173 59.9419 145.173 59.9554 145.173C59.9892 145.173 60.0229 145.173 60.0567 145.173C60.0634 145.173 60.0769 145.173 60.0837 145.173C60.1241 145.173 60.1646 145.18 60.2051 145.187C60.2119 145.187 60.2254 145.187 60.2321 145.187C60.2659 145.194 60.2929 145.2 60.3199 145.214C60.3266 145.214 60.3401 145.214 60.3468 145.221C60.3873 145.234 60.4211 145.254 60.4548 145.274L58.572 144.182H58.5652C58.5652 144.182 58.5113 144.148 58.4843 144.135H58.4708C58.4708 144.135 58.4505 144.121 58.4438 144.121C58.4303 144.121 58.4168 144.108 58.4033 144.108C58.3898 144.108 58.3695 144.101 58.356 144.094C58.3493 144.094 58.3358 144.094 58.329 144.094H58.3155C58.3155 144.094 58.2481 144.081 58.2143 144.081C58.2143 144.081 58.1941 144.081 58.1873 144.081C58.1603 144.081 58.1333 144.081 58.1131 144.081C58.1063 144.081 58.0928 144.081 58.0861 144.081C58.0726 144.081 58.0524 144.081 58.0389 144.081C58.0254 144.081 58.0119 144.081 57.9916 144.081C57.9781 144.081 57.9646 144.081 57.9511 144.087C57.9309 144.087 57.9039 144.094 57.8836 144.101C57.8701 144.101 57.8567 144.101 57.8499 144.108C57.8364 144.108 57.8229 144.114 57.8162 144.121C57.7757 144.135 57.7419 144.148 57.7014 144.162C57.6879 144.162 57.6744 144.168 57.6609 144.175C57.6609 144.175 57.6474 144.182 57.634 144.189C57.5665 144.216 57.499 144.249 57.4247 144.29C57.3168 144.35 57.2155 144.425 57.1143 144.506C57.0806 144.533 57.0536 144.56 57.0198 144.587C56.9726 144.627 56.9186 144.667 56.8714 144.715C56.8511 144.735 56.8309 144.762 56.8106 144.782C56.7904 144.802 56.7769 144.823 56.7566 144.843C56.7364 144.863 56.7162 144.883 56.6959 144.91C56.6487 144.964 56.6082 145.018 56.5609 145.072C56.5609 145.072 56.5339 145.113 56.5137 145.133L56.4935 145.167C56.4935 145.167 56.4665 145.207 56.453 145.227C56.4192 145.274 56.3855 145.322 56.3585 145.369C56.3315 145.416 56.2977 145.463 56.2708 145.511V145.524L56.2573 145.538C56.237 145.578 56.2168 145.612 56.1965 145.652C56.1695 145.699 56.1493 145.747 56.1223 145.794C56.102 145.834 56.0818 145.882 56.0615 145.922V145.935C56.0346 145.983 56.0143 146.037 56.0008 146.084C55.9806 146.138 55.9603 146.185 55.9468 146.239C55.9401 146.266 55.9333 146.293 55.9198 146.32L55.9063 146.354C55.9063 146.354 55.8928 146.387 55.8928 146.408C55.8726 146.468 55.8591 146.536 55.8456 146.596C55.8388 146.637 55.8321 146.671 55.8254 146.711C55.8254 146.731 55.8186 146.752 55.8119 146.772C55.8119 146.792 55.8051 146.806 55.8051 146.826C55.7916 146.934 55.7849 147.042 55.7849 147.15C55.7849 147.278 55.7984 147.399 55.8186 147.507C55.8388 147.615 55.8726 147.716 55.9131 147.804C55.9738 147.939 56.0615 148.04 56.1628 148.121C56.1965 148.148 56.2235 148.181 56.264 148.202L58.1468 149.294C58.0726 149.254 58.0051 149.193 57.9444 149.132C57.7689 148.93 57.6677 148.633 57.6609 148.242C57.6609 148.121 57.6744 147.993 57.6879 147.864H57.6812Z" fill="#808080"/>
<path d="M59.2941 145.396C58.383 145.922 57.6474 147.19 57.6542 148.242C57.6542 149.288 58.3965 149.706 59.3076 149.186C60.2186 148.66 60.9542 147.386 60.9542 146.34C60.9542 145.295 60.2119 144.87 59.3008 145.396H59.2941Z" fill="#808080"/>
<path d="M59.2941 146.043C58.6935 146.387 58.2143 147.224 58.2143 147.912C58.2143 148.6 58.7002 148.876 59.3008 148.532C59.9015 148.188 60.3806 147.352 60.3806 146.664C60.3806 145.976 59.8947 145.699 59.2941 146.043Z" fill="#B3B3B3"/>
<path d="M84.412 132.52C84.412 132.52 84.4188 132.48 84.4255 132.459C84.4458 132.338 84.4728 132.217 84.5065 132.102V132.068C84.5537 131.94 84.601 131.805 84.6617 131.677C84.7224 131.542 84.7832 131.414 84.8574 131.286V131.272C84.9317 131.151 85.0126 131.036 85.0936 130.922L85.1139 130.888C85.1881 130.787 85.2691 130.692 85.3568 130.598C85.3771 130.578 85.3906 130.557 85.4108 130.537C85.4783 130.47 85.5458 130.402 85.62 130.342C85.6537 130.315 85.6807 130.281 85.7145 130.261C85.8157 130.18 85.9169 130.106 86.0249 130.045C86.0924 130.004 86.1666 129.971 86.2341 129.944C86.2544 129.937 86.2746 129.923 86.3016 129.917C86.3421 129.903 86.3826 129.89 86.4163 129.876C86.4433 129.869 86.4636 129.863 86.4906 129.856C86.5108 129.856 86.5378 129.842 86.558 129.842C86.585 129.842 86.6188 129.829 86.6458 129.829C86.6593 129.829 86.6795 129.829 86.693 129.829C86.7268 129.829 86.7605 129.829 86.7942 129.829C86.801 129.829 86.8145 129.829 86.8212 129.829C86.8617 129.829 86.9022 129.836 86.9427 129.842C86.9495 129.842 86.963 129.842 86.9697 129.842C87.0034 129.849 87.0304 129.856 87.0574 129.869C87.0642 129.869 87.0777 129.869 87.0844 129.876C87.1249 129.89 87.1587 129.91 87.1924 129.93L85.3096 128.838H85.3028C85.3028 128.838 85.2488 128.804 85.2218 128.79H85.2083C85.2083 128.79 85.1881 128.777 85.1813 128.777C85.1679 128.777 85.1544 128.763 85.1409 128.763C85.1274 128.763 85.1071 128.757 85.0936 128.75C85.0869 128.75 85.0734 128.75 85.0666 128.75H85.0531C85.0531 128.75 84.9856 128.736 84.9519 128.736C84.9519 128.736 84.9317 128.736 84.9249 128.736C84.8979 128.736 84.8709 128.736 84.8507 128.736C84.8439 128.736 84.8304 128.736 84.8237 128.736C84.8102 128.736 84.7899 128.736 84.7764 128.736C84.7629 128.736 84.7494 128.736 84.7292 128.736C84.7157 128.736 84.7022 128.736 84.6887 128.743C84.6685 128.743 84.6415 128.75 84.6212 128.757C84.6077 128.757 84.5942 128.757 84.5875 128.763C84.574 128.763 84.5605 128.77 84.5537 128.777C84.5132 128.79 84.4795 128.804 84.439 128.817C84.4255 128.817 84.412 128.824 84.3985 128.831C84.3985 128.831 84.385 128.838 84.3715 128.844C84.304 128.871 84.2366 128.905 84.1623 128.945C84.0543 129.006 83.9531 129.08 83.8519 129.161C83.8181 129.188 83.7912 129.215 83.7574 129.242C83.7102 129.283 83.6562 129.323 83.6089 129.37C83.5887 129.391 83.5685 129.418 83.5482 129.438C83.528 129.458 83.5145 129.478 83.4942 129.499C83.474 129.519 83.4537 129.539 83.4335 129.566C83.3862 129.62 83.3458 129.674 83.2985 129.728C83.2985 129.728 83.2715 129.768 83.2513 129.789L83.231 129.822C83.231 129.822 83.204 129.863 83.1905 129.883C83.1568 129.93 83.1231 129.977 83.0961 130.025C83.0691 130.072 83.0353 130.119 83.0083 130.166V130.18L82.9948 130.193C82.9746 130.234 82.9543 130.267 82.9341 130.308C82.9071 130.355 82.8869 130.402 82.8599 130.45C82.8396 130.49 82.8194 130.537 82.7991 130.578V130.591C82.7721 130.638 82.7519 130.692 82.7384 130.74C82.7181 130.794 82.6979 130.841 82.6844 130.895C82.6777 130.922 82.6709 130.949 82.6574 130.976L82.6439 131.009C82.6439 131.009 82.6304 131.043 82.6304 131.063C82.6102 131.124 82.5967 131.191 82.5832 131.252C82.5764 131.293 82.5697 131.326 82.5629 131.367C82.5629 131.387 82.5562 131.407 82.5494 131.428C82.5494 131.448 82.5427 131.461 82.5427 131.481C82.5292 131.589 82.5224 131.697 82.5224 131.805C82.5224 131.933 82.5359 132.055 82.5562 132.163C82.5764 132.271 82.6102 132.372 82.6507 132.459C82.7114 132.594 82.7991 132.696 82.9004 132.776C82.9341 132.803 82.9611 132.837 83.0016 132.857L84.8844 133.95C84.8102 133.91 84.7427 133.849 84.682 133.788C84.5065 133.586 84.4053 133.289 84.3985 132.898C84.3985 132.776 84.412 132.648 84.4323 132.52H84.412Z" fill="#808080"/>
<path d="M86.0249 130.052C85.1139 130.578 84.3783 131.846 84.385 132.898C84.385 133.943 85.1274 134.361 86.0384 133.842C86.9495 133.316 87.685 132.041 87.685 130.996C87.685 129.95 86.9427 129.525 86.0317 130.052H86.0249Z" fill="#808080"/>
<path d="M86.0249 130.699C85.4243 131.043 84.9452 131.879 84.9452 132.567C84.9452 133.255 85.431 133.532 86.0317 133.188C86.6323 132.844 87.1114 132.008 87.1114 131.32C87.1114 130.632 86.6255 130.355 86.0249 130.699V130.699Z" fill="#B3B3B3"/>
<path d="M60.8867 132.52C60.8867 132.52 60.88 132.48 60.8732 132.459C60.853 132.338 60.826 132.217 60.7923 132.102V132.068C60.745 131.94 60.6978 131.805 60.637 131.677C60.5763 131.542 60.5156 131.414 60.4413 131.286V131.272C60.3671 131.151 60.2861 131.036 60.2051 130.922L60.1849 130.888C60.1107 130.787 60.0297 130.692 59.9419 130.598C59.9217 130.578 59.9082 130.557 59.888 130.537C59.8205 130.47 59.753 130.402 59.6787 130.342C59.645 130.315 59.618 130.281 59.5843 130.261C59.483 130.18 59.3818 130.106 59.2738 130.045C59.2064 130.004 59.1321 129.971 59.0646 129.944C59.0444 129.937 59.0241 129.923 58.9971 129.917C58.9567 129.903 58.9162 129.89 58.8824 129.876C58.8554 129.869 58.8352 129.863 58.8082 129.856C58.7879 129.856 58.761 129.842 58.7407 129.842C58.7137 129.842 58.68 129.829 58.653 129.829C58.6395 129.829 58.6192 129.829 58.6057 129.829C58.572 129.829 58.5383 129.829 58.5045 129.829C58.4978 129.829 58.4843 129.829 58.4775 129.829C58.437 129.829 58.3965 129.836 58.356 129.842C58.3493 129.842 58.3358 129.842 58.329 129.842C58.2953 129.849 58.2683 129.856 58.2413 129.869C58.2346 129.869 58.2211 129.869 58.2143 129.876C58.1738 129.89 58.1401 129.91 58.1063 129.93L59.9892 128.838H59.9959C59.9959 128.838 60.0499 128.804 60.0769 128.79H60.0904C60.0904 128.79 60.1107 128.777 60.1174 128.777C60.1309 128.777 60.1444 128.763 60.1579 128.763C60.1714 128.763 60.1916 128.757 60.2051 128.75C60.2119 128.75 60.2254 128.75 60.2321 128.75H60.2456C60.2456 128.75 60.3131 128.736 60.3468 128.736C60.3468 128.736 60.3671 128.736 60.3738 128.736C60.4008 128.736 60.4278 128.736 60.4481 128.736C60.4548 128.736 60.4683 128.736 60.4751 128.736C60.4886 128.736 60.5088 128.736 60.5223 128.736C60.5358 128.736 60.5493 128.736 60.5696 128.736C60.583 128.736 60.5965 128.736 60.61 128.743C60.6303 128.743 60.6573 128.75 60.6775 128.757C60.691 128.757 60.7045 128.757 60.7113 128.763C60.7248 128.763 60.7383 128.77 60.745 128.777C60.7855 128.79 60.8192 128.804 60.8597 128.817C60.8732 128.817 60.8867 128.824 60.9002 128.831C60.9002 128.831 60.9137 128.838 60.9272 128.844C60.9947 128.871 61.0622 128.905 61.1364 128.945C61.2444 129.006 61.3456 129.08 61.4469 129.161C61.4806 129.188 61.5076 129.215 61.5413 129.242C61.5886 129.283 61.6426 129.323 61.6898 129.37C61.71 129.391 61.7303 129.418 61.7505 129.438C61.7708 129.458 61.7843 129.478 61.8045 129.499C61.8248 129.519 61.845 129.539 61.8653 129.566C61.9125 129.62 61.953 129.674 62.0002 129.728C62.0002 129.728 62.0272 129.768 62.0475 129.789L62.0677 129.822C62.0677 129.822 62.0947 129.863 62.1082 129.883C62.142 129.93 62.1757 129.977 62.2027 130.025C62.2297 130.072 62.2634 130.119 62.2904 130.166V130.18L62.3039 130.193C62.3242 130.234 62.3444 130.267 62.3647 130.308C62.3916 130.355 62.4119 130.402 62.4389 130.45C62.4591 130.49 62.4794 130.537 62.4996 130.578V130.591C62.5266 130.638 62.5469 130.692 62.5604 130.74C62.5806 130.794 62.6009 130.841 62.6143 130.895C62.6211 130.922 62.6278 130.949 62.6413 130.976L62.6548 131.009C62.6548 131.009 62.6683 131.043 62.6683 131.063C62.6886 131.124 62.7021 131.191 62.7156 131.252C62.7223 131.293 62.7291 131.326 62.7358 131.367C62.7358 131.387 62.7426 131.407 62.7493 131.428C62.7493 131.448 62.7561 131.461 62.7561 131.481C62.7696 131.589 62.7763 131.697 62.7763 131.805C62.7763 131.933 62.7628 132.055 62.7426 132.163C62.7223 132.271 62.6886 132.372 62.6481 132.459C62.5874 132.594 62.4996 132.696 62.3984 132.776C62.3647 132.803 62.3377 132.837 62.2972 132.857L60.4143 133.95C60.4886 133.91 60.5561 133.849 60.6168 133.788C60.7923 133.586 60.8935 133.289 60.9002 132.898C60.9002 132.776 60.8867 132.648 60.8665 132.52H60.8867Z" fill="#808080"/>
<path d="M57.6272 130.996C57.6272 132.041 58.356 133.309 59.2738 133.842C60.1849 134.368 60.9205 133.943 60.9272 132.898C60.9272 131.852 60.1984 130.578 59.2873 130.052C58.3763 129.525 57.634 129.944 57.634 130.996H57.6272Z" fill="#808080"/>
<path d="M58.1873 131.32C58.1873 132.008 58.6665 132.844 59.2671 133.188C59.8677 133.532 60.3536 133.255 60.3536 132.567C60.3536 131.879 59.8745 131.043 59.2738 130.699C58.6732 130.355 58.1873 130.632 58.1873 131.32Z" fill="#B3B3B3"/>
<path d="M85.0464 147.015C85.0464 147.015 85.0464 146.974 85.0396 146.954C85.0194 146.833 84.9924 146.711 84.9587 146.596V146.563C84.9114 146.435 84.8642 146.3 84.8034 146.172C84.7427 146.037 84.682 145.908 84.6077 145.78V145.767C84.5335 145.645 84.4525 145.531 84.3715 145.416L84.3513 145.382C84.2771 145.281 84.1961 145.187 84.1083 145.092C84.0881 145.072 84.0746 145.052 84.0544 145.032C83.9869 144.964 83.9194 144.897 83.8452 144.836C83.8114 144.809 83.7844 144.775 83.7507 144.755C83.6494 144.674 83.5482 144.6 83.4402 144.539C83.3728 144.499 83.2985 144.465 83.231 144.438C83.2108 144.431 83.1905 144.418 83.1636 144.411C83.1231 144.398 83.0826 144.384 83.0488 144.371C83.0218 144.364 83.0016 144.357 82.9746 144.35C82.9544 144.35 82.9274 144.337 82.9071 144.337C82.8801 144.337 82.8464 144.323 82.8194 144.323C82.8059 144.323 82.7856 144.323 82.7721 144.323C82.7384 144.323 82.7047 144.323 82.6709 144.323C82.6642 144.323 82.6507 144.323 82.6439 144.323C82.6034 144.323 82.5629 144.33 82.5224 144.337C82.5157 144.337 82.5022 144.337 82.4955 144.337C82.4617 144.344 82.4347 144.35 82.4077 144.364C82.401 144.364 82.3875 144.364 82.3807 144.371C82.3402 144.384 82.3065 144.404 82.2728 144.425L84.1556 143.332H84.1623C84.1623 143.332 84.2163 143.298 84.2433 143.285H84.2568L84.2838 143.271C84.2838 143.271 84.3108 143.258 84.3243 143.258C84.3378 143.258 84.358 143.251 84.3715 143.244C84.3783 143.244 84.3918 143.244 84.3985 143.244H84.412C84.412 143.244 84.4795 143.231 84.5133 143.231C84.5133 143.231 84.5335 143.231 84.5402 143.231C84.5672 143.231 84.5942 143.231 84.6145 143.231C84.6212 143.231 84.6347 143.231 84.6415 143.231C84.655 143.231 84.6752 143.231 84.6887 143.231C84.7022 143.231 84.7157 143.231 84.736 143.231C84.7495 143.231 84.7629 143.231 84.7764 143.238C84.7967 143.238 84.8237 143.244 84.8439 143.251C84.8574 143.251 84.8709 143.251 84.8777 143.258C84.8912 143.258 84.9047 143.265 84.9182 143.271C84.9587 143.285 84.9924 143.298 85.0329 143.312C85.0464 143.312 85.0599 143.319 85.0734 143.325C85.0734 143.325 85.0869 143.332 85.1004 143.339C85.1679 143.366 85.2353 143.399 85.3096 143.44C85.4176 143.501 85.5188 143.575 85.62 143.656C85.6538 143.683 85.6807 143.71 85.7145 143.737C85.7617 143.777 85.8157 143.818 85.863 143.865C85.8832 143.885 85.9034 143.912 85.9237 143.932C85.9439 143.953 85.9574 143.973 85.9777 143.993C85.9979 144.013 86.0182 144.033 86.0384 144.06C86.0857 144.114 86.1261 144.168 86.1734 144.222C86.1734 144.222 86.2004 144.263 86.2206 144.283L86.2409 144.317C86.2409 144.317 86.2679 144.357 86.2814 144.377C86.3151 144.425 86.3488 144.472 86.3758 144.519C86.4028 144.566 86.4366 144.614 86.4636 144.661V144.674L86.4771 144.688C86.4973 144.728 86.5176 144.762 86.5378 144.802C86.5648 144.85 86.585 144.897 86.612 144.944C86.6323 144.984 86.6525 145.032 86.6728 145.072V145.086C86.6998 145.133 86.72 145.187 86.7335 145.234C86.7538 145.288 86.774 145.335 86.7875 145.389C86.7943 145.416 86.801 145.443 86.8145 145.47L86.828 145.504C86.828 145.504 86.8415 145.538 86.8415 145.558C86.8617 145.618 86.8752 145.686 86.8887 145.747C86.8955 145.787 86.9022 145.821 86.909 145.861C86.909 145.882 86.9157 145.902 86.9225 145.922C86.9225 145.942 86.9292 145.956 86.9292 145.976C86.9427 146.084 86.9495 146.192 86.9495 146.3C86.9495 146.428 86.936 146.549 86.9157 146.657C86.8955 146.765 86.8617 146.866 86.8212 146.954C86.7605 147.089 86.6728 147.19 86.5716 147.271C86.5378 147.298 86.5108 147.332 86.4703 147.352L84.5875 148.445C84.6617 148.404 84.7292 148.343 84.7899 148.283C84.9654 148.08 85.0666 147.784 85.0734 147.392C85.0734 147.271 85.0599 147.143 85.0464 147.015V147.015Z" fill="#808080"/>
<path d="M81.7801 145.49C81.7801 146.536 82.5089 147.804 83.4267 148.337C84.3378 148.863 85.0734 148.438 85.0801 147.392C85.0801 146.347 84.3513 145.072 83.4402 144.546C82.5292 144.02 81.7869 144.438 81.7869 145.49H81.7801Z" fill="#808080"/>
<path d="M82.347 145.821C82.347 146.509 82.8261 147.345 83.4267 147.689C84.0274 148.033 84.5133 147.757 84.5133 147.069C84.5133 146.381 84.0341 145.544 83.4335 145.2C82.8329 144.856 82.347 145.133 82.347 145.821Z" fill="#B3B3B3"/>
<path d="M59.3886 146.333L64.5309 143.379L65.2868 141.423L72.5616 137.282V136.621L58.8554 142.246V145.47L59.3886 146.333Z" fill="#8B9299"/>
<path d="M85.7415 146.333L80.5924 143.379L79.8365 141.423L72.5616 137.282V136.621L86.2746 142.246V145.47L85.7415 146.333Z" fill="#8B9299"/>
<path d="M56.7161 128.109L61.5481 130.949L68.8162 135.07L69.3426 134.766L61.8248 128.993L58.5113 128.021L57.7352 127.725L56.7161 128.109Z" fill="#8B9299"/>
<path d="M88.4071 128.109L83.5752 130.949L76.3071 135.07L75.7807 134.766L83.2985 128.993L86.612 128.021L87.3881 127.725L88.4071 128.109Z" fill="#ECEBF1"/>
<path d="M87.1182 141.309L75.7807 134.766L87.0979 128.237C87.6041 127.94 88.0697 127.913 88.4004 128.109L85.1881 126.248C84.8574 126.052 84.3918 126.079 83.8856 126.376L72.5549 132.911L61.2242 126.376C60.718 126.079 60.2524 126.052 59.9217 126.248L56.7094 128.109C57.0401 127.913 57.5057 127.94 58.0119 128.237L69.3291 134.766L57.9916 141.309C56.9793 141.895 56.1628 143.305 56.1628 144.472L59.3751 146.333C59.3751 145.173 60.1916 143.757 61.2039 143.17L72.5549 136.621L83.9059 143.17C84.9182 143.757 85.7347 145.167 85.7347 146.333L88.947 144.472C88.947 143.312 88.1304 141.895 87.1182 141.309V141.309Z" fill="#BAC2CC"/>
<path d="M70.2739 115.476V134.044C70.2739 134.382 70.5033 134.726 70.9487 134.982C71.8463 135.501 73.304 135.501 74.1948 134.982C74.6402 134.726 74.8629 134.382 74.8629 134.044V115.476H70.2739V115.476Z" fill="#F1F1F1"/>
<path d="M50.656 74.3265C50.575 74.2793 50.5008 74.2388 50.4198 74.2051C49.3873 73.76 48.6517 74.4075 48.7799 75.6755L52.4511 112.461C52.5658 113.608 53.3621 114.883 54.3137 115.429L73.9046 126.733C74.9506 127.333 75.7942 126.855 75.7942 125.661C75.7942 124.46 74.9574 123.01 73.9181 122.41L55.9941 112.07L52.5186 77.2942C52.4039 76.1341 51.6008 74.8661 50.656 74.3265V74.3265Z" fill="#BAC2CC"/>
<path d="M71.7721 61.1473C72.0623 60.9787 72.4402 60.9719 72.8788 61.1608C72.9598 61.1945 73.034 61.235 73.115 61.2822C74.0531 61.8218 74.8561 63.0898 74.9776 64.2499L78.4531 99.0258L96.3771 109.365C97.4231 109.966 98.26 111.416 98.2532 112.616C98.2532 113.21 98.044 113.621 97.7066 113.817L75.2475 126.861C75.585 126.666 75.7942 126.248 75.7942 125.661C75.7942 124.46 74.9574 123.01 73.9181 122.41L55.9941 112.07L52.5186 77.2942C52.4039 76.1341 51.6008 74.8661 50.656 74.3265C50.575 74.2793 50.5008 74.2388 50.4198 74.2051C49.9811 74.0163 49.6032 74.023 49.313 74.1916L71.7721 61.1473Z" fill="#BAC2CC"/>
<path d="M62.0745 131.245L60.8867 131.515L56.7162 129.161V128.109L62.0745 131.245Z" fill="#8B9299"/>
<path d="M73.5064 68.7284L54.4622 80.1877" stroke="#8B9299" stroke-miterlimit="10" stroke-linecap="round"/>
<path d="M74.3567 76.9839L55.3125 88.4433" stroke="#8B9299" stroke-miterlimit="10" stroke-linecap="round"/>
<path d="M75.2071 85.2395L56.1628 96.6988" stroke="#8B9299" stroke-miterlimit="10" stroke-linecap="round"/>
<path d="M76.0574 93.4951L57.0131 104.954" stroke="#8B9299" stroke-miterlimit="10" stroke-linecap="round"/>
<path d="M86.666 80.8824L88.5219 94.3517L69.0187 100.402C67.8849 97.3261 67.9659 87.843 67.9659 87.843L61.6088 90.1092C61.6088 90.1092 59.9015 86.3726 59.618 80.8554C59.4965 78.542 60.0837 76.242 61.3659 74.313C65.0506 68.7688 71.2524 66.3407 71.2524 66.3407H78.9322C89.5071 66.7454 90.5869 78.4408 90.5869 78.4408L86.6593 80.8757L86.666 80.8824Z" fill="#8694DE"/>
<path d="M90.5937 78.4475L85.6875 81.2803L86.9225 89.111L91.9434 86.2107L90.5937 78.4475Z" fill="#8694DE"/>
<path d="M76.2261 69.794L75.2071 74.3333C75.2071 74.3333 70.4966 72.0468 68.1076 67.9932L70.6113 65.6325L76.2193 69.794H76.2261Z" fill="#9EA9E5"/>
<path d="M76.2261 69.794L78.9457 73.1732C78.9457 73.1732 80.2819 67.6694 79.2899 66.361L77.5555 65.2211L76.2328 69.794H76.2261Z" fill="#9EA9E5"/>
<path d="M77.4746 67.8246C77.1439 68.924 76.2261 69.7941 76.2261 69.7941C73.3917 69.8278 70.6181 65.6325 70.6181 65.6325C72.1702 64.3241 71.3739 59.7849 71.3739 59.7849L74.404 60.1423L75.5377 61.6666L77.6433 64.4994C77.8592 65.9495 77.7243 67.0489 77.4813 67.8246H77.4746Z" fill="#EF9D89"/>
<path d="M77.4746 67.8246C74.6402 66.8331 73.3917 62.5367 73.3917 62.5367L73.8574 61.9094L75.531 61.6666L77.6365 64.4994C77.8525 65.9495 77.7175 67.0489 77.4746 67.8246V67.8246Z" fill="#E58C7A"/>
<path d="M72.7641 58.301C72.7641 58.301 72.2512 57.1342 70.7598 57.5658C70.7598 57.5658 69.9635 58.2538 70.5438 59.306C71.1242 60.3581 71.7046 60.5403 71.7046 60.5403C71.7046 60.5403 71.7383 62.4962 72.6831 63.0763C73.6279 63.6563 76.3813 65.7202 78.0887 65.5786C78.0887 65.5786 81.0243 64.9985 81.247 58.9822C81.247 58.9822 82.1513 52.8917 79.9783 52.0216C79.9783 52.0216 72.5751 49.2293 71.3064 51.5495L71.7046 55.5356L72.7641 58.301V58.301Z" fill="#EF9D89"/>
<path d="M79.3641 49.9577C78.3856 48.6897 75.2206 49.0472 75.2206 49.0472C70.8678 48.8988 70.1119 52.6354 70.1119 52.6354C68.2966 52.9996 68.9512 58.1054 68.9512 58.1054C68.7352 60.4188 71.8531 62.5367 71.8531 62.5367L71.7046 60.5402C71.158 60.3244 70.5438 59.306 70.5438 59.306C70.3549 58.7934 70.4224 58.3415 70.5304 58.0245C70.6316 57.7209 70.942 57.5321 71.2524 57.5928C72.6291 57.8356 72.6831 59.4881 72.6831 59.4881L73.2298 59.9939L73.412 58.5101C73.9114 57.8356 74.0193 56.1899 74.0396 55.2389C74.0396 55.2389 74.2555 54.1867 74.7549 53.8629C74.7887 53.8495 74.8157 53.8292 74.8494 53.8157C74.8494 53.8157 74.8629 53.8157 74.8696 53.809C76.0371 53.2492 77.9537 53.2559 78.885 53.2964C79.2292 53.3099 79.5598 53.3773 79.8838 53.4987C80.3292 53.5932 80.7813 53.7753 81.2335 54.0248C81.4967 50.8008 80.3359 51.2325 79.3574 49.9645L79.3641 49.9577Z" fill="#3A355D"/>
<path d="M94.4673 145.659C94.4673 145.659 95.1556 149.962 94.798 152.282L99.9673 151.244L98.7931 144.054L94.4673 145.659Z" fill="#E2A3A7"/>
<path d="M99.7514 148.721C99.7514 148.721 97.0587 149.146 96.8765 150.421C96.6943 151.695 95.7158 151.419 95.7158 151.419L94.8385 151.115C94.8385 151.115 94.2851 153.24 94.9869 154.144C94.9869 154.144 101.688 160.113 104.239 158.285C107.168 156.187 102.093 152.336 102.093 152.336C102.093 152.336 99.7851 150.933 99.7514 148.721V148.721Z" fill="#393E5B"/>
<path d="M105.879 140.081C105.879 140.081 106.567 144.384 106.21 146.704L111.379 145.666L110.205 138.476L105.879 140.081Z" fill="#E2A3A7"/>
<path d="M111.163 143.136C111.163 143.136 108.47 143.561 108.288 144.836C108.106 146.111 107.127 145.834 107.127 145.834L106.25 145.531C106.25 145.531 105.697 147.655 106.399 148.559C106.399 148.559 113.1 154.528 115.651 152.7C118.58 150.603 113.505 146.752 113.505 146.752C113.505 146.752 111.197 145.349 111.163 143.136V143.136Z" fill="#393E5B"/>
<path d="M72.069 112.286C72.069 112.286 70.6586 116.684 77.3463 119.321C84.0341 121.958 89.4532 127.178 89.4532 127.178L93.1243 147.224C93.2593 148.121 93.9881 148.829 94.8992 148.89C96.2691 148.991 98.2195 148.714 99.4409 146.704C99.5962 146.448 99.6569 146.138 99.6501 145.834L98.8336 122.862C98.6716 122.005 98.1925 121.243 97.4906 120.73L86.7942 112.981L82.2795 107.706L72.0757 112.279L72.069 112.286Z" fill="#393E5B"/>
<path d="M91.4237 112.286L101.324 120.231L104.793 141.821C104.873 142.631 105.602 143.211 106.412 143.13C107.917 142.975 110.158 142.361 111.048 140.122L111.217 114.755C111.075 113.574 110.515 112.488 109.638 111.686L98.955 104.529L91.417 112.286H91.4237Z" fill="#393E5B"/>
<path d="M75.4905 135.987L76.1653 176.375C76.1653 176.57 76.2936 176.759 76.55 176.907C77.0629 177.204 77.893 177.204 78.4058 176.907C78.6623 176.759 78.7973 176.563 78.7905 176.368L79.3844 135.987C79.3844 136.183 78.6218 136.567 78.3654 136.715C77.8525 137.012 77.0224 137.012 76.5095 136.715C76.2531 136.567 75.4905 136.176 75.4905 135.987V135.987Z" fill="#F2F2F2"/>
<path d="M76.0439 134.989C75.2678 135.434 75.2678 136.156 76.0371 136.608C76.8065 137.053 78.0549 137.053 78.831 136.608C79.6071 136.162 79.6071 135.434 78.8445 134.989C78.0752 134.544 76.8267 134.544 76.0506 134.989H76.0439Z" fill="#B0CDFF"/>
<path d="M43.0167 117.102L43.6915 157.489C43.6915 157.685 43.8198 157.874 44.0762 158.022C44.5891 158.319 45.4192 158.319 45.932 158.022C46.1885 157.874 46.3235 157.678 46.3167 157.483L46.9106 117.102C46.9106 117.297 46.148 117.682 45.8915 117.83C45.3787 118.127 44.5486 118.127 44.0357 117.83C43.7793 117.682 43.0167 117.291 43.0167 117.102V117.102Z" fill="#F2F2F2"/>
<path d="M43.5701 116.103C42.794 116.549 42.794 117.27 43.5633 117.722C44.3326 118.167 45.5811 118.167 46.3572 117.722C47.1333 117.277 47.1333 116.549 46.3707 116.103C45.6014 115.658 44.3529 115.658 43.5768 116.103H43.5701Z" fill="#B0CDFF"/>
<path d="M144.055 96.5235L144.73 136.911C144.73 137.107 144.858 137.295 145.115 137.444C145.628 137.741 146.458 137.741 146.971 137.444C147.227 137.295 147.362 137.1 147.355 136.904L147.949 96.5235C147.949 96.7191 147.187 97.1035 146.93 97.2519C146.417 97.5487 145.587 97.5487 145.074 97.2519C144.818 97.1035 144.055 96.7124 144.055 96.5235V96.5235Z" fill="#F2F2F2"/>
<path d="M144.615 95.5253C143.839 95.9704 143.839 96.6921 144.609 97.144C145.378 97.5892 146.626 97.5892 147.403 97.144C148.179 96.6989 148.179 95.9704 147.416 95.5253C146.647 95.0801 145.398 95.0801 144.622 95.5253H144.615Z" fill="#B0CDFF"/>
<path d="M42.99 114.653L77.4276 134.652L147.983 93.9402L113.546 73.9421L42.99 114.653Z" fill="white"/>
<path d="M42.9897 114.653L42.9964 117.581L77.4341 137.579L77.4273 134.652L42.9897 114.653Z" fill="#F2F2F2"/>
<path d="M77.4273 134.652L77.4341 137.579L147.99 96.8675L147.983 93.9402L77.4273 134.652Z" fill="#F2F2F2"/>
<path d="M114.585 92.8813L86.16 109.392L74.3568 102.58L99.4073 88.0251L101.02 87.0943L102.782 86.0691L114.585 92.8813Z" fill="#E4E4E4"/>
<path d="M114.585 92.8813L114.578 95.3499L86.1531 111.861L86.1599 109.392L114.585 92.8813Z" fill="#E4E4E4"/>
<path d="M86.1599 109.392L86.1531 110.586L74.35 103.774L74.3567 102.58L86.1599 109.392Z" fill="#EFEFEF"/>
<path d="M81.6249 101.319L80.6194 101.906L79.6003 101.319L80.6126 100.732L81.6249 101.319Z" fill="#B0B0B0"/>
<path d="M80.0592 102.23L79.047 102.816L78.0279 102.23L79.0402 101.649L80.0592 102.23Z" fill="#B0B0B0"/>
<path d="M83.1973 100.408L82.185 100.995L81.1727 100.408L82.185 99.8217L83.1973 100.408Z" fill="#B0B0B0"/>
<path d="M87.9077 97.6701L86.8955 98.2569L85.8832 97.6701L86.8955 97.0833L87.9077 97.6701Z" fill="#B0B0B0"/>
<path d="M86.3353 98.5874L85.3298 99.1674L84.3108 98.5874L85.3231 98.0006L86.3353 98.5874Z" fill="#B0B0B0"/>
<path d="M84.7697 99.4979L83.7574 100.085L82.7384 99.4979L83.7507 98.9111L84.7697 99.4979Z" fill="#B0B0B0"/>
<path d="M91.0525 95.849L90.0403 96.4358L89.0212 95.849L90.0335 95.2622L91.0525 95.849Z" fill="#B0B0B0"/>
<path d="M89.4801 96.7595L88.4679 97.3463L87.4488 96.7595L88.4611 96.1728L89.4801 96.7595Z" fill="#B0B0B0"/>
<path d="M92.625 94.9317L91.6127 95.5253L90.5937 94.9385L91.6059 94.3449L92.625 94.9317Z" fill="#B0B0B0"/>
<path d="M95.763 93.1106L94.7507 93.6974L93.7384 93.1106L94.744 92.5238L95.763 93.1106Z" fill="#B0B0B0"/>
<path d="M94.1906 94.0212L93.1783 94.608L92.1661 94.0212L93.1783 93.4344L94.1906 94.0212Z" fill="#B0B0B0"/>
<path d="M97.3287 92.2001L96.3231 92.7869L95.3041 92.2001L96.3164 91.6133L97.3287 92.2001Z" fill="#B0B0B0"/>
<path d="M104.509 91.5324L103.497 92.1192L102.478 91.5324L103.49 90.9456L104.509 91.5324Z" fill="#B0B0B0"/>
<path d="M103.443 93.9065L102.431 94.4933L101.412 93.9065L102.424 93.313L103.443 93.9065Z" fill="#B0B0B0"/>
<path d="M104.954 94.7766L103.942 95.3634L102.923 94.7766L103.935 94.1898L104.954 94.7766Z" fill="#B0B0B0"/>
<path d="M105.008 92.9892L104.003 93.576L102.984 92.9892L103.989 92.4024L105.008 92.9892Z" fill="#B0B0B0"/>
<path d="M106.297 92.2406L105.292 92.8274L104.273 92.2406L105.278 91.6538L106.297 92.2406Z" fill="#B0B0B0"/>
<path d="M106.466 95.6467L105.454 96.2402L104.435 95.6467L105.447 95.0599L106.466 95.6467Z" fill="#B0B0B0"/>
<path d="M108.032 94.7361L107.026 95.3229L106.007 94.7361L107.013 94.1493L108.032 94.7361Z" fill="#B0B0B0"/>
<path d="M106.52 93.8661L105.515 94.4529L104.496 93.8661L105.501 93.2793L106.52 93.8661Z" fill="#B0B0B0"/>
<path d="M109.105 92.362L106.804 93.7042L105.785 93.1174L108.086 91.7752L109.105 92.362Z" fill="#B0B0B0"/>
<path d="M107.593 91.4919L106.581 92.0787L105.562 91.4919L106.574 90.9051L107.593 91.4919Z" fill="#B0B0B0"/>
<path d="M106.081 90.6218L105.069 91.2086L104.05 90.6218L105.062 90.035L106.081 90.6218Z" fill="#B0B0B0"/>
<path d="M104.57 89.745L103.558 90.3386L102.539 89.7518L103.551 89.1582L104.57 89.745Z" fill="#B0B0B0"/>
<path d="M103.085 88.8615L101.007 90.062L99.9876 89.4752L102.066 88.2747L103.085 88.8615Z" fill="#B0B0B0"/>
<path d="M100.473 90.3723L99.4612 90.9591L98.4489 90.3723L99.4544 89.7855L100.473 90.3723Z" fill="#B0B0B0"/>
<path d="M98.9011 91.2828L97.8888 91.8763L96.8765 91.2896L97.8888 90.7028L98.9011 91.2828Z" fill="#B0B0B0"/>
<path d="M84.1488 101.602L83.1366 102.196L82.1243 101.609L83.1366 101.022L84.1488 101.602Z" fill="#B0B0B0"/>
<path d="M82.374 102.641L80.5586 103.693L79.5396 103.106L81.3549 102.054L82.374 102.641Z" fill="#B0B0B0"/>
<path d="M87.2329 101.569L86.2206 102.155L85.2016 101.562L86.2139 100.982L87.2329 101.569Z" fill="#B0B0B0"/>
<path d="M85.7212 100.692L84.709 101.279L83.6967 100.692L84.7022 100.105L85.7212 100.692Z" fill="#B0B0B0"/>
<path d="M91.9434 98.8302L90.9378 99.417L89.9188 98.8302L90.9243 98.2434L91.9434 98.8302Z" fill="#B0B0B0"/>
<path d="M90.4317 97.9601L89.4194 98.5469L88.4071 97.9601L89.4127 97.3733L90.4317 97.9601Z" fill="#B0B0B0"/>
<path d="M88.8593 98.8707L87.847 99.4575L86.8347 98.8707L87.847 98.2839L88.8593 98.8707Z" fill="#B0B0B0"/>
<path d="M90.3777 99.7408L89.3654 100.328L88.3464 99.7408L89.3587 99.154L90.3777 99.7408Z" fill="#B0B0B0"/>
<path d="M87.2936 99.7812L86.2814 100.368L85.2623 99.7812L86.2746 99.1944L87.2936 99.7812Z" fill="#B0B0B0"/>
<path d="M88.8053 100.651L87.793 101.238L86.774 100.651L87.7863 100.064L88.8053 100.651Z" fill="#B0B0B0"/>
<path d="M95.0882 97.0023L94.0759 97.5959L93.0569 97.0023L94.0691 96.4156L95.0882 97.0023Z" fill="#B0B0B0"/>
<path d="M93.5765 96.1323L92.5642 96.7191L91.5452 96.1323L92.5575 95.5455L93.5765 96.1323Z" fill="#B0B0B0"/>
<path d="M92.0041 97.0428L90.9918 97.6296L89.9728 97.0428L90.9851 96.456L92.0041 97.0428Z" fill="#B0B0B0"/>
<path d="M96.6538 96.0918L95.6483 96.6786L94.6293 96.0918L95.6348 95.505L96.6538 96.0918Z" fill="#B0B0B0"/>
<path d="M95.1421 95.2217L94.1366 95.8085L93.1176 95.2217L94.1299 94.6349L95.1421 95.2217Z" fill="#B0B0B0"/>
<path d="M101.371 93.3535L100.359 93.947L99.3397 93.3535L100.352 92.7667L101.371 93.3535Z" fill="#B0B0B0"/>
<path d="M99.8526 92.4834L98.8403 93.0702L97.828 92.4834L98.8403 91.8966L99.8526 92.4834Z" fill="#B0B0B0"/>
<path d="M98.2869 93.3939L97.2747 93.9807L96.2556 93.3939L97.2679 92.8071L98.2869 93.3939Z" fill="#B0B0B0"/>
<path d="M98.2262 95.1813L97.2139 95.7681L96.1949 95.1813L97.2072 94.5945L98.2262 95.1813Z" fill="#B0B0B0"/>
<path d="M96.7145 94.3112L95.7023 94.898L94.69 94.3112L95.6955 93.7244L96.7145 94.3112Z" fill="#B0B0B0"/>
<path d="M102.937 92.4429L101.924 93.0297L100.912 92.4429L101.918 91.8561L102.937 92.4429Z" fill="#B0B0B0"/>
<path d="M101.425 91.5728L100.413 92.1596L99.4004 91.5728L100.406 90.9861L101.425 91.5728Z" fill="#B0B0B0"/>
<path d="M102.997 90.6623L101.985 91.2491L100.966 90.6623L101.978 90.0755L102.997 90.6623Z" fill="#B0B0B0"/>
<path d="M84.6415 103.646L84.1353 103.936L85.1544 104.523L83.582 105.44L82.5629 104.847L84.6415 103.646Z" fill="#B0B0B0"/>
<path d="M87.7323 103.025L86.72 103.612L85.701 103.025L86.7133 102.439L87.7323 103.025Z" fill="#B0B0B0"/>
<path d="M86.1599 103.936L85.1544 104.523L84.1353 103.936L84.6415 103.646L85.1409 103.349L86.1599 103.936Z" fill="#B0B0B0"/>
<path d="M84.2501 103.295L82.0703 104.563L81.0513 103.976L83.231 102.708L84.2501 103.295Z" fill="#B0B0B0"/>
<path d="M85.6605 102.479L84.6482 103.066L83.6292 102.479L84.6415 101.892L85.6605 102.479Z" fill="#B0B0B0"/>
<path d="M93.5158 97.9196L92.5035 98.5064L91.4845 97.9196L92.4967 97.3329L93.5158 97.9196Z" fill="#B0B0B0"/>
<path d="M99.7986 94.2707L98.7863 94.8575L97.7673 94.2707L98.7796 93.6772L99.7986 94.2707Z" fill="#B0B0B0"/>
<path d="M89.3047 102.115L88.2924 102.702L87.2734 102.115L88.2857 101.528L89.3047 102.115Z" fill="#B0B0B0"/>
<path d="M98.6109 100.213L97.5986 100.8L96.5796 100.206L97.5919 99.6193L98.6109 100.213Z" fill="#B0B0B0"/>
<path d="M97.1599 97.5554L96.1477 98.1422L95.1287 97.5554L96.1409 96.9619L97.1599 97.5554Z" fill="#B0B0B0"/>
<path d="M95.5875 98.466L94.5753 99.0528L93.5562 98.466L94.5685 97.8792L95.5875 98.466Z" fill="#B0B0B0"/>
<path d="M97.0992 99.336L96.0869 99.9228L95.0679 99.336L96.0802 98.7492L97.0992 99.336Z" fill="#B0B0B0"/>
<path d="M94.0151 99.3765L93.0029 99.9633L91.9838 99.3765L92.9961 98.7897L94.0151 99.3765Z" fill="#B0B0B0"/>
<path d="M95.5268 100.247L94.5145 100.84L93.4955 100.247L94.5078 99.6598L95.5268 100.247Z" fill="#B0B0B0"/>
<path d="M92.4495 100.287L91.4372 100.874L90.4182 100.287L91.4305 99.7003L92.4495 100.287Z" fill="#B0B0B0"/>
<path d="M100.177 98.122L99.7244 98.385L100.743 98.9718L100.183 99.2956L99.1643 98.7088L98.152 99.2956L99.171 99.8824L98.6109 100.213L97.5919 99.6193L96.5796 100.206L97.5986 100.8L95.2231 102.182L94.2041 101.589L94.4538 101.447L100.177 98.122Z" fill="#B0B0B0"/>
<path d="M90.8771 101.204L89.8648 101.791L88.8458 101.198L89.8581 100.611L90.8771 101.204Z" fill="#B0B0B0"/>
<path d="M103.321 97.4745L102.316 98.0613L101.297 97.4745L102.302 96.8877L103.321 97.4745Z" fill="#B0B0B0"/>
<path d="M101.756 98.385L100.743 98.9718L99.7244 98.385L100.177 98.122L100.737 97.7982L101.756 98.385Z" fill="#B0B0B0"/>
<path d="M100.183 99.2956L99.171 99.8824L98.152 99.2956L99.1643 98.7088L100.183 99.2956Z" fill="#B0B0B0"/>
<path d="M98.6716 98.4255L97.6593 99.0123L96.6403 98.4255L97.6526 97.8387L98.6716 98.4255Z" fill="#B0B0B0"/>
<path d="M101.81 96.6044L100.797 97.1845L99.7784 96.5977L100.791 96.0109L101.81 96.6044Z" fill="#B0B0B0"/>
<path d="M100.237 97.515L99.225 98.1018L98.206 97.515L99.2182 96.9282L100.237 97.515Z" fill="#B0B0B0"/>
<path d="M98.7256 96.6382L97.7133 97.2317L96.6943 96.6382L97.7066 96.0514L98.7256 96.6382Z" fill="#B0B0B0"/>
<path d="M103.382 95.6871L102.37 96.2739L101.351 95.6871L102.363 95.1003L103.382 95.6871Z" fill="#B0B0B0"/>
<path d="M101.87 94.817L100.858 95.4038L99.8391 94.817L100.851 94.2303L101.87 94.817Z" fill="#B0B0B0"/>
<path d="M100.298 95.7276L99.2857 96.3144L98.2667 95.7276L99.279 95.1408L100.298 95.7276Z" fill="#B0B0B0"/>
<path d="M92.3887 102.074L91.3765 102.661L90.3575 102.074L91.3697 101.488L92.3887 102.074Z" fill="#B0B0B0"/>
<path d="M93.9004 102.944L92.8881 103.531L91.8691 102.944L92.8814 102.358L93.9004 102.944Z" fill="#B0B0B0"/>
<path d="M90.8164 102.985L89.8041 103.572L88.785 102.985L89.7973 102.398L90.8164 102.985Z" fill="#B0B0B0"/>
<path d="M92.328 103.862L91.3157 104.449L90.2967 103.862L91.309 103.268L92.328 103.862Z" fill="#B0B0B0"/>
<path d="M89.2439 103.895L88.2317 104.489L87.2126 103.895L88.2249 103.309L89.2439 103.895Z" fill="#B0B0B0"/>
<path d="M90.7624 104.772L89.7501 105.359L88.7311 104.772L89.7433 104.186L90.7624 104.772Z" fill="#B0B0B0"/>
<path d="M87.6715 104.813L86.666 105.4L85.647 104.813L86.6525 104.226L87.6715 104.813Z" fill="#B0B0B0"/>
<path d="M89.19 105.683L88.1777 106.27L87.1587 105.683L88.1709 105.096L89.19 105.683Z" fill="#B0B0B0"/>
<path d="M86.1059 105.723L85.0936 106.31L84.0746 105.723L85.0869 105.137L86.1059 105.723Z" fill="#B0B0B0"/>
<path d="M94.4538 101.447L94.2041 101.589L95.2231 102.182L94.4605 102.621L93.4415 102.034L94.4538 101.447Z" fill="#B0B0B0"/>
<path d="M93.9612 101.164L92.9489 101.751L91.9299 101.164L92.9421 100.57L93.9612 101.164Z" fill="#B0B0B0"/>
<path d="M87.6176 106.593L86.6053 107.18L85.5863 106.593L86.5985 106.007L87.6176 106.593Z" fill="#B0B0B0"/>
<path d="M104.894 96.564L103.881 97.1508L102.862 96.564L103.875 95.9772L104.894 96.564Z" fill="#B0B0B0"/>
<path d="M110.616 93.2388L108.315 94.5743L107.296 93.9875L109.597 92.652L110.616 93.2388Z" fill="#B0B0B0"/>
<path d="M84.0813 114.471C85.4243 115.247 85.431 116.501 84.1016 117.277L76.7592 121.54C75.423 122.315 73.2567 122.315 71.9138 121.54L61.926 115.78C60.583 115.004 60.5763 113.75 61.9125 112.974L69.2549 108.711C70.5843 107.936 72.7573 107.936 74.1003 108.711L84.0881 114.471H84.0813Z" fill="#BAC2CC"/>
<path d="M114.996 104.347C116.42 105.17 116.427 106.499 115.01 107.322L111.528 109.345C110.117 110.168 107.816 110.168 106.392 109.345L96.1544 103.437L104.759 98.439L114.996 104.347Z" fill="#E4E4E4"/>
<path d="M115.01 107.322L111.528 109.345C110.117 110.168 107.816 110.168 106.392 109.345L96.1544 103.437V106.222L106.385 112.131C107.809 112.954 110.104 112.954 111.521 112.131L115.003 110.107C115.705 109.696 116.056 109.163 116.063 108.63V105.845C116.063 106.378 115.718 106.917 115.016 107.322H115.01Z" fill="#BAC2CC"/>
<path d="M127.353 67.2445L127.434 95.2555L87.2666 118.437L87.1857 90.4195L127.353 67.2445Z" fill="#D6DAE0"/>
<path d="M87.2666 118.437L86.0519 117.668L85.9777 89.6573L87.1856 90.4195L87.2666 118.437Z" fill="#C8CED6"/>
<path d="M87.1856 90.4195L85.9777 89.6573L126.145 66.4756L127.353 67.2445L87.1856 90.4195Z" fill="#BAC2CC"/>
<path d="M116.015 105.137L113.086 91.674L104.651 96.166L107.445 109.763C107.445 109.763 109.51 110.519 111.528 109.345L115.01 107.322C115.01 107.322 116.38 106.924 116.009 105.137H116.015Z" fill="#BAC2CC"/>
<path d="M76.4218 117.243C74.7616 118.14 72.6021 117.527 71.4414 116.859L70.3481 116.225L69.1401 115.53C68.2628 115.024 68.0469 114.276 68.499 113.655C68.6408 113.453 68.85 113.271 69.1266 113.109C69.2549 113.035 69.3898 112.967 69.5316 112.913C70.6788 112.448 72.2782 112.515 73.304 113.109L76.4083 114.829C76.9144 115.119 77.1979 115.49 77.2653 115.874C77.3463 116.373 77.0764 116.893 76.4218 117.25V117.243Z" fill="white"/>
<path d="M77.2586 115.874L73.3647 115.638L70.9487 114.653L68.4855 113.655C68.499 113.608 68.6745 113.244 69.0659 112.886C69.1132 112.839 69.1604 112.799 69.2144 112.751C69.9365 112.158 71.2659 111.659 73.4997 112.603C73.6279 112.657 73.7561 112.718 73.8843 112.778C73.8843 112.778 77.2046 114.121 77.2519 115.874H77.2586Z" fill="white"/>
<path d="M73.5064 112.603C73.331 112.657 73.0543 112.745 72.7843 112.873C72.4807 113.021 72.1702 113.21 71.988 113.46C71.988 113.46 71.2187 112.947 69.8757 112.792C69.6733 112.772 69.4506 112.751 69.2211 112.751C69.9432 112.158 71.2727 111.659 73.5064 112.603V112.603Z" fill="white"/>
<path d="M71.8463 113.628C71.8463 113.628 71.3874 113.925 70.9555 114.653C70.7193 115.045 70.4898 115.564 70.3414 116.225L69.1334 115.53C68.2561 115.024 68.0401 114.276 68.4923 113.655C68.5058 113.608 68.6812 113.244 69.0727 112.886C69.1941 112.886 69.3493 112.9 69.5248 112.913C70.2199 112.981 71.2322 113.163 71.8395 113.628H71.8463Z" fill="white"/>
<path d="M74.4917 114.464C74.4647 114.552 74.3163 114.579 74.1745 114.525C74.0261 114.471 73.9316 114.363 73.9586 114.276C73.9856 114.188 74.134 114.161 74.2758 114.215C74.4175 114.269 74.5187 114.377 74.4917 114.464Z" fill="#CBCCE2"/>
<path d="M67.9659 87.8497L61.6156 90.116L66.2585 99.5316C66.6567 100.483 67.561 101.13 68.5935 101.211L86.0114 102.142L85.9979 97.6903L70.9825 95.7681L67.9659 87.8497Z" fill="#EF9D89"/>
<path d="M67.9659 87.8497L66.4408 82.3055C66.4408 82.3055 69.8083 88.1667 71.5899 89.6573C73.3715 91.1479 76.8537 95.1138 76.8537 95.1138L74.8629 96.2672L70.996 95.7748L67.9794 87.8565L67.9659 87.8497Z" fill="#656FA7"/>
<path d="M77.3328 77.7326C77.5975 77.7326 77.812 77.4005 77.812 76.9907C77.812 76.5809 77.5975 76.2488 77.3328 76.2488C77.0682 76.2488 76.8537 76.5809 76.8537 76.9907C76.8537 77.4005 77.0682 77.7326 77.3328 77.7326Z" fill="#9EA9E5"/>
<path d="M79.5261 84.1199C79.5261 84.5313 79.3102 84.8618 79.047 84.8618C78.7838 84.8618 78.5678 84.5313 78.5678 84.1199C78.5678 83.7085 78.7838 83.378 79.047 83.378C79.3102 83.378 79.5261 83.7085 79.5261 84.1199Z" fill="#9EA9E5"/>
<path d="M81.2402 91.2424C81.2402 91.6538 81.0243 91.9843 80.7611 91.9843C80.4979 91.9843 80.2819 91.6538 80.2819 91.2424C80.2819 90.8309 80.4979 90.5004 80.7611 90.5004C81.0243 90.5004 81.2402 90.8309 81.2402 91.2424Z" fill="#9EA9E5"/>
<path d="M74.7617 53.863C74.7617 53.863 75.0586 53.5055 76.9549 54.0114C79.2494 54.6319 80.9568 53.4515 80.9568 53.4515L76.0371 51.5833L74.3432 53.0064L74.7549 53.8562L74.7617 53.863Z" fill="#3A355D"/>
<path d="M81.2335 54.0114C81.2335 54.0114 80.6329 53.6809 79.8433 53.9574V52.4061L80.2212 52.278L80.7408 52.831L81.2335 54.0114Z" fill="#3A355D"/>
<path d="M61.6223 90.116C61.6223 90.116 64.5039 100.038 65.3812 99.7812C66.2653 99.5249 70.9892 95.7681 70.9892 95.7681L67.9727 87.8497L63.0665 87.0471L61.6291 90.116H61.6223Z" fill="#8694DE"/>
<path d="M69.869 92.8409L71.8733 95.8827C71.8733 95.8827 69.6868 102.054 67.534 102.054C65.3812 102.054 63.2285 97.9196 63.7751 96.7595C64.3285 95.5995 69.869 92.8341 69.869 92.8341V92.8409Z" fill="#9EA9E5"/>
<path d="M86.9225 89.111L85.0936 77.7326L85.9777 89.6573L86.9225 89.111Z" fill="#656FA7"/>
<path d="M86.5918 87.0606C86.5918 87.0606 90.4384 84.1671 91.7274 84.329C91.7274 84.329 92.355 85.3137 92.2943 86.0017L86.9157 89.1042L86.585 87.0606H86.5918Z" fill="#9EA9E5"/>
</g>
<g clip-path="url(#clip2_1_410)">
<path opacity="0.4" d="M225 82.9624C225 84.7899 223.737 85.5258 222.17 84.612L189.83 65.7138C188.271 64.8 187 62.5843 187 60.7649V7.03799C187 5.21852 188.263 4.48265 189.83 5.38834L222.178 24.2865C223.737 25.1922 225.008 27.416 225.008 29.2355V82.9624H225Z" fill="white"/>
<path d="M214.785 30.3513C214.785 30.7879 214.481 30.9658 214.105 30.7475L206.208 26.1382C205.84 25.9198 205.528 25.3861 205.528 24.9495C205.528 24.5128 205.832 24.3349 206.208 24.5532L214.097 29.1625C214.473 29.3809 214.777 29.9146 214.777 30.3513H214.785ZM210.077 24.4319C210.077 23.9952 209.773 23.4696 209.397 23.2513L206.216 21.3914C205.84 21.173 205.536 21.351 205.536 21.7876C205.536 22.2243 205.84 22.758 206.216 22.9763L209.397 24.8362C209.765 25.0546 210.069 24.8848 210.077 24.44V24.4319ZM219.501 36.2625C219.501 36.6992 219.197 36.8771 218.821 36.6587L206.216 29.3C205.84 29.0817 205.536 28.548 205.536 28.1113C205.536 27.6746 205.84 27.4967 206.216 27.715L218.821 35.0819C219.197 35.3002 219.501 35.8258 219.501 36.2625ZM214.793 39.8367C214.793 40.2734 214.489 40.4513 214.113 40.233L206.224 35.6237C205.848 35.4053 205.544 34.8797 205.544 34.435C205.544 33.9983 205.848 33.8204 206.224 34.0387L214.113 38.648C214.489 38.8664 214.785 39.4001 214.793 39.8287V39.8367ZM210.085 33.9174C210.085 33.4807 209.781 32.947 209.405 32.7287L206.224 30.8688C205.848 30.6505 205.544 30.8284 205.544 31.265C205.544 31.7017 205.848 32.2354 206.216 32.4538L209.405 34.3137C209.781 34.532 210.085 34.3541 210.085 33.9174V33.9174ZM219.509 69.49C219.509 69.9267 219.205 70.1046 218.829 69.8863L193.187 54.9181C192.811 54.6998 192.507 54.1661 192.507 53.7294C192.507 53.2927 192.811 53.1148 193.187 53.3332L218.821 68.3094C219.197 68.5277 219.501 69.0615 219.501 69.4981L219.509 69.49ZM214.801 73.0724C214.801 73.509 214.497 73.6869 214.121 73.4686L193.203 61.2499C192.827 61.0315 192.523 60.4978 192.523 60.0611C192.523 59.6245 192.827 59.4466 193.203 59.673L214.121 71.8917C214.497 72.1101 214.801 72.6357 214.801 73.0805V73.0724ZM210.093 67.153C210.093 66.7164 209.789 66.1827 209.413 65.9724L193.187 56.5031C192.811 56.2847 192.507 56.4626 192.507 56.8993C192.507 57.336 192.811 57.8697 193.187 58.088L209.397 67.5574C209.765 67.7757 210.077 67.5978 210.077 67.1611L210.093 67.153ZM219.517 47.333C219.517 47.7696 219.213 47.9475 218.837 47.7292L193.187 32.7691C192.811 32.5508 192.507 32.0171 192.507 31.5804C192.507 31.1437 192.811 30.9739 193.187 31.1842L218.821 46.1604C219.197 46.3787 219.501 46.9125 219.501 47.3491L219.517 47.333ZM214.801 50.9072C214.801 51.3439 214.497 51.5218 214.129 51.3034L193.187 39.0928C192.811 38.8745 192.507 38.3407 192.507 37.9041C192.507 37.4674 192.811 37.2895 193.187 37.5159L214.105 49.7347C214.473 49.953 214.785 50.4867 214.777 50.9234L214.801 50.9072ZM210.093 44.9879C210.093 44.5512 209.789 44.0175 209.413 43.7991L193.187 34.346C192.811 34.1277 192.507 34.3056 192.507 34.7422C192.507 35.1789 192.811 35.7126 193.187 35.931L209.397 45.4003C209.773 45.6186 210.077 45.4407 210.077 45.004L210.093 44.9879ZM219.517 58.4034C219.517 58.8401 219.213 59.018 218.837 58.7997L193.187 43.8396C192.811 43.6212 192.507 43.0875 192.507 42.6509C192.507 42.2142 192.811 42.0363 193.187 42.2627L218.821 57.239C219.197 57.4573 219.501 57.9829 219.501 58.4196L219.517 58.4034ZM214.809 61.9777C214.809 62.4143 214.505 62.5922 214.129 62.3739L193.187 50.1713C192.811 49.953 192.507 49.4193 192.507 48.9826C192.507 48.5459 192.811 48.368 193.187 48.5945L214.105 60.8132C214.481 61.0315 214.785 61.5652 214.785 62.0019L214.809 61.9777ZM210.101 56.0664C210.101 55.6297 209.797 55.096 209.421 54.8777L193.187 45.4245C192.811 45.2062 192.507 45.3841 192.507 45.8208C192.507 46.2574 192.811 46.7912 193.187 47.0095L209.397 56.4788C209.773 56.6972 210.077 56.5192 210.077 56.0826L210.101 56.0664ZM202.147 19.0139L193.187 13.7739C192.811 13.5555 192.507 13.7334 192.507 14.1701V26.8336C192.507 27.2703 192.811 27.804 193.187 28.0223L202.147 33.2543C202.523 33.4727 202.827 33.2947 202.827 32.8581V20.1946C202.827 19.7579 202.523 19.2242 202.147 19.0059V19.0139Z" fill="white"/>
</g>
<path d="M114.612 1.37894L51.3877 39.6211" stroke="url(#paint0_linear_1_410)" stroke-width="1.5" stroke-miterlimit="10" stroke-linecap="round"/>
<g clip-path="url(#clip3_1_410)">
<g style="mix-blend-mode:multiply" opacity="0.15">
<path opacity="0.85" d="M177.64 185.45C167.21 179.43 150.29 179.43 139.84 185.48C129.4 191.49 129.39 201.28 139.83 207.3C150.26 213.33 167.18 213.33 177.63 207.29C188.07 201.26 188.07 191.49 177.64 185.46V185.45Z" fill="black"/>
</g>
<path d="M165.21 154.08L158.74 171.19V175.27L188.37 171.53V167.45C185.85 160.78 176.76 155.54 165.21 154.08V154.08Z" fill="#788BF1"/>
<g style="mix-blend-mode:overlay" opacity="0.2">
<path d="M158.74 171.19V175.27L188.37 171.54V167.45L158.74 171.19Z" fill="black"/>
</g>
<path d="M185.46 171.19H185.45C185.45 170.09 185.25 168.98 184.84 167.9L161.44 170.85L164.44 162.93V156.12C155.84 155.04 146.5 156.41 139.82 160.27C134.6 163.28 132 167.24 132 171.19V177.99C132.01 181.94 134.62 185.89 139.84 188.9C150.29 194.93 167.22 194.94 177.65 188.91C182.87 185.9 185.45 181.95 185.44 177.99H185.45V171.18L185.46 171.19Z" fill="white"/>
<g style="mix-blend-mode:multiply" opacity="0.15">
<g style="mix-blend-mode:multiply" opacity="0.15">
<path d="M185.44 171.19C185.46 175.15 182.88 179.1 177.65 182.11C167.21 188.14 150.29 188.13 139.84 182.1C134.62 179.08 132 175.14 132 171.19V177.99C132.01 181.94 134.62 185.89 139.84 188.9C150.29 194.93 167.22 194.94 177.65 188.91C182.87 185.9 185.45 181.95 185.44 177.99H185.45V171.18H185.44V171.19Z" fill="#1A50B2"/>
</g>
</g>
<path d="M165.21 150L158.74 167.11V171.19L188.37 167.45V163.37C185.84 156.7 176.76 151.46 165.21 150Z" fill="#788BF1"/>
<g style="mix-blend-mode:overlay" opacity="0.2">
<path d="M158.74 167.11V171.19L188.37 167.45V163.37L158.74 167.11Z" fill="black"/>
</g>
</g>
<defs>
<filter id="filter0_d_1_410" x="25.417" y="66.8611" width="265.562" height="179.281" filterUnits="userSpaceOnUse" color-interpolation-filters="sRGB">
<feFlood flood-opacity="0" result="BackgroundImageFix"/>
<feColorMatrix in="SourceAlpha" type="matrix" values="0 0 0 0 0 0 0 0 0 0 0 0 0 0 0 0 0 0 127 0" result="hardAlpha"/>
<feOffset dy="5"/>
<feComposite in2="hardAlpha" operator="out"/>
<feColorMatrix type="matrix" values="0 0 0 0 0.0901961 0 0 0 0 0.419608 0 0 0 0 0.258824 0 0 0 1 0"/>
<feBlend mode="normal" in2="BackgroundImageFix" result="effect1_dropShadow_1_410"/>
<feBlend mode="normal" in="SourceGraphic" in2="effect1_dropShadow_1_410" result="shape"/>
</filter>
<linearGradient id="paint0_linear_1_410" x1="99.9394" y1="-8.64124" x2="66.401" y2="49.826" gradientUnits="userSpaceOnUse">
<stop offset="0.2" stop-color="white" stop-opacity="0"/>
<stop offset="0.41" stop-color="white" stop-opacity="0.25"/>
<stop offset="0.89" stop-color="white" stop-opacity="0.85"/>
<stop offset="1" stop-color="white"/>
</linearGradient>
<clipPath id="clip0_1_410">
<rect width="101" height="124" fill="white" transform="translate(167 50)"/>
</clipPath>
<clipPath id="clip1_1_410">
<rect width="105" height="129" fill="white" transform="translate(42.9897 49)"/>
</clipPath>
<clipPath id="clip2_1_410">
<rect width="38" height="80" fill="white" transform="translate(187 5)"/>
</clipPath>
<clipPath id="clip3_1_410">
<rect width="56.37" height="61.81" fill="white" transform="translate(132 150)"/>
</clipPath>
</defs>
</svg>
