<svg width="314" height="247" viewBox="0 0 314 247" fill="none" xmlns="http://www.w3.org/2000/svg">
<g filter="url(#filter0_d_2_1159)">
<path d="M60.9029 122.302L143.876 74.6888C151.45 70.3431 155.236 68.1702 159.267 67.3734C162.543 66.7259 165.915 66.7412 169.185 67.4185C173.209 68.2518 176.976 70.4589 184.509 74.8732L254.036 115.613C274.155 127.402 284.214 133.297 287.431 141.033C290.001 147.215 289.984 154.169 287.384 160.339C284.131 168.06 274.043 173.906 253.868 185.598L253.868 185.598L171.675 233.23L171.675 233.23C164.123 237.606 160.348 239.794 156.322 240.608C153.05 241.27 149.679 241.269 146.407 240.607C142.381 239.792 138.606 237.604 131.055 233.226L60.7477 192.467C40.3937 180.667 30.2167 174.767 26.9708 167.001C24.3778 160.797 24.3933 153.81 27.0136 147.618C30.2938 139.866 40.4968 134.012 60.9028 122.302L60.9029 122.302Z" fill="#5DA481"/>
</g>
<g clip-path="url(#clip0_2_1159)">
<path d="M88.3707 125.643L88.4279 125.585C88.1992 124.729 88.7709 123.758 90.1143 122.987L98.275 118.304C99.6613 117.505 100.519 116.02 100.519 114.421V110.509L115.668 101.728V104.441C115.668 106.168 117.54 107.239 119.027 106.383L122.628 104.312C124.701 103.113 127.816 102.899 129.574 103.813L139.064 108.781C139.864 109.195 140.222 109.795 140.207 110.423C140.222 110.423 140.222 112.679 140.222 112.679C140.222 113.436 139.593 114.249 138.435 114.92L105.978 133.609C103.906 134.808 100.79 135.023 99.0325 134.109L89.5284 129.14C88.0277 128.227 88.3421 126.985 88.3421 125.671L88.3707 125.643Z" fill="#B8C9F5"/>
<path d="M100.519 108.61V95.5321L115.668 88.165V101.714L100.519 110.495V108.61Z" fill="#819BEA"/>
<path d="M100.505 108.667V95.5892L103.034 94.3613V112.893C103.034 114.492 102.177 115.977 100.79 116.776L99.0325 117.79C99.9615 116.948 100.519 115.749 100.519 114.478V108.667H100.505Z" fill="#81A0EA"/>
<path d="M88.4279 125.543C88.3564 125.243 88.3993 124.929 88.5136 124.615C88.6709 125.043 88.9853 125.429 89.5427 125.771L99.0468 130.74C100.805 131.668 103.92 131.439 105.993 130.24L138.45 111.551C139.336 111.037 139.907 110.438 140.122 109.838C140.179 110.009 140.207 110.181 140.207 110.352C140.222 110.352 140.222 112.608 140.222 112.608C140.222 113.364 139.593 114.178 138.435 114.849L105.978 133.538C103.906 134.737 100.79 134.951 99.0325 134.038L89.5284 129.069C88.0277 128.141 88.3421 126.913 88.3421 125.6L88.3993 125.543H88.4279Z" fill="#819BEA"/>
<path d="M154.456 12.5676L152.413 68.3341C152.413 72.1747 150.369 75.7154 147.053 77.6428L67.6189 126.442C64.0316 128.527 57 126.285 57 120.546V63.3514C57 59.5108 59.0437 55.9558 62.3737 54.0427L144.324 6.68537C149.04 4.34392 154.456 8.41291 154.456 12.5676Z" fill="#343C6B"/>
<path d="M154.942 62.9231V69.5763C154.942 73.4168 152.899 76.9575 149.583 78.885L67.6189 126.442C64.0316 128.527 59.5297 125.942 59.5297 121.788V118.29L154.942 62.9231Z" fill="#445393"/>
<path d="M59.5297 64.5934C59.5297 60.7529 61.5734 57.1978 64.9034 55.2847L146.853 7.92737C150.44 5.85719 154.942 8.44135 154.942 12.5817V62.923L59.5297 118.29V64.5934Z" fill="#E2E9FB"/>
<path d="M148.968 13.1243V60.7386L65.4894 109.181V61.3525L148.968 13.1243Z" fill="#819BEA"/>
<path d="M71.7207 81.7116V101.171L86.0983 92.8336V73.4023L71.7207 81.7116Z" fill="#E2E9FB"/>
<path d="M129.832 30.7136L110.223 42.0354V61.4666L129.832 50.0877V30.7136Z" fill="#E2E9FB"/>
<path d="M107.236 43.249L71.7206 63.7367V65.0645L107.236 44.534V43.249Z" fill="#3754E0"/>
<path d="M107.236 47.9749L71.7206 68.4626V69.7903L107.236 49.2598V47.9749Z" fill="#E2E9FB"/>
<path d="M107.236 52.7004L71.7206 73.1739V74.5159L107.236 53.9854V52.7004Z" fill="#445393"/>
<path d="M143.609 23.0469V24.3604L133.019 30.471V29.1432L143.609 23.0469Z" fill="#E2E9FB"/>
<path d="M143.609 32.7554V34.0689L133.019 40.1795V38.8517L143.609 32.7554Z" fill="#3754E0"/>
<path d="M118.141 50.502C118.227 50.3449 118.298 50.2165 118.298 50.2165C118.141 49.7453 116.812 48.546 117.026 48.289C117.641 47.5038 120.299 50.5163 120.299 50.5163C120.299 50.5163 120.013 49.7025 119.899 49.4455C119.77 49.1457 119.87 48.8173 120.042 48.7031C120.37 48.4746 120.728 48.8744 120.799 49.0886L121.785 50.8446C121.914 51.0874 122.014 51.3444 122.057 51.6013L122.157 52.1296C122.271 52.715 122.771 53.7715 122.914 54.1712L122.285 56.5555C122.142 56.2129 120.513 54.2141 120.227 53.9713C119.813 53.643 119.37 53.286 118.998 52.8863C118.998 52.8863 118.098 51.944 118.041 51.4728C117.955 51.1302 118.012 50.7733 118.169 50.4734L118.141 50.502Z" fill="#FCBAC0"/>
<path d="M143.923 122.816C143.923 122.816 143.923 123.815 145.152 124.715C145.324 124.843 145.567 125 145.81 125.157C146.51 125.6 147.439 126.399 148.039 126.97C148.368 127.284 148.754 127.513 149.254 127.527C149.997 127.57 150.655 127.327 150.569 126.199C150.569 126.128 150.555 125.985 150.54 125.857L150.512 125.671C150.498 125.585 150.455 123.501 150.44 123.458C150.355 123.829 149.826 122.359 149.497 122.345C149.011 122.316 149.068 123.487 148.74 123.187C148.139 122.616 147.511 122.873 145.867 122.045L145.553 121.988C144.281 121.845 144.081 122.259 143.952 122.644C143.938 122.701 143.923 122.759 143.909 122.816H143.923Z" fill="#445393"/>
<path d="M134.333 127.97C134.333 127.97 135.491 127.855 135.877 127.841C136.777 127.813 138.764 127.242 139.379 127.67C140.079 128.155 141.651 128.569 141.665 127.256L142.566 127.541C142.58 127.827 142.666 129.44 142.666 129.554C142.694 130.04 142.594 130.525 142.337 130.939C141.737 131.867 139.907 131.325 138.85 131.111L135.705 130.682C134.562 130.454 133.819 129.654 133.605 128.955C133.547 128.484 133.876 128.055 134.333 127.97Z" fill="#445393"/>
<path d="M151.026 82.8397L151.398 84.196C151.484 84.5386 151.555 84.8813 151.584 85.2239C151.741 86.8515 151.755 88.4934 151.641 90.1353L151.369 93.7189L150.555 123.13C150.641 124.315 146.682 124.429 146.696 123.016L145.896 92.5339L144.781 92.9764L142.651 127.399C142.651 128.612 138.707 128.726 138.664 127.27C138.664 127.27 137.492 92.2911 137.363 86.7944C137.263 82.9253 144.295 83.9676 144.295 83.7962L140.651 80.9551L150.998 82.8539L151.026 82.8397Z" fill="#343C6B"/>
<path d="M141.194 76.9574C141.194 76.9574 154.099 79.256 155.914 76.4291C156.729 75.1585 151.941 62.2091 151.941 62.2091L150.798 60.7957L147.568 61.7237C147.139 61.8379 146.51 61.1954 146.51 61.1954C147.039 62.9229 149.826 71.375 150.483 73.3453C150.583 73.6594 141.051 74.3018 141.051 74.3018C141.78 74.5017 141.88 76.6576 141.194 76.9574Z" fill="#3754E0"/>
<path d="M151.098 77.1432L151.484 83.7106C151.312 87.0372 137.892 87.6511 136.82 85.4239C136.62 84.9956 136.82 79.8844 136.977 76.5292C137.063 74.5875 136.892 72.6316 136.449 70.7184C136.42 70.6328 136.406 70.5328 136.377 70.4329C136.091 69.1765 135.262 68.12 134.119 67.5346C132.461 66.678 129.017 65.236 127.916 64.7363C127.23 64.4365 126.644 63.9511 126.201 63.3514L120.742 56.17C120.142 55.4419 122.771 53.1861 123.486 53.7286L129.803 60.4103L133.476 61.6239C134.291 61.8951 135.148 61.9665 135.977 61.8095C137.592 61.4954 139.236 61.7238 139.336 61.681C139.893 61.5239 140.436 61.2812 140.951 60.9957C141.379 60.753 141.694 60.5817 141.694 60.5817L141.765 60.5531L144.009 59.3538L144.181 59.2682C144.266 59.2253 144.638 59.3966 145.01 59.568C145.395 59.7536 145.781 59.9392 145.91 59.9392C146.424 59.7536 146.939 59.6394 147.439 59.5965C147.639 59.5823 147.839 59.5965 148.039 59.5965C150.183 59.6965 152.327 61.1527 152.227 64.0224L151.112 75.487C151.055 76.0438 151.055 76.5721 151.084 77.1289L151.098 77.1432Z" fill="#5278FF"/>
<path d="M146.896 61.2098C146.896 62.2663 145.181 63.1229 143.052 63.1229C141.265 63.1229 139.75 62.509 139.336 61.6809C139.893 61.5096 140.436 61.2812 140.951 60.9956C141.379 60.7529 141.694 60.5816 141.694 60.5816L141.765 60.553L144.009 59.3538C144.366 59.3966 144.709 59.468 145.024 59.5536C145.367 59.6536 145.667 59.7821 145.924 59.9248C146.539 60.2675 146.896 60.7101 146.896 61.1955V61.2098Z" fill="#FCBAC0"/>
<path d="M138.707 56.4984C139.35 59.6822 141.465 59.9821 143.452 59.0255C145.667 57.9547 147.025 55.3563 147.153 53.4574C147.353 50.5591 145.524 48.6746 143.123 48.5032C137.649 48.132 138.478 55.3991 138.707 56.4984V56.4984Z" fill="#FCBAC0"/>
<path d="M145.81 54.9992L145.581 61.3097C145.581 61.6095 145.281 61.8808 144.781 62.0379C143.909 62.3234 142.694 62.2092 142.051 61.7666C141.794 61.581 141.68 61.3811 141.68 61.1669L141.894 54.8564L145.796 54.9992H145.81Z" fill="#FCBAC0"/>
<path d="M143.295 52.5293C142.594 53.443 141.565 53.9142 140.579 53.8713C140.265 53.8713 139.95 53.0861 139.55 52.6149C139.293 52.3151 138.893 52.3294 138.721 52.1866C138.006 51.5584 137.906 49.2741 139.493 48.3604C141.051 47.4609 142.623 47.4466 143.709 47.6608C143.866 47.6893 142.851 48.1747 142.98 48.2747C144.223 49.217 144.352 51.1301 143.295 52.5293Z" fill="#343C6B"/>
<path d="M143.938 57.2836L143.466 55.399C143.337 54.8993 143.094 54.4425 142.751 54.0713C142.394 53.6858 141.951 53.4002 141.451 53.2289L139.564 52.615C139.679 54.1998 140.35 55.5133 141.822 57.0695C142.537 57.8119 143.294 58.2687 144.023 58.4258V58.126C144.038 57.8404 144.023 57.5549 143.952 57.2836H143.938Z" fill="#343C6B"/>
<path d="M143.709 47.6607C141.408 47.4466 139.536 49.3454 139.521 52.1152C139.521 52.2865 139.521 52.4436 139.55 52.6149L141.437 53.2288C141.937 53.3859 142.394 53.6857 142.737 54.0712C143.08 54.4424 143.337 54.9135 143.452 55.3989L143.923 57.2835C143.995 57.5548 144.023 57.8403 144.009 58.1259V58.4257C145.41 58.7398 147.025 57.6976 147.568 55.7273C147.854 54.6851 150.369 48.2604 143.695 47.6607H143.709Z" fill="#343C6B"/>
<path d="M140.279 55.8272C139.75 56.484 139.664 57.2835 140.093 57.6262C140.522 57.9688 141.294 57.7118 141.808 57.0694C142.337 56.4126 142.423 55.6131 141.994 55.2704C141.565 54.9278 140.793 55.1848 140.279 55.8272Z" fill="#FCBAC0"/>
<path d="M101.248 110.452L102.12 124.886C102.162 125.671 102.291 126.456 102.52 127.213L105.95 140.334C105.55 140.091 104.964 139.82 104.563 139.791C104.421 139.791 104.278 139.777 104.135 139.777H103.892C103.477 139.777 103.134 140.048 103.006 140.434C102.991 140.491 102.977 140.548 102.963 140.605C102.963 140.605 102.963 141.576 104.149 142.447C104.32 142.575 104.549 142.718 104.792 142.875C105.464 143.303 106.093 143.789 106.664 144.346C106.993 144.645 107.35 144.86 107.836 144.888C108.565 144.931 109.151 144.331 109.108 143.603C109.108 143.532 109.094 143.403 109.08 143.261L109.051 143.089C109.051 143.018 109.037 142.975 109.023 142.918C108.98 142.618 108.922 142.275 108.88 141.961C108.765 141.248 108.694 140.534 108.665 139.82C108.508 136.707 108.008 128.884 106.679 124.543L108.522 108.867L101.248 110.437V110.452Z" fill="#F8AFAC"/>
<path d="M96.317 145.531L98.6466 145.345C99.2754 145.345 99.8757 145.059 100.29 144.588C100.476 144.374 100.547 144.089 100.49 143.803C99.204 138.206 92.7726 108.41 95.974 101.657C99.5613 94.1043 107.336 100.115 107.336 100.115C107.336 100.115 109.68 105.655 108.522 108.881C107.493 111.779 102.963 112.979 102.963 112.979L102.162 126.071C102.934 130.768 103.62 145.131 103.877 146.516C103.992 147.144 103.863 148.015 103.606 148.415C103.02 149.286 101.705 148.986 100.676 148.772L97.6462 148.172C96.5314 147.943 95.8025 147.173 95.6024 146.487C95.5453 146.03 95.8597 145.616 96.317 145.531V145.531Z" fill="#FEC7C4"/>
<path d="M102.991 140.448C102.991 140.448 102.963 140.562 102.948 140.619C102.948 140.619 102.948 141.205 103.506 141.876C103.463 141.262 103.42 140.619 103.377 139.948C103.191 140.062 103.049 140.234 102.977 140.448H102.991Z" fill="#535873"/>
<path d="M102.948 140.605C102.948 140.605 102.948 141.576 104.135 142.447C104.306 142.575 104.535 142.718 104.778 142.875C105.45 143.303 106.078 143.789 106.65 144.346C106.979 144.645 107.336 144.86 107.822 144.888C108.551 144.931 109.194 144.688 109.094 143.603C109.094 143.532 109.08 143.403 109.065 143.261L109.037 143.089C109.023 143.004 109.023 142.961 109.008 142.918C108.922 143.289 108.522 143.375 108.208 143.36C107.736 143.332 107.307 143.218 106.993 142.918C106.407 142.375 102.262 140.005 104.835 139.848L104.535 139.805C103.306 139.663 103.106 140.062 102.977 140.448C102.963 140.505 102.948 140.562 102.934 140.619L102.948 140.605Z" fill="#343C6B"/>
<path d="M108.522 108.881C108.98 107.596 108.894 105.954 108.608 104.441C108.194 102.128 107.336 100.115 107.336 100.115C107.336 100.115 99.8471 94.2614 95.974 101.657C95.6024 102.371 95.3309 103.299 95.1737 104.427C93.4872 115.363 100.319 143.689 100.319 143.689C100.419 143.889 100.676 144.032 101.005 144.117C101.062 144.146 101.133 144.16 101.191 144.16C102.062 144.317 103.32 144.132 103.777 143.575C103.777 143.575 102.634 128.869 102.162 126.057V125.7C102.248 126.199 102.362 126.699 102.505 127.199L105.621 139.42C105.764 139.591 106.107 139.763 106.521 139.863L106.722 139.906C107.45 140.048 108.336 139.977 108.737 139.434C108.737 139.434 108.851 128.641 106.679 124.529L108.522 108.853V108.881Z" fill="#5278FF"/>
<path d="M102.448 120.817L103.049 110.223L105.421 109.181L102.448 120.817Z" fill="#3754E0"/>
<path d="M96.317 145.531L97.8034 145.402C97.2031 145.573 97.003 146.116 97.6176 146.53C98.3036 147.001 103.849 147.786 103.877 146.501C103.906 146.758 103.92 146.958 103.92 147.058C103.949 147.529 103.849 148.001 103.606 148.4C103.034 149.314 101.705 148.971 100.676 148.757L97.6462 148.158C96.5314 147.929 95.8025 147.158 95.6024 146.473C95.5453 146.016 95.8597 145.602 96.317 145.516V145.531Z" fill="#343C6B"/>
<path d="M97.9034 95.946C97.9034 95.946 109.709 98.3303 111.438 95.7746C112.21 94.6325 107.936 82.04 107.936 82.04L107.065 81.2976L104.078 82.0828C103.677 82.1828 103.12 81.5689 103.12 81.5689C103.577 83.1679 105.95 90.9918 106.507 92.8193C106.593 93.1048 97.8177 93.5046 97.8177 93.5046C98.4751 93.7045 98.5323 95.689 97.8891 95.946H97.9034Z" fill="#B8C9F5"/>
<path d="M102.963 81.6402C102.348 82.3256 101.491 82.7681 100.547 82.8681C100.133 82.8681 99.7328 82.811 99.3469 82.711C98.6323 82.5112 97.4032 82.1114 96.7887 81.9115C96.9887 81.783 97.2031 81.6545 97.4175 81.526L98.1607 81.0977L100.848 79.5415L102.534 80.1269C103.163 80.341 103.392 81.1405 102.948 81.6402H102.963Z" fill="#FBB2B8"/>
<path d="M95.5167 76.6433C96.3027 79.9128 98.5037 80.1412 100.519 79.0847C102.777 77.8997 104.078 75.1585 104.149 73.1883C104.249 70.1901 102.291 68.2912 99.8042 68.2055C94.1161 68.0199 95.2451 75.5154 95.5167 76.6433V76.6433Z" fill="#FEC7C4"/>
<path d="M102.82 74.8301V81.3833C102.82 81.6831 102.534 81.9829 102.019 82.1685C101.119 82.4969 99.8614 82.4113 99.1897 81.9829C98.9181 81.8116 98.7895 81.5975 98.7895 81.3833V74.8301H102.82V74.8301Z" fill="#FBB2B8"/>
<path d="M84.8978 93.6188L83.6401 95.6605C82.8969 95.1465 82.4396 94.8181 82.4396 94.8181C82.0966 94.7324 81.3391 94.5468 80.6245 94.1899C79.6527 93.6902 79.4097 92.391 80.1386 91.5772L80.2672 91.4344C80.2672 91.4344 79.3811 90.6349 79.181 90.4493C78.9524 90.2494 78.8523 90.021 78.9381 89.8497C79.1239 89.5213 79.4669 89.6783 79.7527 89.8639C80.2958 90.2351 81.9251 91.3202 81.9251 91.3202C82.1394 91.4772 82.3252 91.6486 82.4825 91.8627L82.7826 92.2768C83.1256 92.7336 83.5829 93.0906 84.1117 93.3047C84.1117 93.3047 84.3976 93.4332 84.8835 93.6331L84.8978 93.6188Z" fill="#FBB2B8"/>
<path d="M107.708 92.2483L108.122 88.7647L108.694 84.0247C108.722 80.6838 106.436 79.3418 104.135 79.6416C103.692 79.6987 103.249 79.8129 102.82 79.9985C102.634 80.0699 101.276 79.3132 101.091 79.4132L100.862 79.5417L98.7324 80.7695L98.1607 81.0979L97.4175 81.5262C97.2031 81.6547 97.003 81.7832 96.7887 81.9117L96.66 81.9831C95.6167 82.6113 94.7592 83.2109 94.1304 83.9105C93.5015 84.6101 93.0871 85.4239 92.9441 86.4946C92.9441 86.4946 91.9437 94.8325 91.7722 95.7891C91.7007 96.1888 83.8545 93.1621 83.8545 93.1621C83.34 93.3477 82.7111 94.547 82.8398 95.0752C82.8398 95.0752 91.6722 101.528 94.602 99.3869C94.8592 99.2013 95.1451 98.5588 95.4309 97.6594C95.5453 100.215 94.9736 102.285 95.0593 102.713C98.2178 105.069 107.336 104.484 108.379 101.943C108.522 101.6 107.751 99.187 107.522 98.1591C107.079 96.2031 107.465 94.2186 107.708 92.2198V92.2483Z" fill="#E2E9FB"/>
<path d="M95.4452 69.2192C96.9316 67.2062 102.634 65.9498 106.564 68.9765C106.764 69.1336 106.936 69.3192 107.165 69.4334C108.151 69.9616 109.037 70.8897 109.594 72.1461C110.08 73.2311 110.252 74.3733 110.152 75.4298C110.109 75.9295 110.28 76.4006 110.609 76.7861C110.88 77.1002 111.123 77.4714 111.309 77.8997C112.095 79.6416 111.781 81.6261 110.638 82.6112C110.495 82.7254 110.352 82.8396 110.194 82.9253C110.009 83.0252 109.809 83.1109 109.608 83.1537C109.809 84.5101 109.423 85.8236 108.551 86.566C108.408 86.6802 108.265 86.7944 108.108 86.8801C106.864 87.5654 105.321 87.0371 104.335 85.7093C104.292 85.7379 104.249 85.7665 104.192 85.795C102.134 86.9229 99.5041 85.6665 98.2893 82.9967C97.5175 81.2692 97.5175 79.356 98.2036 77.9283C98.3179 77.6999 98.4465 77.4857 98.5751 77.2715C97.8605 76.572 97.3032 75.7011 96.9316 74.8302C96.7744 74.4447 96.5028 74.1163 96.1455 73.9021C96.0741 73.8593 96.0026 73.8165 95.9454 73.7736C94.5734 72.8028 94.3162 70.7326 95.4452 69.1907V69.2192Z" fill="#E06A5B"/>
<path d="M97.1174 75.9009C96.5886 76.6004 96.5314 77.4285 96.9887 77.7712C97.4461 78.1138 98.2321 77.8283 98.7466 77.1287C99.2754 76.4291 99.3326 75.601 98.8753 75.2584C98.4179 74.9157 97.6319 75.2013 97.1174 75.9009Z" fill="#FEC7C4"/>
</g>
<g clip-path="url(#clip1_2_1159)">
<path d="M85 152.744L82.2566 153.841L73.7965 148.884C71.9912 147.839 69.7788 147.839 67.9735 148.884L59.6195 153.7L57 152.531V163.368C57 164.802 57.7611 166.13 59 166.856L68.2035 172.221C70.0088 173.266 72.2212 173.266 74.0265 172.221L83.0177 166.927C84.2566 166.201 85 164.873 85 163.456V152.726V152.744Z" fill="#B8C9F5"/>
<path d="M83.8319 154.744L74.0088 160.411C72.2035 161.455 69.9912 161.455 68.1858 160.411L58.1681 154.55C56.6106 153.647 56.6106 151.416 58.1681 150.513L67.9912 144.846C68.6637 144.457 69.3894 144.209 70.1504 144.121C70.646 144.05 71.1593 144.05 71.6549 144.121C72.3982 144.209 73.1416 144.457 73.8142 144.846L83.8496 150.707C84.115 150.867 84.3451 151.061 84.5221 151.292C85.354 152.354 85.1416 154.001 83.8496 154.744H83.8319Z" fill="#EBF0FC"/>
<path d="M71 152.637C71.354 152.637 71.6372 152.354 71.6372 152V133.868L70.3805 133.196V152C70.3805 152.354 70.6637 152.637 71.0177 152.637H71Z" fill="#819BEA"/>
<path d="M70.3628 131V140.314L82.4867 147.379L79.8319 141.075L82.4867 137.87L70.3628 131Z" fill="#FF4A59"/>
</g>
<path d="M231.311 121.455L203.257 137.744L236.791 156.771L236.907 124.611L231.311 121.455Z" fill="#6D83B1"/>
<path d="M98 146.939V178.91L147.729 208L147.845 175.855L98 146.939Z" fill="#819BEA"/>
<path d="M238.092 123.902L188.247 95L98 146.939L147.845 175.855L238.092 123.902Z" fill="#C8D5F7"/>
<path d="M147.845 175.855L147.744 207.986L148.944 207.247L149.045 176.593L236.892 126.088L236.791 156.771L237.991 156.032L238.092 123.902L147.845 175.855Z" fill="#B8C9F5"/>
<path d="M144.779 156.988L143.145 145.896C143.03 145.1 143.319 144.405 143.912 144.058L157.49 136.311C157.794 136.137 158.155 136.181 158.473 136.369L158.531 136.412L158.864 136.629C159.283 136.818 159.645 137.238 159.717 137.73L161.337 148.792C161.452 149.574 161.163 150.269 160.57 150.617L146.992 158.392C146.703 158.566 146.341 158.523 146.023 158.349C146.023 158.364 145.43 157.987 145.43 157.987C145.098 157.77 144.823 157.408 144.765 156.988H144.779Z" fill="#E4E9F9"/>
<path d="M143.319 145.911C143.203 145.187 143.478 144.535 144.027 144.231L157.606 136.485C157.736 136.412 157.866 136.383 158.025 136.398C158.155 136.398 158.3 136.456 158.416 136.528C158.271 136.528 158.141 136.557 158.011 136.629L144.432 144.376C143.767 144.752 143.521 145.259 143.666 146.215L145.3 157.306C145.329 157.495 145.401 157.668 145.502 157.828C145.213 157.639 145.011 157.335 144.967 157.002L143.333 145.911H143.319Z" fill="#819BEA"/>
<path d="M160.064 148.532L158.618 138.686L144.982 146.505L146.428 156.365L160.064 148.532Z" fill="#819BEA"/>
<path d="M146.139 158.841C146.139 158.479 146.298 158.117 146.645 157.915L149.768 156.105L158.546 151.022L161.12 149.531C161.756 149.169 162.522 149.169 163.159 149.531L171.965 154.628C172.327 154.845 172.5 155.221 172.471 155.583V156.148C172.471 156.481 172.298 156.8 171.965 156.988L157.476 165.357C156.839 165.719 156.073 165.719 155.437 165.357L146.63 160.275C146.312 160.101 146.153 159.782 146.124 159.478C146.124 159.406 146.124 159.377 146.124 159.363V158.856L146.139 158.841Z" fill="#E2E9FB"/>
<path d="M146.659 159.681L155.466 164.764C156.102 165.126 156.868 165.126 157.505 164.764L171.994 156.394C172.139 156.307 172.254 156.206 172.327 156.076C172.312 156.438 172.153 156.684 171.907 156.843L157.418 165.212C157.129 165.372 156.81 165.459 156.492 165.459C156.174 165.459 155.842 165.372 155.552 165.212L146.746 160.13C146.5 159.985 146.356 159.739 146.327 159.464C146.413 159.493 146.515 159.609 146.659 159.681V159.681Z" fill="#819BEA"/>
<path d="M165.111 152.991L161.799 151.08C161.568 150.95 161.264 150.95 161.033 151.08L149.161 157.929C148.901 158.074 148.901 158.45 149.161 158.595L152.472 160.506C152.704 160.637 153.007 160.637 153.239 160.506L165.111 153.658C165.371 153.513 165.371 153.136 165.111 152.991V152.991Z" fill="#B8C9F5"/>
<path d="M197.574 124.901L195.94 113.809C195.825 113.013 196.114 112.318 196.707 111.97L210.285 104.224C210.589 104.05 210.95 104.093 211.268 104.282L211.326 104.325L211.659 104.542C212.078 104.73 212.44 105.15 212.512 105.643L214.132 116.705C214.247 117.487 213.958 118.182 213.365 118.53L199.787 126.305C199.498 126.479 199.136 126.436 198.818 126.262C198.818 126.276 198.225 125.9 198.225 125.9C197.893 125.683 197.618 125.321 197.56 124.901H197.574Z" fill="#E4E9F9"/>
<path d="M196.128 113.809C196.013 113.085 196.287 112.434 196.837 112.13L210.415 104.383C210.545 104.311 210.676 104.282 210.835 104.296C210.965 104.296 211.109 104.354 211.225 104.426C211.08 104.426 210.95 104.455 210.82 104.528L197.242 112.274C196.577 112.651 196.331 113.158 196.475 114.113L198.109 125.205C198.138 125.393 198.211 125.567 198.312 125.726C198.023 125.538 197.82 125.234 197.777 124.901L196.143 113.809H196.128Z" fill="#819BEA"/>
<path d="M212.874 116.445L211.427 106.598L197.791 114.403L199.237 124.264L212.874 116.445Z" fill="#819BEA"/>
<path d="M198.948 126.74C198.948 126.378 199.107 126.016 199.454 125.813L202.578 124.003L211.355 118.921L213.929 117.429C214.565 117.067 215.332 117.067 215.968 117.429L224.774 122.526C225.136 122.729 225.309 123.12 225.281 123.482V124.046C225.281 124.379 225.107 124.698 224.774 124.886L210.285 133.256C209.649 133.618 208.882 133.618 208.246 133.256L199.44 128.173C199.122 127.999 198.963 127.681 198.934 127.377C198.934 127.304 198.934 127.275 198.934 127.261V126.754L198.948 126.74Z" fill="#E2E9FB"/>
<path d="M199.454 127.58L208.261 132.676C208.897 133.038 209.663 133.038 210.3 132.676L224.789 124.307C224.934 124.22 225.049 124.119 225.121 123.989C225.107 124.351 224.948 124.597 224.702 124.756L210.213 133.125C209.924 133.285 209.605 133.371 209.273 133.371C208.94 133.371 208.622 133.285 208.333 133.125L199.527 128.043C199.281 127.898 199.136 127.652 199.107 127.377C199.194 127.406 199.295 127.522 199.44 127.594L199.454 127.58Z" fill="#819BEA"/>
<path d="M217.906 120.904L214.594 118.993C214.363 118.863 214.059 118.863 213.828 118.993L201.956 125.842C201.696 125.987 201.696 126.363 201.956 126.508L205.267 128.419C205.499 128.55 205.802 128.55 206.034 128.419L217.906 121.57C218.166 121.426 218.166 121.049 217.906 120.904Z" fill="#B8C9F5"/>
<path d="M151.764 121.208C151.764 120.846 151.923 120.484 152.27 120.281L166.745 111.898C167.381 111.536 168.147 111.536 168.784 111.898L177.59 116.995C177.952 117.212 178.125 117.588 178.096 117.95V118.515C178.096 118.848 177.923 119.167 177.59 119.355L163.101 127.724C162.465 128.086 161.698 128.086 161.062 127.724L152.255 122.642C151.937 122.468 151.778 122.149 151.749 121.845C151.749 121.773 151.749 121.744 151.749 121.729V121.223L151.764 121.208Z" fill="#F7F9FF"/>
<path d="M152.284 122.048L161.091 127.145C161.727 127.507 162.493 127.507 163.13 127.145L177.619 118.776C177.764 118.689 177.879 118.587 177.952 118.457C177.937 118.819 177.778 119.065 177.532 119.224L163.043 127.594C162.754 127.753 162.436 127.84 162.117 127.84C161.799 127.84 161.467 127.753 161.178 127.594L152.371 122.511C152.125 122.367 151.981 122.12 151.952 121.845C152.039 121.874 152.14 121.99 152.284 122.062V122.048Z" fill="#819BEA"/>
<path d="M159.066 123.424L162.378 125.335C162.609 125.465 162.913 125.465 163.144 125.335L175.016 118.486C175.276 118.341 175.276 117.965 175.016 117.82L171.705 115.909C171.473 115.778 171.17 115.778 170.938 115.909L159.066 122.757C158.806 122.902 158.806 123.279 159.066 123.424V123.424Z" fill="#B8C9F5"/>
<path d="M161.597 126.435L159.963 115.344C159.847 114.548 160.136 113.853 160.729 113.505L174.308 105.758C174.611 105.585 174.973 105.628 175.291 105.816L175.349 105.86L175.681 106.077C176.101 106.265 176.462 106.685 176.534 107.177L178.154 118.24C178.27 119.022 177.981 119.717 177.388 120.064L163.809 127.84C163.52 128.014 163.159 127.97 162.84 127.797C162.84 127.811 162.248 127.435 162.248 127.435C161.915 127.217 161.64 126.855 161.582 126.435H161.597Z" fill="#B8C9F5"/>
<path d="M160.151 115.344C160.035 114.62 160.31 113.968 160.859 113.664L174.438 105.918C174.568 105.845 174.698 105.816 174.857 105.831C174.987 105.831 175.132 105.889 175.248 105.961C175.103 105.961 174.973 105.99 174.843 106.062L161.264 113.809C160.599 114.186 160.353 114.692 160.498 115.648L162.132 126.74C162.161 126.928 162.233 127.102 162.334 127.261C162.045 127.073 161.843 126.768 161.799 126.435L160.165 115.344H160.151Z" fill="#819BEA"/>
<path d="M174.467 137.426L173.83 126.233C173.787 125.436 174.134 124.756 174.756 124.481L188.97 117.979C189.289 117.835 189.65 117.921 189.939 118.124L189.997 118.168L190.315 118.414C190.706 118.631 191.038 119.08 191.067 119.587L191.703 130.751C191.747 131.547 191.4 132.213 190.778 132.503L176.563 139.047C176.26 139.192 175.898 139.12 175.595 138.917C175.595 138.932 175.031 138.512 175.031 138.512C174.712 138.266 174.481 137.889 174.452 137.455L174.467 137.426Z" fill="#E4E9F9"/>
<path d="M174.004 126.262C173.961 125.523 174.279 124.915 174.857 124.655L189.072 118.153C189.202 118.095 189.346 118.081 189.491 118.11C189.621 118.139 189.751 118.197 189.881 118.269C189.737 118.269 189.607 118.269 189.477 118.341L175.262 124.843C174.553 125.147 174.279 125.654 174.337 126.595L174.973 137.788C174.973 137.976 175.045 138.164 175.117 138.323C174.843 138.106 174.669 137.788 174.655 137.455L174.018 126.262H174.004Z" fill="#819BEA"/>
<path d="M190.445 130.36L189.881 120.427L175.609 127L176.173 136.948L190.445 130.36Z" fill="#819BEA"/>
<path d="M175.667 139.395C175.681 139.033 175.884 138.685 176.26 138.526L179.542 137.006L188.725 132.734L191.429 131.475C192.094 131.17 192.86 131.243 193.453 131.648L201.782 137.498C202.129 137.744 202.26 138.135 202.202 138.497L202.158 139.062C202.115 139.395 201.913 139.699 201.58 139.858L186.411 146.91C185.746 147.214 184.979 147.142 184.387 146.736L176.072 140.886C175.783 140.684 175.638 140.365 175.638 140.047C175.638 139.974 175.638 139.945 175.638 139.931L175.681 139.424L175.667 139.395Z" fill="#E2E9FB"/>
<path d="M176.101 140.278L184.415 146.128C185.008 146.548 185.789 146.62 186.44 146.302L201.609 139.25C201.753 139.178 201.884 139.076 201.97 138.96C201.927 139.322 201.753 139.554 201.479 139.684L186.31 146.736C186.006 146.881 185.688 146.939 185.355 146.91C185.023 146.881 184.719 146.765 184.444 146.577L176.13 140.727C175.898 140.568 175.768 140.307 175.768 140.032C175.84 140.075 175.942 140.191 176.086 140.278H176.101Z" fill="#819BEA"/>
<path d="M195.073 135.254L191.935 133.053C191.703 132.893 191.414 132.865 191.168 132.98L178.747 138.758C178.472 138.888 178.443 139.25 178.689 139.424L181.827 141.625C182.058 141.784 182.348 141.813 182.593 141.697L195.029 135.92C195.304 135.789 195.333 135.427 195.087 135.254H195.073Z" fill="#B8C9F5"/>
<path d="M229.185 150.761C229.185 150.761 229.185 151.819 230.486 152.774C230.674 152.904 230.92 153.078 231.18 153.252C231.918 153.715 232.916 154.57 233.552 155.178C233.899 155.511 234.304 155.743 234.839 155.771C235.634 155.815 236.328 155.554 236.242 154.352C236.242 154.266 236.227 154.121 236.213 153.976L236.184 153.788C236.169 153.701 236.111 151.471 236.111 151.428C236.01 151.833 235.461 150.255 235.114 150.24C234.593 150.211 234.665 151.457 234.318 151.138C233.682 150.53 233.002 150.805 231.267 149.922L230.935 149.864C229.59 149.704 229.373 150.153 229.243 150.559C229.228 150.617 229.214 150.689 229.199 150.747L229.185 150.761Z" fill="#343C6B"/>
<path d="M219.482 156.177C219.482 156.177 220.754 156.047 221.188 156.032C222.186 155.989 224.384 155.366 225.064 155.844C225.845 156.38 227.58 156.829 227.594 155.381L228.578 155.699C228.592 156.003 228.679 157.813 228.693 157.929C228.722 158.465 228.621 159.015 228.332 159.464C227.681 160.506 225.642 159.898 224.471 159.667L220.986 159.203C219.713 158.943 218.889 158.059 218.658 157.277C218.6 156.756 218.947 156.278 219.467 156.191L219.482 156.177Z" fill="#343C6B"/>
<path d="M231.079 133.227L231.73 150.95C231.73 152.456 236.661 152.354 236.574 151.095L236.892 133.227H231.094H231.079Z" fill="#343C6B"/>
<path d="M224.022 155.641C224.022 156.886 228.491 157.625 228.809 156.003L231.036 137.628H223.675L224.008 155.641H224.022Z" fill="#343C6B"/>
<path d="M233.451 167.63C232.932 167.63 232.511 167.209 232.511 166.689C232.511 166.169 232.932 165.748 233.451 165.748C233.97 165.748 234.391 166.169 234.391 166.689C234.391 167.209 233.97 167.63 233.451 167.63Z" fill="#343C6B"/>
<path d="M250.774 167.63C250.255 167.63 249.834 167.209 249.834 166.689C249.834 166.169 250.255 165.748 250.774 165.748C251.293 165.748 251.714 166.169 251.714 166.689C251.714 167.209 251.293 167.63 250.774 167.63Z" fill="#343C6B"/>
<path d="M233.465 157.697C232.946 157.697 232.525 157.276 232.525 156.756C232.525 156.236 232.946 155.815 233.465 155.815C233.984 155.815 234.405 156.236 234.405 156.756C234.405 157.276 233.984 157.697 233.465 157.697Z" fill="#343C6B"/>
<path d="M250.774 157.697C250.255 157.697 249.834 157.276 249.834 156.756C249.834 156.236 250.255 155.815 250.774 155.815C251.293 155.815 251.714 156.236 251.714 156.756C251.714 157.276 251.293 157.697 250.774 157.697Z" fill="#343C6B"/>
<path d="M251.512 155.742L246.046 158.899V160.043L251.512 156.886C252.322 156.423 252.669 155.467 252.408 154.598C252.264 155.062 251.96 155.467 251.512 155.728V155.742Z" fill="#343C6B"/>
<path d="M232.713 155.742C232.265 155.482 231.961 155.076 231.817 154.613C231.556 155.467 231.903 156.423 232.713 156.901L238.179 160.057V158.914L232.713 155.757V155.742Z" fill="#343C6B"/>
<path d="M252.235 164.763C251.873 165.4 251.208 165.748 250.528 165.748C250.196 165.748 249.863 165.661 249.545 165.487L242.112 161.187L234.68 165.487C234.376 165.661 234.029 165.748 233.697 165.748C233.017 165.748 232.352 165.4 231.99 164.763C231.918 164.633 231.86 164.503 231.817 164.358C231.658 164.865 231.701 165.415 231.99 165.907C232.352 166.544 233.017 166.892 233.697 166.892C234.029 166.892 234.362 166.805 234.68 166.631L242.112 162.331L249.545 166.631C249.849 166.805 250.196 166.892 250.528 166.892C251.208 166.892 251.873 166.544 252.235 165.907C252.524 165.415 252.567 164.85 252.408 164.358C252.365 164.503 252.307 164.633 252.235 164.763V164.763Z" fill="#343C6B"/>
<path d="M233.697 165.733C234.029 165.733 234.362 165.647 234.68 165.473L242.112 161.172L249.545 165.473C249.849 165.647 250.196 165.733 250.528 165.733C251.208 165.733 251.873 165.386 252.235 164.749C252.307 164.618 252.365 164.474 252.408 164.343C252.264 163.88 251.96 163.475 251.512 163.214L246.046 160.057V158.913L251.512 155.757C251.96 155.496 252.264 155.091 252.408 154.627C252.365 154.483 252.307 154.352 252.235 154.222C251.685 153.281 250.485 152.962 249.545 153.498L242.112 157.798L234.68 153.498C233.74 152.948 232.54 153.281 231.99 154.222C231.918 154.352 231.86 154.497 231.817 154.627C231.961 155.091 232.265 155.496 232.713 155.757L238.179 158.913V160.057L232.713 163.214C232.265 163.475 231.961 163.88 231.817 164.343C231.86 164.488 231.918 164.618 231.99 164.749C232.352 165.386 233.017 165.733 233.697 165.733Z" fill="#424E7F"/>
<path d="M243.718 155.235C243.689 155.438 243.457 155.699 243.125 155.844C242.835 155.959 242.503 156.017 242.156 156.017C241.606 156.017 241.1 155.873 240.797 155.626C240.666 155.525 240.536 155.337 240.536 155.207V159.188C240.507 159.391 240.666 159.565 240.797 159.666C241.115 159.912 241.621 160.057 242.156 160.057C242.517 160.057 242.85 159.999 243.139 159.884C243.486 159.739 243.703 159.536 243.732 159.319C243.732 159.275 243.732 159.232 243.732 159.188C243.732 159.188 243.746 155.192 243.732 155.235H243.718Z" fill="#343C6B"/>
<path d="M243.124 155.829C242.835 155.945 242.503 156.003 242.156 156.003C241.606 156.003 241.1 155.858 240.796 155.612C240.666 155.511 240.507 155.337 240.536 155.134C240.565 154.932 240.782 154.714 241.129 154.57C241.418 154.454 241.751 154.396 242.098 154.396C242.647 154.396 243.153 154.541 243.457 154.787C243.587 154.888 243.746 155.062 243.717 155.265C243.688 155.467 243.472 155.684 243.124 155.815V155.829Z" fill="#343B65"/>
<path d="M241.158 155.018C241.144 155.134 241.23 155.236 241.317 155.308C241.505 155.453 241.809 155.54 242.141 155.54C242.358 155.54 242.561 155.496 242.72 155.438C242.922 155.351 243.052 155.236 243.081 155.105C243.081 155.076 243.081 145.389 243.081 145.389H241.173V155.033L241.158 155.018Z" fill="#343C6B"/>
<path d="M257.137 143.478V142.131L256.515 142.102C256.356 141.943 256.182 141.798 255.98 141.668L246.32 136.079C244.874 135.239 243.096 135.239 241.65 136.079L228.245 143.782C227.912 143.97 227.667 144.216 227.464 144.506L227.074 144.419V145.809C227.074 146.591 227.45 147.388 228.23 147.836L237.89 153.426C239.336 154.265 241.115 154.265 242.561 153.426L255.966 145.722C256.819 145.23 257.209 144.332 257.122 143.478H257.137Z" fill="#343B65"/>
<path d="M255.994 140.148L246.335 134.559C244.889 133.719 243.11 133.719 241.664 134.559L228.259 142.262C226.698 143.16 226.698 145.418 228.259 146.316L237.919 151.905C239.365 152.745 241.144 152.745 242.59 151.905L255.994 144.202C257.556 143.304 257.556 141.046 255.994 140.148V140.148Z" fill="#424E7F"/>
<path d="M242.315 133.82L241.129 143.551C239.972 143.131 238.859 142.566 237.803 141.885C235.041 140.104 231.744 137.976 229.763 136.687C228.679 135.992 228.129 134.703 228.375 133.429C228.737 131.532 230.703 130.403 232.54 131.04L240.059 133.719C240.811 134.037 241.621 134.052 242.329 133.806L242.315 133.82Z" fill="#343C6B"/>
<path d="M224.109 135.905C223.213 137.686 223.791 139.858 225.454 140.944C227.507 142.291 231.18 144.376 233.436 145.78C237.384 148.242 241.129 148.633 245.511 147.981C247.174 147.735 251.006 146.07 252.423 143.232C253.84 140.408 253.131 134.139 253.131 134.139C253.131 134.139 245.424 128.086 241.433 135.731C241.346 135.905 241.216 136.151 241.057 136.455C240.233 138.048 238.252 138.627 236.704 137.73L229.387 134.168C227.464 133.183 225.107 133.95 224.124 135.891L224.109 135.905Z" fill="#343C6B"/>
<path d="M255.083 129.94C254.997 129.389 254.953 128.825 254.939 128.274L255.257 118.457C255.055 115.532 252.726 114.287 250.543 114.403C250.34 114.403 250.138 114.432 249.936 114.461C249.429 114.548 248.923 114.707 248.446 114.953C248.258 115.04 246.769 114.359 246.595 114.461L244.267 116.025L244.209 116.068L242.922 116.937C242.676 117.111 242.431 117.27 242.199 117.429C242.026 117.545 241.852 117.675 241.693 117.791C239.51 119.398 237.702 121.237 237.89 123.988L240.869 129.592L241.679 138.555C241.794 139.641 242.734 140.437 243.819 140.38C247.766 140.177 256.385 139.438 256.255 136.818L255.083 129.911V129.94Z" fill="#5278FF"/>
<path d="M240.551 112.086C241.592 115.402 243.877 115.489 245.887 114.244C248.128 112.854 249.285 109.929 249.213 107.887C249.097 104.774 246.942 102.964 244.368 103.051C238.497 103.254 240.189 110.928 240.551 112.086V112.086Z" fill="#FCBAC0"/>
<path d="M247.795 109.943L248.244 116.387C248.258 116.691 248.012 116.995 247.506 117.212C246.653 117.603 245.409 117.603 244.715 117.212C244.441 117.053 244.296 116.85 244.282 116.647L243.819 110.204L247.795 109.929V109.943Z" fill="#FCBAC0"/>
<path d="M239.683 103.615C241.144 102.356 243.718 102.008 244.889 102.11C252.9 102.11 249.791 109.465 249.603 110.609C249.241 112.767 247.954 113.751 246.407 113.578C245.612 113.491 244.744 113.085 243.906 112.376C242.17 110.884 241.303 109.552 240.999 107.873C239.524 106.96 238.237 104.875 239.669 103.63L239.683 103.615Z" fill="#343C6B"/>
<path d="M242.156 111.203C241.664 111.956 241.664 112.824 242.156 113.143C242.648 113.462 243.443 113.1 243.92 112.347C244.412 111.594 244.412 110.725 243.92 110.406C243.428 110.088 242.633 110.45 242.156 111.203Z" fill="#FCBAC0"/>
<path d="M240.797 128.94L243.197 124.206L243.544 127.956C243.587 128.405 243.602 128.868 243.573 129.317C243.371 132.488 242.864 134.877 241.534 137.208L240.811 128.94H240.797Z" fill="#3E5AFF"/>
<path d="M248.258 150.877C248.244 150.993 248.33 151.095 248.417 151.167C248.605 151.312 248.909 151.399 249.241 151.399C249.458 151.399 249.661 151.355 249.82 151.297C250.022 151.21 250.152 151.095 250.181 150.964C250.181 150.935 250.181 141.248 250.181 141.248H248.273V150.892L248.258 150.877Z" fill="#343C6B"/>
<path d="M259.32 129.114L258.164 128.492C257.73 128.26 257.224 128.26 256.79 128.492L243.587 135.529C242.532 136.108 241.65 137.484 241.288 139.12L239.206 148.3C239.032 149.082 239.379 149.878 240.074 150.269L241.245 150.863L241.158 149.676C241.158 149.676 241.259 149.647 241.317 149.618L255.04 142.103C256.096 141.523 256.978 140.148 257.339 138.512L259.161 130.475C259.219 130.2 259.234 129.954 259.248 129.708L259.32 129.129V129.114Z" fill="#343B65"/>
<path d="M259.913 131.619L258.091 139.655C257.73 141.292 256.848 142.667 255.792 143.246L242.069 150.761C240.941 151.384 240.016 149.98 240.392 148.227L242.214 140.177C242.575 138.541 243.457 137.165 244.513 136.586L258.236 129.085C259.364 128.463 260.289 129.867 259.913 131.619V131.619Z" fill="#445393"/>
<path d="M223.184 123.337L226.177 134.139C226.293 134.559 226.741 134.776 227.131 134.602L234.116 131.388C234.463 131.228 234.636 130.837 234.535 130.475L231.455 119.529C231.339 119.123 230.877 118.906 230.501 119.08L223.661 122.28C223.256 122.468 223.054 122.917 223.155 123.337H223.184Z" fill="#B8C9F5"/>
<path d="M223.487 123.366L226.51 134.284C226.625 134.704 227.074 134.921 227.464 134.747L234.448 131.532C234.795 131.373 234.969 130.982 234.868 130.62L231.788 119.674C231.672 119.268 231.209 119.051 230.833 119.225L223.892 122.468C223.545 122.627 223.372 123.004 223.473 123.366H223.487Z" fill="#B8C9F5"/>
<path d="M227.16 134.313C227.16 134.313 227.001 134.255 226.972 134.153L223.95 123.236C223.921 123.105 223.979 122.96 224.109 122.902L231.05 119.659C231.05 119.659 231.123 119.645 231.151 119.645C231.224 119.645 231.311 119.688 231.339 119.804L234.42 130.751C234.463 130.881 234.391 131.026 234.26 131.084L227.276 134.298C227.276 134.298 227.204 134.313 227.175 134.313H227.16Z" fill="#F7F9FF"/>
<path d="M234.839 132.198C233.06 131.721 231.065 131.141 229.98 130.808L229.17 130.562C227.782 130.446 225.7 126.638 225.093 127.898C225.093 127.898 223.01 128.101 223.965 130.128C224.21 130.664 225.367 131.431 226.264 131.88C227.001 132.242 227.507 132.387 228.042 132.459C228.129 132.459 228.23 132.503 228.317 132.517C228.447 132.618 230.804 133.589 233.697 135.065L234.839 132.198V132.198Z" fill="#FCBAC0"/>
<path d="M238.888 122.208C238.888 122.208 237.124 130.982 236.791 132.097C236.733 132.285 229.763 130.2 229.763 130.2C228.737 130.693 228.1 132.59 228.592 133.618C228.592 133.618 237.659 137.904 239.481 136.818C241.274 135.746 244.397 125.914 244.455 124.148L242.864 118.921C241.881 119.427 239.191 120.933 238.888 122.222V122.208Z" fill="#5278FF"/>
<path d="M218.079 156.699C218.079 156.699 231.094 159.623 233.06 156.814C233.942 155.555 230.081 143.551 230.081 143.551L228.91 142.682L225.584 143.479C225.136 143.58 224.543 142.885 224.543 142.885C225.006 144.68 227.103 151.356 227.681 153.412C227.768 153.73 218.05 153.962 218.05 153.962C218.773 154.194 218.788 156.409 218.079 156.684V156.699Z" fill="#6076D1"/>
<path d="M206.439 179.461C206.381 181.995 206.337 183.906 206.381 184.384C206.439 185.05 206.222 185.962 205.904 186.339C205.209 187.193 203.85 186.744 202.809 186.425L199.7 185.513C198.558 185.18 197.878 184.282 197.733 183.558C197.733 183.081 198.081 182.675 198.572 182.632L201.016 182.661C201.681 182.704 202.332 182.472 202.809 182.024C203.04 181.821 203.127 181.517 203.084 181.227C202.983 180.503 202.852 179.403 202.679 178.013L206.468 178.693C206.468 178.954 206.453 179.229 206.439 179.475V179.461Z" fill="#FCBAC0"/>
<path d="M213.9 182.805C213.944 183.573 213.322 184.195 212.555 184.166C212.049 184.138 211.659 183.906 211.326 183.602C210.719 183.023 210.068 182.501 209.36 182.067C209.099 181.908 208.868 181.748 208.694 181.604C208.42 181.401 208.203 181.184 208.029 180.981C207.436 180.271 207.451 179.663 207.451 179.663C207.451 179.605 207.48 179.547 207.494 179.49C207.567 179.272 207.711 179.084 207.914 178.968C208.058 178.867 208.232 178.809 208.434 178.809H208.694C208.839 178.809 208.984 178.809 209.128 178.823C209.562 178.838 210.169 179.128 210.589 179.388L209.909 176.767L213.423 178.128C213.437 178.389 213.452 178.635 213.466 178.852C213.495 179.605 213.582 180.358 213.698 181.111C213.756 181.444 213.799 181.792 213.857 182.11C213.857 182.168 213.857 182.212 213.871 182.27C213.871 182.357 213.886 182.414 213.9 182.472C213.915 182.603 213.915 182.747 213.929 182.82L213.9 182.805Z" fill="#FCBAC0"/>
<path d="M213.437 178.954C213.437 179.432 210.979 179.417 210.242 178.157L206.959 165.56C206.815 165.053 206.699 164.532 206.641 163.996C206.612 163.851 206.598 163.692 206.583 163.547H206.67L211.37 162.476V162.751C212.758 167.327 213.452 178.91 213.452 178.954H213.437Z" fill="#343C6B"/>
<path d="M207.436 179.663C207.436 179.663 207.436 180.677 208.68 181.604C208.854 181.734 209.099 181.893 209.345 182.067C210.054 182.516 210.704 183.037 211.312 183.602C211.644 183.92 212.035 184.152 212.541 184.167C213.307 184.21 213.973 183.964 213.886 182.806C213.886 182.733 213.871 182.588 213.857 182.458L213.828 182.27C213.813 182.183 213.828 182.139 213.813 182.096C213.727 182.487 213.293 182.588 212.96 182.574C212.454 182.545 212.02 182.429 211.673 182.11C211.066 181.531 206.699 179.041 209.403 178.867L209.085 178.824C207.783 178.664 207.595 179.099 207.465 179.49C207.451 179.548 207.436 179.62 207.422 179.663H207.436Z" fill="#E83349"/>
<path d="M206.41 180.938C206.077 181.748 203.46 181.647 202.997 180.532C202.997 180.532 201.696 171.366 201.146 163.692L206.612 161.955H206.699L206.627 162.418L206.569 162.78C206.786 165.748 206.569 180.518 206.41 180.938V180.938Z" fill="#343B65"/>
<path d="M198.572 182.617H200.148C199.512 182.748 199.252 183.298 199.845 183.79C200.51 184.355 206.251 185.701 206.395 184.369C206.395 184.63 206.395 184.847 206.395 184.948C206.381 185.441 206.236 185.933 205.933 186.324C205.238 187.222 203.879 186.729 202.838 186.411L199.729 185.499C198.587 185.151 197.907 184.268 197.762 183.544C197.762 183.066 198.124 182.661 198.601 182.617H198.572Z" fill="#E83349"/>
<path d="M210.994 193.737C210.994 194.259 210.574 194.693 210.039 194.693C209.504 194.693 209.085 194.273 209.085 193.737C209.085 193.202 209.504 192.782 210.039 192.782C210.574 192.782 210.994 193.202 210.994 193.737Z" fill="#343C6B"/>
<path d="M227.479 194.693C226.951 194.693 226.524 194.265 226.524 193.737C226.524 193.21 226.951 192.782 227.479 192.782C228.006 192.782 228.433 193.21 228.433 193.737C228.433 194.265 228.006 194.693 227.479 194.693Z" fill="#343C6B"/>
<path d="M211.008 183.732C211.008 184.253 210.589 184.688 210.054 184.688C209.519 184.688 209.099 184.268 209.099 183.732C209.099 183.196 209.519 182.776 210.054 182.776C210.589 182.776 211.008 183.196 211.008 183.732Z" fill="#343C6B"/>
<path d="M228.418 183.732C228.418 184.253 227.999 184.688 227.464 184.688C226.929 184.688 226.51 184.268 226.51 183.732C226.51 183.196 226.929 182.776 227.464 182.776C227.999 182.776 228.418 183.196 228.418 183.732Z" fill="#343C6B"/>
<path d="M228.23 182.718L222.721 185.904V187.062L228.23 183.877C229.04 183.399 229.387 182.443 229.127 181.574C228.982 182.038 228.679 182.458 228.23 182.718V182.718Z" fill="#343C6B"/>
<path d="M209.302 182.718C208.854 182.458 208.55 182.038 208.405 181.574C208.145 182.443 208.492 183.399 209.302 183.877L214.811 187.062V185.904L209.302 182.718V182.718Z" fill="#343C6B"/>
<path d="M228.953 191.797C228.592 192.434 227.927 192.782 227.233 192.782C226.9 192.782 226.553 192.695 226.249 192.521L218.759 188.192L211.268 192.521C210.95 192.695 210.618 192.782 210.285 192.782C209.605 192.782 208.94 192.42 208.564 191.797C208.492 191.667 208.434 191.522 208.391 191.392C208.232 191.898 208.275 192.463 208.564 192.955C208.926 193.593 209.591 193.94 210.285 193.94C210.618 193.94 210.965 193.853 211.268 193.679L218.759 189.35L226.249 193.679C226.568 193.853 226.9 193.94 227.233 193.94C227.912 193.94 228.578 193.578 228.953 192.955C229.243 192.463 229.286 191.898 229.127 191.392C229.084 191.536 229.026 191.667 228.953 191.797V191.797Z" fill="#343C6B"/>
<path d="M210.285 192.782C210.618 192.782 210.965 192.695 211.268 192.521L218.759 188.192L226.249 192.521C226.568 192.695 226.9 192.782 227.233 192.782C227.912 192.782 228.578 192.42 228.953 191.797C229.026 191.667 229.084 191.522 229.127 191.392C228.982 190.928 228.679 190.508 228.23 190.248L222.721 187.062V185.904L228.23 182.718C228.679 182.458 228.982 182.038 229.127 181.574C229.084 181.43 229.026 181.299 228.953 181.169C228.404 180.228 227.189 179.895 226.249 180.445L218.759 184.774L211.268 180.445C210.314 179.895 209.114 180.228 208.564 181.169C208.492 181.299 208.434 181.444 208.391 181.574C208.535 182.038 208.839 182.458 209.287 182.718L214.797 185.904V187.062L209.287 190.248C208.839 190.508 208.535 190.928 208.391 191.392C208.434 191.537 208.492 191.667 208.564 191.797C208.926 192.434 209.591 192.782 210.285 192.782Z" fill="#424E7F"/>
<path d="M220.378 182.197C220.35 182.414 220.118 182.661 219.771 182.805C219.482 182.921 219.149 182.979 218.788 182.979C218.238 182.979 217.732 182.834 217.414 182.588C217.284 182.487 217.154 182.299 217.139 182.168V186.179C217.11 186.382 217.269 186.556 217.414 186.657C217.732 186.903 218.238 187.048 218.788 187.048C219.149 187.048 219.482 186.99 219.771 186.874C220.118 186.729 220.335 186.527 220.364 186.309C220.364 186.266 220.364 186.223 220.364 186.179C220.364 186.179 220.378 182.154 220.364 182.197H220.378Z" fill="#343C6B"/>
<path d="M219.771 182.805C219.482 182.921 219.149 182.979 218.788 182.979C218.238 182.979 217.732 182.834 217.414 182.588C217.284 182.487 217.125 182.313 217.154 182.11C217.183 181.893 217.399 181.69 217.747 181.546C218.036 181.43 218.368 181.372 218.73 181.372C219.279 181.372 219.785 181.517 220.104 181.763C220.234 181.864 220.393 182.038 220.364 182.241C220.335 182.458 220.118 182.661 219.771 182.805Z" fill="#343B65"/>
<path d="M217.805 181.994C217.79 182.11 217.877 182.212 217.964 182.284C218.152 182.429 218.455 182.516 218.788 182.516C219.005 182.516 219.207 182.472 219.381 182.414C219.583 182.327 219.728 182.197 219.742 182.081C219.742 182.052 219.742 172.293 219.742 172.293H217.819V182.009L217.805 181.994Z" fill="#343C6B"/>
<path d="M233.884 170.367V169.006L233.263 168.977C233.104 168.818 232.93 168.659 232.713 168.543L222.981 162.925C221.535 162.085 219.742 162.085 218.282 162.925L204.79 170.671C204.458 170.859 204.197 171.12 204.009 171.395L203.619 171.308V172.713C203.619 173.509 203.995 174.306 204.79 174.755L214.522 180.373C215.968 181.212 217.761 181.212 219.222 180.373L232.713 172.626C233.566 172.134 233.957 171.236 233.884 170.367V170.367Z" fill="#343B65"/>
<path d="M232.728 167.022L222.996 161.404C221.55 160.564 219.757 160.564 218.296 161.404L204.805 169.151C203.228 170.049 203.228 172.322 204.805 173.234L214.536 178.852C215.983 179.692 217.776 179.692 219.236 178.852L232.728 171.106C234.304 170.208 234.304 167.935 232.728 167.022Z" fill="#424E7F"/>
<path d="M219.395 162.389L217.053 171.497C215.997 170.947 215.014 170.28 214.103 169.499C211.702 167.457 208.839 165.024 207.104 163.562C206.149 162.765 205.802 161.477 206.178 160.289C206.771 158.523 208.767 157.698 210.43 158.537L217.241 162.013C217.92 162.403 218.672 162.519 219.395 162.389V162.389Z" fill="#343C6B"/>
<path d="M201.305 162.563C200.915 163.736 201.276 165.039 202.216 165.835C203.951 167.298 206.815 169.73 209.215 171.772C212.613 174.653 217.081 176.043 221.477 175.392C223.155 175.146 228.144 173.307 229.214 170.295C229.691 168.963 229.503 166.936 229.214 165.357C229.011 164.214 228.925 163.084 228.896 162.23C228.867 161.158 228.274 160.188 227.334 159.681C224.861 158.349 220.017 156.742 217.125 162.288C217.038 162.461 216.908 162.722 216.749 163.026C215.925 164.633 213.929 165.213 212.367 164.315L205.542 160.84C203.894 160 201.884 160.825 201.291 162.577L201.305 162.563Z" fill="#343B65"/>
<path d="M230.009 154.223C229.416 161.014 229.199 163.837 228.896 164.141C225.497 167.674 220.407 167.776 217.125 165.937C216.416 165.546 216.069 164.706 216.272 163.909C216.503 162.997 216.821 161.709 217.067 160.536C217.081 160.463 217.096 160.391 217.096 160.333C217.327 159.117 217.269 157.871 216.951 156.684C216.937 156.612 216.922 156.539 216.894 156.467C215.939 155.917 215.303 154.889 215.303 153.716C215.303 153.31 215.375 152.919 215.52 152.557L214.001 147.793L213.973 147.678C214.117 146.548 214.536 145.708 215.202 144.984C215.867 144.26 216.734 143.638 217.819 142.986C217.862 142.972 217.906 142.928 217.949 142.914C218.166 142.784 218.383 142.653 218.6 142.523L218.831 142.378L219.366 142.074L219.959 141.741L221.738 140.713L222.172 140.467L222.417 140.336C222.591 140.336 222.779 140.409 222.981 140.496C223.459 140.698 224.08 141.002 224.196 140.945C224.659 140.742 225.107 140.641 225.555 140.583C226.741 140.423 227.941 140.698 228.823 141.451C229.966 142.407 230.183 143.913 230.284 145.129C230.631 149.227 230.154 152.239 229.98 154.237L230.009 154.223Z" fill="#819BEA"/>
<path d="M218.904 154.222C218.687 156.684 217.544 159.739 217.125 160.333C217.356 159.117 217.298 157.871 216.98 156.684C216.966 156.612 216.951 156.539 216.922 156.467C215.968 155.917 215.332 154.888 215.332 153.716C215.332 153.31 215.404 152.919 215.549 152.557L215.144 151.297L218.484 149.024C219.063 150.516 219.048 152.572 218.904 154.222V154.222Z" fill="#6076D1"/>
<path d="M216.662 137.44C217.472 140.829 219.757 141.075 221.853 139.974C224.196 138.744 225.555 135.891 225.613 133.849C225.714 130.722 223.69 128.767 221.101 128.68C215.216 128.477 216.373 136.282 216.662 137.455V137.44Z" fill="#FCBAC0"/>
<path d="M224.239 135.558V142.364C224.239 142.682 223.95 142.986 223.415 143.189C222.49 143.536 221.174 143.45 220.48 142.986C220.205 142.798 220.06 142.581 220.06 142.364V135.558H224.239Z" fill="#FCBAC0"/>
<path d="M217.935 142.986C217.935 142.986 218.383 142.03 219.005 141.755C219.627 141.48 224.326 142.001 224.283 141.263C224.283 141.162 223.835 140.944 223.835 140.944V140.322C223.835 140.322 224.543 140.597 224.789 140.8C225.237 141.162 225.57 142.088 224.933 142.74C223.126 144.637 217.935 142.986 217.935 142.986Z" fill="#A3B4DB"/>
<path d="M211.37 158.581C209.634 158.798 207.653 159.001 206.583 159.088L205.773 159.16C204.501 159.551 202.072 156.988 201.218 158.262C201.218 158.262 198.63 162.433 201.739 161.39C202.274 161.216 202.722 161.274 203.677 161.347C204.458 161.405 204.964 161.347 205.455 161.216C205.542 161.202 205.629 161.187 205.716 161.173C205.86 161.216 208.738 161.926 211.832 162.201L211.37 158.552V158.581Z" fill="#FCBAC0"/>
<path d="M214.001 147.692C214.001 147.692 211.529 156.612 211.052 157.538C210.979 157.698 205.267 158.871 205.267 158.871C204.284 159.131 204.443 160.536 204.703 161.52C204.703 161.52 211.861 162.925 213.915 161.955C215.621 161.144 218.73 151.804 219.091 150.27L218.383 144.594C217.429 144.869 214.016 147.692 214.016 147.692H214.001Z" fill="#819BEA"/>
<path d="M218.123 135.819C217.645 136.456 217.588 137.238 218.007 137.542C218.426 137.846 219.149 137.585 219.627 136.948C220.104 136.311 220.162 135.529 219.742 135.225C219.323 134.907 218.6 135.182 218.123 135.819Z" fill="#FCBAC0"/>
<path d="M224.933 177.824C224.919 177.94 225.006 178.042 225.093 178.114C225.281 178.259 225.584 178.346 225.917 178.346C226.134 178.346 226.336 178.302 226.51 178.244C226.712 178.158 226.857 178.027 226.871 177.911C226.871 177.882 226.871 168.123 226.871 168.123H224.948V177.839L224.933 177.824Z" fill="#343C6B"/>
<path d="M236.082 155.917L234.926 155.294C234.492 155.062 233.971 155.062 233.552 155.294L220.263 162.374C219.193 162.968 218.311 164.344 217.949 165.994L215.852 175.232C215.679 176.014 216.026 176.825 216.72 177.216L217.891 177.824L217.805 176.623C217.805 176.623 217.906 176.594 217.964 176.565L231.773 168.992C232.843 168.398 233.711 167.022 234.087 165.372L235.923 157.278C235.981 157.002 235.996 156.742 236.01 156.496L236.082 155.917V155.917Z" fill="#343B65"/>
<path d="M236.675 158.436L234.839 166.53C234.477 168.181 233.595 169.556 232.525 170.15L218.716 177.723C217.573 178.36 216.648 176.941 217.038 175.174L218.875 167.08C219.236 165.43 220.118 164.054 221.188 163.46L234.998 155.902C236.14 155.265 237.066 156.684 236.675 158.45V158.436Z" fill="#445393"/>
<path d="M216.286 128.926C217.79 126.87 223.618 125.581 227.623 128.68C227.826 128.839 227.999 129.028 228.23 129.158C229.243 129.694 230.139 130.649 230.718 131.938C231.209 133.053 231.383 134.226 231.282 135.297C231.238 135.804 231.412 136.296 231.744 136.687C232.019 137.006 232.265 137.397 232.467 137.817C233.263 139.598 232.945 141.625 231.773 142.639C231.629 142.769 231.484 142.87 231.325 142.957C231.137 143.058 230.935 143.145 230.718 143.189C230.92 144.564 230.53 145.911 229.648 146.678C229.503 146.809 229.358 146.91 229.199 146.997C227.927 147.692 226.351 147.156 225.353 145.81C225.309 145.839 225.266 145.868 225.208 145.896C223.111 147.04 220.422 145.766 219.193 143.044C218.397 141.277 218.412 139.323 219.106 137.86C219.222 137.629 219.352 137.397 219.496 137.194C218.773 136.47 218.209 135.587 217.819 134.689C217.645 134.298 217.385 133.951 217.009 133.748C216.937 133.705 216.865 133.661 216.807 133.618C215.404 132.619 215.144 130.504 216.301 128.941L216.286 128.926Z" fill="#E06A5B"/>
<path d="M217.993 135.761C217.457 136.47 217.4 137.324 217.862 137.672C218.325 138.019 219.135 137.73 219.655 137.02C220.19 136.311 220.248 135.457 219.786 135.109C219.323 134.762 218.513 135.051 217.993 135.761Z" fill="#FCBAC0"/>
<path d="M163.115 190.899C163.057 193.433 163.014 195.345 163.057 195.808C163.115 196.474 162.898 197.386 162.58 197.763C161.886 198.617 160.527 198.168 159.486 197.85L156.377 196.938C155.234 196.604 154.555 195.707 154.41 194.983C154.41 194.505 154.757 194.099 155.249 194.056L157.693 194.085C158.358 194.128 159.008 193.897 159.486 193.448C159.717 193.245 159.804 192.941 159.76 192.652C159.659 191.928 159.529 190.827 159.356 189.437L163.144 190.118C163.144 190.378 163.13 190.653 163.115 190.899V190.899Z" fill="#FCBAC0"/>
<path d="M170.577 194.259C170.62 195.026 169.998 195.649 169.232 195.62C168.726 195.591 168.335 195.359 168.003 195.055C167.396 194.476 166.745 193.955 166.036 193.52C165.776 193.361 165.545 193.202 165.371 193.057C165.096 192.854 164.879 192.637 164.706 192.434C164.113 191.725 164.127 191.117 164.127 191.117C164.127 191.059 164.156 191.001 164.171 190.943C164.243 190.726 164.388 190.537 164.59 190.422C164.735 190.32 164.908 190.262 165.111 190.262H165.371C165.516 190.262 165.66 190.262 165.805 190.277C166.239 190.291 166.846 190.581 167.265 190.842L166.586 188.221L170.1 189.582C170.114 189.842 170.129 190.089 170.143 190.306C170.172 191.059 170.259 191.812 170.374 192.565C170.432 192.898 170.476 193.245 170.533 193.564C170.533 193.622 170.533 193.665 170.548 193.723C170.548 193.81 170.562 193.868 170.577 193.926C170.591 194.056 170.591 194.201 170.606 194.288L170.577 194.259Z" fill="#FCBAC0"/>
<path d="M170.114 190.407C170.114 190.885 167.656 190.871 166.918 189.611L163.636 177.013C163.491 176.507 163.376 175.985 163.318 175.45C163.289 175.305 163.274 175.146 163.26 175.001H163.347L168.046 173.929V174.204C169.434 178.78 170.129 190.364 170.129 190.407H170.114Z" fill="#343C6B"/>
<path d="M164.113 191.117C164.113 191.117 164.113 192.13 165.357 193.057C165.53 193.187 165.776 193.346 166.022 193.52C166.73 193.969 167.381 194.49 167.988 195.055C168.321 195.374 168.711 195.605 169.218 195.62C169.984 195.663 170.649 195.417 170.562 194.259C170.562 194.186 170.548 194.042 170.533 193.897L170.505 193.708C170.49 193.622 170.505 193.578 170.49 193.535C170.403 193.926 169.969 194.027 169.637 194.013C169.131 193.984 168.697 193.868 168.35 193.549C167.743 192.97 163.376 190.479 166.08 190.306L165.761 190.262C164.46 190.103 164.272 190.537 164.142 190.928C164.127 190.986 164.113 191.059 164.099 191.102L164.113 191.117Z" fill="#343C6B"/>
<path d="M163.086 192.391C162.754 193.202 160.136 193.1 159.674 191.985C159.674 191.985 158.372 182.82 157.823 175.146L163.289 173.408H163.376L163.303 173.871L163.245 174.233C163.462 177.202 163.245 191.971 163.086 192.391V192.391Z" fill="#343B65"/>
<path d="M155.249 194.056H156.825C156.189 194.186 155.928 194.737 156.521 195.229C157.186 195.794 162.927 197.14 163.072 195.808C163.072 196.069 163.072 196.286 163.072 196.387C163.057 196.88 162.913 197.372 162.609 197.763C161.915 198.661 160.556 198.168 159.515 197.85L156.406 196.938C155.263 196.59 154.584 195.707 154.439 194.983C154.439 194.505 154.8 194.1 155.278 194.056H155.249Z" fill="#343C6B"/>
<path d="M166.716 206.132C166.189 206.132 165.761 205.704 165.761 205.176C165.761 204.649 166.189 204.221 166.716 204.221C167.243 204.221 167.67 204.649 167.67 205.176C167.67 205.704 167.243 206.132 166.716 206.132Z" fill="#343C6B"/>
<path d="M184.155 206.132C183.628 206.132 183.201 205.704 183.201 205.176C183.201 204.649 183.628 204.221 184.155 204.221C184.682 204.221 185.11 204.649 185.11 205.176C185.11 205.704 184.682 206.132 184.155 206.132Z" fill="#343C6B"/>
<path d="M167.685 195.185C167.685 195.707 167.265 196.141 166.73 196.141C166.195 196.141 165.776 195.721 165.776 195.185C165.776 194.65 166.195 194.23 166.73 194.23C167.265 194.23 167.685 194.65 167.685 195.185Z" fill="#343C6B"/>
<path d="M185.095 195.185C185.095 195.707 184.676 196.141 184.141 196.141C183.606 196.141 183.186 195.721 183.186 195.185C183.186 194.65 183.606 194.23 184.141 194.23C184.676 194.23 185.095 194.65 185.095 195.185Z" fill="#343C6B"/>
<path d="M184.907 194.172L179.398 197.357V198.516L184.907 195.33C185.717 194.852 186.064 193.897 185.804 193.028C185.659 193.491 185.355 193.911 184.907 194.172Z" fill="#343C6B"/>
<path d="M165.978 194.172C165.53 193.911 165.226 193.491 165.082 193.028C164.822 193.897 165.169 194.852 165.978 195.33L171.488 198.516V197.357L165.978 194.172Z" fill="#343C6B"/>
<path d="M185.63 203.236C185.269 203.873 184.603 204.221 183.909 204.221C183.577 204.221 183.23 204.134 182.926 203.96L175.436 199.631L167.945 203.96C167.627 204.134 167.294 204.221 166.962 204.221C166.282 204.221 165.617 203.859 165.241 203.236C165.169 203.106 165.111 202.961 165.067 202.831C164.908 203.337 164.952 203.902 165.241 204.394C165.602 205.032 166.268 205.379 166.962 205.379C167.294 205.379 167.641 205.292 167.945 205.118L175.436 200.789L182.926 205.118C183.244 205.292 183.577 205.379 183.909 205.379C184.589 205.379 185.254 205.017 185.63 204.394C185.919 203.902 185.963 203.337 185.804 202.831C185.76 202.975 185.702 203.106 185.63 203.236V203.236Z" fill="#343C6B"/>
<path d="M166.962 204.235C167.294 204.235 167.641 204.148 167.945 203.975L175.436 199.645L182.926 203.975C183.244 204.148 183.577 204.235 183.909 204.235C184.589 204.235 185.254 203.873 185.63 203.251C185.702 203.12 185.76 202.975 185.804 202.845C185.659 202.382 185.355 201.962 184.907 201.701L179.398 198.516V197.357L184.907 194.172C185.355 193.911 185.659 193.491 185.804 193.028C185.76 192.883 185.702 192.753 185.63 192.622C185.081 191.681 183.866 191.348 182.926 191.898L175.436 196.228L167.945 191.898C166.991 191.348 165.79 191.681 165.241 192.622C165.169 192.753 165.111 192.897 165.067 193.028C165.212 193.491 165.516 193.911 165.964 194.172L171.473 197.357V198.516L165.964 201.701C165.516 201.962 165.212 202.382 165.067 202.845C165.111 202.99 165.169 203.12 165.241 203.251C165.602 203.888 166.268 204.235 166.962 204.235Z" fill="#424E7F"/>
<path d="M177.055 193.651C177.026 193.868 176.795 194.114 176.448 194.259C176.159 194.375 175.826 194.432 175.464 194.432C174.915 194.432 174.409 194.288 174.091 194.041C173.961 193.94 173.83 193.752 173.816 193.622V197.632C173.787 197.835 173.946 198.009 174.091 198.11C174.409 198.356 174.915 198.501 175.464 198.501C175.826 198.501 176.159 198.443 176.448 198.328C176.795 198.183 177.012 197.98 177.041 197.763C177.041 197.719 177.041 197.676 177.041 197.632C177.041 197.632 177.055 193.607 177.041 193.651H177.055Z" fill="#343C6B"/>
<path d="M176.448 194.259C176.158 194.375 175.826 194.432 175.464 194.432C174.915 194.432 174.409 194.288 174.091 194.042C173.96 193.94 173.801 193.766 173.83 193.564C173.859 193.346 174.076 193.144 174.423 192.999C174.712 192.883 175.045 192.825 175.406 192.825C175.956 192.825 176.462 192.97 176.78 193.216C176.91 193.318 177.069 193.491 177.04 193.694C177.012 193.911 176.795 194.114 176.448 194.259Z" fill="#343B65"/>
<path d="M174.481 193.448C174.467 193.564 174.553 193.665 174.64 193.737C174.828 193.882 175.132 193.969 175.464 193.969C175.681 193.969 175.884 193.926 176.057 193.868C176.26 193.781 176.404 193.65 176.419 193.535C176.419 193.506 176.419 183.746 176.419 183.746H174.496V193.462L174.481 193.448Z" fill="#343C6B"/>
<path d="M190.561 181.821V180.459L189.939 180.43C189.78 180.271 189.607 180.112 189.39 179.996L179.658 174.378C178.212 173.538 176.419 173.538 174.958 174.378L161.467 182.125C161.134 182.313 160.874 182.573 160.686 182.849L160.295 182.762V184.166C160.295 184.963 160.671 185.759 161.467 186.208L171.199 191.826C172.645 192.666 174.438 192.666 175.898 191.826L189.39 184.079C190.243 183.587 190.633 182.689 190.561 181.821V181.821Z" fill="#343B65"/>
<path d="M189.404 178.476L179.672 172.858C178.226 172.018 176.433 172.018 174.973 172.858L161.481 180.604C159.905 181.502 159.905 183.775 161.481 184.688L171.213 190.306C172.659 191.146 174.452 191.146 175.913 190.306L189.404 182.559C190.98 181.661 190.98 179.388 189.404 178.476V178.476Z" fill="#424E7F"/>
<path d="M175.754 173.017L173.411 182.125C172.355 181.574 171.372 180.908 170.461 180.126C168.061 178.085 165.198 175.652 163.462 174.19C162.508 173.393 162.161 172.105 162.537 170.917C163.13 169.151 165.14 168.325 166.788 169.165L173.599 172.64C174.279 173.031 175.031 173.147 175.754 173.017V173.017Z" fill="#343C6B"/>
<path d="M157.982 174.016C157.591 175.189 157.953 176.492 158.893 177.288C160.628 178.751 163.491 181.183 165.892 183.225C169.29 186.107 173.758 187.497 178.154 186.845C179.831 186.599 184.82 184.76 185.89 181.748C186.368 180.416 186.194 178.389 185.89 176.811C185.688 175.667 185.601 174.537 185.572 173.683C185.543 172.611 184.95 171.641 184.011 171.134C181.538 169.802 176.694 168.195 173.801 173.741C173.715 173.915 173.585 174.175 173.426 174.479C172.601 176.087 170.606 176.666 169.044 175.768L162.219 172.293C160.57 171.453 158.56 172.278 157.967 174.03L157.982 174.016Z" fill="#343B65"/>
<path d="M186.686 165.676C186.093 172.467 185.876 175.29 185.572 175.595C182.174 179.128 177.084 179.229 173.801 177.39C173.093 176.999 172.746 176.159 172.948 175.363C173.18 174.451 173.498 173.162 173.744 171.989C173.758 171.917 173.773 171.844 173.773 171.786C174.004 170.57 173.946 169.325 173.628 168.137C173.613 168.065 173.599 167.993 173.57 167.92C172.616 167.37 171.979 166.342 171.979 165.169C171.979 164.764 172.052 164.373 172.196 164.011L170.678 159.247L170.649 159.131C170.794 158.002 171.213 157.162 171.878 156.438C172.543 155.714 173.411 155.091 174.496 154.44C174.539 154.425 174.582 154.382 174.626 154.367C174.843 154.237 175.06 154.107 175.276 153.976L175.508 153.831L176.043 153.527L176.636 153.194L178.414 152.166L178.848 151.92L179.094 151.79C179.268 151.79 179.455 151.862 179.658 151.949C180.135 152.152 180.757 152.456 180.873 152.398C181.335 152.195 181.784 152.094 182.232 152.036C183.418 151.877 184.618 152.152 185.5 152.905C186.642 153.86 186.859 155.366 186.96 156.583C187.308 160.68 186.83 163.692 186.657 165.69L186.686 165.676Z" fill="#E06A5B"/>
<path d="M175.58 165.676C175.363 168.137 174.221 171.193 173.801 171.786C174.033 170.57 173.975 169.325 173.657 168.137C173.642 168.065 173.628 167.993 173.599 167.92C172.645 167.37 172.008 166.342 172.008 165.169C172.008 164.764 172.081 164.373 172.225 164.011L171.82 162.751L175.161 160.478C175.739 161.969 175.725 164.025 175.58 165.676Z" fill="#BA574A"/>
<path d="M173.339 148.894C174.149 152.282 176.433 152.528 178.53 151.428C180.873 150.197 182.232 147.344 182.29 145.303C182.391 142.175 180.367 140.22 177.778 140.134C171.893 139.931 173.05 147.735 173.339 148.908V148.894Z" fill="#FCBAC0"/>
<path d="M180.916 147.011V153.817C180.916 154.136 180.627 154.44 180.092 154.642C179.166 154.99 177.85 154.903 177.156 154.44C176.882 154.251 176.737 154.034 176.737 153.817V147.011H180.916Z" fill="#FCBAC0"/>
<path d="M174.611 154.439C174.611 154.439 175.06 153.484 175.681 153.209C176.303 152.934 181.003 153.455 180.959 152.716C180.959 152.615 180.511 152.398 180.511 152.398V151.775C180.511 151.775 181.22 152.05 181.465 152.253C181.914 152.615 182.246 153.542 181.61 154.193C179.803 156.09 174.611 154.439 174.611 154.439Z" fill="#BA574A"/>
<path d="M182.593 147.779C181.841 150.95 179.933 150.704 177.735 150.153C175.334 149.545 174.279 146.331 174.206 144.419C174.105 141.495 176.014 139.656 178.429 139.569C183.938 139.381 182.854 146.678 182.593 147.779V147.779Z" fill="#343C6B"/>
<path d="M183.938 158.508C178.183 153.513 181.61 148.459 180.135 146.794C178.964 145.477 178.472 143.638 179.615 142.016C180.641 140.568 182.593 139.858 184.3 140.915C189.939 144.449 183.128 150.675 183.938 158.508Z" fill="#343C6B"/>
<path d="M177.865 144.709C177.171 145.694 176.101 146.229 175.074 146.215C174.525 146.215 173.975 146.056 173.512 145.723C172.167 144.781 171.965 142.783 173.035 141.263C173.989 139.916 177.691 139.381 178.834 139.569C179.007 139.598 177.258 140.148 177.402 140.249C178.732 141.205 178.949 143.203 177.879 144.709H177.865Z" fill="#343C6B"/>
<path d="M164.099 164.648C162.522 164.17 160.758 163.562 159.804 163.243L159.095 162.997C157.852 162.838 156.116 159.377 155.538 160.477C155.538 160.477 153.673 160.593 154.453 162.432C154.656 162.91 155.668 163.648 156.449 164.068C157.085 164.416 157.548 164.561 158.011 164.648C158.097 164.662 158.17 164.691 158.257 164.705C158.372 164.792 160.556 166.53 163.086 167.949L164.099 164.648V164.648Z" fill="#FCBAC0"/>
<path d="M171.387 157.191C171.387 157.191 165.949 163.504 165.472 164.43C165.4 164.59 161.611 163.706 161.611 163.706C160.628 163.967 159.746 165.516 159.992 166.501C159.992 166.501 164.402 169.701 166.239 169.296C167.179 169.093 175.19 162.447 175.551 160.897L175.045 156.032C174.091 156.307 171.387 157.191 171.387 157.191V157.191Z" fill="#E06A5B"/>
<path d="M174.799 147.272C174.322 147.909 174.264 148.691 174.684 148.995C175.103 149.314 175.826 149.038 176.303 148.401C176.78 147.764 176.838 146.982 176.419 146.678C175.999 146.36 175.276 146.635 174.799 147.272Z" fill="#FCBAC0"/>
<path d="M181.61 189.278C181.596 189.394 181.682 189.495 181.769 189.567C181.957 189.712 182.261 189.799 182.593 189.799C182.81 189.799 183.013 189.756 183.186 189.698C183.389 189.611 183.533 189.481 183.548 189.365C183.548 189.336 183.548 179.576 183.548 179.576H181.625V189.292L181.61 189.278Z" fill="#343C6B"/>
<path d="M192.759 167.355L191.602 166.733C191.168 166.501 190.648 166.501 190.229 166.733L176.939 173.813C175.869 174.407 174.987 175.783 174.626 177.433L172.529 186.671C172.355 187.453 172.702 188.264 173.397 188.655L174.568 189.263L174.481 188.062C174.481 188.062 174.582 188.033 174.64 188.004L188.45 180.431C189.52 179.837 190.388 178.461 190.764 176.811L192.6 168.717C192.658 168.441 192.672 168.181 192.687 167.935L192.759 167.355Z" fill="#343B65"/>
<path d="M193.352 169.875L191.515 177.969C191.154 179.62 190.272 180.995 189.202 181.589L175.392 189.162C174.25 189.799 173.324 188.38 173.715 186.613L175.551 178.519C175.913 176.869 176.795 175.493 177.865 174.899L191.675 167.341C192.817 166.704 193.742 168.123 193.352 169.889V169.875Z" fill="#445393"/>
<defs>
<filter id="filter0_d_2_1159" x="25.0371" y="66.8989" width="264.309" height="179.205" filterUnits="userSpaceOnUse" color-interpolation-filters="sRGB">
<feFlood flood-opacity="0" result="BackgroundImageFix"/>
<feColorMatrix in="SourceAlpha" type="matrix" values="0 0 0 0 0 0 0 0 0 0 0 0 0 0 0 0 0 0 127 0" result="hardAlpha"/>
<feOffset dy="5"/>
<feComposite in2="hardAlpha" operator="out"/>
<feColorMatrix type="matrix" values="0 0 0 0 0.0901961 0 0 0 0 0.419608 0 0 0 0 0.258824 0 0 0 1 0"/>
<feBlend mode="normal" in2="BackgroundImageFix" result="effect1_dropShadow_2_1159"/>
<feBlend mode="normal" in="SourceGraphic" in2="effect1_dropShadow_2_1159" result="shape"/>
</filter>
<clipPath id="clip0_2_1159">
<rect width="99" height="143" fill="white" transform="matrix(-1 0 0 1 156 6)"/>
</clipPath>
<clipPath id="clip1_2_1159">
<rect width="28" height="42" fill="white" transform="translate(57 131)"/>
</clipPath>
</defs>
</svg>
