<svg width="98" height="205" viewBox="0 0 98 205" fill="none" xmlns="http://www.w3.org/2000/svg">
<g clip-path="url(#clip0_122_27214)">
<path d="M7.02 114.94C7.02 116.88 5.45 118.45 3.51 118.45C1.57 118.45 0 116.88 0 114.94C0 113 1.57 111.43 3.51 111.43C5.45 111.43 7.02 113 7.02 114.94Z" fill="#060000"/>
<path d="M37.2104 114.94C37.2104 116.88 35.6404 118.45 33.7004 118.45C31.7604 118.45 30.1904 116.88 30.1904 114.94C30.1904 113 31.7604 111.43 33.7004 111.43C35.6404 111.43 37.2104 113 37.2104 114.94Z" fill="#060000"/>
<path d="M67.3999 114.94C67.3999 116.88 65.8299 118.45 63.8899 118.45C61.9499 118.45 60.3799 116.88 60.3799 114.94C60.3799 113 61.9499 111.43 63.8899 111.43C65.8299 111.43 67.3999 113 67.3999 114.94Z" fill="#060000"/>
<path d="M97.5796 114.94C97.5796 116.88 96.0096 118.45 94.0696 118.45C92.1296 118.45 90.5596 116.88 90.5596 114.94C90.5596 113 92.1296 111.43 94.0696 111.43C96.0096 111.43 97.5796 113 97.5796 114.94Z" fill="#060000"/>
<path d="M7.02 143.57C7.02 145.51 5.45 147.08 3.51 147.08C1.57 147.08 0 145.51 0 143.57C0 141.63 1.57 140.06 3.51 140.06C5.45 140.06 7.02 141.63 7.02 143.57Z" fill="#060000"/>
<path d="M37.2104 143.57C37.2104 145.51 35.6404 147.08 33.7004 147.08C31.7604 147.08 30.1904 145.51 30.1904 143.57C30.1904 141.63 31.7604 140.06 33.7004 140.06C35.6404 140.06 37.2104 141.63 37.2104 143.57Z" fill="#060000"/>
<path d="M67.3999 143.57C67.3999 145.51 65.8299 147.08 63.8899 147.08C61.9499 147.08 60.3799 145.51 60.3799 143.57C60.3799 141.63 61.9499 140.06 63.8899 140.06C65.8299 140.06 67.3999 141.63 67.3999 143.57Z" fill="#060000"/>
<path d="M97.5796 143.57C97.5796 145.51 96.0096 147.08 94.0696 147.08C92.1296 147.08 90.5596 145.51 90.5596 143.57C90.5596 141.63 92.1296 140.06 94.0696 140.06C96.0096 140.06 97.5796 141.63 97.5796 143.57Z" fill="#060000"/>
<path d="M7.02 172.19C7.02 174.13 5.45 175.7 3.51 175.7C1.57 175.7 0 174.13 0 172.19C0 170.25 1.57 168.68 3.51 168.68C5.45 168.68 7.02 170.25 7.02 172.19Z" fill="#060000"/>
<path d="M37.2104 172.19C37.2104 174.13 35.6404 175.7 33.7004 175.7C31.7604 175.7 30.1904 174.13 30.1904 172.19C30.1904 170.25 31.7604 168.68 33.7004 168.68C35.6404 168.68 37.2104 170.25 37.2104 172.19Z" fill="#060000"/>
<path d="M67.3999 172.19C67.3999 174.13 65.8299 175.7 63.8899 175.7C61.9499 175.7 60.3799 174.13 60.3799 172.19C60.3799 170.25 61.9499 168.68 63.8899 168.68C65.8299 168.68 67.3999 170.25 67.3999 172.19Z" fill="#060000"/>
<path d="M97.5796 172.19C97.5796 174.13 96.0096 175.7 94.0696 175.7C92.1296 175.7 90.5596 174.13 90.5596 172.19C90.5596 170.25 92.1296 168.68 94.0696 168.68C96.0096 168.68 97.5796 170.25 97.5796 172.19Z" fill="#060000"/>
<path d="M7.02 200.82C7.02 202.76 5.45 204.33 3.51 204.33C1.57 204.33 0 202.76 0 200.82C0 198.88 1.57 197.31 3.51 197.31C5.45 197.31 7.02 198.88 7.02 200.82Z" fill="#060000"/>
<path d="M37.2104 200.82C37.2104 202.76 35.6404 204.33 33.7004 204.33C31.7604 204.33 30.1904 202.76 30.1904 200.82C30.1904 198.88 31.7604 197.31 33.7004 197.31C35.6404 197.31 37.2104 198.88 37.2104 200.82Z" fill="#060000"/>
<path d="M67.3999 200.82C67.3999 202.76 65.8299 204.33 63.8899 204.33C61.9499 204.33 60.3799 202.76 60.3799 200.82C60.3799 198.88 61.9499 197.31 63.8899 197.31C65.8299 197.31 67.3999 198.88 67.3999 200.82Z" fill="#060000"/>
<path d="M97.5796 200.82C97.5796 202.76 96.0096 204.33 94.0696 204.33C92.1296 204.33 90.5596 202.76 90.5596 200.82C90.5596 198.88 92.1296 197.31 94.0696 197.31C96.0096 197.31 97.5796 198.88 97.5796 200.82Z" fill="#060000"/>
<path d="M7.02 3.51C7.02 5.45 5.45 7.02 3.51 7.02C1.57 7.02 0 5.45 0 3.51C0 1.57 1.57 0 3.51 0C5.45 0 7.02 1.57 7.02 3.51Z" fill="#060000"/>
<path d="M37.2104 3.51C37.2104 5.45 35.6404 7.02 33.7004 7.02C31.7604 7.02 30.1904 5.45 30.1904 3.51C30.1904 1.57 31.7604 0 33.7004 0C35.6404 0 37.2104 1.57 37.2104 3.51Z" fill="#060000"/>
<path d="M67.3999 3.51C67.3999 5.45 65.8299 7.02 63.8899 7.02C61.9499 7.02 60.3799 5.45 60.3799 3.51C60.3799 1.57 61.9499 0 63.8899 0C65.8299 0 67.3999 1.57 67.3999 3.51Z" fill="#060000"/>
<path d="M97.5796 3.51C97.5796 5.45 96.0096 7.02 94.0696 7.02C92.1296 7.02 90.5596 5.45 90.5596 3.51C90.5596 1.57 92.1296 0 94.0696 0C96.0096 0 97.5796 1.57 97.5796 3.51Z" fill="#060000"/>
<path d="M7.02 32.14C7.02 34.08 5.45 35.65 3.51 35.65C1.57 35.65 0 34.08 0 32.14C0 30.2 1.57 28.63 3.51 28.63C5.45 28.63 7.02 30.2 7.02 32.14Z" fill="#060000"/>
<path d="M37.2104 32.14C37.2104 34.08 35.6404 35.65 33.7004 35.65C31.7604 35.65 30.1904 34.08 30.1904 32.14C30.1904 30.2 31.7604 28.63 33.7004 28.63C35.6404 28.63 37.2104 30.2 37.2104 32.14Z" fill="#060000"/>
<path d="M67.3999 32.14C67.3999 34.08 65.8299 35.65 63.8899 35.65C61.9499 35.65 60.3799 34.08 60.3799 32.14C60.3799 30.2 61.9499 28.63 63.8899 28.63C65.8299 28.63 67.3999 30.2 67.3999 32.14Z" fill="#060000"/>
<path d="M97.5796 32.14C97.5796 34.08 96.0096 35.65 94.0696 35.65C92.1296 35.65 90.5596 34.08 90.5596 32.14C90.5596 30.2 92.1296 28.63 94.0696 28.63C96.0096 28.63 97.5796 30.2 97.5796 32.14Z" fill="#060000"/>
<path d="M7.02 60.77C7.02 62.71 5.45 64.28 3.51 64.28C1.57 64.28 0 62.71 0 60.77C0 58.83 1.57 57.26 3.51 57.26C5.45 57.26 7.02 58.83 7.02 60.77Z" fill="#060000"/>
<path d="M37.2104 60.77C37.2104 62.71 35.6404 64.28 33.7004 64.28C31.7604 64.28 30.1904 62.71 30.1904 60.77C30.1904 58.83 31.7604 57.26 33.7004 57.26C35.6404 57.26 37.2104 58.83 37.2104 60.77Z" fill="#060000"/>
<path d="M67.3999 60.77C67.3999 62.71 65.8299 64.28 63.8899 64.28C61.9499 64.28 60.3799 62.71 60.3799 60.77C60.3799 58.83 61.9499 57.26 63.8899 57.26C65.8299 57.26 67.3999 58.83 67.3999 60.77Z" fill="#060000"/>
<path d="M97.5796 60.77C97.5796 62.71 96.0096 64.28 94.0696 64.28C92.1296 64.28 90.5596 62.71 90.5596 60.77C90.5596 58.83 92.1296 57.26 94.0696 57.26C96.0096 57.26 97.5796 58.83 97.5796 60.77Z" fill="#060000"/>
<path d="M7.02 89.39C7.02 91.33 5.45 92.9 3.51 92.9C1.57 92.9 0 91.33 0 89.39C0 87.45 1.57 85.88 3.51 85.88C5.45 85.88 7.02 87.45 7.02 89.39Z" fill="#060000"/>
<path d="M37.2104 89.39C37.2104 91.33 35.6404 92.9 33.7004 92.9C31.7604 92.9 30.1904 91.33 30.1904 89.39C30.1904 87.45 31.7604 85.88 33.7004 85.88C35.6404 85.88 37.2104 87.45 37.2104 89.39Z" fill="#060000"/>
<path d="M67.3999 89.39C67.3999 91.33 65.8299 92.9 63.8899 92.9C61.9499 92.9 60.3799 91.33 60.3799 89.39C60.3799 87.45 61.9499 85.88 63.8899 85.88C65.8299 85.88 67.3999 87.45 67.3999 89.39Z" fill="#060000"/>
<path d="M97.5796 89.39C97.5796 91.33 96.0096 92.9 94.0696 92.9C92.1296 92.9 90.5596 91.33 90.5596 89.39C90.5596 87.45 92.1296 85.88 94.0696 85.88C96.0096 85.88 97.5796 87.45 97.5796 89.39Z" fill="#060000"/>
</g>
<defs>
<clipPath id="clip0_122_27214">
<rect width="97.58" height="204.33" fill="white"/>
</clipPath>
</defs>
</svg>
