<svg width="200" height="30" viewBox="0 0 200 30" fill="none" xmlns="http://www.w3.org/2000/svg">
<path d="M80.8141 15.9811L76.4027 22.3899C76.4027 22.3899 73.9852 25.8036 77.4388 26.2588H82.3199L83.7197 24.0785L79.5662 24.0376C79.5662 24.0376 78.3183 23.9238 79.0274 22.8814L83.7289 15.9766H80.8141V15.9811Z" fill="#E30613"/>
<path d="M84.0376 26.2583L91.175 16.0171H94.0899L86.9524 26.2583H84.0376Z" fill="#E30613"/>
<path d="M89.2549 26.2586L96.4706 15.981H99.9242V23.473L104.607 15.981H107.522L100.463 26.2586H97.0094V19.4675L92.1743 26.2586H89.2549Z" fill="#E30613"/>
<path d="M112.463 18.2656C112.463 18.2656 111.058 18.2975 110.547 19.0986C110.031 19.8951 110.565 20.0043 110.565 20.0043H116.427L114.926 22.3348H109.645C109.645 22.3348 108.397 22.4395 107.95 23.1359C107.503 23.8323 107.858 24.0417 108.06 24.0417H113.83L112.403 26.2583H106.624C106.624 26.2583 102.01 26.7044 106.324 19.9998C106.324 19.9998 109.414 16.0171 113.213 16.0171H118.992L117.546 18.2656H112.582" fill="#E30613"/>
<path d="M177.658 18.3159C177.658 18.3159 176.253 18.3478 175.737 19.1489C175.222 19.95 175.756 20.0546 175.756 20.0546H181.618L180.117 22.3851H174.835C174.835 22.3851 173.587 22.4898 173.14 23.1862C172.694 23.8826 173.048 24.092 173.251 24.092H179.021L177.593 26.3086H171.814C171.814 26.3086 167.2 26.7547 171.515 20.0501C171.515 20.0501 174.605 16.0674 178.404 16.0674H184.183L182.737 18.3159H177.773" fill="#E30613"/>
<path d="M137.237 16.0171L135.878 17.9242H129.436C129.436 17.9242 127.884 17.7285 127.028 19.0212C127.028 19.0212 125.978 20.3139 128.308 20.3139H131.297C131.297 20.3139 134.248 20.1591 133.042 22.0754C131.84 23.9916 130.012 25.9033 127.258 26.2583H118.951L120.346 24.2647H127.102C127.102 24.2647 128.032 24.4195 129.119 23.3271C130.205 22.2301 129.234 22.0754 128.612 22.0754H125.274C125.274 22.0754 122.082 22.2165 123.643 19.3762C125.204 16.5314 129.04 16.0216 129.39 16.0216H137.232L137.237 16.0171Z" fill="#E30613"/>
<path d="M162.001 16.0171L160.643 17.9242H154.201C154.201 17.9242 152.649 17.7285 151.793 19.0212C151.793 19.0212 150.743 20.3139 153.073 20.3139H156.061C156.061 20.3139 159.013 20.1591 157.806 22.0754C156.605 23.9916 154.777 25.9033 152.023 26.2583H143.716L145.116 24.2647H151.871C151.871 24.2647 152.801 24.4195 153.888 23.3271C154.975 22.2301 154.003 22.0754 153.381 22.0754H150.043C150.043 22.0754 146.852 22.2165 148.413 19.3762C149.974 16.5314 153.81 16.0216 154.159 16.0216H162.001V16.0171Z" fill="#E30613"/>
<path d="M138.066 15.9399V22.335L135.763 26.2586H138.683L141.519 22.335L149.808 15.9399H146.893L141.519 20V15.9399H138.066Z" fill="#E30613"/>
<path d="M162.752 16.0171L161.306 18.2656H165.17L159.478 26.2583H162.397L168.144 18.2656H171.989L173.435 16.0171H162.752Z" fill="#E30613"/>
<path d="M186.803 16.0173L179.126 26.2586H182.041L186.646 19.6222L184.882 26.2586H187.797L195.243 19.3537L190.523 26.2586H193.438L200 15.9399H196.546L188.414 23.1498L190.256 16.0173H186.803Z" fill="#E30613"/>
<path d="M0 30H10.2088L11.162 28.9121H0.980821L0 30Z" fill="#E30613"/>
<path d="M1.73145 28.0791H11.8896L13.6026 26.1265H3.49048L1.73145 28.0791Z" fill="#E30613"/>
<path d="M6.88867 22.3531H16.9087L19.9341 18.8984H9.99691L6.88867 22.3531Z" fill="#E30613"/>
<path d="M29.4339 8.05184H43.2483L50.3857 0.227539H13.4322L6.17969 8.05184H19.7638L16.5865 11.5794H26.3441L29.4339 8.05184Z" fill="#E30613"/>
<path d="M15.1497 13.1724L10.7476 18.0654H20.6617L24.9487 13.1724H15.1497Z" fill="#E30613"/>
<path d="M4.24121 25.2889H14.3349L16.1768 23.186H6.13839L4.24121 25.2889Z" fill="#E30613"/>
<path d="M61.7826 5.54847H80.8925L84.9217 0H61.6675C60.6314 0 49.253 1.49295 44.6298 9.75876C44.2568 10.4233 43.9851 11.0241 43.7871 11.5794H54.461C53.2131 10.4688 54.6452 8.73464 54.6452 8.73464C57.1779 4.97952 61.7826 5.54847 61.7826 5.54847V5.54847Z" fill="#E30613"/>
<path d="M30.7002 29.7724H55.3358C56.6804 29.604 57.9514 29.3081 59.1486 28.9121H31.3172L30.7002 29.7724V29.7724Z" fill="#E30613"/>
<path d="M60.8617 21.2516C60.4242 21.6841 59.996 22.0436 59.5815 22.3531H68.8878C69.8917 21.2471 70.8034 20.0819 71.6277 18.8984H62.3122C62.326 19.4355 61.93 20.1911 60.8617 21.2516Z" fill="#E30613"/>
<path d="M54.8753 23.9826H34.8444L33.9097 25.2889H65.7702C66.5945 24.6289 67.3727 23.9234 68.1049 23.186H58.2598C56.2844 24.2056 54.8799 23.9826 54.8799 23.9826H54.8753Z" fill="#E30613"/>
<path d="M49.4648 17.6102H59.3651C60.1709 17.6102 61.1794 17.6967 61.7826 18.0654H72.1941C72.2954 17.9152 72.3921 17.7604 72.4888 17.6102C74.082 15.1205 73.2163 13.8324 71.775 13.1724H43.3911C42.8707 17.897 49.4648 17.6102 49.4648 17.6102Z" fill="#E30613"/>
<path d="M31.9111 28.0791H61.2667C62.4731 27.5238 63.6013 26.8638 64.6558 26.1265H33.311L31.9111 28.0791Z" fill="#E30613"/>
<path d="M80.8141 15.9811L76.4027 22.3899C76.4027 22.3899 73.9852 25.8036 77.4388 26.2588H82.3199L83.7197 24.0785L79.5662 24.0376C79.5662 24.0376 78.3183 23.9238 79.0274 22.8814L83.7289 15.9766H80.8141V15.9811Z" fill="#E30613"/>
<path d="M84.0376 26.2583L91.175 16.0171H94.0899L86.9524 26.2583H84.0376Z" fill="#E30613"/>
<path d="M89.2549 26.2586L96.4706 15.981H99.9242V23.473L104.607 15.981H107.522L100.463 26.2586H97.0094V19.4675L92.1743 26.2586H89.2549Z" fill="#E30613"/>
<path d="M112.463 18.2656C112.463 18.2656 111.058 18.2975 110.547 19.0986C110.031 19.8951 110.565 20.0043 110.565 20.0043H116.427L114.926 22.3348H109.645C109.645 22.3348 108.397 22.4395 107.95 23.1359C107.503 23.8323 107.858 24.0417 108.06 24.0417H113.83L112.403 26.2583H106.624C106.624 26.2583 102.01 26.7044 106.324 19.9998C106.324 19.9998 109.414 16.0171 113.213 16.0171H118.992L117.546 18.2656H112.582" fill="#E30613"/>
<path d="M177.658 18.3159C177.658 18.3159 176.253 18.3478 175.737 19.1489C175.222 19.95 175.756 20.0546 175.756 20.0546H181.618L180.117 22.3851H174.835C174.835 22.3851 173.587 22.4898 173.14 23.1862C172.694 23.8826 173.048 24.092 173.251 24.092H179.021L177.593 26.3086H171.814C171.814 26.3086 167.2 26.7547 171.515 20.0501C171.515 20.0501 174.605 16.0674 178.404 16.0674H184.183L182.737 18.3159H177.773" fill="#E30613"/>
<path d="M137.237 16.0171L135.878 17.9242H129.436C129.436 17.9242 127.884 17.7285 127.028 19.0212C127.028 19.0212 125.978 20.3139 128.308 20.3139H131.297C131.297 20.3139 134.248 20.1591 133.042 22.0754C131.84 23.9916 130.012 25.9033 127.258 26.2583H118.951L120.346 24.2647H127.102C127.102 24.2647 128.032 24.4195 129.119 23.3271C130.205 22.2301 129.234 22.0754 128.612 22.0754H125.274C125.274 22.0754 122.082 22.2165 123.643 19.3762C125.204 16.5314 129.04 16.0216 129.39 16.0216H137.232L137.237 16.0171Z" fill="#E30613"/>
<path d="M162.001 16.0171L160.643 17.9242H154.201C154.201 17.9242 152.649 17.7285 151.793 19.0212C151.793 19.0212 150.743 20.3139 153.073 20.3139H156.061C156.061 20.3139 159.013 20.1591 157.806 22.0754C156.605 23.9916 154.777 25.9033 152.023 26.2583H143.716L145.116 24.2647H151.871C151.871 24.2647 152.801 24.4195 153.888 23.3271C154.975 22.2301 154.003 22.0754 153.381 22.0754H150.043C150.043 22.0754 146.852 22.2165 148.413 19.3762C149.974 16.5314 153.81 16.0216 154.159 16.0216H162.001V16.0171Z" fill="#E30613"/>
<path d="M138.066 15.9399V22.335L135.763 26.2586H138.683L141.519 22.335L149.808 15.9399H146.893L141.519 20V15.9399H138.066Z" fill="#E30613"/>
<path d="M162.752 16.0171L161.306 18.2656H165.169L159.478 26.2583H162.397L168.144 18.2656H171.989L173.435 16.0171H162.752Z" fill="#E30613"/>
<path d="M186.803 16.0173L179.126 26.2586H182.041L186.646 19.6222L184.882 26.2586H187.797L195.243 19.3537L190.523 26.2586H193.438L200 15.9399H196.546L188.414 23.1498L190.256 16.0173H186.803Z" fill="#E30613"/>
</svg>
