<svg width="206" height="38" viewBox="0 0 206 38" fill="none" xmlns="http://www.w3.org/2000/svg">
<path d="M202.156 0.806952C199.959 0.211018 197.659 1.29773 196.664 3.36597L183.106 30.3583C182.728 31.1295 181.973 31.5852 181.15 31.5852C180.326 31.5852 179.571 31.0944 179.193 30.3583L165.601 3.40102C164.571 1.33278 162.306 0.28113 160.109 0.842009C157.878 1.40289 156.333 3.43607 156.368 5.7497V34.1442C156.368 35.4763 157.432 36.563 158.736 36.563C160.04 36.563 161.104 35.4763 161.104 34.1442V5.25893C161.104 5.15377 161.07 5.01355 161.242 4.94344C161.413 4.87333 161.448 5.04861 161.482 5.15377L175.04 32.2162C176.79 35.6866 180.944 37.0538 184.342 35.301C185.646 34.635 186.676 33.5483 187.362 32.2162L200.886 5.18882C200.92 5.08365 200.989 4.94344 201.126 4.9785C201.263 5.01355 201.263 5.18882 201.263 5.29399V34.1442C201.263 35.4763 202.327 36.563 203.632 36.563C204.936 36.563 206 35.4763 206 34.1442V5.71464C205.897 3.40102 204.352 1.36783 202.156 0.806952Z" fill="#00B336"/>
<path d="M39.5294 0.981C38.3967 0.350012 36.9894 0.805732 36.3716 1.96254V1.9976L21.5437 31.2334C21.2348 31.7943 20.8229 32.1448 20.411 32.1448C19.9991 32.1448 19.5529 31.7943 19.2783 31.2334L4.45045 1.9976C3.86694 0.840789 2.45966 0.35002 1.32698 0.945954C1.29265 0.945954 1.29265 0.981 1.25833 0.981C0.0913181 1.61199 -0.320568 3.0843 0.262937 4.27617L15.0565 33.0913C16.1549 35.2647 18.18 36.5617 20.411 36.5617C22.6421 36.5617 24.6329 35.2647 25.7656 33.0913L40.6278 4.27617C41.1083 3.04925 40.6621 1.61199 39.5294 0.981Z" fill="#00B336"/>
<path d="M57.4464 0C47.6298 0 39.6324 8.34307 39.6324 18.5791C39.6324 28.8151 47.6298 37.1582 57.4464 37.1582C63.1099 37.1232 68.4301 34.3538 71.7595 29.6565C72.5489 28.5698 72.3087 27.0624 71.2789 26.2561C70.2492 25.4849 68.8076 25.6953 68.0182 26.7119C68.0182 26.7119 68.0182 26.7469 67.9839 26.7469C65.4439 30.2524 61.634 32.4609 57.4464 32.4609C50.9936 32.4609 45.6047 27.3779 44.5064 20.9979H72.9265C74.2308 20.9628 75.2605 19.8761 75.2605 18.5441C75.2605 8.34307 67.2631 0 57.4464 0ZM44.5064 16.581C45.6047 10.201 50.9936 4.6623 57.4464 4.6623C63.8993 4.6623 69.3225 10.201 70.4209 16.581H44.5064Z" fill="#00B336"/>
<path d="M96.1294 0C86.3128 0 78.3154 8.34307 78.3154 18.5791C78.3154 28.8151 86.3128 37.1582 96.1294 37.1582C101.793 37.1232 107.113 34.3538 110.442 29.6565C111.232 28.5698 110.992 27.0624 109.962 26.2561C108.932 25.4849 107.491 25.6953 106.701 26.7119C106.701 26.7119 106.701 26.7469 106.667 26.7469C104.127 30.2524 100.317 32.4609 96.1294 32.4609C89.6766 32.4609 84.2877 27.3779 83.1894 20.9979H111.644C112.948 20.9628 113.978 19.8761 113.978 18.5441C113.978 8.34307 105.98 0 96.1294 0ZM83.1894 16.581C84.2877 10.201 89.6766 4.6623 96.1294 4.6623C102.582 4.6623 108.005 10.201 109.104 16.581H83.1894Z" fill="#00B336"/>
<path d="M138.004 4.1016C136.906 1.99831 134.984 0.736328 132.822 0.736328C130.659 0.736328 128.737 1.99831 127.639 4.1016L112.845 32.9869C112.227 34.1787 112.673 35.616 113.806 36.247C114.149 36.4222 114.527 36.5274 114.904 36.5274C115.797 36.5274 116.586 36.0366 116.998 35.2304L121.151 27.0976H138.21C139.515 27.0976 140.544 26.0109 140.544 24.6788C140.544 23.3467 139.412 22.3652 138.107 22.3652L123.52 22.4003L131.723 5.71412C131.998 5.22335 132.341 4.90786 132.753 4.90786C133.13 4.90786 133.508 5.22335 133.783 5.71412L148.61 35.1953C149.194 36.3521 150.601 36.8429 151.734 36.247C151.768 36.247 151.768 36.2119 151.803 36.2119C152.935 35.5809 153.279 33.8983 152.695 32.7415L138.004 4.1016Z" fill="#00B336"/>
</svg>
