<svg width="211" height="43" viewBox="0 0 211 43" fill="none" xmlns="http://www.w3.org/2000/svg">
<path d="M75.2013 12.1098C75.2013 10.5547 76.4582 9.29678 78.0091 9.29678H90.1685C92.0502 9.29678 93.8215 10.4392 94.5369 12.3039C95.463 14.7238 94.2576 17.4361 91.8468 18.3648L82.424 21.846C79.0038 23.0302 77.1883 26.7645 78.3643 30.1942C78.9793 31.9876 80.2925 33.3413 81.8924 34.0562L99.5227 42.0801V35.9234L84.0998 29.0837C83.8254 28.9633 83.6 28.7299 83.4947 28.4228C83.2938 27.8357 83.6049 27.1944 84.1905 26.993L93.8558 23.6198C99.1601 21.5782 101.809 15.6107 99.7751 10.2918C98.2022 6.18895 94.3042 3.66829 90.1685 3.66829H78.0091C73.3589 3.66829 69.5883 7.44682 69.5883 12.1098V41.1883H75.2013V12.1098Z" fill="#B1181E"/>
<path d="M106.125 41.1885H111.738V3.66602H106.125V41.1885Z" fill="#B1181E"/>
<path d="M28.6923 3.66702L18.6447 34.9099C18.5173 35.3079 18.1522 35.5585 17.7553 35.5585C17.3584 35.5585 17.013 35.3202 16.866 34.9099L6.81843 3.66702H0.918762L11.5274 36.6493C12.4216 39.4132 14.9746 41.1895 17.7553 41.1895C20.5386 41.1895 23.0842 39.4255 23.9833 36.6493L34.5944 3.66702H28.6923Z" fill="#B1181E"/>
<path d="M145.47 41.1895L155.518 9.94656C155.645 9.54856 156.008 9.29797 156.407 9.29797C156.804 9.29797 157.149 9.53627 157.296 9.9441L167.344 41.1895H173.246L162.635 8.2047C161.741 5.44328 159.188 3.66702 156.407 3.66702C153.624 3.66702 151.078 5.43099 150.179 8.20716L139.568 41.1895H145.47Z" fill="#B1181E"/>
<path d="M46.0623 9.2955H63.8348V3.66701H46.0623C40.8952 3.66701 36.7081 7.86811 36.7081 13.047V31.8095C36.7081 36.9884 40.8952 41.1895 46.0623 41.1895H63.8348V35.561H46.0623C43.997 35.561 42.3211 33.8805 42.3211 31.8095V25.1958H60.0936V19.6607H42.3211V13.047C42.3211 10.9759 43.997 9.2955 46.0623 9.2955Z" fill="#B1181E"/>
<path d="M143.732 3.66702H116.416V9.29551H127.267V41.1895H132.88V9.29551H143.732V3.66702Z" fill="#B1181E"/>
<path d="M194.091 41.1895C200.032 41.1895 204.849 36.3594 204.849 30.4017C204.849 24.444 200.032 19.614 194.091 19.614H184.736C181.894 19.614 179.589 17.3046 179.589 14.4548C179.589 11.6049 181.894 9.29551 184.736 9.29551H202.977V3.66702H184.736C178.795 3.66702 173.978 8.49706 173.978 14.4548C173.978 20.4124 178.795 25.2425 184.736 25.2425L194.091 25.2449C196.933 25.2449 199.236 27.5543 199.236 30.4017C199.236 33.2516 196.933 35.561 194.091 35.561H175.848V41.1895H194.091Z" fill="#B1181E"/>
<path d="M208.722 2.99531L208.893 2.50887L209.513 0.92179H210.081V3.66602H209.613V2.32461L209.623 1.85537L209.471 2.24354L208.925 3.66602H208.518L207.972 2.24354L207.82 1.85537L207.83 2.32461V3.66602H207.362V0.92179H207.93L208.548 2.50887L208.722 2.99531ZM206.147 3.66602H205.659V1.37875H204.848V0.92179H206.967V1.37875H206.147V3.66602Z" fill="#B1181E"/>
</svg>
