<svg width="50" height="50" viewBox="0 0 50 50" fill="none" xmlns="http://www.w3.org/2000/svg">
<path d="M25 50C38.8071 50 50 38.8071 50 25C50 11.1929 38.8071 0 25 0C11.1929 0 0 11.1929 0 25C0 38.8071 11.1929 50 25 50Z" fill="#B73636"/>
<path d="M40.9704 16.9778C40.5889 15.5445 39.4593 14.4149 38.0222 14.0297C35.4222 13.3334 25 13.3334 25 13.3334C25 13.3334 14.5778 13.3334 11.9778 14.0297C10.5444 14.4149 9.41482 15.5408 9.02963 16.9778C8.33334 19.5778 8.33334 25 8.33334 25C8.33334 25 8.33334 30.4223 9.02963 33.0223C9.41111 34.4556 10.5407 35.5852 11.9778 35.9704C14.5778 36.6667 25 36.6667 25 36.6667C25 36.6667 35.4222 36.6667 38.0222 35.9704C39.4556 35.5852 40.5852 34.4593 40.9704 33.0223C41.6667 30.4223 41.6667 25 41.6667 25C41.6667 25 41.6667 19.5778 40.9704 16.9778ZM21.6667 30V20L30.3259 25L21.6667 30V30Z" fill="white"/>
</svg>
